<svg viewBox="0 0 330 200" xmlns="http://www.w3.org/2000/svg"><g><g><g><g><g><line x1="51.41600036621094" y1="177.95999908447266" x2="46.41600036621094" y2="177.95999908447266" style="visibility: inherit;" fill="rgb(0, 0, 0)" stroke="rgb(204, 204, 204)" stroke-width="1px"></line><line x1="51.41600036621094" y1="155.71499919891357" x2="46.41600036621094" y2="155.71499919891357" style="visibility: inherit;" fill="rgb(0, 0, 0)" stroke="rgb(204, 204, 204)" stroke-width="1px"></line><line x1="51.41600036621094" y1="133.4699993133545" x2="46.41600036621094" y2="133.4699993133545" style="visibility: inherit;" fill="rgb(0, 0, 0)" stroke="rgb(204, 204, 204)" stroke-width="1px"></line><line x1="51.41600036621094" y1="111.2249994277954" x2="46.41600036621094" y2="111.2249994277954" style="visibility: inherit;" fill="rgb(0, 0, 0)" stroke="rgb(204, 204, 204)" stroke-width="1px"></line><line x1="51.41600036621094" y1="88.97999954223631" x2="46.41600036621094" y2="88.97999954223631" style="visibility: inherit;" fill="rgb(0, 0, 0)" stroke="rgb(204, 204, 204)" stroke-width="1px"></line><line x1="51.41600036621094" y1="66.73499965667725" x2="46.41600036621094" y2="66.73499965667725" style="visibility: inherit;" fill="rgb(0, 0, 0)" stroke="rgb(204, 204, 204)" stroke-width="1px"></line><line x1="51.41600036621094" y1="44.489999771118164" x2="46.41600036621094" y2="44.489999771118164" style="visibility: inherit;" fill="rgb(0, 0, 0)" stroke="rgb(204, 204, 204)" stroke-width="1px"></line><line x1="51.41600036621094" y1="22.244999885559082" x2="46.41600036621094" y2="22.244999885559082" style="visibility: inherit;" fill="rgb(0, 0, 0)" stroke="rgb(204, 204, 204)" stroke-width="1px"></line><line x1="51.41600036621094" y1="0" x2="46.41600036621094" y2="0" style="visibility: inherit;" fill="rgb(0, 0, 0)" stroke="rgb(204, 204, 204)" stroke-width="1px"></line></g><g transform="translate(41.41600036621094, 0)"><text style="text-anchor: end; visibility: hidden; font-family: &quot;Helvetica Neue&quot;, sans-serif; font-size: 12px; font-weight: 200;" x="0" y="177.95999908447266" dx="0em" dy="0.3em" fill="rgb(50, 49, 63)" stroke="none" stroke-width="1px">-0.2</text><text style="text-anchor: end; visibility: inherit; font-family: &quot;Helvetica Neue&quot;, sans-serif; font-size: 12px; font-weight: 200;" x="0" y="155.71499919891357" dx="0em" dy="0.3em" fill="rgb(50, 49, 63)" stroke="none" stroke-width="1px">0</text><text style="text-anchor: end; visibility: hidden; font-family: &quot;Helvetica Neue&quot;, sans-serif; font-size: 12px; font-weight: 200;" x="0" y="133.4699993133545" dx="0em" dy="0.3em" fill="rgb(50, 49, 63)" stroke="none" stroke-width="1px">0.2</text><text style="text-anchor: end; visibility: inherit; font-family: &quot;Helvetica Neue&quot;, sans-serif; font-size: 12px; font-weight: 200;" x="0" y="111.2249994277954" dx="0em" dy="0.3em" fill="rgb(50, 49, 63)" stroke="none" stroke-width="1px">0.4</text><text style="text-anchor: end; visibility: hidden; font-family: &quot;Helvetica Neue&quot;, sans-serif; font-size: 12px; font-weight: 200;" x="0" y="88.97999954223631" dx="0em" dy="0.3em" fill="rgb(50, 49, 63)" stroke="none" stroke-width="1px">0.6</text><text style="text-anchor: end; visibility: inherit; font-family: &quot;Helvetica Neue&quot;, sans-serif; font-size: 12px; font-weight: 200;" x="0" y="66.73499965667725" dx="0em" dy="0.3em" fill="rgb(50, 49, 63)" stroke="none" stroke-width="1px">0.8</text><text style="text-anchor: end; visibility: hidden; font-family: &quot;Helvetica Neue&quot;, sans-serif; font-size: 12px; font-weight: 200;" x="0" y="44.489999771118164" dx="0em" dy="0.3em" fill="rgb(50, 49, 63)" stroke="none" stroke-width="1px">1</text><text style="text-anchor: end; visibility: inherit; font-family: &quot;Helvetica Neue&quot;, sans-serif; font-size: 12px; font-weight: 200;" x="0" y="22.244999885559082" dx="0em" dy="0.3em" fill="rgb(50, 49, 63)" stroke="none" stroke-width="1px">1.2</text><text style="text-anchor: end; visibility: hidden; font-family: &quot;Helvetica Neue&quot;, sans-serif; font-size: 12px; font-weight: 200;" x="0" y="0" dx="0em" dy="0.3em" fill="rgb(50, 49, 63)" stroke="none" stroke-width="1px">1.4</text></g><line x1="51.41600036621094" y1="0" x2="51.41600036621094" y2="177.95999908447266" fill="rgb(0, 0, 0)" stroke="rgb(204, 204, 204)" stroke-width="1px"></line></g></g><g transform="translate(51, 0)" clip-path="url(#clip_0)"><clipPath id="clip_0"><rect width="278" height="177"></rect></clipPath><g><g><g><line x1="0" y1="0" x2="0" y2="177.95999908447266" fill="rgb(0, 0, 0)" stroke="rgb(60, 60, 60)" stroke-width="1px" opacity="0.25"></line><line x1="30.953777737087673" y1="0" x2="30.953777737087673" y2="177.95999908447266" fill="rgb(0, 0, 0)" stroke="rgb(60, 60, 60)" stroke-width="1px" opacity="0.25"></line><line x1="61.907555474175346" y1="0" x2="61.907555474175346" y2="177.95999908447266" fill="rgb(0, 0, 0)" stroke="rgb(60, 60, 60)" stroke-width="1px" opacity="0.25"></line><line x1="92.86133321126302" y1="0" x2="92.86133321126302" y2="177.95999908447266" fill="rgb(0, 0, 0)" stroke="rgb(60, 60, 60)" stroke-width="1px" opacity="0.25"></line><line x1="123.81511094835069" y1="0" x2="123.81511094835069" y2="177.95999908447266" fill="rgb(0, 0, 0)" stroke="rgb(60, 60, 60)" stroke-width="1px" opacity="0.25"></line><line x1="154.76888868543838" y1="0" x2="154.76888868543838" y2="177.95999908447266" fill="rgb(0, 0, 0)" stroke="rgb(60, 60, 60)" stroke-width="1px" opacity="0.25"></line><line x1="185.72266642252603" y1="0" x2="185.72266642252603" y2="177.95999908447266" fill="rgb(0, 0, 0)" stroke="rgb(60, 60, 60)" stroke-width="1px" opacity="0.25"></line><line x1="216.6764441596137" y1="0" x2="216.6764441596137" y2="177.95999908447266" fill="rgb(0, 0, 0)" stroke="rgb(60, 60, 60)" stroke-width="1px" opacity="0.25"></line><line x1="247.63022189670139" y1="0" x2="247.63022189670139" y2="177.95999908447266" fill="rgb(0, 0, 0)" stroke="rgb(60, 60, 60)" stroke-width="1px" opacity="0.25"></line><line x1="278.58399963378906" y1="0" x2="278.58399963378906" y2="177.95999908447266" fill="rgb(0, 0, 0)" stroke="rgb(60, 60, 60)" stroke-width="1px" opacity="0.25"></line></g><g><line x1="0" y1="177.95999908447266" x2="278.58399963378906" y2="177.95999908447266" fill="rgb(0, 0, 0)" stroke="rgb(60, 60, 60)" stroke-width="1px" opacity="0.25"></line><line x1="0" y1="155.71499919891357" x2="278.58399963378906" y2="155.71499919891357" fill="rgb(0, 0, 0)" stroke="rgb(60, 60, 60)" stroke-width="1px" opacity="0.25"></line><line x1="0" y1="133.4699993133545" x2="278.58399963378906" y2="133.4699993133545" fill="rgb(0, 0, 0)" stroke="rgb(60, 60, 60)" stroke-width="1px" opacity="0.25"></line><line x1="0" y1="111.2249994277954" x2="278.58399963378906" y2="111.2249994277954" fill="rgb(0, 0, 0)" stroke="rgb(60, 60, 60)" stroke-width="1px" opacity="0.25"></line><line x1="0" y1="88.97999954223631" x2="278.58399963378906" y2="88.97999954223631" fill="rgb(0, 0, 0)" stroke="rgb(60, 60, 60)" stroke-width="1px" opacity="0.25"></line><line x1="0" y1="66.73499965667725" x2="278.58399963378906" y2="66.73499965667725" fill="rgb(0, 0, 0)" stroke="rgb(60, 60, 60)" stroke-width="1px" opacity="0.25"></line><line x1="0" y1="44.489999771118164" x2="278.58399963378906" y2="44.489999771118164" fill="rgb(0, 0, 0)" stroke="rgb(60, 60, 60)" stroke-width="1px" opacity="0.25"></line><line x1="0" y1="22.244999885559082" x2="278.58399963378906" y2="22.244999885559082" fill="rgb(0, 0, 0)" stroke="rgb(60, 60, 60)" stroke-width="1px" opacity="0.25"></line><line x1="0" y1="0" x2="278.58399963378906" y2="0" fill="rgb(0, 0, 0)" stroke="rgb(60, 60, 60)" stroke-width="1px" opacity="0.25"></line></g></g></g><g><g><line x1="0" y1="155.71499919891357" x2="278.58399963378906" y2="155.71499919891357" fill="rgb(0, 0, 0)" stroke="rgb(153, 153, 153)" stroke-width="1.5px"></line></g></g><g><g><line x1="30.953777737087673" y1="0" x2="30.953777737087673" y2="177.95999908447266" fill="rgb(0, 0, 0)" stroke="rgb(153, 153, 153)" stroke-width="1.5px"></line></g></g><g><g><g><g><g><path style="fill: none;" stroke="rgb(204, 51, 17)" stroke-width="2px" d="M30.953777737087673,10.120571635155557L34.04915551079644,11.331570681897091L37.14453328450521,21.670237898353207L40.23991105821397,39.7779473225857L43.335288831922746,60.02146254072146L46.43066660563151,82.32114531687509L49.52604437934028,101.15021880849467L52.621422153049046,111.67606603300213L55.716799926757815,118.7228960786974L58.81217770046658,122.86252371940554L61.907555474175346,128.84945729905658L65.00293324788412,130.14977578740928L68.09831102159288,133.70780816452225L71.19368879530164,135.0177751559819L74.28906656901042,138.25988486816655L77.38444434271919,140.48943133061996L80.47982211642794,140.45019110780203L83.57519989013672,143.63326786590721L86.67057766384549,140.92009310682812L89.76595543755425,141.23513129037877L92.86133321126302,141.72142695704935L95.95671098497179,143.20147161447085L99.05208875868055,144.2956147984188L102.14746653238932,145.57522225106268L105.24284430609809,146.44500524823096L108.33822207980685,146.62349489153806L111.43359985351563,148.38433055303454L114.52897762722439,150.21739379705417L117.62435540093315,150.68641658572466L120.71973317464193,151.37515208062146L123.81511094835069,152.11391335418574L126.91048872205945,151.57524518899723L130.00586649576823,148.77371385796695L133.101244269477,150.3380694053566L136.19662204318576,150.68926926597118L139.29199981689453,151.9566443217943L142.38737759060328,151.75768560584905L145.48275536431208,150.45593762171495L148.57813313802083,151.0381271723465L151.67351091172958,152.38780592705416L154.76888868543838,153.24171378400553L157.86426645914713,151.61129610425158L160.95964423285588,150.87051928255678L164.05502200656468,151.32076829637276L167.15039978027343,152.0052322886717L170.2457775539822,151.79672665756573L173.34115532769098,152.7725713971917L176.43653310139973,153.31624112180987L179.5319108751085,152.62228092333038L182.62728864881728,151.06062806647344L185.72266642252603,152.68175464102168L188.8180441962348,153.6698934799987" fill="none"></path></g><g><path style="fill: none;" stroke="rgb(0, 119, 187)" stroke-width="2px" d="M30.953777737087673,11.14056407680755L34.04915551079644,13.33869963146546L37.14453328450521,21.854612338580694L40.23991105821397,39.770577019529014L43.335288831922746,57.43107196933026L46.43066660563151,79.0300778445023L49.52604437934028,95.85789244989871L52.621422153049046,108.3320341467785L55.716799926757815,119.24789339024485L58.81217770046658,124.44641875038064L61.907555474175346,126.48943311719773L65.00293324788412,127.90325109591484L68.09831102159288,130.7503718794546L71.19368879530164,136.18285575433168L74.28906656901042,136.7654667204258L77.38444434271919,140.96753600936026L80.47982211642794,142.99360509204206L83.57519989013672,144.14746397000846L86.67057766384549,141.157792565669L89.76595543755425,143.6669828494968L92.86133321126302,146.41115241156427L95.95671098497179,146.05806773491523L99.05208875868055,146.2972517044639L102.14746653238932,147.2018503774616L105.24284430609809,148.04592000922548L108.33822207980685,148.59143375435596L111.43359985351563,149.85439347078812L114.52897762722439,150.43367034941446L117.62435540093315,149.91930582259897L120.71973317464193,148.9857146578407L123.81511094835069,148.4128350445932L126.91048872205945,150.39483327622938L130.00586649576823,151.37757721073166L133.101244269477,149.75534309164595L136.19662204318576,149.96353579167555L139.29199981689453,150.14338035245652L142.38737759060328,150.51940271257973L145.48275536431208,146.5172463533549L148.57813313802083,147.10832594459615L151.67351091172958,147.83468180731836L154.76888868543838,147.1127537497581L157.86426645914713,147.69151890354806L160.95964423285588,149.47559413179957L164.05502200656468,150.43658429290545L167.15039978027343,151.18033154358537L170.2457775539822,151.68886106428235L173.34115532769098,151.61321125453148L176.43653310139973,150.59370624537868L179.5319108751085,151.08058059801655L182.62728864881728,148.24795359793936L185.72266642252603,148.69096199475732L188.8180441962348,150.19985547431656" fill="none"></path></g><g><path style="fill: none;" stroke="rgb(255, 112, 67)" stroke-width="2px" d="M30.953777737087673,11.229532323525063L34.04915551079644,18.650765255777458L37.14453328450521,33.669513783604145L40.23991105821397,53.01594605879501L43.335288831922746,68.35733484011992L46.43066660563151,86.04061904413955L49.52604437934028,100.39672541022729L52.621422153049046,113.08604112614168L55.716799926757815,119.362237746143L58.81217770046658,123.90910279516996L61.907555474175346,126.13327497364874L65.00293324788412,127.67413469601772L68.09831102159288,133.1819189796227L71.19368879530164,134.5487463675998L74.28906656901042,135.73934632533272L77.38444434271919,134.62198541789445L80.47982211642794,136.67481770144224L83.57519989013672,138.6126662211068L86.67057766384549,136.57091441373487L89.76595543755425,134.56162338832493L92.86133321126302,136.01205444133933L95.95671098497179,139.67540139456113L99.05208875868055,140.3541311386678L102.14746653238932,141.99953064424326L105.24284430609809,143.2768136054284L108.33822207980685,140.6840227163127L111.43359985351563,142.24339604293613L114.52897762722439,142.3446962311306L117.62435540093315,142.5703921367521L120.71973317464193,145.60344507143964L123.81511094835069,145.72166564555997L126.91048872205945,146.94235189430543L130.00586649576823,145.73887841529262L133.101244269477,146.38865825024783L136.19662204318576,145.02932253754255L139.29199981689453,147.63996209478924L142.38737759060328,146.86862672078198L145.48275536431208,146.15010178638585L148.57813313802083,147.0167968758567L151.67351091172958,146.4642377377585L154.76888868543838,147.67355953070125L157.86426645914713,147.72658531075652L160.95964423285588,147.64672308872022L164.05502200656468,146.90910030572493L167.15039978027343,147.28059802670725L170.2457775539822,146.1000106340678L173.34115532769098,147.52625935380334L176.43653310139973,147.32198441062775L179.5319108751085,147.40158122271922L182.62728864881728,149.36481911515943L185.72266642252603,150.2584445760253L188.8180441962348,149.01423828028544L191.91342196994358,146.81818973038264L195.00879974365233,147.9468927027211L198.1041775173611,148.17078580113017L201.19955529106988,150.5271475839944L204.29493306477863,151.10058991200162L207.3903108384874,152.1427321102959L210.48568861219618,151.0888686450441L213.58106638590496,152.26298862224604L216.6764441596137,150.8469895020261L219.77182193332249,149.62523061654878L222.86719970703126,151.30762058893464L225.96257748074,147.47488432275856L229.05795525444879,148.93589355792972L232.15333302815756,148.49354119520564L235.2487108018663,148.4857349493122L238.34408857557509,151.0505794650303L241.43946634928386,150.82517755792907L244.5348441229926,150.5175014328666" fill="none"></path></g><g><path style="fill: none;" stroke="rgb(187, 187, 187)" stroke-width="2px" d="M30.953777737087673,12.323443986555617L34.04915551079644,19.128412701651314L37.14453328450521,37.56593536547092L40.23991105821397,64.2863220230231L43.335288831922746,85.20229766930007L46.43066660563151,101.16211299765358L49.52604437934028,111.8930225142081L52.621422153049046,121.62637646724369L55.716799926757815,125.94556799465312L58.81217770046658,129.5923239364228L61.907555474175346,135.9428951712455L65.00293324788412,139.2131935438972L68.09831102159288,142.46424230637524L71.19368879530164,141.63826760760423L74.28906656901042,141.0543252488678L77.38444434271919,140.46645106821182L80.47982211642794,141.18985674790656L83.57519989013672,142.32303172702663L86.67057766384549,144.92927176305997L89.76595543755425,147.8894758865131L92.86133321126302,147.5336310142452L95.95671098497179,147.98854995799968L99.05208875868055,143.69496661727993L102.14746653238932,144.59413084334952L105.24284430609809,146.4646620340185L108.33822207980685,145.64941269034176L111.43359985351563,147.71787695517486L114.52897762722439,145.64824743172846L117.62435540093315,146.30738787273367L120.71973317464193,146.0964786642918L123.81511094835069,147.69453429916302L126.91048872205945,146.66950061704742L130.00586649576823,148.37386569163843L133.101244269477,147.53478942912537L136.19662204318576,150.2870908221279L139.29199981689453,150.35583224316883L142.38737759060328,151.73125490880972L145.48275536431208,151.411777702244L148.57813313802083,150.20079752150434L151.67351091172958,150.91719051496295L154.76888868543838,151.92165809554294L157.86426645914713,150.72793433320382L160.95964423285588,151.18338951112375L164.05502200656468,149.9870699366412L167.15039978027343,150.71497408161633L170.2457775539822,151.2294295365224L173.34115532769098,150.66159801796084L176.43653310139973,150.9799724974771L179.5319108751085,149.81635270548972L182.62728864881728,150.8086308856427L185.72266642252603,151.33609834822425L188.8180441962348,150.32520523516078" fill="none"></path></g><g><path style="fill: none;" stroke="rgb(0, 153, 136)" stroke-width="2px" d="M30.953777737087673,10.543575208185189L34.04915551079644,15.255643816188694L37.14453328450521,21.270579459048122L40.23991105821397,41.908515376034444L43.335288831922746,62.79933935347579L46.43066660563151,83.61196586461575L49.52604437934028,98.8679150166741L52.621422153049046,105.46263411060585L55.716799926757815,109.67753978612728L58.81217770046658,115.44458392791563L61.907555474175346,123.7085004784013L65.00293324788412,127.68794748541308L68.09831102159288,128.54856065790887L71.19368879530164,131.77643080149377L74.28906656901042,136.91362542641687L77.38444434271919,139.42713156860293L80.47982211642794,138.32832730698726L83.57519989013672,140.74043750222825L86.67057766384549,141.58007446452956L89.76595543755425,143.5944207347106L92.86133321126302,145.24857089898728L95.95671098497179,144.16203827471713L99.05208875868055,145.69693457421337L102.14746653238932,144.79317124046125L105.24284430609809,145.83214278326022L108.33822207980685,145.96390380673046L111.43359985351563,146.253262997365L114.52897762722439,145.04739199355936L117.62435540093315,147.20798282350307L120.71973317464193,147.66149010638236L123.81511094835069,147.24046140509301L126.91048872205945,148.43421494462285L130.00586649576823,150.57781682756195L133.101244269477,149.9164908422508L136.19662204318576,149.1212305444745L139.29199981689453,146.90320642015536L142.38737759060328,145.21360231089574L145.48275536431208,144.65813869480456L148.57813313802083,146.21774583197137L151.67351091172958,145.08588772409246L154.76888868543838,147.588078645444L157.86426645914713,148.73665962224317L160.95964423285588,149.23323620585984L164.05502200656468,149.72920362887547L167.15039978027343,148.85533331084758L170.2457775539822,149.65842713974877L173.34115532769098,149.6170215335232L176.43653310139973,151.04932706358656L179.5319108751085,151.72183612616806L182.62728864881728,150.9086293566904L185.72266642252603,152.0714368621618L188.8180441962348,152.79588658736853" fill="none"></path></g><g><path style="fill: none;" stroke="rgb(238, 51, 119)" stroke-width="2px" d="M30.953777737087673,11.310876614674385L34.04915551079644,16.753112993405068L37.14453328450521,27.87229449959517L40.23991105821397,44.22640491960425L43.335288831922746,54.3611232705173L46.43066660563151,69.60424017228436L49.52604437934028,84.35169983751686L52.621422153049046,101.35860331253946L55.716799926757815,110.2558245813942L58.81217770046658,116.94794403464186L61.907555474175346,121.12804981647615L65.00293324788412,124.85654216210443L68.09831102159288,130.46877872640974L71.19368879530164,133.08647215406953L74.28906656901042,137.421435216814L77.38444434271919,139.58810283565143L80.47982211642794,141.4135269165914L83.57519989013672,143.23895117210196L86.67057766384549,141.9986409815076L89.76595543755425,141.37873848064498L92.86133321126302,142.70511401411142L95.95671098497179,144.04424043854948L99.05208875868055,145.61332127316612L102.14746653238932,146.94463686760506L105.24284430609809,148.53068799915386L108.33822207980685,147.41035217337253L111.43359985351563,148.1976237829924L114.52897762722439,149.53756954043143L117.62435540093315,149.7932175697949L120.71973317464193,151.0782593064726L123.81511094835069,150.8084881325431L126.91048872205945,151.82867875294593L130.00586649576823,149.81133525575873L133.101244269477,150.27157460605483L136.19662204318576,149.27745746963075L139.29199981689453,151.23325075086694L142.38737759060328,151.17074738897742L145.48275536431208,149.09318987675405L148.57813313802083,150.7479381646362L151.67351091172958,149.82594641363823L154.76888868543838,150.33971764840226L157.86426645914713,151.87228166428156L160.95964423285588,151.77091764599805L164.05502200656468,150.81684809355824L167.15039978027343,150.07619041209705L170.2457775539822,149.8078949234237L173.34115532769098,150.20045857051932L176.43653310139973,149.78472416631763L179.5319108751085,149.73003978912897L182.62728864881728,151.87928782549102L185.72266642252603,152.9576944297292L188.8180441962348,153.70297488288503" fill="none"></path></g><g><path style="fill: none;" stroke="rgb(51, 187, 238)" stroke-width="2px" d="M30.953777737087673,11.283430374628892L34.04915551079644,14.226078338153684L37.14453328450521,24.316001320154328L40.23991105821397,36.857836751525525L43.335288831922746,44.5475182982407L46.43066660563151,57.47348427499399L49.52604437934028,78.69704645586015L52.621422153049046,97.1305987943658L55.716799926757815,108.23671357876349L58.81217770046658,116.95062299689002L61.907555474175346,122.99597130829954L65.00293324788412,128.36238528978902L68.09831102159288,134.52100969564904L71.19368879530164,136.2242836585642L74.28906656901042,140.600422424912L77.38444434271919,141.45559297429355L80.47982211642794,143.71675423351417L83.57519989013672,145.32481944695382L86.67057766384549,143.26617674934153L89.76595543755425,141.02986359733157L92.86133321126302,143.00836324849283L95.95671098497179,144.56231809135338L99.05208875868055,145.30389652483984L102.14746653238932,147.12765646862397L105.24284430609809,148.50659068942082L108.33822207980685,147.4721994536099L111.43359985351563,149.36255762343646L114.52897762722439,149.73611733699798L117.62435540093315,149.3780578894861L120.71973317464193,150.44675429180487L123.81511094835069,149.17730404811718L126.91048872205945,150.80193486137458L130.00586649576823,149.1518575838159L133.101244269477,149.69912145765085L136.19662204318576,149.11092897791968L139.29199981689453,150.7136661812483L142.38737759060328,150.46920153186207L145.48275536431208,149.38264199447636L148.57813313802083,151.41131222028415L151.67351091172958,149.23707664663323L154.76888868543838,148.83009033501278L157.86426645914713,150.55237416447113L160.95964423285588,150.47901966363517L164.05502200656468,149.11206603952132L167.15039978027343,149.11884195112015L170.2457775539822,149.18520830838997L173.34115532769098,150.31331264365855L176.43653310139973,149.35840611249L179.5319108751085,149.42967235157954L182.62728864881728,151.36451178454905L185.72266642252603,152.63821998812276L188.8180441962348,153.01065733326445" fill="none"></path></g><g><path style="fill: none;" stroke="rgb(204, 51, 17)" stroke-width="2px" d="M30.953777737087673,9.68571446859903L34.04915551079644,14.972538170453731L37.14453328450521,22.864379885501364L40.23991105821397,33.25249375524987L43.335288831922746,41.141179392583865L46.43066660563151,44.759522969545316L49.52604437934028,48.3159541866643L52.621422153049046,54.321469333419046L55.716799926757815,53.12731310845946L58.81217770046658,66.33768662645885L61.907555474175346,73.20091804876314L65.00293324788412,82.18612004966874L68.09831102159288,92.101201612839L71.19368879530164,101.78505353606876L74.28906656901042,104.2021870446259L77.38444434271919,109.32537987976296L80.47982211642794,115.22514735150892L83.57519989013672,113.9256394428638L86.67057766384549,117.67928989579718L89.76595543755425,120.02692973832035L92.86133321126302,118.67005279182851L95.95671098497179,121.01664987293941L99.05208875868055,124.87410705739975L102.14746653238932,131.26531574619113L105.24284430609809,134.2542845006895L108.33822207980685,138.63468831173427L111.43359985351563,133.50513404371753L114.52897762722439,137.91627945605856L117.62435540093315,134.830723142314L120.71973317464193,137.93016086086422L123.81511094835069,141.077179500744L126.91048872205945,142.25852139874584L130.00586649576823,140.60638190177104L133.101244269477,142.6638734238443L136.19662204318576,143.71039138468709L139.29199981689453,144.13730252562425L142.38737759060328,142.4033130480163L145.48275536431208,144.40652939787728L148.57813313802083,145.4638427098724L151.67351091172958,144.45697139380118L154.76888868543838,143.6429624339645L157.86426645914713,145.30082618148802L160.95964423285588,144.0587335420193L164.05502200656468,147.6228388755705L167.15039978027343,147.41203030251813L170.2457775539822,147.84254836926067L173.34115532769098,147.76797377434988L176.43653310139973,145.81815367407722L179.5319108751085,144.89429030637018L182.62728864881728,146.60624163969956L185.72266642252603,147.36929558120002L188.8180441962348,149.29486535398425" fill="none"></path></g><g><path style="fill: none;" stroke="rgb(0, 119, 187)" stroke-width="2px" d="M30.953777737087673,14.069038112502113L34.04915551079644,17.86247808289602L37.14453328450521,24.543445223946037L40.23991105821397,31.950268376792167L43.335288831922746,41.069706848367076L46.43066660563151,45.2179901464726L49.52604437934028,52.750058595999505L52.621422153049046,63.251958987229074L55.716799926757815,76.77894184394374L58.81217770046658,85.21315756679955L61.907555474175346,93.17289894031079L65.00293324788412,104.47605650381895L68.09831102159288,107.03993033716516L71.19368879530164,117.3033293516048L74.28906656901042,122.4068588546407L77.38444434271919,127.73959385743873L80.47982211642794,132.04324364968267L83.57519989013672,134.82142538911947L86.67057766384549,135.88606133960482L89.76595543755425,138.70453351762583L92.86133321126302,140.55520331904336L95.95671098497179,143.26163819725096L99.05208875868055,143.3487299836345L102.14746653238932,144.1401209971096L105.24284430609809,144.31774836331977L108.33822207980685,144.93036305355932L111.43359985351563,147.1495610282728L114.52897762722439,146.5925218079625L117.62435540093315,148.32202082684717L120.71973317464193,148.00844931522752L123.81511094835069,147.80469689874025L126.91048872205945,149.04361002780396L130.00586649576823,150.08945735363952L133.101244269477,150.3420437693648L136.19662204318576,151.16718527638173L139.29199981689453,151.70939715613L142.38737759060328,152.23075200726578L145.48275536431208,148.83353896106027L148.57813313802083,150.09025275785825L151.67351091172958,150.83288471219896L154.76888868543838,150.64569628877112L157.86426645914713,151.67031232185997L160.95964423285588,152.0255756699656L164.05502200656468,152.57733111385085L167.15039978027343,153.2318811624061L170.2457775539822,153.69282371639758L173.34115532769098,153.87463073210256L176.43653310139973,153.7098749293025L179.5319108751085,153.43796387140569L182.62728864881728,153.66980074269713L185.72266642252603,153.48718051744154L188.8180441962348,153.75333294785779" fill="none"></path></g><g><path style="fill: none;" stroke="rgb(255, 112, 67)" stroke-width="2px" d="M30.953777737087673,12.384886438908666L34.04915551079644,16.098241728203675L37.14453328450521,24.623949053480658L40.23991105821397,43.33805062445845L43.335288831922746,62.957583019927256L46.43066660563151,81.74080982926056L49.52604437934028,94.01801444411072L52.621422153049046,100.2164944299203L55.716799926757815,109.03475541537964L58.81217770046658,116.2500983907193L61.907555474175346,123.52483221226441L65.00293324788412,122.89603849732413L68.09831102159288,124.68351755894159L71.19368879530164,128.33186581330835L74.28906656901042,132.39920869017442L77.38444434271919,131.91398898547817L80.47982211642794,128.7162877686803L83.57519989013672,129.53243258734832L86.67057766384549,132.62573961586526L89.76595543755425,136.1449333344127L92.86133321126302,137.1485125596235L95.95671098497179,136.78437249474314L99.05208875868055,139.3517390417794L102.14746653238932,138.924979459105L105.24284430609809,138.9613230936906L108.33822207980685,138.7850120980139L111.43359985351563,139.566155162688L114.52897762722439,142.45757760592107L117.62435540093315,143.97788014506008L120.71973317464193,145.96511568811297L123.81511094835069,147.1695385493581L126.91048872205945,147.851378971858L130.00586649576823,148.9345683476937L133.101244269477,150.6518273804418L136.19662204318576,150.07885701248574L139.29199981689453,149.76721507468866L142.38737759060328,148.23789363939827L145.48275536431208,147.82809235792826L148.57813313802083,149.1792201291218L151.67351091172958,149.93911892542505L154.76888868543838,150.58833542065545L157.86426645914713,151.71007456838151L160.95964423285588,151.26315011638906L164.05502200656468,151.351851591L167.15039978027343,149.9201115576628L170.2457775539822,150.64329703552914L173.34115532769098,150.96977352920706L176.43653310139973,151.77682404499214L179.5319108751085,152.56260591208058L182.62728864881728,152.25483011935023L185.72266642252603,152.98111111022916L188.8180441962348,153.41587176810668" fill="none"></path></g></g></g></g><g opacity="0.2"><g><g><g><path style="fill: none;" stroke="rgb(204, 51, 17)" stroke-width="2px" d="M30.953777737087673,10.120571635155557L34.04915551079644,12.058170109942012L37.14453328450521,31.59535842615105L40.23991105821397,61.07261360548313L43.335288831922746,86.45139600951956L46.43066660563151,113.16963448209498L49.52604437934028,128.07609516668654L52.621422153049046,127.02285233446736L55.716799926757815,129.11560161982982L58.81217770046658,129.00938831709337L61.907555474175346,137.775556621604L65.00293324788412,132.0931772441468L68.09831102159288,139.03323913714755L71.19368879530164,136.98015928146438L74.28906656901042,143.11923845818097L77.38444434271919,143.83217857539648L80.47982211642794,140.3913473787223L83.57519989013672,148.40707482022094L86.67057766384549,136.85074429307596L89.76595543755425,141.70765976996688L92.86133321126302,142.45084378744508L95.95671098497179,145.42148989910325L99.05208875868055,145.93680797239216L102.14746653238932,147.49461827185831L105.24284430609809,147.74967356193807L108.33822207980685,146.89122859532196L111.43359985351563,151.02557953978337L114.52897762722439,152.96698584889978L117.62435540093315,151.38995033669406L120.71973317464193,152.40825494231308L123.81511094835069,153.22205501955082L126.91048872205945,150.76724304839138L130.00586649576823,144.57141719586815L133.101244269477,152.68460261438946L136.19662204318576,151.21606904179959L139.29199981689453,153.85770687284838L142.38737759060328,151.4592475350094L145.48275536431208,148.50331565759785L148.57813313802083,151.91141149505114L151.67351091172958,154.41232405460522L154.76888868543838,154.52257556772034L157.86426645914713,149.1656695865822L160.95964423285588,149.75935405054932L164.05502200656468,151.99614181690174L167.15039978027343,153.0319282769422L170.2457775539822,151.48396821093928L173.34115532769098,154.23633850653937L176.43653310139973,154.1317457087066L179.5319108751085,151.58134062563448L182.62728864881728,148.71814878121964L185.72266642252603,155.1134445028244L188.8180441962348,155.15210173845702" fill="none"></path></g><g><path style="fill: none;" stroke="rgb(0, 119, 187)" stroke-width="2px" d="M30.953777737087673,11.14056407680755L34.04915551079644,14.657580964260205L37.14453328450521,30.029888537411352L40.23991105821397,60.83975148432421L43.335288831922746,80.48861417579081L46.43066660563151,108.90927861198028L49.52604437934028,119.92193658064926L52.621422153049046,126.5194524925895L55.716799926757815,135.3466654778583L58.81217770046658,132.1656230532427L61.907555474175346,129.53542467748218L65.00293324788412,130.01628412898452L68.09831102159288,135.01175671141914L71.19368879530164,144.3209387652018L74.28906656901042,137.63869833224672L77.38444434271919,147.26767631793626L80.47982211642794,146.03185135153038L83.57519989013672,145.87795932231396L86.67057766384549,136.6737409055072L89.76595543755425,147.43053892530764L92.86133321126302,150.52725625788491L95.95671098497179,145.52845233834336L99.05208875868055,146.65602293651665L102.14746653238932,148.5587376711245L105.24284430609809,149.31201845758562L108.33822207980685,149.40970204568475L111.43359985351563,151.7488298138686L114.52897762722439,151.30258477802752L117.62435540093315,149.14775950617812L120.71973317464193,147.58532842668498L123.81511094835069,147.55351581469506L126.91048872205945,153.3678302293323L130.00586649576823,152.85169299516522L133.101244269477,147.3219920292147L136.19662204318576,150.2758248327725L139.29199981689453,150.41314718899048L142.38737759060328,151.0834362469469L145.48275536431208,140.51401185166958L148.57813313802083,147.99494532816587L151.67351091172958,148.92421559897426L154.76888868543838,146.02986166486525L157.86426645914713,148.55966663353666L160.95964423285588,152.15170697288903L164.05502200656468,151.87806953414804L167.15039978027343,152.29595241941195L170.2457775539822,152.45165534524853L173.34115532769098,151.49973653991228L176.43653310139973,149.06444873170668L179.5319108751085,151.810892126957L182.62728864881728,143.99901309788075L185.72266642252603,149.3554745899789L188.8180441962348,152.46319569364448" fill="none"></path></g><g><path style="fill: none;" stroke="rgb(255, 112, 67)" stroke-width="2px" d="M30.953777737087673,11.229532323525063L34.04915551079644,23.103505015128917L37.14453328450521,48.08751237031777L40.23991105821397,75.76735041441941L43.335288831922746,88.38705203301777L46.43066660563151,110.50296708061217L49.52604437934028,120.92618721143458L52.621422153049046,131.58718525737575L55.716799926757815,128.61840867221343L58.81217770046658,130.66066748313472L61.907555474175346,129.44936016340716L65.00293324788412,129.97703898900645L68.09831102159288,141.42561153372162L71.19368879530164,136.59630969242235L74.28906656901042,137.5238467563752L77.38444434271919,132.94673210621858L80.47982211642794,139.75319743693993L83.57519989013672,141.51894698107438L86.67057766384549,133.5085977430146L89.76595543755425,131.54787050736854L92.86133321126302,138.18762147577493L95.95671098497179,145.17030128040187L99.05208875868055,141.372212354493L102.14746653238932,144.46761041128065L105.24284430609809,145.19272896882552L108.33822207980685,136.79484743970795L111.43359985351563,144.58245204286231L114.52897762722439,142.49664635790265L117.62435540093315,142.9089357872865L120.71973317464193,150.15302279714868L123.81511094835069,145.89899646753724L126.91048872205945,148.77338102454792L130.00586649576823,143.93366834044394L133.101244269477,147.36332795613828L136.19662204318576,142.9903190269045L139.29199981689453,151.55592136334116L142.38737759060328,145.71162367170493L145.48275536431208,145.0723143914617L148.57813313802083,148.31683950523563L151.67351091172958,145.6353990324578L154.76888868543838,149.4875422176906L157.86426645914713,147.8061239807756L160.95964423285588,147.52692975572347L164.05502200656468,145.80266613155146L167.15039978027343,147.83784460808423L170.2457775539822,144.32912954529266L173.34115532769098,149.6656324332732L176.43653310139973,147.0155719958759L179.5319108751085,147.5209764408537L182.62728864881728,152.3096759537801L185.72266642252603,151.5988827673133L188.8180441962348,147.14792883668463L191.91342196994358,143.52411690553805L195.00879974365233,149.6399471612258L198.1041775173611,148.50662544874345L201.19955529106988,154.06169025828854L204.29493306477863,151.96075340401217L207.3903108384874,153.70594540773695L210.48568861219618,149.50807344716662L213.58106638590496,154.0241685880488L216.6764441596137,148.72299082169627L219.77182193332249,147.79259228833288L222.86719970703126,153.8312055475134L225.96257748074,141.7257799234945L229.05795525444879,151.12740741068643L232.15333302815756,147.83001265111955L235.2487108018663,148.47402558047202L238.34408857557509,154.89784623860746L241.43946634928386,150.48707469727725L244.5348441229926,150.05598724527286" fill="none"></path></g><g><path style="fill: none;" stroke="rgb(187, 187, 187)" stroke-width="2px" d="M30.953777737087673,12.323443986555617L34.04915551079644,23.21139393070871L37.14453328450521,55.2659571227378L40.23991105821397,95.7094967323045L43.335288831922746,112.51019547307925L46.43066660563151,123.2402831302847L49.52604437934028,127.23839481743332L52.621422153049046,135.81769997096754L55.716799926757815,132.3155365378197L58.81217770046658,135.0073315024263L61.907555474175346,145.41115280978175L65.00293324788412,144.10084428354713L68.09831102159288,147.33020021181284L71.19368879530164,140.4009237298686L74.28906656901042,140.17909811308547L77.38444434271919,139.58505441164672L80.47982211642794,142.2746591464091L83.57519989013672,144.0225064827023L86.67057766384549,148.83823478267232L89.76595543755425,152.32951149731056L92.86133321126302,146.99988322122186L95.95671098497179,148.67091340432975L99.05208875868055,137.25467637551358L102.14746653238932,145.9428665309964L105.24284430609809,149.27044552508679L108.33822207980685,144.42654215149275L111.43359985351563,150.82056805979138L114.52897762722439,142.5438063239277L117.62435540093315,147.29609792707998L120.71973317464193,145.78011496819525L123.81511094835069,150.09161722153723L126.91048872205945,145.1319502978214L130.00586649576823,150.930413100058L133.101244269477,146.2761750954571L136.19662204318576,154.41554279334667L139.29199981689453,150.4589443729577L142.38737759060328,153.79438888599103L145.48275536431208,150.93256189536106L148.57813313802083,148.38432725713977L151.67351091172958,151.99178000275683L154.76888868543838,153.42835946439882L157.86426645914713,148.9373486911313L160.95964423285588,151.8665722776749L164.05502200656468,148.1925905754355L167.15039978027343,151.80683029888988L170.2457775539822,152.00111271880127L173.34115532769098,149.80985074017167L176.43653310139973,151.45753421673362L179.5319108751085,148.07092301754784L182.62728864881728,152.29704815585217L185.72266642252603,152.12729954209013L188.8180441962348,148.80886556557292" fill="none"></path></g><g><path style="fill: none;" stroke="rgb(0, 153, 136)" stroke-width="2px" d="M30.953777737087673,10.543575208185189L34.04915551079644,18.082884980990798L37.14453328450521,27.044917676193222L40.23991105821397,66.1787280144103L43.335288831922746,90.07439913842325L46.43066660563151,112.40332087506636L49.52604437934028,120.68416639930396L52.621422153049046,115.07779785886163L55.716799926757815,115.89370695424299L58.81217770046658,124.00797236407888L61.907555474175346,136.0294221892412L65.00293324788412,133.63546202105096L68.09831102159288,129.8366703653245L71.19368879530164,136.61191228323082L74.28906656901042,144.61337878436285L77.38444434271919,143.1956180626119L80.47982211642794,136.68058589170212L83.57519989013672,144.3579903605724L86.67057766384549,142.8394019977413L89.76595543755425,146.61575602075425L92.86133321126302,147.72970542787598L95.95671098497179,142.5322750911308L99.05208875868055,147.99924871960778L102.14746653238932,143.43753694577137L105.24284430609809,147.3905927128936L108.33822207980685,146.1615447800352L111.43359985351563,146.68730104292598L114.52897762722439,143.23858733914693L117.62435540093315,150.4488670782091L120.71973317464193,148.3417507800547L123.81511094835069,146.60891849277672L126.91048872205945,150.2248450164006L130.00586649576823,153.79321939606757L133.101244269477,148.92450191165346L136.19662204318576,147.92834013198782L139.29199981689453,143.57617029087072L142.38737759060328,142.67919617314726L145.48275536431208,143.82494327582413L148.57813313802083,148.55715652903493L151.67351091172958,143.38810056605658L154.76888868543838,151.3413650224541L157.86426645914713,150.4595310860601L160.95964423285588,149.9781010809264L164.05502200656468,150.47315476318414L167.15039978027343,147.54452783403283L170.2457775539822,150.86306788297534L173.34115532769098,149.55491312418872L176.43653310139973,153.19778535860118L179.5319108751085,152.73059972001764L182.62728864881728,149.68881920249038L185.72266642252603,153.81564812035475L188.8180441962348,153.8825611751734" fill="none"></path></g><g><path style="fill: none;" stroke="rgb(238, 51, 119)" stroke-width="2px" d="M30.953777737087673,11.310876614674385L34.04915551079644,20.018454820643456L37.14453328450521,38.54670874553767L40.23991105821397,63.45883877353492L43.335288831922746,67.59301154946945L46.43066660563151,90.69095836951283L49.52604437934028,105.44080311815398L52.621422153049046,126.15483184539576L55.716799926757815,123.3774977566957L58.81217770046658,126.88496149634508L61.907555474175346,127.36029523744213L65.00293324788412,130.42899038985217L68.09831102159288,138.86880864673975L71.19368879530164,137.00788396162628L74.28906656901042,143.9187842245787L77.38444434271919,142.83657616203612L80.47982211642794,144.15089057970738L83.57519989013672,145.97662408034705L86.67057766384549,140.13836464438992L89.76595543755425,140.44894139089504L92.86133321126302,144.69460457272453L95.95671098497179,146.0528860106812L99.05208875868055,147.96691154632714L102.14746653238932,148.94159448856104L105.24284430609809,150.9097534235044L108.33822207980685,145.72985321242112L111.43359985351563,149.37852918300987L114.52897762722439,151.5474861194576L117.62435540093315,150.17668937835217L120.71973317464193,153.0058212012661L123.81511094835069,150.40383146110787L126.91048872205945,153.3589644805664L130.00586649576823,146.78532025080824L133.101244269477,150.96193359853294L136.19662204318576,147.78628180771855L139.29199981689453,154.16694062228908L142.38737759060328,151.07699234711012L145.48275536431208,145.97685362770494L148.57813313802083,153.23006058724283L151.67351091172958,148.44295879022246L154.76888868543838,151.11037449951812L157.86426645914713,154.17112768625677L160.95964423285588,151.61887161864595L164.05502200656468,149.3857437653117L167.15039978027343,148.96520389009774L170.2457775539822,149.40545169045546L173.34115532769098,150.78930404112603L176.43653310139973,149.16112256003842L179.5319108751085,149.64801322334785L182.62728864881728,155.10315987999064L185.72266642252603,154.57530433607343L188.8180441962348,154.82089556261334" fill="none"></path></g><g><path style="fill: none;" stroke="rgb(51, 187, 238)" stroke-width="2px" d="M30.953777737087673,11.283430374628892L34.04915551079644,15.991667116268559L37.14453328450521,34.00232738287491L40.23991105821397,51.607035218818055L43.335288831922746,54.58716652563203L46.43066660563151,75.35474856859543L49.52604437934028,109.04707995149371L52.621422153049046,124.00689506600946L55.716799926757815,124.61607563401435L58.81217770046658,129.88976292894873L61.907555474175346,132.00916291116695L65.00293324788412,136.38280247411677L68.09831102159288,143.73883732720796L71.19368879530164,138.77585771192867L74.28906656901042,147.15948658758785L77.38444434271919,142.7377456658385L80.47982211642794,147.1075392746805L83.57519989013672,147.7365089795298L86.67057766384549,140.17852631641784L89.76595543755425,137.67559827719677L92.86133321126302,145.97600421961172L95.95671098497179,146.89319922209816L99.05208875868055,146.416249533897L102.14746653238932,149.86327478012495L105.24284430609809,150.5749822197418L108.33822207980685,145.92061701109964L111.43359985351563,152.19809004126785L114.52897762722439,150.2964563338381L117.62435540093315,148.8409690480416L120.71973317464193,152.04979830463077L123.81511094835069,147.27312910354917L126.91048872205945,153.2388807580135L130.00586649576823,146.67674186446402L133.101244269477,150.52001722920383L136.19662204318576,148.22864028360152L139.29199981689453,153.11777194491302L142.38737759060328,150.10250456156496L145.48275536431208,147.75280269848432L148.57813313802083,154.45431754769658L151.67351091172958,145.97572329342287L154.76888868543838,148.21961086839815L157.86426645914713,153.1357999065866L160.95964423285588,150.3689879124342L164.05502200656468,147.06163560394256L167.15039978027343,149.1290058185166L170.2457775539822,149.2847578442844L173.34115532769098,152.00546914645582L176.43653310139973,147.92604631579079L179.5319108751085,149.53657171021146L182.62728864881728,154.2667709339642L185.72266642252603,154.54878229346787L188.8180441962348,153.56931335097423" fill="none"></path></g><g><path style="fill: none;" stroke="rgb(204, 51, 17)" stroke-width="2px" d="M30.953777737087673,9.68571446859903L34.04915551079644,18.144632391566574L37.14453328450521,30.440547931947094L40.23991105821397,45.468915666074054L43.335288831922746,51.440647360687194L46.43066660563151,49.764994740170664L49.52604437934028,53.40170773004394L52.621422153049046,63.077568070332916L55.716799926757815,51.366164629549246L58.81217770046658,85.9535517109166L61.907555474175346,83.43351617835316L65.00293324788412,95.61502597852473L68.09831102159288,106.9414494959843L71.19368879530164,116.2918597468836L74.28906656901042,107.82504605775804L77.38444434271919,117.00655585995227L80.47982211642794,124.07230197525797L83.57519989013672,111.97670752481335L86.67057766384549,123.30919374433128L89.76595543755425,123.5481749185245L92.86133321126302,116.63481178644722L95.95671098497179,124.53646827882926L99.05208875868055,130.6602166753272L102.14746653238932,140.85205306941828L105.24284430609809,138.73771638812633L108.33822207980685,145.20527534788013L111.43359985351563,125.81081576681589L114.52897762722439,144.53299080242283L117.62435540093315,130.20239151393068L120.71973317464193,142.57931572567736L123.81511094835069,145.79770641697803L126.91048872205945,144.0305340107011L130.00586649576823,138.12817285354112L133.101244269477,145.75011055958032L136.19662204318576,145.2801682809753L139.29199981689453,144.77766922602163L142.38737759060328,139.802328858432L145.48275536431208,147.41135390407297L148.57813313802083,147.04981267197613L151.67351091172958,142.9466644230592L154.76888868543838,142.42194899584166L157.86426645914713,147.78762180077874L160.95964423285588,142.19559458371285L164.05502200656468,152.9689968743536L167.15039978027343,147.0958174429944L170.2457775539822,148.4883254693073L173.34115532769098,147.6561118819907L176.43653310139973,142.8934235237777L179.5319108751085,143.50849525484068L182.62728864881728,149.1741686396591L185.72266642252603,148.51387649344144L188.8180441962348,152.18322001314658" fill="none"></path></g><g><path style="fill: none;" stroke="rgb(0, 119, 187)" stroke-width="2px" d="M30.953777737087673,14.069038112502085L34.04915551079644,20.138542065132356L37.14453328450521,30.957173679354128L40.23991105821397,40.66069240453919L43.335288831922746,52.97604571685531L46.43066660563151,50.95655932973989L49.52604437934028,63.52103699191821L52.621422153049046,78.5638305758855L55.716799926757815,96.7286140764478L58.81217770046658,97.73698495800323L61.907555474175346,105.04031673215684L65.00293324788412,121.36928156476804L68.09831102159288,110.87736959427622L71.19368879530164,132.67832080615048L74.28906656901042,130.05615410184288L77.38444434271919,135.73493530374824L80.47982211642794,138.4968971776885L83.57519989013672,138.98799261823197L86.67057766384549,137.48285307876137L89.76595543755425,142.9319841651363L92.86133321126302,143.3311065260394L95.95671098497179,147.3212014581699L99.05208875868055,143.47936594373442L102.14746653238932,145.32719814254116L105.24284430609809,144.5841881501357L108.33822207980685,145.84928247639687L111.43359985351563,150.47835231202367L114.52897762722439,145.75696383268345L117.62435540093315,150.9162677620611L120.71973317464193,147.53809222110428L123.81511094835069,147.49906834157582L126.91048872205945,150.90197947489733L130.00586649576823,151.65822821753972L133.101244269477,150.72092337486052L136.19662204318576,152.4048975014452L139.29199981689453,152.5227149617709L142.38737759060328,153.01278427590324L145.48275536431208,143.73771942328824L148.57813313802083,151.97532344605563L151.67351091172958,151.9468326412282L154.76888868543838,150.36491365400474L157.86426645914713,153.20723637026057L160.95964423285588,152.5584706918676L164.05502200656468,153.40496427943975L167.15039978027343,154.21370623506888L170.2457775539822,154.3842375473129L173.34115532769098,154.14734125564308L176.43653310139973,153.4627412251116L179.5319108751085,153.03009728456962L182.62728864881728,154.01755604962963L185.72266642252603,153.2132501795604L188.8180441962348,154.15256159348021" fill="none"></path></g><g><path style="fill: none;" stroke="rgb(255, 112, 67)" stroke-width="2px" d="M30.953777737087673,12.384886438908666L34.04915551079644,18.326254901780658L37.14453328450521,32.80862808574659L40.23991105821397,65.34583407192832L43.335288831922746,88.57284451545132L46.43066660563151,107.72477446821986L49.52604437934028,111.57461347862031L52.621422153049046,109.25393775463851L55.716799926757815,122.03997750991837L58.81217770046658,126.96404180416698L61.907555474175346,134.37095164424105L65.00293324788412,121.95626979254291L68.09831102159288,127.35889972209682L71.19368879530164,133.79724070082636L74.28906656901042,138.49544199660397L77.38444434271919,131.1865016429628L80.47982211642794,123.9210891034711L83.57519989013672,130.75644259626932L86.67057766384549,137.26522892444896L89.76595543755425,141.42340224398848L92.86133321126302,138.6538263587699L95.95671098497179,136.2381743796065L99.05208875868055,143.20273817415995L102.14746653238932,138.28484514046747L105.24284430609809,139.01583828725398L108.33822207980685,138.52054635638473L111.43359985351563,140.73786776096816L114.52897762722439,146.79470683175617L117.62435540093315,146.25833255335505L120.71973317464193,148.94596790437745L123.81511094835069,148.97617244182607L126.91048872205945,148.8741394699444L130.00586649576823,150.5593522821362L133.101244269477,153.2277158065602L136.19662204318576,149.2194014851761L139.29199981689453,149.29975217602907L142.38737759060328,145.94391151012377L145.48275536431208,147.21339043952744L148.57813313802083,151.2059117783866L151.67351091172958,151.07896711734045L154.76888868543838,151.56216016219932L157.86426645914713,153.39268328862107L160.95964423285588,150.59276343872295L164.05502200656468,151.48490380287802L167.15039978027343,147.77250150802905L170.2457775539822,151.72807525221586L173.34115532769098,151.4594882696934L176.43653310139973,152.98739981862445L179.5319108751085,153.7412787126868L182.62728864881728,151.79316643026095L185.72266642252603,154.0705325965387L188.8180441962348,154.0680127549198" fill="none"></path></g></g></g></g></g></g><g transform="translate(51, 177)" clip-path="url(#clip_1)"><clipPath id="clip_1"><rect width="278" height="22"></rect></clipPath><g><g><line x1="0" y1="0" x2="0" y2="5" style="visibility: inherit;" fill="rgb(0, 0, 0)" stroke="rgb(204, 204, 204)" stroke-width="1px"></line><line x1="30.953777737087673" y1="0" x2="30.953777737087673" y2="5" style="visibility: inherit;" fill="rgb(0, 0, 0)" stroke="rgb(204, 204, 204)" stroke-width="1px"></line><line x1="61.907555474175346" y1="0" x2="61.907555474175346" y2="5" style="visibility: inherit;" fill="rgb(0, 0, 0)" stroke="rgb(204, 204, 204)" stroke-width="1px"></line><line x1="92.86133321126302" y1="0" x2="92.86133321126302" y2="5" style="visibility: inherit;" fill="rgb(0, 0, 0)" stroke="rgb(204, 204, 204)" stroke-width="1px"></line><line x1="123.81511094835069" y1="0" x2="123.81511094835069" y2="5" style="visibility: inherit;" fill="rgb(0, 0, 0)" stroke="rgb(204, 204, 204)" stroke-width="1px"></line><line x1="154.76888868543838" y1="0" x2="154.76888868543838" y2="5" style="visibility: inherit;" fill="rgb(0, 0, 0)" stroke="rgb(204, 204, 204)" stroke-width="1px"></line><line x1="185.72266642252603" y1="0" x2="185.72266642252603" y2="5" style="visibility: inherit;" fill="rgb(0, 0, 0)" stroke="rgb(204, 204, 204)" stroke-width="1px"></line><line x1="216.6764441596137" y1="0" x2="216.6764441596137" y2="5" style="visibility: inherit;" fill="rgb(0, 0, 0)" stroke="rgb(204, 204, 204)" stroke-width="1px"></line><line x1="247.63022189670139" y1="0" x2="247.63022189670139" y2="5" style="visibility: inherit;" fill="rgb(0, 0, 0)" stroke="rgb(204, 204, 204)" stroke-width="1px"></line><line x1="278.58399963378906" y1="0" x2="278.58399963378906" y2="5" style="visibility: inherit;" fill="rgb(0, 0, 0)" stroke="rgb(204, 204, 204)" stroke-width="1px"></line></g><g transform="translate(0, 8)"><text style="text-anchor: middle; visibility: hidden; font-family: &quot;Helvetica Neue&quot;, sans-serif; font-size: 12px; font-weight: 200;" x="0" y="0" dx="0em" dy="0.95em" fill="rgb(50, 49, 63)" stroke="none" stroke-width="1px">-10</text><text style="text-anchor: middle; visibility: inherit; font-family: &quot;Helvetica Neue&quot;, sans-serif; font-size: 12px; font-weight: 200;" x="30.953777737087673" y="0" dx="0em" dy="0.95em" fill="rgb(50, 49, 63)" stroke="none" stroke-width="1px">0</text><text style="text-anchor: middle; visibility: inherit; font-family: &quot;Helvetica Neue&quot;, sans-serif; font-size: 12px; font-weight: 200;" x="61.907555474175346" y="0" dx="0em" dy="0.95em" fill="rgb(50, 49, 63)" stroke="none" stroke-width="1px">10</text><text style="text-anchor: middle; visibility: inherit; font-family: &quot;Helvetica Neue&quot;, sans-serif; font-size: 12px; font-weight: 200;" x="92.86133321126302" y="0" dx="0em" dy="0.95em" fill="rgb(50, 49, 63)" stroke="none" stroke-width="1px">20</text><text style="text-anchor: middle; visibility: inherit; font-family: &quot;Helvetica Neue&quot;, sans-serif; font-size: 12px; font-weight: 200;" x="123.81511094835069" y="0" dx="0em" dy="0.95em" fill="rgb(50, 49, 63)" stroke="none" stroke-width="1px">30</text><text style="text-anchor: middle; visibility: inherit; font-family: &quot;Helvetica Neue&quot;, sans-serif; font-size: 12px; font-weight: 200;" x="154.76888868543838" y="0" dx="0em" dy="0.95em" fill="rgb(50, 49, 63)" stroke="none" stroke-width="1px">40</text><text style="text-anchor: middle; visibility: inherit; font-family: &quot;Helvetica Neue&quot;, sans-serif; font-size: 12px; font-weight: 200;" x="185.72266642252603" y="0" dx="0em" dy="0.95em" fill="rgb(50, 49, 63)" stroke="none" stroke-width="1px">50</text><text style="text-anchor: middle; visibility: inherit; font-family: &quot;Helvetica Neue&quot;, sans-serif; font-size: 12px; font-weight: 200;" x="216.6764441596137" y="0" dx="0em" dy="0.95em" fill="rgb(50, 49, 63)" stroke="none" stroke-width="1px">60</text><text style="text-anchor: middle; visibility: inherit; font-family: &quot;Helvetica Neue&quot;, sans-serif; font-size: 12px; font-weight: 200;" x="247.63022189670139" y="0" dx="0em" dy="0.95em" fill="rgb(50, 49, 63)" stroke="none" stroke-width="1px">70</text><text style="text-anchor: middle; visibility: hidden; font-family: &quot;Helvetica Neue&quot;, sans-serif; font-size: 12px; font-weight: 200;" x="278.58399963378906" y="0" dx="0em" dy="0.95em" fill="rgb(50, 49, 63)" stroke="none" stroke-width="1px">80</text></g><line x1="0" y1="0" x2="278.58399963378906" y2="0" fill="rgb(0, 0, 0)" stroke="rgb(204, 204, 204)" stroke-width="1px"></line></g></g></g></g></svg>