<svg viewBox="0 0 330 200" xmlns="http://www.w3.org/2000/svg"><g><g><g><g><g><line x1="51.41600036621094" y1="177.95999908447266" x2="46.41600036621094" y2="177.95999908447266" style="visibility: inherit;" fill="rgb(0, 0, 0)" stroke="rgb(204, 204, 204)" stroke-width="1px"></line><line x1="51.41600036621094" y1="155.71499919891357" x2="46.41600036621094" y2="155.71499919891357" style="visibility: inherit;" fill="rgb(0, 0, 0)" stroke="rgb(204, 204, 204)" stroke-width="1px"></line><line x1="51.41600036621094" y1="133.46999931335446" x2="46.41600036621094" y2="133.46999931335446" style="visibility: inherit;" fill="rgb(0, 0, 0)" stroke="rgb(204, 204, 204)" stroke-width="1px"></line><line x1="51.41600036621094" y1="111.22499942779542" x2="46.41600036621094" y2="111.22499942779542" style="visibility: inherit;" fill="rgb(0, 0, 0)" stroke="rgb(204, 204, 204)" stroke-width="1px"></line><line x1="51.41600036621094" y1="88.97999954223633" x2="46.41600036621094" y2="88.97999954223633" style="visibility: inherit;" fill="rgb(0, 0, 0)" stroke="rgb(204, 204, 204)" stroke-width="1px"></line><line x1="51.41600036621094" y1="66.73499965667729" x2="46.41600036621094" y2="66.73499965667729" style="visibility: inherit;" fill="rgb(0, 0, 0)" stroke="rgb(204, 204, 204)" stroke-width="1px"></line><line x1="51.41600036621094" y1="44.48999977111819" x2="46.41600036621094" y2="44.48999977111819" style="visibility: inherit;" fill="rgb(0, 0, 0)" stroke="rgb(204, 204, 204)" stroke-width="1px"></line><line x1="51.41600036621094" y1="22.24499988555911" x2="46.41600036621094" y2="22.24499988555911" style="visibility: inherit;" fill="rgb(0, 0, 0)" stroke="rgb(204, 204, 204)" stroke-width="1px"></line><line x1="51.41600036621094" y1="0" x2="46.41600036621094" y2="0" style="visibility: inherit;" fill="rgb(0, 0, 0)" stroke="rgb(204, 204, 204)" stroke-width="1px"></line></g><g transform="translate(41.41600036621094, 0)"><text style="text-anchor: end; visibility: hidden; font-family: &quot;Helvetica Neue&quot;, sans-serif; font-size: 12px; font-weight: 200;" x="0" y="177.95999908447266" dx="0em" dy="0.3em" fill="rgb(50, 49, 63)" stroke="none" stroke-width="1px">0.7</text><text style="text-anchor: end; visibility: inherit; font-family: &quot;Helvetica Neue&quot;, sans-serif; font-size: 12px; font-weight: 200;" x="0" y="155.71499919891357" dx="0em" dy="0.3em" fill="rgb(50, 49, 63)" stroke="none" stroke-width="1px">0.75</text><text style="text-anchor: end; visibility: hidden; font-family: &quot;Helvetica Neue&quot;, sans-serif; font-size: 12px; font-weight: 200;" x="0" y="133.46999931335446" dx="0em" dy="0.3em" fill="rgb(50, 49, 63)" stroke="none" stroke-width="1px">0.8</text><text style="text-anchor: end; visibility: inherit; font-family: &quot;Helvetica Neue&quot;, sans-serif; font-size: 12px; font-weight: 200;" x="0" y="111.22499942779542" dx="0em" dy="0.3em" fill="rgb(50, 49, 63)" stroke="none" stroke-width="1px">0.85</text><text style="text-anchor: end; visibility: hidden; font-family: &quot;Helvetica Neue&quot;, sans-serif; font-size: 12px; font-weight: 200;" x="0" y="88.97999954223633" dx="0em" dy="0.3em" fill="rgb(50, 49, 63)" stroke="none" stroke-width="1px">0.9</text><text style="text-anchor: end; visibility: inherit; font-family: &quot;Helvetica Neue&quot;, sans-serif; font-size: 12px; font-weight: 200;" x="0" y="66.73499965667729" dx="0em" dy="0.3em" fill="rgb(50, 49, 63)" stroke="none" stroke-width="1px">0.95</text><text style="text-anchor: end; visibility: hidden; font-family: &quot;Helvetica Neue&quot;, sans-serif; font-size: 12px; font-weight: 200;" x="0" y="44.48999977111819" dx="0em" dy="0.3em" fill="rgb(50, 49, 63)" stroke="none" stroke-width="1px">1</text><text style="text-anchor: end; visibility: inherit; font-family: &quot;Helvetica Neue&quot;, sans-serif; font-size: 12px; font-weight: 200;" x="0" y="22.24499988555911" dx="0em" dy="0.3em" fill="rgb(50, 49, 63)" stroke="none" stroke-width="1px">1.05</text><text style="text-anchor: end; visibility: hidden; font-family: &quot;Helvetica Neue&quot;, sans-serif; font-size: 12px; font-weight: 200;" x="0" y="0" dx="0em" dy="0.3em" fill="rgb(50, 49, 63)" stroke="none" stroke-width="1px">1.1</text></g><line x1="51.41600036621094" y1="0" x2="51.41600036621094" y2="177.95999908447266" fill="rgb(0, 0, 0)" stroke="rgb(204, 204, 204)" stroke-width="1px"></line></g></g><g transform="translate(51, 0)" clip-path="url(#clip_0)"><clipPath id="clip_0"><rect width="278" height="177"></rect></clipPath><g><g><g><line x1="0" y1="0" x2="0" y2="177.95999908447266" fill="rgb(0, 0, 0)" stroke="rgb(60, 60, 60)" stroke-width="1px" opacity="0.25"></line><line x1="30.953777737087673" y1="0" x2="30.953777737087673" y2="177.95999908447266" fill="rgb(0, 0, 0)" stroke="rgb(60, 60, 60)" stroke-width="1px" opacity="0.25"></line><line x1="61.907555474175346" y1="0" x2="61.907555474175346" y2="177.95999908447266" fill="rgb(0, 0, 0)" stroke="rgb(60, 60, 60)" stroke-width="1px" opacity="0.25"></line><line x1="92.86133321126302" y1="0" x2="92.86133321126302" y2="177.95999908447266" fill="rgb(0, 0, 0)" stroke="rgb(60, 60, 60)" stroke-width="1px" opacity="0.25"></line><line x1="123.81511094835069" y1="0" x2="123.81511094835069" y2="177.95999908447266" fill="rgb(0, 0, 0)" stroke="rgb(60, 60, 60)" stroke-width="1px" opacity="0.25"></line><line x1="154.76888868543838" y1="0" x2="154.76888868543838" y2="177.95999908447266" fill="rgb(0, 0, 0)" stroke="rgb(60, 60, 60)" stroke-width="1px" opacity="0.25"></line><line x1="185.72266642252603" y1="0" x2="185.72266642252603" y2="177.95999908447266" fill="rgb(0, 0, 0)" stroke="rgb(60, 60, 60)" stroke-width="1px" opacity="0.25"></line><line x1="216.6764441596137" y1="0" x2="216.6764441596137" y2="177.95999908447266" fill="rgb(0, 0, 0)" stroke="rgb(60, 60, 60)" stroke-width="1px" opacity="0.25"></line><line x1="247.63022189670139" y1="0" x2="247.63022189670139" y2="177.95999908447266" fill="rgb(0, 0, 0)" stroke="rgb(60, 60, 60)" stroke-width="1px" opacity="0.25"></line><line x1="278.58399963378906" y1="0" x2="278.58399963378906" y2="177.95999908447266" fill="rgb(0, 0, 0)" stroke="rgb(60, 60, 60)" stroke-width="1px" opacity="0.25"></line></g><g><line x1="0" y1="177.95999908447266" x2="278.58399963378906" y2="177.95999908447266" fill="rgb(0, 0, 0)" stroke="rgb(60, 60, 60)" stroke-width="1px" opacity="0.25"></line><line x1="0" y1="155.71499919891357" x2="278.58399963378906" y2="155.71499919891357" fill="rgb(0, 0, 0)" stroke="rgb(60, 60, 60)" stroke-width="1px" opacity="0.25"></line><line x1="0" y1="133.46999931335446" x2="278.58399963378906" y2="133.46999931335446" fill="rgb(0, 0, 0)" stroke="rgb(60, 60, 60)" stroke-width="1px" opacity="0.25"></line><line x1="0" y1="111.22499942779542" x2="278.58399963378906" y2="111.22499942779542" fill="rgb(0, 0, 0)" stroke="rgb(60, 60, 60)" stroke-width="1px" opacity="0.25"></line><line x1="0" y1="88.97999954223633" x2="278.58399963378906" y2="88.97999954223633" fill="rgb(0, 0, 0)" stroke="rgb(60, 60, 60)" stroke-width="1px" opacity="0.25"></line><line x1="0" y1="66.73499965667729" x2="278.58399963378906" y2="66.73499965667729" fill="rgb(0, 0, 0)" stroke="rgb(60, 60, 60)" stroke-width="1px" opacity="0.25"></line><line x1="0" y1="44.48999977111819" x2="278.58399963378906" y2="44.48999977111819" fill="rgb(0, 0, 0)" stroke="rgb(60, 60, 60)" stroke-width="1px" opacity="0.25"></line><line x1="0" y1="22.24499988555911" x2="278.58399963378906" y2="22.24499988555911" fill="rgb(0, 0, 0)" stroke="rgb(60, 60, 60)" stroke-width="1px" opacity="0.25"></line><line x1="0" y1="0" x2="278.58399963378906" y2="0" fill="rgb(0, 0, 0)" stroke="rgb(60, 60, 60)" stroke-width="1px" opacity="0.25"></line></g></g></g><g><g><line x1="0" y1="489.3899974822997" x2="278.58399963378906" y2="489.3899974822997" fill="rgb(0, 0, 0)" stroke="rgb(153, 153, 153)" stroke-width="1.5px"></line></g></g><g><g><line x1="30.953777737087673" y1="0" x2="30.953777737087673" y2="177.95999908447266" fill="rgb(0, 0, 0)" stroke="rgb(153, 153, 153)" stroke-width="1.5px"></line></g></g><g><g><g><g><g><path style="fill: none;" stroke="rgb(204, 51, 17)" stroke-width="2px" d="M30.953777737087673,139.82572114297318L34.04915551079644,189.47973164160334L37.14453328450521,160.09266555660315L40.23991105821397,132.5236554134105L43.335288831922746,97.7869202406476L46.43066660563151,78.75820387318353L49.52604437934028,67.92553237056994L52.621422153049046,64.8554652139928L55.716799926757815,56.62634850025336L58.81217770046658,61.3338402445967L61.907555474175346,60.95062498389751L65.00293324788412,57.53679935464595L68.09831102159288,55.4932661362152L71.19368879530164,54.26885570236294L74.28906656901042,53.534823810279235L77.38444434271919,49.91587324888644L80.47982211642794,50.923550034985055L83.57519989013672,48.34986854645791L86.67057766384549,56.33997475479039L89.76595543755425,57.95575505918566L92.86133321126302,58.92518543268109L95.95671098497179,56.32893260692198L99.05208875868055,57.94908348979783L102.14746653238932,58.92116583079894L105.24284430609809,56.326547641540486L108.33822207980685,54.76978144900097L111.43359985351563,50.657864569340504L114.52897762722439,48.19071713499059L117.62435540093315,46.710429644020024L120.71973317464193,45.82225749850758L123.81511094835069,45.289354336865216L126.91048872205945,44.96961248511926L130.00586649576823,51.13347891623171L133.101244269477,48.4760871820489L136.19662204318576,50.05950785608482L139.29199981689453,47.83170459911963L142.38737759060328,46.495022659646736L145.48275536431208,48.87086912424536L148.57813313802083,47.118521379090424L151.67351091172958,46.06711273449608L154.76888868543838,45.436267548638966L157.86426645914713,51.41347166288321L160.95964423285588,48.64408290537759L164.05502200656468,50.160305263124584L167.15039978027343,47.89218306608629L170.2457775539822,46.53130974801414L173.34115532769098,45.7147857572252L176.43653310139973,45.22487136277141L179.5319108751085,48.10877833733707L182.62728864881728,49.839122522051554L185.72266642252603,47.69947342166785L188.8180441962348,46.415683961444245" fill="none"></path></g><g><path style="fill: none;" stroke="rgb(0, 119, 187)" stroke-width="2px" d="M37.14453328450521,194.14111853361828L40.23991105821397,139.97175450213254L43.335288831922746,115.78779671541452L46.43066660563151,89.20634954993126L49.52604437934028,77.34343518110713L52.621422153049046,73.67399535219909L55.716799926757815,61.88155650597585L58.81217770046658,58.0798016654915L61.907555474175346,59.002941253365904L65.00293324788412,56.36988868934378L68.09831102159288,57.97574169991029L71.19368879530164,55.75756228182237L74.28906656901042,54.42776763925531L77.38444434271919,50.451538754130254L80.47982211642794,48.066519456831315L83.57519989013672,49.8139446621623L86.67057766384549,57.21838473607673L89.76595543755425,52.12684459531873L92.86133321126302,49.072039652533306L95.95671098497179,50.417097015029526L99.05208875868055,51.224120101958334L102.14746653238932,51.708329875180866L105.24284430609809,48.82098962476428L108.33822207980685,50.26645176018829L111.43359985351563,47.95586859970061L114.52897762722439,46.56952021691913L117.62435540093315,48.9155685142037L120.71973317464193,50.32319693934754L123.81511094835069,54.34562982798491L126.91048872205945,50.40337749148773L130.00586649576823,48.03802629038972L133.101244269477,49.796671344256424L136.19662204318576,50.85185834432862L139.29199981689453,51.4849705327627L142.38737759060328,51.86483784164385L145.48275536431208,55.27061384845604L148.57813313802083,54.13622382618166L151.67351091172958,53.45558981443456L154.76888868543838,59.4029206354423L157.86426645914713,53.437752286842L160.95964423285588,49.85865127951905L164.05502200656468,50.88904628752532L167.15039978027343,51.50728329221482L170.2457775539822,48.700369883601155L173.34115532769098,47.01622183854499L176.43653310139973,49.18358862281096L179.5319108751085,50.48400869333949L182.62728864881728,54.44211634685911L185.72266642252603,56.81698093895042L188.8180441962348,55.06404408300048" fill="none"></path></g><g><path style="fill: none;" stroke="rgb(255, 112, 67)" stroke-width="2px" d="M34.04915551079644,179.54891628282414L37.14453328450521,122.8014675951734L40.23991105821397,108.718927550078L43.335288831922746,87.75273665702656L46.43066660563151,79.60087550218728L49.52604437934028,68.42142783472389L52.621422153049046,58.68532751045923L55.716799926757815,56.159598496732116L58.81217770046658,54.66055044735596L61.907555474175346,53.76694380947457L65.00293324788412,59.602435623198176L68.09831102159288,53.54955580123915L71.19368879530164,59.46393497655724L74.28906656901042,56.65089385587382L77.38444434271919,58.14266829031136L80.47982211642794,55.85906995690918L83.57519989013672,54.489158365619005L86.67057766384549,60.02339899572607L89.76595543755425,63.3437275359193L92.86133321126302,58.979996314230505L95.95671098497179,53.18392140806007L99.05208875868055,59.23996741327318L102.14746653238932,59.69569373819246L105.24284430609809,59.96912815112081L108.33822207980685,63.311049333390926L111.43359985351563,58.96048066690474L114.52897762722439,59.527999879476525L117.62435540093315,56.69065440188275L120.71973317464193,51.8103914706781L123.81511094835069,52.0600904351634L126.91048872205945,52.209909792657015L130.00586649576823,58.65551292539588L133.101244269477,56.167163203578795L136.19662204318576,64.20773102081247L139.29199981689453,56.32063843958399L142.38737759060328,57.9440942046208L145.48275536431208,55.740312034224715L148.57813313802083,57.59589835549241L151.67351091172958,58.70925014560713L154.76888868543838,56.199405604986694L157.86426645914713,54.69349888190263L160.95964423285588,53.78995484851599L164.05502200656468,56.42568404038968L167.15039978027343,58.00712155522167L170.2457775539822,58.95598406401568L173.34115532769098,56.347445957947144L176.43653310139973,57.96017870562795L179.5319108751085,58.92781835421327L182.62728864881728,53.15269092092851L185.72266642252603,49.68761446098756L188.8180441962348,50.78642419623108L191.91342196994358,54.62356564856874L195.00879974365233,53.74799490877571L198.1041775173611,53.222652464900406L201.19955529106988,49.729591387386165L204.29493306477863,50.81161035206729L207.3903108384874,48.28296611968727L210.48568861219618,49.94363519144781L213.58106638590496,47.76218102331586L216.6764441596137,52.80901974481313L219.77182193332249,52.65926736652325L222.86719970703126,49.39156032836118L225.96257748074,53.786647327840186L229.05795525444879,53.24584391633951L232.15333302815756,56.09921748062712L235.2487108018663,54.63338600801163L238.34408857557509,50.57603151325425L241.43946634928386,48.14161881639981L244.5348441229926,49.85882680947526" fill="none"></path></g><g><path style="fill: none;" stroke="rgb(187, 187, 187)" stroke-width="2px" d="M34.04915551079644,193.4520610998783L37.14453328450521,149.87812100452513L40.23991105821397,105.09710896158546L43.335288831922746,82.25599594870503L46.43066660563151,69.74367840136993L49.52604437934028,62.62066373715311L52.621422153049046,55.24450704271429L55.716799926757815,54.109117635981235L58.81217770046658,53.435251490327744L61.907555474175346,49.84412229163394L65.00293324788412,47.69780120960891L68.09831102159288,46.413002598058824L71.19368879530164,48.823546080721L74.28906656901042,53.44801313422633L77.38444434271919,49.86379664211739L80.47982211642794,47.71391399040277L83.57519989013672,46.424217321151104L86.67057766384549,45.650483152892804L89.76595543755425,45.186272827917946L92.86133321126302,44.90775749542098L95.95671098497179,44.740652206231545L99.05208875868055,50.99615185613372L102.14746653238932,51.571549359768326L105.24284430609809,51.91678611701437L108.33822207980685,55.30178857522776L111.43359985351563,50.97706862727472L114.52897762722439,57.91581217941864L117.62435540093315,55.72334201945661L120.71973317464193,51.230004126761415L123.81511094835069,51.711858059607366L126.91048872205945,55.17882624251213L130.00586649576823,54.081151212726496L133.101244269477,56.60040193063888L136.19662204318576,51.75624098355608L139.29199981689453,48.84974446860207L142.38737759060328,47.10584657881614L145.48275536431208,49.23736347483978L148.57813313802083,50.51627360738853L151.67351091172958,48.105764069658136L154.76888868543838,46.65945834908214L157.86426645914713,52.1473861429137L160.95964423285588,49.08443159331105L164.05502200656468,50.42451447585418L167.15039978027343,51.22856420523139L170.2457775539822,48.533138431418024L173.34115532769098,50.09373857854453L176.43653310139973,51.03009866678309L179.5319108751085,51.59191471971275L182.62728864881728,51.92900435146571L185.72266642252603,52.13125813051573L188.8180441962348,55.430466009142535" fill="none"></path></g><g><path style="fill: none;" stroke="rgb(0, 153, 136)" stroke-width="2px" d="M30.953777737087673,203.38285988484105L34.04915551079644,173.59044695613633L37.14453328450521,188.7906576340469L40.23991105821397,140.73117408396817L43.335288831922746,105.88042102319885L46.43066660563151,86.78924587712764L49.52604437934028,75.92101782839507L52.621422153049046,69.59812144860204L55.716799926757815,62.66283669740049L58.81217770046658,58.54666864387869L61.907555474175346,52.90352794645838L65.00293324788412,52.715563129015976L68.09831102159288,55.78505798153826L71.19368879530164,54.44383927372924L74.28906656901042,50.46043053370788L77.38444434271919,51.25033668106586L80.47982211642794,58.08092494106387L83.57519989013672,55.82218108634568L86.67057766384549,57.6451308658512L89.76595543755425,55.560857834821675L92.86133321126302,51.132417462862506L95.95671098497179,54.83121029268236L99.05208875868055,50.69469341673275L102.14746653238932,54.5685455366517L105.24284430609809,53.71498041491613L108.33822207980685,56.3807039270104L111.43359985351563,51.62441739664L114.52897762722439,58.304221282024486L117.62435540093315,52.77853064168521L120.71973317464193,49.463117560507015L123.81511094835069,53.8295822463145L126.91048872205945,53.2716048230165L130.00586649576823,49.758962634521595L133.101244269477,54.00708883325021L136.19662204318576,53.378108808772836L139.29199981689453,56.178576444972364L142.38737759060328,61.036712639060184L145.48275536431208,60.77373871328308L148.57813313802083,60.6159543584418L151.67351091172958,54.1655725148898L154.76888868543838,53.47319902801394L157.86426645914713,49.879919323526366L160.95964423285588,50.90180711404629L164.05502200656468,51.514939788169315L167.15039978027343,55.060675004093596L170.2457775539822,54.01026052202603L173.34115532769098,53.38001183282738L176.43653310139973,49.82400700806389L179.5319108751085,47.690404113256875L182.62728864881728,49.58809798760478L185.72266642252603,47.548858701000256L188.8180441962348,46.3253151290439" fill="none"></path></g><g><path style="fill: none;" stroke="rgb(238, 51, 119)" stroke-width="2px" d="M30.953777737087673,139.82572114297318L34.04915551079644,164.65271810538002L37.14453328450521,143.87909487249553L40.23991105821397,131.063232128222L43.335288831922746,124.52634169307896L46.43066660563151,104.27855734997772L49.52604437934028,89.4825064207045L52.621422153049046,71.17805933897371L55.716799926757815,66.81457284380932L58.81217770046658,64.22479544350026L61.907555474175346,62.68098750718029L65.00293324788412,58.57350693278373L68.09831102159288,52.93273683088594L71.19368879530164,55.913689227782925L74.28906656901042,51.34206393554955L77.38444434271919,51.77921720670753L80.47982211642794,52.0414302275649L83.57519989013672,49.020551244647635L86.67057766384549,53.56431875651097L89.76595543755425,53.1124302517822L92.86133321126302,52.84130772310324L95.95671098497179,49.5007405731952L99.05208875868055,50.674309131578084L102.14746653238932,48.200573665892165L105.24284430609809,46.71633988826312L108.33822207980685,45.82580232231081L111.43359985351563,45.29148075496073L114.52897762722439,44.97088816454968L117.62435540093315,47.956389518392626L120.71973317464193,46.56983331295143L123.81511094835069,45.73789978586686L126.91048872205945,45.23873974024096L130.00586649576823,48.117099501227244L133.101244269477,49.84411526985275L136.19662204318576,50.88032469936019L139.29199981689453,48.32419470169836L142.38737759060328,49.968372350829625L145.48275536431208,47.77702331080815L148.57813313802083,46.46221389200289L151.67351091172958,52.029039473466625L154.76888868543838,49.0134235901086L157.86426645914713,47.20405406164167L160.95964423285588,49.29628795722442L164.05502200656468,47.373772682448845L167.15039978027343,52.575974740833516L170.2457775539822,52.51944036413198L173.34115532769098,52.485519738113254L176.43653310139973,52.46516736250281L179.5319108751085,52.452955937136906L182.62728864881728,49.267773470703645L185.72266642252603,47.35666399086017L188.8180441962348,46.20999830296003" fill="none"></path></g><g><path style="fill: none;" stroke="rgb(51, 187, 238)" stroke-width="2px" d="M37.14453328450521,194.1411315220785L40.23991105821397,147.27381945175097L43.335288831922746,133.7059664370065L46.43066660563151,116.27338974697189L49.52604437934028,86.73309454897586L52.621422153049046,69.5471995964673L55.716799926757815,62.63249094580574L58.81217770046658,58.52853503507937L61.907555474175346,56.08210094984477L65.00293324788412,54.6199332687617L68.09831102159288,50.56266079026619L71.19368879530164,54.49238710215869L74.28906656901042,50.48955009588646L77.38444434271919,51.267805131466346L80.47982211642794,48.55622400722464L83.57519989013672,46.92956910978117L86.67057766384549,52.309780445110206L89.76595543755425,58.71566921852063L92.86133321126302,56.203201934877L95.95671098497179,54.695756839312324L99.05208875868055,53.791302480473334L102.14746653238932,50.07076376740011L105.24284430609809,47.83845182236013L108.33822207980685,52.854790781197224L111.43359985351563,49.50887095264886L114.52897762722439,47.501321247211905L117.62435540093315,49.47464899504803L120.71973317464193,47.48078886468559L123.81511094835069,49.46232910128688L126.91048872205945,47.47339721092706L130.00586649576823,52.63574970389213L133.101244269477,52.55530533966579L136.19662204318576,52.5070387226051L139.29199981689453,49.30022310893392L142.38737759060328,50.55398939275483L145.48275536431208,48.12839353509344L148.57813313802083,46.673036026260945L151.67351091172958,52.15553275390873L154.76888868543838,52.267175172070154L157.86426645914713,49.156305010192256L160.95964423285588,50.46763852612936L164.05502200656468,51.25443863544926L167.15039978027343,51.72651870095399L170.2457775539822,48.83191112883915L173.34115532769098,50.273002196992735L176.43653310139973,54.31551244910982L179.5319108751085,53.56316298909111L182.62728864881728,49.93389770187255L185.72266642252603,47.75633852956028L188.8180441962348,46.44980302617964" fill="none"></path></g><g><path style="fill: none;" stroke="rgb(204, 51, 17)" stroke-width="2px" d="M30.953777737087673,171.60427725485394L34.04915551079644,196.43129079107726L37.14453328450521,199.97800971646691L40.23991105821397,157.73036670016143L43.335288831922746,143.0730323267944L46.43066660563151,138.37716170221756L49.52604437934028,135.70389552322345L52.621422153049046,140.61293438447115L55.716799926757815,133.87441854412307L58.81217770046658,113.88909609564543L61.907555474175346,121.11209533197274L65.00293324788412,103.13555915320937L68.09831102159288,95.55672558092725L71.19368879530164,87.83541757051887L74.28906656901042,92.74455854068897L77.38444434271919,86.15230833861973L80.47982211642794,82.19814865647061L83.57519989013672,83.00425963410859L86.67057766384549,77.13176467627656L89.76595543755425,76.78647914202182L92.86133321126302,70.22345464329203L95.95671098497179,72.64153757363685L99.05208875868055,67.7365949391912L102.14746653238932,58.437912811260105L105.24284430609809,56.03659637937966L108.33822207980685,54.59581088954637L111.43359985351563,63.26492836692816L114.52897762722439,55.754952316771266L117.62435540093315,57.60468320243167L120.71973317464193,55.5366649839095L123.81511094835069,54.29585434539456L126.91048872205945,53.55136806762091L130.00586649576823,56.282532101814425L133.101244269477,51.56551903438796L136.19662204318576,51.91316694624447L139.29199981689453,52.12175568953356L142.38737759060328,58.60262019583945L145.48275536431208,56.13542762797783L148.57813313802083,51.477256474855935L151.67351091172958,48.682353789624756L154.76888868543838,56.5389790220878L157.86426645914713,54.89724293209795L160.95964423285588,57.09005689071533L164.05502200656468,52.050034042003375L167.15039978027343,49.02602033333497L170.2457775539822,47.21161210833509L173.34115532769098,49.300822784714654L176.43653310139973,53.732204801751706L179.5319108751085,53.21317840067934L182.62728864881728,49.72390694882665L185.72266642252603,50.80819968893658L188.8180441962348,48.280919721801894" fill="none"></path></g><g><path style="fill: none;" stroke="rgb(0, 119, 187)" stroke-width="2px" d="M30.953777737087673,139.82572114297318L34.04915551079644,159.68731871289867L37.14453328450521,137.39367525782598L40.23991105821397,142.16237236863367L43.335288831922746,120.47408649441954L46.43066660563151,118.59341846547582L49.52604437934028,107.71465963901946L52.621422153049046,98.15349347842191L55.716799926757815,92.52061825457149L58.81217770046658,82.78305839391992L61.907555474175346,83.35720660077368L65.00293324788412,74.14598426521461L68.09831102159288,74.99613387396168L71.19368879530164,62.78411038269613L74.28906656901042,68.180436461554L77.38444434271919,65.05909244230212L80.47982211642794,56.83006247395019L83.57519989013672,58.2498928131013L86.67057766384549,52.74560018687572L89.76595543755425,55.79918288677045L92.86133321126302,51.275410402735886L95.95671098497179,48.56121042532624L99.05208875868055,53.28847471865407L102.14746653238932,56.124809401651234L105.24284430609809,54.648736964109574L108.33822207980685,50.58523515532147L111.43359985351563,48.14713850627166L114.52897762722439,53.03999723926272L117.62435540093315,49.61999699188354L120.71973317464193,50.74585396366312L123.81511094835069,48.24351195472357L126.91048872205945,46.742106961789716L130.00586649576823,45.84126404250404L133.101244269477,45.30075831846355L136.19662204318576,44.97645489395046L139.29199981689453,44.78187284281054L142.38737759060328,44.66512361341108L145.48275536431208,50.95078532220997L148.57813313802083,48.36647109601566L151.67351091172958,46.81588256398393L154.76888868543838,45.885529446091425L157.86426645914713,45.32731757583349L160.95964423285588,44.992390453850646L164.05502200656468,44.79143418072283L167.15039978027343,44.67086041686849L170.2457775539822,44.598516158563854L173.34115532769098,44.55510960358393L176.43653310139973,44.52906567059708L179.5319108751085,44.513439310805296L182.62728864881728,44.504063494930364L185.72266642252603,44.49843800540552L188.8180441962348,44.49506271169059" fill="none"></path></g><g><path style="fill: none;" stroke="rgb(255, 112, 67)" stroke-width="2px" d="M30.953777737087673,155.71499919891352L34.04915551079644,150.74959980643214L37.14453328450521,133.0160170179241L40.23991105821397,95.98413364529739L43.335288831922746,77.09556023871818L46.43066660563151,73.41519160632967L49.52604437934028,68.05065335667577L52.621422153049046,64.92968282441372L55.716799926757815,63.090991048718564L58.81217770046658,58.80251940072263L61.907555474175346,53.05666576103398L65.00293324788412,55.992100389691956L68.09831102159288,57.74926634532683L71.19368879530164,55.621748114954286L74.28906656901042,54.346304694262855L77.38444434271919,56.760174926703954L80.47982211642794,61.38645477266833L83.57519989013672,60.983543074729866L86.67057766384549,63.91987151488294L89.76595543755425,62.50358225797399L92.86133321126302,55.297991194536195L95.95671098497179,60.508430039417064L99.05208875868055,60.456768746488834L102.14746653238932,66.7815241774385L105.24284430609809,64.2206183565575L108.33822207980685,62.6840795237035L111.43359985351563,55.40644017407557L114.52897762722439,54.21771889409385L117.62435540093315,50.32662981120643L120.71973317464193,51.169833592769564L123.81511094835069,48.49789970969212L126.91048872205945,50.072595470775354L130.00586649576823,47.8395570842805L133.101244269477,46.49973412062806L136.19662204318576,48.87369603282232L139.29199981689453,50.298073154020386L142.38737759060328,54.3305550481913L145.48275536431208,53.57218854573422L148.57813313802083,49.93931302779404L151.67351091172958,47.75958772220994L154.76888868543838,46.4517525407243L157.86426645914713,45.66705143250425L160.95964423285588,48.374086379919476L164.05502200656468,49.99830734786843L167.15039978027343,50.97283992845769L170.2457775539822,51.55755947674646L173.34115532769098,48.73053559438938L176.43653310139973,47.03432126504279L179.5319108751085,46.01659266745921L182.62728864881728,48.5838111201316L185.72266642252603,46.94628658051832L188.8180441962348,45.96377185675544" fill="none"></path></g></g></g></g><g opacity="0.2"><g><g><g><path style="fill: none;" stroke="rgb(204, 51, 17)" stroke-width="2px" d="M30.953777737087673,139.82572114297318L34.04915551079644,219.27213794078145L37.14453328450521,131.88108211500298L40.23991105821397,100.10249948501588L43.335288831922746,52.434638799088376L46.43066660563151,52.434638799088376L49.52604437934028,52.434638799088376L52.621422153049046,60.37927782705857L55.716799926757815,44.48999977111819L58.81217770046658,68.32391685502877L61.907555474175346,60.37927782705857L65.00293324788412,52.434638799088376L68.09831102159288,52.434638799088376L71.19368879530164,52.434638799088376L74.28906656901042,52.434638799088376L77.38444434271919,44.48999977111819L80.47982211642794,52.434638799088376L83.57519989013672,44.48999977111819L86.67057766384549,68.32391685502877L89.76595543755425,60.37927782705857L92.86133321126302,60.37927782705857L95.95671098497179,52.434638799088376L99.05208875868055,60.37927782705857L102.14746653238932,60.37927782705857L105.24284430609809,52.434638799088376L108.33822207980685,52.434638799088376L111.43359985351563,44.48999977111819L114.52897762722439,44.48999977111819L117.62435540093315,44.48999977111819L120.71973317464193,44.48999977111819L123.81511094835069,44.48999977111819L126.91048872205945,44.48999977111819L130.00586649576823,60.37927782705857L133.101244269477,44.48999977111819L136.19662204318576,52.434638799088376L139.29199981689453,44.48999977111819L142.38737759060328,44.48999977111819L145.48275536431208,52.434638799088376L148.57813313802083,44.48999977111819L151.67351091172958,44.48999977111819L154.76888868543838,44.48999977111819L157.86426645914713,60.37927782705857L160.95964423285588,44.48999977111819L164.05502200656468,52.434638799088376L167.15039978027343,44.48999977111819L170.2457775539822,44.48999977111819L173.34115532769098,44.48999977111819L176.43653310139973,44.48999977111819L179.5319108751085,52.434638799088376L182.62728864881728,52.434638799088376L185.72266642252603,44.48999977111819L188.8180441962348,44.48999977111819" fill="none"></path></g><g><path style="fill: none;" stroke="rgb(0, 119, 187)" stroke-width="2px" d="M37.14453328450521,179.54891628282414L40.23991105821397,76.26858240110529L43.335288831922746,84.21322142907549L46.43066660563151,52.434638799088376L49.52604437934028,60.37927782705857L52.621422153049046,68.32391685502877L55.716799926757815,44.48999977111819L58.81217770046658,52.434638799088376L61.907555474175346,60.37927782705857L65.00293324788412,52.434638799088376L68.09831102159288,60.37927782705857L71.19368879530164,52.434638799088376L74.28906656901042,52.434638799088376L77.38444434271919,44.48999977111819L80.47982211642794,44.48999977111819L83.57519989013672,52.434638799088376L86.67057766384549,68.32391685502877L89.76595543755425,44.48999977111819L92.86133321126302,44.48999977111819L95.95671098497179,52.434638799088376L99.05208875868055,52.434638799088376L102.14746653238932,52.434638799088376L105.24284430609809,44.48999977111819L108.33822207980685,52.434638799088376L111.43359985351563,44.48999977111819L114.52897762722439,44.48999977111819L117.62435540093315,52.434638799088376L120.71973317464193,52.434638799088376L123.81511094835069,60.37927782705857L126.91048872205945,44.48999977111819L130.00586649576823,44.48999977111819L133.101244269477,52.434638799088376L136.19662204318576,52.434638799088376L139.29199981689453,52.434638799088376L142.38737759060328,52.434638799088376L145.48275536431208,60.37927782705857L148.57813313802083,52.434638799088376L151.67351091172958,52.434638799088376L154.76888868543838,68.32391685502877L157.86426645914713,44.48999977111819L160.95964423285588,44.48999977111819L164.05502200656468,52.434638799088376L167.15039978027343,52.434638799088376L170.2457775539822,44.48999977111819L173.34115532769098,44.48999977111819L176.43653310139973,52.434638799088376L179.5319108751085,52.434638799088376L182.62728864881728,60.37927782705857L185.72266642252603,60.37927782705857L188.8180441962348,52.434638799088376" fill="none"></path></g><g><path style="fill: none;" stroke="rgb(255, 112, 67)" stroke-width="2px" d="M34.04915551079644,179.54891628282414L37.14453328450521,68.32391685502877L40.23991105821397,92.15786045704569L43.335288831922746,60.37927782705857L46.43066660563151,68.32391685502877L49.52604437934028,52.434638799088376L52.621422153049046,44.48999977111819L55.716799926757815,52.434638799088376L58.81217770046658,52.434638799088376L61.907555474175346,52.434638799088376L65.00293324788412,68.32391685502877L68.09831102159288,44.48999977111819L71.19368879530164,68.32391685502877L74.28906656901042,52.434638799088376L77.38444434271919,60.37927782705857L80.47982211642794,52.434638799088376L83.57519989013672,52.434638799088376L86.67057766384549,68.32391685502877L89.76595543755425,68.32391685502877L92.86133321126302,52.434638799088376L95.95671098497179,44.48999977111819L99.05208875868055,68.32391685502877L102.14746653238932,60.37927782705857L105.24284430609809,60.37927782705857L108.33822207980685,68.32391685502877L111.43359985351563,52.434638799088376L114.52897762722439,60.37927782705857L117.62435540093315,52.434638799088376L120.71973317464193,44.48999977111819L123.81511094835069,52.434638799088376L126.91048872205945,52.434638799088376L130.00586649576823,68.32391685502877L133.101244269477,52.434638799088376L136.19662204318576,76.26858240110529L139.29199981689453,44.48999977111819L142.38737759060328,60.37927782705857L145.48275536431208,52.434638799088376L148.57813313802083,60.37927782705857L151.67351091172958,60.37927782705857L154.76888868543838,52.434638799088376L157.86426645914713,52.434638799088376L160.95964423285588,52.434638799088376L164.05502200656468,60.37927782705857L167.15039978027343,60.37927782705857L170.2457775539822,60.37927782705857L173.34115532769098,52.434638799088376L176.43653310139973,60.37927782705857L179.5319108751085,60.37927782705857L182.62728864881728,44.48999977111819L185.72266642252603,44.48999977111819L188.8180441962348,52.434638799088376L191.91342196994358,60.37927782705857L195.00879974365233,52.434638799088376L198.1041775173611,52.434638799088376L201.19955529106988,44.48999977111819L204.29493306477863,52.434638799088376L207.3903108384874,44.48999977111819L210.48568861219618,52.434638799088376L213.58106638590496,44.48999977111819L216.6764441596137,60.37927782705857L219.77182193332249,52.434638799088376L222.86719970703126,44.48999977111819L225.96257748074,60.37927782705857L229.05795525444879,52.434638799088376L232.15333302815756,60.37927782705857L235.2487108018663,52.434638799088376L238.34408857557509,44.48999977111819L241.43946634928386,44.48999977111819L244.5348441229926,52.434638799088376" fill="none"></path></g><g><path style="fill: none;" stroke="rgb(187, 187, 187)" stroke-width="2px" d="M34.04915551079644,187.49358182890066L37.14453328450521,108.04713851298607L40.23991105821397,52.434638799088376L43.335288831922746,52.434638799088376L46.43066660563151,52.434638799088376L49.52604437934028,52.434638799088376L52.621422153049046,44.48999977111819L55.716799926757815,52.434638799088376L58.81217770046658,52.434638799088376L61.907555474175346,44.48999977111819L65.00293324788412,44.48999977111819L68.09831102159288,44.48999977111819L71.19368879530164,52.434638799088376L74.28906656901042,60.37927782705857L77.38444434271919,44.48999977111819L80.47982211642794,44.48999977111819L83.57519989013672,44.48999977111819L86.67057766384549,44.48999977111819L89.76595543755425,44.48999977111819L92.86133321126302,44.48999977111819L95.95671098497179,44.48999977111819L99.05208875868055,60.37927782705857L102.14746653238932,52.434638799088376L105.24284430609809,52.434638799088376L108.33822207980685,60.37927782705857L111.43359985351563,44.48999977111819L114.52897762722439,68.32391685502877L117.62435540093315,52.434638799088376L120.71973317464193,44.48999977111819L123.81511094835069,52.434638799088376L126.91048872205945,60.37927782705857L130.00586649576823,52.434638799088376L133.101244269477,60.37927782705857L136.19662204318576,44.48999977111819L139.29199981689453,44.48999977111819L142.38737759060328,44.48999977111819L145.48275536431208,52.434638799088376L148.57813313802083,52.434638799088376L151.67351091172958,44.48999977111819L154.76888868543838,44.48999977111819L157.86426645914713,60.37927782705857L160.95964423285588,44.48999977111819L164.05502200656468,52.434638799088376L167.15039978027343,52.434638799088376L170.2457775539822,44.48999977111819L173.34115532769098,52.434638799088376L176.43653310139973,52.434638799088376L179.5319108751085,52.434638799088376L182.62728864881728,52.434638799088376L185.72266642252603,52.434638799088376L188.8180441962348,60.37927782705857" fill="none"></path></g><g><path style="fill: none;" stroke="rgb(0, 153, 136)" stroke-width="2px" d="M30.953777737087673,203.38285988484105L34.04915551079644,155.71499919891357L37.14453328450521,203.38285988484105L40.23991105821397,84.21322142907549L43.335288831922746,60.37927782705857L46.43066660563151,60.37927782705857L49.52604437934028,60.37927782705857L52.621422153049046,60.37927782705857L55.716799926757815,52.434638799088376L58.81217770046658,52.434638799088376L61.907555474175346,44.48999977111819L65.00293324788412,52.434638799088376L68.09831102159288,60.37927782705857L71.19368879530164,52.434638799088376L74.28906656901042,44.48999977111819L77.38444434271919,52.434638799088376L80.47982211642794,68.32391685502877L83.57519989013672,52.434638799088376L86.67057766384549,60.37927782705857L89.76595543755425,52.434638799088376L92.86133321126302,44.48999977111819L95.95671098497179,60.37927782705857L99.05208875868055,44.48999977111819L102.14746653238932,60.37927782705857L105.24284430609809,52.434638799088376L108.33822207980685,60.37927782705857L111.43359985351563,44.48999977111819L114.52897762722439,68.32391685502877L117.62435540093315,44.48999977111819L120.71973317464193,44.48999977111819L123.81511094835069,60.37927782705857L126.91048872205945,52.434638799088376L130.00586649576823,44.48999977111819L133.101244269477,60.37927782705857L136.19662204318576,52.434638799088376L139.29199981689453,60.37927782705857L142.38737759060328,68.32391685502877L145.48275536431208,60.37927782705857L148.57813313802083,60.37927782705857L151.67351091172958,44.48999977111819L154.76888868543838,52.434638799088376L157.86426645914713,44.48999977111819L160.95964423285588,52.434638799088376L164.05502200656468,52.434638799088376L167.15039978027343,60.37927782705857L170.2457775539822,52.434638799088376L173.34115532769098,52.434638799088376L176.43653310139973,44.48999977111819L179.5319108751085,44.48999977111819L182.62728864881728,52.434638799088376L185.72266642252603,44.48999977111819L188.8180441962348,44.48999977111819" fill="none"></path></g><g><path style="fill: none;" stroke="rgb(238, 51, 119)" stroke-width="2px" d="M30.953777737087673,139.82572114297318L34.04915551079644,179.54891628282414L37.14453328450521,123.93641656892646L40.23991105821397,115.99177754095626L43.335288831922746,115.99177754095626L46.43066660563151,76.26858240110529L49.52604437934028,68.32391685502877L52.621422153049046,44.48999977111819L55.716799926757815,60.37927782705857L58.81217770046658,60.37927782705857L61.907555474175346,60.37927782705857L65.00293324788412,52.434638799088376L68.09831102159288,44.48999977111819L71.19368879530164,60.37927782705857L74.28906656901042,44.48999977111819L77.38444434271919,52.434638799088376L80.47982211642794,52.434638799088376L83.57519989013672,44.48999977111819L86.67057766384549,60.37927782705857L89.76595543755425,52.434638799088376L92.86133321126302,52.434638799088376L95.95671098497179,44.48999977111819L99.05208875868055,52.434638799088376L102.14746653238932,44.48999977111819L105.24284430609809,44.48999977111819L108.33822207980685,44.48999977111819L111.43359985351563,44.48999977111819L114.52897762722439,44.48999977111819L117.62435540093315,52.434638799088376L120.71973317464193,44.48999977111819L123.81511094835069,44.48999977111819L126.91048872205945,44.48999977111819L130.00586649576823,52.434638799088376L133.101244269477,52.434638799088376L136.19662204318576,52.434638799088376L139.29199981689453,44.48999977111819L142.38737759060328,52.434638799088376L145.48275536431208,44.48999977111819L148.57813313802083,44.48999977111819L151.67351091172958,60.37927782705857L154.76888868543838,44.48999977111819L157.86426645914713,44.48999977111819L160.95964423285588,52.434638799088376L164.05502200656468,44.48999977111819L167.15039978027343,60.37927782705857L170.2457775539822,52.434638799088376L173.34115532769098,52.434638799088376L176.43653310139973,52.434638799088376L179.5319108751085,52.434638799088376L182.62728864881728,44.48999977111819L185.72266642252603,44.48999977111819L188.8180441962348,44.48999977111819" fill="none"></path></g><g><path style="fill: none;" stroke="rgb(51, 187, 238)" stroke-width="2px" d="M34.04915551079644,243.10608154279834L37.14453328450521,155.71499919891357L40.23991105821397,92.15786045704569L43.335288831922746,115.99177754095626L46.43066660563151,92.15786045704569L49.52604437934028,44.48999977111819L52.621422153049046,44.48999977111819L55.716799926757815,52.434638799088376L58.81217770046658,52.434638799088376L61.907555474175346,52.434638799088376L65.00293324788412,52.434638799088376L68.09831102159288,44.48999977111819L71.19368879530164,60.37927782705857L74.28906656901042,44.48999977111819L77.38444434271919,52.434638799088376L80.47982211642794,44.48999977111819L83.57519989013672,44.48999977111819L86.67057766384549,60.37927782705857L89.76595543755425,68.32391685502877L92.86133321126302,52.434638799088376L95.95671098497179,52.434638799088376L99.05208875868055,52.434638799088376L102.14746653238932,44.48999977111819L105.24284430609809,44.48999977111819L108.33822207980685,60.37927782705857L111.43359985351563,44.48999977111819L114.52897762722439,44.48999977111819L117.62435540093315,52.434638799088376L120.71973317464193,44.48999977111819L123.81511094835069,52.434638799088376L126.91048872205945,44.48999977111819L130.00586649576823,60.37927782705857L133.101244269477,52.434638799088376L136.19662204318576,52.434638799088376L139.29199981689453,44.48999977111819L142.38737759060328,52.434638799088376L145.48275536431208,44.48999977111819L148.57813313802083,44.48999977111819L151.67351091172958,60.37927782705857L154.76888868543838,52.434638799088376L157.86426645914713,44.48999977111819L160.95964423285588,52.434638799088376L164.05502200656468,52.434638799088376L167.15039978027343,52.434638799088376L170.2457775539822,44.48999977111819L173.34115532769098,52.434638799088376L176.43653310139973,60.37927782705857L179.5319108751085,52.434638799088376L182.62728864881728,44.48999977111819L185.72266642252603,44.48999977111819L188.8180441962348,44.48999977111819" fill="none"></path></g><g><path style="fill: none;" stroke="rgb(204, 51, 17)" stroke-width="2px" d="M30.953777737087673,171.60427725485394L34.04915551079644,211.32749891281125L37.14453328450521,203.38285988484105L40.23991105821397,108.04713851298607L43.335288831922746,123.93641656892646L46.43066660563151,131.88108211500298L49.52604437934028,131.88108211500298L52.621422153049046,147.77036017094338L55.716799926757815,123.93641656892646L58.81217770046658,84.21322142907549L61.907555474175346,131.88108211500298L65.00293324788412,76.26858240110529L68.09831102159288,84.21322142907549L71.19368879530164,76.26858240110529L74.28906656901042,100.10249948501588L77.38444434271919,76.26858240110529L80.47982211642794,76.26858240110529L83.57519989013672,84.21322142907549L86.67057766384549,68.32391685502877L89.76595543755425,76.26858240110529L92.86133321126302,60.37927782705857L95.95671098497179,76.26858240110529L99.05208875868055,60.37927782705857L102.14746653238932,44.48999977111819L105.24284430609809,52.434638799088376L108.33822207980685,52.434638799088376L111.43359985351563,76.26858240110529L114.52897762722439,44.48999977111819L117.62435540093315,60.37927782705857L120.71973317464193,52.434638799088376L123.81511094835069,52.434638799088376L126.91048872205945,52.434638799088376L130.00586649576823,60.37927782705857L133.101244269477,44.48999977111819L136.19662204318576,52.434638799088376L139.29199981689453,52.434638799088376L142.38737759060328,68.32391685502877L145.48275536431208,52.434638799088376L148.57813313802083,44.48999977111819L151.67351091172958,44.48999977111819L154.76888868543838,68.32391685502877L157.86426645914713,52.434638799088376L160.95964423285588,60.37927782705857L164.05502200656468,44.48999977111819L167.15039978027343,44.48999977111819L170.2457775539822,44.48999977111819L173.34115532769098,52.434638799088376L176.43653310139973,60.37927782705857L179.5319108751085,52.434638799088376L182.62728864881728,44.48999977111819L185.72266642252603,52.434638799088376L188.8180441962348,44.48999977111819" fill="none"></path></g><g><path style="fill: none;" stroke="rgb(0, 119, 187)" stroke-width="2px" d="M30.953777737087673,139.82572114297318L34.04915551079644,171.60427725485394L37.14453328450521,115.99177754095626L40.23991105821397,147.77036017094338L43.335288831922746,92.15786045704569L46.43066660563151,115.99177754095626L49.52604437934028,92.15786045704569L52.621422153049046,84.21322142907549L55.716799926757815,84.21322142907549L58.81217770046658,68.32391685502877L61.907555474175346,84.21322142907549L65.00293324788412,60.37927782705857L68.09831102159288,76.26858240110529L71.19368879530164,44.48999977111819L74.28906656901042,76.26858240110529L77.38444434271919,60.37927782705857L80.47982211642794,44.48999977111819L83.57519989013672,60.37927782705857L86.67057766384549,44.48999977111819L89.76595543755425,60.37927782705857L92.86133321126302,44.48999977111819L95.95671098497179,44.48999977111819L99.05208875868055,60.37927782705857L102.14746653238932,60.37927782705857L105.24284430609809,52.434638799088376L108.33822207980685,44.48999977111819L111.43359985351563,44.48999977111819L114.52897762722439,60.37927782705857L117.62435540093315,44.48999977111819L120.71973317464193,52.434638799088376L123.81511094835069,44.48999977111819L126.91048872205945,44.48999977111819L130.00586649576823,44.48999977111819L133.101244269477,44.48999977111819L136.19662204318576,44.48999977111819L139.29199981689453,44.48999977111819L142.38737759060328,44.48999977111819L145.48275536431208,60.37927782705857L148.57813313802083,44.48999977111819L151.67351091172958,44.48999977111819L154.76888868543838,44.48999977111819L157.86426645914713,44.48999977111819L160.95964423285588,44.48999977111819L164.05502200656468,44.48999977111819L167.15039978027343,44.48999977111819L170.2457775539822,44.48999977111819L173.34115532769098,44.48999977111819L176.43653310139973,44.48999977111819L179.5319108751085,44.48999977111819L182.62728864881728,44.48999977111819L185.72266642252603,44.48999977111819L188.8180441962348,44.48999977111819" fill="none"></path></g><g><path style="fill: none;" stroke="rgb(255, 112, 67)" stroke-width="2px" d="M30.953777737087673,155.71499919891357L34.04915551079644,147.77036017094338L37.14453328450521,115.99177754095626L40.23991105821397,52.434638799088376L43.335288831922746,52.434638799088376L46.43066660563151,68.32391685502877L49.52604437934028,60.37927782705857L52.621422153049046,60.37927782705857L55.716799926757815,60.37927782705857L58.81217770046658,52.434638799088376L61.907555474175346,44.48999977111819L65.00293324788412,60.37927782705857L68.09831102159288,60.37927782705857L71.19368879530164,52.434638799088376L74.28906656901042,52.434638799088376L77.38444434271919,60.37927782705857L80.47982211642794,68.32391685502877L83.57519989013672,60.37927782705857L86.67057766384549,68.32391685502877L89.76595543755425,60.37927782705857L92.86133321126302,44.48999977111819L95.95671098497179,68.32391685502877L99.05208875868055,60.37927782705857L102.14746653238932,76.26858240110529L105.24284430609809,60.37927782705857L108.33822207980685,60.37927782705857L111.43359985351563,44.48999977111819L114.52897762722439,52.434638799088376L117.62435540093315,44.48999977111819L120.71973317464193,52.434638799088376L123.81511094835069,44.48999977111819L126.91048872205945,52.434638799088376L130.00586649576823,44.48999977111819L133.101244269477,44.48999977111819L136.19662204318576,52.434638799088376L139.29199981689453,52.434638799088376L142.38737759060328,60.37927782705857L145.48275536431208,52.434638799088376L148.57813313802083,44.48999977111819L151.67351091172958,44.48999977111819L154.76888868543838,44.48999977111819L157.86426645914713,44.48999977111819L160.95964423285588,52.434638799088376L164.05502200656468,52.434638799088376L167.15039978027343,52.434638799088376L170.2457775539822,52.434638799088376L173.34115532769098,44.48999977111819L176.43653310139973,44.48999977111819L179.5319108751085,44.48999977111819L182.62728864881728,52.434638799088376L185.72266642252603,44.48999977111819L188.8180441962348,44.48999977111819" fill="none"></path></g></g></g></g></g></g><g transform="translate(51, 177)" clip-path="url(#clip_1)"><clipPath id="clip_1"><rect width="278" height="22"></rect></clipPath><g><g><line x1="0" y1="0" x2="0" y2="5" style="visibility: inherit;" fill="rgb(0, 0, 0)" stroke="rgb(204, 204, 204)" stroke-width="1px"></line><line x1="30.953777737087673" y1="0" x2="30.953777737087673" y2="5" style="visibility: inherit;" fill="rgb(0, 0, 0)" stroke="rgb(204, 204, 204)" stroke-width="1px"></line><line x1="61.907555474175346" y1="0" x2="61.907555474175346" y2="5" style="visibility: inherit;" fill="rgb(0, 0, 0)" stroke="rgb(204, 204, 204)" stroke-width="1px"></line><line x1="92.86133321126302" y1="0" x2="92.86133321126302" y2="5" style="visibility: inherit;" fill="rgb(0, 0, 0)" stroke="rgb(204, 204, 204)" stroke-width="1px"></line><line x1="123.81511094835069" y1="0" x2="123.81511094835069" y2="5" style="visibility: inherit;" fill="rgb(0, 0, 0)" stroke="rgb(204, 204, 204)" stroke-width="1px"></line><line x1="154.76888868543838" y1="0" x2="154.76888868543838" y2="5" style="visibility: inherit;" fill="rgb(0, 0, 0)" stroke="rgb(204, 204, 204)" stroke-width="1px"></line><line x1="185.72266642252603" y1="0" x2="185.72266642252603" y2="5" style="visibility: inherit;" fill="rgb(0, 0, 0)" stroke="rgb(204, 204, 204)" stroke-width="1px"></line><line x1="216.6764441596137" y1="0" x2="216.6764441596137" y2="5" style="visibility: inherit;" fill="rgb(0, 0, 0)" stroke="rgb(204, 204, 204)" stroke-width="1px"></line><line x1="247.63022189670139" y1="0" x2="247.63022189670139" y2="5" style="visibility: inherit;" fill="rgb(0, 0, 0)" stroke="rgb(204, 204, 204)" stroke-width="1px"></line><line x1="278.58399963378906" y1="0" x2="278.58399963378906" y2="5" style="visibility: inherit;" fill="rgb(0, 0, 0)" stroke="rgb(204, 204, 204)" stroke-width="1px"></line></g><g transform="translate(0, 8)"><text style="text-anchor: middle; visibility: hidden; font-family: &quot;Helvetica Neue&quot;, sans-serif; font-size: 12px; font-weight: 200;" x="0" y="0" dx="0em" dy="0.95em" fill="rgb(50, 49, 63)" stroke="none" stroke-width="1px">-10</text><text style="text-anchor: middle; visibility: inherit; font-family: &quot;Helvetica Neue&quot;, sans-serif; font-size: 12px; font-weight: 200;" x="30.953777737087673" y="0" dx="0em" dy="0.95em" fill="rgb(50, 49, 63)" stroke="none" stroke-width="1px">0</text><text style="text-anchor: middle; visibility: inherit; font-family: &quot;Helvetica Neue&quot;, sans-serif; font-size: 12px; font-weight: 200;" x="61.907555474175346" y="0" dx="0em" dy="0.95em" fill="rgb(50, 49, 63)" stroke="none" stroke-width="1px">10</text><text style="text-anchor: middle; visibility: inherit; font-family: &quot;Helvetica Neue&quot;, sans-serif; font-size: 12px; font-weight: 200;" x="92.86133321126302" y="0" dx="0em" dy="0.95em" fill="rgb(50, 49, 63)" stroke="none" stroke-width="1px">20</text><text style="text-anchor: middle; visibility: inherit; font-family: &quot;Helvetica Neue&quot;, sans-serif; font-size: 12px; font-weight: 200;" x="123.81511094835069" y="0" dx="0em" dy="0.95em" fill="rgb(50, 49, 63)" stroke="none" stroke-width="1px">30</text><text style="text-anchor: middle; visibility: inherit; font-family: &quot;Helvetica Neue&quot;, sans-serif; font-size: 12px; font-weight: 200;" x="154.76888868543838" y="0" dx="0em" dy="0.95em" fill="rgb(50, 49, 63)" stroke="none" stroke-width="1px">40</text><text style="text-anchor: middle; visibility: inherit; font-family: &quot;Helvetica Neue&quot;, sans-serif; font-size: 12px; font-weight: 200;" x="185.72266642252603" y="0" dx="0em" dy="0.95em" fill="rgb(50, 49, 63)" stroke="none" stroke-width="1px">50</text><text style="text-anchor: middle; visibility: inherit; font-family: &quot;Helvetica Neue&quot;, sans-serif; font-size: 12px; font-weight: 200;" x="216.6764441596137" y="0" dx="0em" dy="0.95em" fill="rgb(50, 49, 63)" stroke="none" stroke-width="1px">60</text><text style="text-anchor: middle; visibility: inherit; font-family: &quot;Helvetica Neue&quot;, sans-serif; font-size: 12px; font-weight: 200;" x="247.63022189670139" y="0" dx="0em" dy="0.95em" fill="rgb(50, 49, 63)" stroke="none" stroke-width="1px">70</text><text style="text-anchor: middle; visibility: hidden; font-family: &quot;Helvetica Neue&quot;, sans-serif; font-size: 12px; font-weight: 200;" x="278.58399963378906" y="0" dx="0em" dy="0.95em" fill="rgb(50, 49, 63)" stroke="none" stroke-width="1px">80</text></g><line x1="0" y1="0" x2="278.58399963378906" y2="0" fill="rgb(0, 0, 0)" stroke="rgb(204, 204, 204)" stroke-width="1px"></line></g></g></g></g></svg>