<svg viewBox="0 0 330 200" xmlns="http://www.w3.org/2000/svg"><g><g><g><g><g><line x1="51.41600036621094" y1="177.95999908447266" x2="46.41600036621094" y2="177.95999908447266" style="visibility: inherit;" fill="rgb(0, 0, 0)" stroke="rgb(204, 204, 204)" stroke-width="1px"></line><line x1="51.41600036621094" y1="158.18666585286462" x2="46.41600036621094" y2="158.18666585286462" style="visibility: inherit;" fill="rgb(0, 0, 0)" stroke="rgb(204, 204, 204)" stroke-width="1px"></line><line x1="51.41600036621094" y1="138.41333262125653" x2="46.41600036621094" y2="138.41333262125653" style="visibility: inherit;" fill="rgb(0, 0, 0)" stroke="rgb(204, 204, 204)" stroke-width="1px"></line><line x1="51.41600036621094" y1="118.63999938964844" x2="46.41600036621094" y2="118.63999938964844" style="visibility: inherit;" fill="rgb(0, 0, 0)" stroke="rgb(204, 204, 204)" stroke-width="1px"></line><line x1="51.41600036621094" y1="98.8666661580404" x2="46.41600036621094" y2="98.8666661580404" style="visibility: inherit;" fill="rgb(0, 0, 0)" stroke="rgb(204, 204, 204)" stroke-width="1px"></line><line x1="51.41600036621094" y1="79.09333292643231" x2="46.41600036621094" y2="79.09333292643231" style="visibility: inherit;" fill="rgb(0, 0, 0)" stroke="rgb(204, 204, 204)" stroke-width="1px"></line><line x1="51.41600036621094" y1="59.31999969482426" x2="46.41600036621094" y2="59.31999969482426" style="visibility: inherit;" fill="rgb(0, 0, 0)" stroke="rgb(204, 204, 204)" stroke-width="1px"></line><line x1="51.41600036621094" y1="39.546666463216184" x2="46.41600036621094" y2="39.546666463216184" style="visibility: inherit;" fill="rgb(0, 0, 0)" stroke="rgb(204, 204, 204)" stroke-width="1px"></line><line x1="51.41600036621094" y1="19.773333231608092" x2="46.41600036621094" y2="19.773333231608092" style="visibility: inherit;" fill="rgb(0, 0, 0)" stroke="rgb(204, 204, 204)" stroke-width="1px"></line><line x1="51.41600036621094" y1="0" x2="46.41600036621094" y2="0" style="visibility: inherit;" fill="rgb(0, 0, 0)" stroke="rgb(204, 204, 204)" stroke-width="1px"></line></g><g transform="translate(41.41600036621094, 0)"><text style="text-anchor: end; visibility: hidden; font-family: &quot;Helvetica Neue&quot;, sans-serif; font-size: 12px; font-weight: 200;" x="0" y="177.95999908447266" dx="0em" dy="0.3em" fill="rgb(50, 49, 63)" stroke="none" stroke-width="1px">0.65</text><text style="text-anchor: end; visibility: inherit; font-family: &quot;Helvetica Neue&quot;, sans-serif; font-size: 12px; font-weight: 200;" x="0" y="158.18666585286462" dx="0em" dy="0.3em" fill="rgb(50, 49, 63)" stroke="none" stroke-width="1px">0.7</text><text style="text-anchor: end; visibility: hidden; font-family: &quot;Helvetica Neue&quot;, sans-serif; font-size: 12px; font-weight: 200;" x="0" y="138.41333262125653" dx="0em" dy="0.3em" fill="rgb(50, 49, 63)" stroke="none" stroke-width="1px">0.75</text><text style="text-anchor: end; visibility: inherit; font-family: &quot;Helvetica Neue&quot;, sans-serif; font-size: 12px; font-weight: 200;" x="0" y="118.63999938964844" dx="0em" dy="0.3em" fill="rgb(50, 49, 63)" stroke="none" stroke-width="1px">0.8</text><text style="text-anchor: end; visibility: hidden; font-family: &quot;Helvetica Neue&quot;, sans-serif; font-size: 12px; font-weight: 200;" x="0" y="98.8666661580404" dx="0em" dy="0.3em" fill="rgb(50, 49, 63)" stroke="none" stroke-width="1px">0.85</text><text style="text-anchor: end; visibility: inherit; font-family: &quot;Helvetica Neue&quot;, sans-serif; font-size: 12px; font-weight: 200;" x="0" y="79.09333292643231" dx="0em" dy="0.3em" fill="rgb(50, 49, 63)" stroke="none" stroke-width="1px">0.9</text><text style="text-anchor: end; visibility: hidden; font-family: &quot;Helvetica Neue&quot;, sans-serif; font-size: 12px; font-weight: 200;" x="0" y="59.31999969482426" dx="0em" dy="0.3em" fill="rgb(50, 49, 63)" stroke="none" stroke-width="1px">0.95</text><text style="text-anchor: end; visibility: inherit; font-family: &quot;Helvetica Neue&quot;, sans-serif; font-size: 12px; font-weight: 200;" x="0" y="39.546666463216184" dx="0em" dy="0.3em" fill="rgb(50, 49, 63)" stroke="none" stroke-width="1px">1</text><text style="text-anchor: end; visibility: hidden; font-family: &quot;Helvetica Neue&quot;, sans-serif; font-size: 12px; font-weight: 200;" x="0" y="19.773333231608092" dx="0em" dy="0.3em" fill="rgb(50, 49, 63)" stroke="none" stroke-width="1px">1.05</text><text style="text-anchor: end; visibility: hidden; font-family: &quot;Helvetica Neue&quot;, sans-serif; font-size: 12px; font-weight: 200;" x="0" y="0" dx="0em" dy="0.3em" fill="rgb(50, 49, 63)" stroke="none" stroke-width="1px">1.1</text></g><line x1="51.41600036621094" y1="0" x2="51.41600036621094" y2="177.95999908447266" fill="rgb(0, 0, 0)" stroke="rgb(204, 204, 204)" stroke-width="1px"></line></g></g><g transform="translate(51, 0)" clip-path="url(#clip_0)"><clipPath id="clip_0"><rect width="278" height="177"></rect></clipPath><g><g><g><line x1="0" y1="0" x2="0" y2="177.95999908447266" fill="rgb(0, 0, 0)" stroke="rgb(60, 60, 60)" stroke-width="1px" opacity="0.25"></line><line x1="30.953777737087673" y1="0" x2="30.953777737087673" y2="177.95999908447266" fill="rgb(0, 0, 0)" stroke="rgb(60, 60, 60)" stroke-width="1px" opacity="0.25"></line><line x1="61.907555474175346" y1="0" x2="61.907555474175346" y2="177.95999908447266" fill="rgb(0, 0, 0)" stroke="rgb(60, 60, 60)" stroke-width="1px" opacity="0.25"></line><line x1="92.86133321126302" y1="0" x2="92.86133321126302" y2="177.95999908447266" fill="rgb(0, 0, 0)" stroke="rgb(60, 60, 60)" stroke-width="1px" opacity="0.25"></line><line x1="123.81511094835069" y1="0" x2="123.81511094835069" y2="177.95999908447266" fill="rgb(0, 0, 0)" stroke="rgb(60, 60, 60)" stroke-width="1px" opacity="0.25"></line><line x1="154.76888868543838" y1="0" x2="154.76888868543838" y2="177.95999908447266" fill="rgb(0, 0, 0)" stroke="rgb(60, 60, 60)" stroke-width="1px" opacity="0.25"></line><line x1="185.72266642252603" y1="0" x2="185.72266642252603" y2="177.95999908447266" fill="rgb(0, 0, 0)" stroke="rgb(60, 60, 60)" stroke-width="1px" opacity="0.25"></line><line x1="216.6764441596137" y1="0" x2="216.6764441596137" y2="177.95999908447266" fill="rgb(0, 0, 0)" stroke="rgb(60, 60, 60)" stroke-width="1px" opacity="0.25"></line><line x1="247.63022189670139" y1="0" x2="247.63022189670139" y2="177.95999908447266" fill="rgb(0, 0, 0)" stroke="rgb(60, 60, 60)" stroke-width="1px" opacity="0.25"></line><line x1="278.58399963378906" y1="0" x2="278.58399963378906" y2="177.95999908447266" fill="rgb(0, 0, 0)" stroke="rgb(60, 60, 60)" stroke-width="1px" opacity="0.25"></line></g><g><line x1="0" y1="177.95999908447266" x2="278.58399963378906" y2="177.95999908447266" fill="rgb(0, 0, 0)" stroke="rgb(60, 60, 60)" stroke-width="1px" opacity="0.25"></line><line x1="0" y1="158.18666585286462" x2="278.58399963378906" y2="158.18666585286462" fill="rgb(0, 0, 0)" stroke="rgb(60, 60, 60)" stroke-width="1px" opacity="0.25"></line><line x1="0" y1="138.41333262125653" x2="278.58399963378906" y2="138.41333262125653" fill="rgb(0, 0, 0)" stroke="rgb(60, 60, 60)" stroke-width="1px" opacity="0.25"></line><line x1="0" y1="118.63999938964844" x2="278.58399963378906" y2="118.63999938964844" fill="rgb(0, 0, 0)" stroke="rgb(60, 60, 60)" stroke-width="1px" opacity="0.25"></line><line x1="0" y1="98.8666661580404" x2="278.58399963378906" y2="98.8666661580404" fill="rgb(0, 0, 0)" stroke="rgb(60, 60, 60)" stroke-width="1px" opacity="0.25"></line><line x1="0" y1="79.09333292643231" x2="278.58399963378906" y2="79.09333292643231" fill="rgb(0, 0, 0)" stroke="rgb(60, 60, 60)" stroke-width="1px" opacity="0.25"></line><line x1="0" y1="59.31999969482426" x2="278.58399963378906" y2="59.31999969482426" fill="rgb(0, 0, 0)" stroke="rgb(60, 60, 60)" stroke-width="1px" opacity="0.25"></line><line x1="0" y1="39.546666463216184" x2="278.58399963378906" y2="39.546666463216184" fill="rgb(0, 0, 0)" stroke="rgb(60, 60, 60)" stroke-width="1px" opacity="0.25"></line><line x1="0" y1="19.773333231608092" x2="278.58399963378906" y2="19.773333231608092" fill="rgb(0, 0, 0)" stroke="rgb(60, 60, 60)" stroke-width="1px" opacity="0.25"></line><line x1="0" y1="0" x2="278.58399963378906" y2="0" fill="rgb(0, 0, 0)" stroke="rgb(60, 60, 60)" stroke-width="1px" opacity="0.25"></line></g></g></g><g><g><line x1="0" y1="435.01333109537757" x2="278.58399963378906" y2="435.01333109537757" fill="rgb(0, 0, 0)" stroke="rgb(153, 153, 153)" stroke-width="1.5px"></line></g></g><g><g><line x1="30.953777737087673" y1="0" x2="30.953777737087673" y2="177.95999908447266" fill="rgb(0, 0, 0)" stroke="rgb(153, 153, 153)" stroke-width="1.5px"></line></g></g><g><g><g><g><g><path style="fill: none;" stroke="rgb(204, 51, 17)" stroke-width="2px" d="M34.04915551079644,247.87285376304675L37.14453328450521,174.01109279140442L40.23991105821397,147.9157507671696L43.335288831922746,119.2908147057847L46.43066660563151,94.72111303755948L49.52604437934028,80.73406830215191L52.621422153049046,72.59671287264156L55.716799926757815,70.65618991014755L58.81217770046658,60.97862453754617L61.907555474175346,52.37462625534812L65.00293324788412,52.894094193684154L68.09831102159288,50.37659561691558L71.19368879530164,51.69517833831999L74.28906656901042,46.83348769433803L77.38444434271919,49.56905202120839L80.47982211642794,45.55941910110215L83.57519989013672,45.979121214154446L86.67057766384549,46.230915200369196L89.76595543755425,43.55711794724402L92.86133321126302,41.952902162030455L95.95671098497179,40.99039521382423L99.05208875868055,40.41289915292009L102.14746653238932,40.066404435214395L105.24284430609809,39.85850865536142L108.33822207980685,42.558536927536494L111.43359985351563,41.3537875087589L114.52897762722439,40.630938646644495L117.62435540093315,40.19722961347023L120.71973317464193,39.937004295839586L123.81511094835069,39.78086914207978L126.91048872205945,42.51194883117003L130.00586649576823,44.15059650551538L133.101244269477,42.30902443583247L136.19662204318576,41.20408122779122L139.29199981689453,40.54111531512311L142.38737759060328,42.96809633265838L145.48275536431208,44.424284933566895L148.57813313802083,45.297998090651475L151.67351091172958,42.99746543660211L154.76888868543838,41.61714584614066L157.86426645914713,40.78895409257228L160.95964423285588,43.11679958478021L164.05502200656468,41.68874633590721L167.15039978027343,40.831914386741744L170.2457775539822,43.14257576075397L173.34115532769098,41.704212041685054L176.43653310139973,40.8411938102781L179.5319108751085,40.32338287144634L182.62728864881728,42.837456851452885L185.72266642252603,41.52114069615183L188.8180441962348,40.73135100297529" fill="none"></path></g><g><path style="fill: none;" stroke="rgb(0, 119, 187)" stroke-width="2px" d="M34.04915551079644,218.74250182112056L37.14453328450521,148.93413261852874L40.23991105821397,114.89096359615561L43.335288831922746,106.7156241202172L46.43066660563151,93.34818181424059L49.52604437934028,79.92612563171456L52.621422153049046,69.244451950657L55.716799926757815,60.0979223542312L58.81217770046658,57.511300772802954L61.907555474175346,58.80442007757139L65.00293324788412,59.57728261518416L68.09831102159288,60.039922023406874L71.19368879530164,51.836191014100464L74.28906656901042,52.57024742260447L77.38444434271919,47.35934498600008L80.47982211642794,44.23374451713954L83.57519989013672,42.358722868452844L86.67057766384549,44.058764443325714L89.76595543755425,42.25385926108871L92.86133321126302,41.170958386396705L95.95671098497179,40.521233065329056L99.05208875868055,40.13140334588081L102.14746653238932,39.897507484527154L105.24284430609809,42.581939251197866L108.33822207980685,41.367828064953386L111.43359985351563,40.63936267868115L114.52897762722439,40.20228392408765L117.62435540093315,39.94003684311241L120.71973317464193,42.60744982412763L123.81511094835069,41.38313631736477L126.91048872205945,40.64854831724199L130.00586649576823,40.207795554584834L133.101244269477,42.76810453467155L136.19662204318576,41.47952928393789L139.29199981689453,40.70638414767467L142.38737759060328,40.24249707102041L145.48275536431208,48.43844648816673L148.57813313802083,47.70649501983411L151.67351091172958,47.267324139878184L154.76888868543838,44.179061066736466L157.86426645914713,47.97562431371196L160.95964423285588,44.60404117254012L164.05502200656468,42.58109128846007L167.15039978027343,41.367321358236325L170.2457775539822,43.46381994363733L173.34115532769098,44.72171909479425L176.43653310139973,45.476458585458204L179.5319108751085,43.104541736529484L182.62728864881728,47.3309127137949L185.72266642252603,44.21721421354832L188.8180441962348,42.34899511341007" fill="none"></path></g><g><path style="fill: none;" stroke="rgb(255, 112, 67)" stroke-width="2px" d="M30.953777737087673,265.52761599790483L34.04915551079644,159.59904406198436L37.14453328450521,127.17193020404952L40.23991105821397,119.35656872094941L43.335288831922746,115.3702462434486L46.43066660563151,95.40853220285068L49.52604437934028,86.9508367074277L52.621422153049046,76.284293269345L55.716799926757815,70.00019494417313L58.81217770046658,63.42856852638853L61.907555474175346,59.511116386642996L65.00293324788412,57.16976088252514L68.09831102159288,52.93975898202886L71.19368879530164,47.578320528075864L74.28906656901042,47.19023697435057L77.38444434271919,55.43418608031992L80.47982211642794,54.7285798844772L83.57519989013672,51.48024515851711L86.67057766384549,49.53145547227743L89.76595543755425,45.53739383943142L92.86133321126302,45.96587283174617L95.95671098497179,43.3981564876141L99.05208875868055,44.68233116264875L102.14746653238932,42.62805554893447L105.24284430609809,41.395496410445986L108.33822207980685,46.30549389366922L111.43359985351563,43.601960154447255L114.52897762722439,44.80460395976971L117.62435540093315,45.526189770299595L120.71973317464193,43.13437991869944L123.81511094835069,41.69929434615011L126.91048872205945,40.83824312444838L130.00586649576823,40.321612435285346L133.101244269477,42.83639466178744L136.19662204318576,41.52050335973783L139.29199981689453,40.73096859298556L142.38737759060328,40.257247738146106L145.48275536431208,45.62253633465306L148.57813313802083,43.19218838066374L151.67351091172958,41.73397961173541L154.76888868543838,40.859054351625986L157.86426645914713,40.33409919600945L160.95964423285588,42.84388664689507L164.05502200656468,44.34975911696267L167.15039978027343,42.42852205526441L170.2457775539822,46.92530090528214L173.34115532769098,43.973847128345284L176.43653310139973,42.20297486225388L179.5319108751085,41.1404515026245L182.62728864881728,40.50293748685601L185.72266642252603,40.1204290773982L188.8180441962348,39.89092403172472L191.91342196994358,42.57798154760428L195.00879974365233,41.36545551384779L198.1041775173611,43.46270043687471L201.19955529106988,41.89628684741069L204.29493306477863,40.95643869373268L207.3903108384874,40.392529801526024L210.48568861219618,40.05418446620206L213.58106638590496,39.85117726500769L216.6764441596137,39.72937294429107L219.77182193332249,42.48105089513945L222.86719970703126,41.30729712237013L225.96257748074,43.42780540198686L229.05795525444879,41.875349826478555L232.15333302815756,40.94387648117359L235.2487108018663,43.20975301726898L238.34408857557509,41.744518395647844L241.43946634928386,43.69013816595344L244.5348441229926,42.03274948485853" fill="none"></path></g><g><path style="fill: none;" stroke="rgb(187, 187, 187)" stroke-width="2px" d="M30.953777737087673,244.3419001374926L34.04915551079644,147.24071226545743L37.14453328450521,110.30983704116534L40.23991105821397,100.50752201408399L43.335288831922746,86.31892618374269L46.43066660563151,75.58342854765783L49.52604437934028,66.56580917064542L52.621422153049046,67.06559822639352L55.716799926757815,61.65300008908116L58.81217770046658,58.44056334875884L61.907555474175346,53.6905321645246L65.00293324788412,50.8515666172236L68.09831102159288,46.323692838223565L71.19368879530164,43.610756318194234L74.28906656901042,41.98435566703796L77.38444434271919,46.66012015661846L80.47982211642794,46.63949573150964L83.57519989013672,49.452170765903475L86.67057766384549,45.48972758949421L89.76595543755425,43.1124162207127L92.86133321126302,44.51090753962748L95.95671098497179,42.52518497264418L99.05208875868055,41.33376815989436L102.14746653238932,40.61892409401932L105.24284430609809,40.1900198223108L108.33822207980685,39.93267803969496L111.43359985351563,39.778273251071624L114.52897762722439,39.685630479038L117.62435540093315,39.63004485222845L120.71973317464193,45.24621582476908L123.81511094835069,42.96639577774266L126.91048872205945,44.4232647111576L130.00586649576823,42.472625318834105L133.101244269477,44.12700236726508L136.19662204318576,42.29486797414987L139.29199981689453,44.02034793085198L142.38737759060328,42.23087533272323L145.48275536431208,41.15719178093363L148.57813313802083,43.337742201983076L151.67351091172958,44.64607245150347L154.76888868543838,42.60631005455258L157.86426645914713,41.38245261742904L160.95964423285588,43.472898699625745L164.05502200656468,41.90240580478982L167.15039978027343,40.96011006806242L170.2457775539822,43.21949316954317L173.34115532769098,44.57512303034139L176.43653310139973,42.563740403446104L179.5319108751085,44.181671370654215L182.62728864881728,42.32766940766402L185.72266642252603,41.215268229879456L188.8180441962348,40.54782752321222" fill="none"></path></g><g><path style="fill: none;" stroke="rgb(0, 153, 136)" stroke-width="2px" d="M34.04915551079644,204.61868437244783L37.14453328450521,160.0314109919486L40.23991105821397,124.1337488559615L43.335288831922746,108.88663343536587L46.43066660563151,91.64528593951268L49.52604437934028,78.9240053381877L52.621422153049046,80.1421018199317L55.716799926757815,83.7132498531029L58.81217770046658,77.30693154186943L61.907555474175346,64.9828747384238L65.00293324788412,57.617118323163L68.09831102159288,56.03639413024008L71.19368879530164,52.262306074151454L74.28906656901042,47.173657623684136L77.38444434271919,44.12200025341278L80.47982211642794,42.29155690442212L83.57519989013672,41.19348920823214L86.67057766384549,40.53471996748044L89.76595543755425,40.13948411532573L92.86133321126302,39.902351852523196L95.95671098497179,39.76007582413905L99.05208875868055,39.67471140562131L102.14746653238932,39.62349318596782L105.24284430609809,39.59276240949865L108.33822207980685,39.574323999533135L111.43359985351563,42.38802440807993L114.52897762722439,41.25148053218936L117.62435540093315,40.56955465334008L120.71973317464193,45.809921622355546L123.81511094835069,43.304619226385626L126.91048872205945,41.80143800148477L130.00586649576823,40.89952934310938L133.101244269477,40.3583841756477L136.19662204318576,42.85845767693141L139.29199981689453,44.35850175019573L142.38737759060328,42.43376762349237L145.48275536431208,44.10368770886089L148.57813313802083,42.28087920654198L151.67351091172958,46.83671520185828L154.76888868543838,43.920695704062695L157.86426645914713,44.99584455151978L160.95964423285588,42.81617331556896L164.05502200656468,41.508370574401255L167.15039978027343,40.72368892984571L170.2457775539822,40.252879943164544L173.34115532769098,39.97039455117459L176.43653310139973,39.800903315987426L179.5319108751085,39.69920857487756L182.62728864881728,39.63819173021247L185.72266642252603,39.60158162341381L188.8180441962348,39.579615559334684" fill="none"></path></g><g><path style="fill: none;" stroke="rgb(238, 51, 119)" stroke-width="2px" d="M34.04915551079644,195.79131209438754L37.14453328450521,155.7078000802456L40.23991105821397,128.287809648346L43.335288831922746,132.67951808559027L46.43066660563151,111.38125852700503L49.52604437934028,102.16269412875884L52.621422153049046,88.18048728094601L55.716799926757815,71.382433820971L58.81217770046658,58.5706589745957L61.907555474175346,59.43849207281011L65.00293324788412,59.957172513228116L68.09831102159288,51.78229313340357L71.19368879530164,46.88420411881566L74.28906656901042,43.947808407403585L77.38444434271919,42.1868548453746L80.47982211642794,43.955839465791826L83.57519989013672,42.19199112840084L86.67057766384549,41.13379678022369L89.76595543755425,46.14864909092327L92.86133321126302,43.50779810762279L95.95671098497179,44.748122318497025L99.05208875868055,42.667523545267414L102.14746653238932,41.41917479729449L105.24284430609809,40.670169334219054L108.33822207980685,45.87029814284409L111.43359985351563,43.34084288211983L114.52897762722439,41.82317138256508L117.62435540093315,40.912569079308184L120.71973317464193,40.36620791208517L123.81511094835069,42.863152207021386L126.91048872205945,41.536557803920175L130.00586649576823,43.56536190779627L133.101244269477,41.95788368390811L136.19662204318576,43.81815737088908L139.29199981689453,42.10956099019677L142.38737759060328,41.084403173060196L145.48275536431208,48.94359014814012L148.57813313802083,45.184820665796366L151.67351091172958,42.92955898174955L154.76888868543838,44.40116251879479L157.86426645914713,42.45936409562887L160.95964423285588,41.2942850423274L164.05502200656468,46.24475869809709L167.15039978027343,43.56552180386626L170.2457775539822,44.78274021096044L173.34115532769098,42.68831071178437L176.43653310139973,44.256413555670576L179.5319108751085,45.1972752619798L182.62728864881728,42.93703174245607L185.72266642252603,41.580885630753556L188.8180441962348,40.76719796373624" fill="none"></path></g><g><path style="fill: none;" stroke="rgb(51, 187, 238)" stroke-width="2px" d="M34.04915551079644,187.84666422704856L37.14453328450521,133.80147747041184L40.23991105821397,132.67553711776895L43.335288831922746,150.4788533331212L46.43066660563151,139.49044896774788L49.52604437934028,115.79827954017736L52.621422153049046,99.14167953571341L55.716799926757815,89.3285931503526L58.81217770046658,72.13662979054637L61.907555474175346,64.72327009544641L65.00293324788412,54.63065922548846L68.09831102159288,51.41762621976277L71.19368879530164,46.6655183675488L74.28906656901042,46.6427274331389L77.38444434271919,46.62905973263955L80.47982211642794,43.795622818653214L83.57519989013672,42.0958676494171L86.67057766384549,41.07612503592733L89.76595543755425,40.46431923825352L92.86133321126302,40.09725007586056L95.95671098497179,42.701811455761714L99.05208875868055,41.439743491811385L102.14746653238932,40.68250909230798L105.24284430609809,40.228170748974264L108.33822207980685,39.95556856966155L111.43359985351563,39.7920075596802L114.52897762722439,39.69387106082954L117.62435540093315,39.63498920008885L120.71973317464193,39.59966009752941L123.81511094835069,39.57846264099234L126.91048872205945,39.565744168869685L130.00586649576823,39.55811308624382L133.101244269477,39.55353443690163L136.19662204318576,42.3755478392182L139.29199981689453,41.24399527714607L142.38737759060328,40.56506374737239L145.48275536431208,45.807225939731666L148.57813313802083,43.30300214354628L151.67351091172958,44.625228416460004L154.76888868543838,45.418564179077094L157.86426645914713,43.06980509160243L160.95964423285588,41.66054963984101L164.05502200656468,46.46451745657993L167.15039978027343,46.52213760251871L170.2457775539822,49.38147023353261L173.34115532769098,45.447548725258855L176.43653310139973,43.087195820388814L179.5319108751085,44.49574462081702L182.62728864881728,42.516113357760645L185.72266642252603,41.32833459993711L188.8180441962348,40.61566734524666" fill="none"></path></g><g><path style="fill: none;" stroke="rgb(204, 51, 17)" stroke-width="2px" d="M34.04915551079644,194.02583233515418L37.14453328450521,133.22499789162907L40.23991105821397,125.87326565589393L43.335288831922746,134.37516031392582L46.43066660563151,153.84750357224814L49.52604437934028,162.02660996975212L52.621422153049046,146.67391156495864L55.716799926757815,146.1895593766453L58.81217770046658,111.79873568127357L61.907555474175346,96.96791435595324L65.00293324788412,88.10393238452782L68.09831102159288,74.31253457988178L71.19368879530164,63.22225707322987L74.28906656901042,62.22583395587121L77.38444434271919,55.977164683808326L80.47982211642794,55.054330277090756L83.57519989013672,60.1508339540067L86.67057766384549,54.73359739638279L89.76595543755425,57.13319438601883L92.86133321126302,61.39772836954248L95.95671098497179,58.30678401003222L99.05208875868055,53.627460580552736L102.14746653238932,53.64466410169152L105.24284430609809,48.00544901385044L108.33822207980685,44.62193022193193L111.43359985351563,51.066112943839414L114.52897762722439,46.45833152197821L117.62435540093315,54.992720244797894L120.71973317464193,51.63905853403635L123.81511094835069,46.8021010641132L126.91048872205945,43.89992699278022L130.00586649576823,47.80814405413619L133.101244269477,50.15307417150983L136.19662204318576,45.91051101525969L139.29199981689453,46.18973374060067L142.38737759060328,46.35726737396192L145.48275536431208,46.45778755331514L148.57813313802083,46.51809966068819L151.67351091172958,52.20380801913461L154.76888868543838,47.1409513927066L157.86426645914713,44.10323741944859L160.95964423285588,45.10536958052322L164.05502200656468,42.88188833321519L167.15039978027343,41.547799585076945L170.2457775539822,43.57210687973716L173.34115532769098,41.96193071306857L176.43653310139973,46.64534609978932L179.5319108751085,46.630634788438186L182.62728864881728,46.621808001627585L185.72266642252603,46.6165119295413L188.8180441962348,43.788573743002985" fill="none"></path></g><g><path style="fill: none;" stroke="rgb(0, 119, 187)" stroke-width="2px" d="M34.04915551079644,185.19845563740955L37.14453328450521,143.31342840333724L40.23991105821397,118.34402175761076L43.335288831922746,120.92274666533727L46.43066660563151,137.1503790962359L49.52604437934028,146.38844896886548L52.621422153049046,131.65183225587873L55.716799926757815,117.26285194437065L58.81217770046658,114.40672269194627L61.907555474175346,98.52890810161489L65.00293324788412,80.54638850179032L68.09831102159288,64.12505228159003L71.19368879530164,57.11296353278513L74.28906656901042,50.083139387200134L77.38444434271919,48.6929185643111L80.47982211642794,47.859037118878945L83.57519989013672,44.533751140714L86.67057766384549,45.363728388465205L89.76595543755425,43.03681854285486L92.86133321126302,41.640727085009985L95.95671098497179,40.803091811194264L99.05208875868055,40.30051770302342L102.14746653238932,39.99897577827991L105.24284430609809,39.81805153788159L108.33822207980685,39.7094973228418L111.43359985351563,39.64436491232914L114.52897762722439,39.60528550868548L117.62435540093315,39.58183788185835L120.71973317464193,39.567769311291244L123.81511094835069,39.55932817094157L126.91048872205945,39.55426348744831L130.00586649576823,39.55122467761032L133.101244269477,39.54940139180047L136.19662204318576,39.548307420347925L139.29199981689453,39.547651037488464L142.38737759060328,39.54725720777708L145.48275536431208,39.54702090995181L148.57813313802083,39.54687913125727L151.67351091172958,39.54679406404071L154.76888868543838,42.37150356925477L157.86426645914713,41.241568726295554L160.95964423285588,40.56360782086804L164.05502200656468,40.15683127773687L167.15039978027343,39.91276535190323L170.2457775539822,39.76632579641927L173.34115532769098,39.67846206313476L176.43653310139973,39.62574382316612L179.5319108751085,39.59411287918576L182.62728864881728,39.57513431279773L185.72266642252603,39.563747172965066L188.8180441962348,39.556914889065496" fill="none"></path></g><g><path style="fill: none;" stroke="rgb(255, 112, 67)" stroke-width="2px" d="M34.04915551079644,233.7490422072865L37.14453328450521,174.2993413600328L40.23991105821397,144.82616225010213L43.335288831922746,120.60419716168013L46.43066660563151,101.40944675224334L49.52604437934028,87.57614224536185L52.621422153049046,91.02029423527688L55.716799926757815,87.34235061709317L58.81217770046658,76.63360690718703L61.907555474175346,67.41490664299533L65.00293324788412,70.39791607838222L68.09831102159288,63.69818700773419L71.19368879530164,59.68395415646482L74.28906656901042,54.45133932552011L77.38444434271919,62.61558554924086L80.47982211642794,64.68742020900133L83.57519989013672,60.28019219935818L86.67057766384549,51.986276507070386L89.76595543755425,47.01025055813599L92.86133321126302,52.499218961231875L95.95671098497179,50.14292749139413L99.05208875868055,48.72917245855052L102.14746653238932,45.05615265624826L105.24284430609809,45.67712048774308L108.33822207980685,46.04970005676327L111.43359985351563,46.273247391421194L114.52897762722439,43.582613367836416L117.62435540093315,44.79299559523983L120.71973317464193,42.69446347849964L123.81511094835069,44.26010542333816L126.91048872205945,42.37472968923868L130.00586649576823,41.24350434481141L133.101244269477,40.564769172726784L136.19662204318576,40.157528081921754L139.29199981689453,39.913183431919265L142.38737759060328,39.7665766435307L145.48275536431208,42.50337312484541L148.57813313802083,44.14545100713042L151.67351091172958,45.13069773416001L154.76888868543838,45.72184576953498L157.86426645914713,43.25177404581876L160.95964423285588,41.76973101234981L164.05502200656468,40.8805051925423L167.15039978027343,43.1717302443283L170.2457775539822,41.72170473179307L173.34115532769098,43.67644996771378L176.43653310139973,42.02453656587767L179.5319108751085,41.03338852479973L182.62728864881728,40.438699700161465L185.72266642252603,40.08188640538165L188.8180441962348,39.867798428514845" fill="none"></path></g></g></g></g><g opacity="0.2"><g><g><g><path style="fill: none;" stroke="rgb(204, 51, 17)" stroke-width="2px" d="M34.04915551079644,194.90856705847244L37.14453328450521,103.10380225862781L40.23991105821397,117.22762854666934L43.335288831922746,81.91809818404062L46.43066660563151,60.73237053780336L49.52604437934028,60.73237053780336L52.621422153049046,60.73237053780336L55.716799926757815,67.79429546764916L58.81217770046658,46.608567821411924L61.907555474175346,39.546666463216184L65.00293324788412,53.670469179607636L68.09831102159288,46.608567821411924L71.19368879530164,53.670469179607636L74.28906656901042,39.546666463216184L77.38444434271919,53.670469179607636L80.47982211642794,39.546666463216184L83.57519989013672,46.608567821411924L86.67057766384549,46.608567821411924L89.76595543755425,39.546666463216184L92.86133321126302,39.546666463216184L95.95671098497179,39.546666463216184L99.05208875868055,39.546666463216184L102.14746653238932,39.546666463216184L105.24284430609809,39.546666463216184L108.33822207980685,46.608567821411924L111.43359985351563,39.546666463216184L114.52897762722439,39.546666463216184L117.62435540093315,39.546666463216184L120.71973317464193,39.546666463216184L123.81511094835069,39.546666463216184L126.91048872205945,46.608567821411924L130.00586649576823,46.608567821411924L133.101244269477,39.546666463216184L136.19662204318576,39.546666463216184L139.29199981689453,39.546666463216184L142.38737759060328,46.608567821411924L145.48275536431208,46.608567821411924L148.57813313802083,46.608567821411924L151.67351091172958,39.546666463216184L154.76888868543838,39.546666463216184L157.86426645914713,39.546666463216184L160.95964423285588,46.608567821411924L164.05502200656468,39.546666463216184L167.15039978027343,39.546666463216184L170.2457775539822,46.608567821411924L173.34115532769098,39.546666463216184L176.43653310139973,39.546666463216184L179.5319108751085,39.546666463216184L182.62728864881728,46.608567821411924L185.72266642252603,39.546666463216184L188.8180441962348,39.546666463216184" fill="none"></path></g><g><path style="fill: none;" stroke="rgb(0, 119, 187)" stroke-width="2px" d="M30.953777737087673,293.7752332165128L34.04915551079644,173.72286298388525L37.14453328450521,81.91809818404062L40.23991105821397,74.85619682584489L43.335288831922746,96.04190090043208L46.43066660563151,74.85619682584489L49.52604437934028,60.73237053780336L52.621422153049046,53.670469179607636L55.716799926757815,46.608567821411924L58.81217770046658,53.670469179607636L61.907555474175346,60.73237053780336L65.00293324788412,60.73237053780336L68.09831102159288,60.73237053780336L71.19368879530164,39.546666463216184L74.28906656901042,53.670469179607636L77.38444434271919,39.546666463216184L80.47982211642794,39.546666463216184L83.57519989013672,39.546666463216184L86.67057766384549,46.608567821411924L89.76595543755425,39.546666463216184L92.86133321126302,39.546666463216184L95.95671098497179,39.546666463216184L99.05208875868055,39.546666463216184L102.14746653238932,39.546666463216184L105.24284430609809,46.608567821411924L108.33822207980685,39.546666463216184L111.43359985351563,39.546666463216184L114.52897762722439,39.546666463216184L117.62435540093315,39.546666463216184L120.71973317464193,46.608567821411924L123.81511094835069,39.546666463216184L126.91048872205945,39.546666463216184L130.00586649576823,39.546666463216184L133.101244269477,46.608567821411924L136.19662204318576,39.546666463216184L139.29199981689453,39.546666463216184L142.38737759060328,39.546666463216184L145.48275536431208,60.73237053780336L148.57813313802083,46.608567821411924L151.67351091172958,46.608567821411924L154.76888868543838,39.546666463216184L157.86426645914713,53.670469179607636L160.95964423285588,39.546666463216184L164.05502200656468,39.546666463216184L167.15039978027343,39.546666463216184L170.2457775539822,46.608567821411924L173.34115532769098,46.608567821411924L176.43653310139973,46.608567821411924L179.5319108751085,39.546666463216184L182.62728864881728,53.670469179607636L185.72266642252603,39.546666463216184L188.8180441962348,39.546666463216184" fill="none"></path></g><g><path style="fill: none;" stroke="rgb(255, 112, 67)" stroke-width="2px" d="M30.953777737087673,265.52761599790483L34.04915551079644,96.04190090043208L37.14453328450521,96.04190090043208L40.23991105821397,110.16570361682355L43.335288831922746,110.16570361682355L46.43066660563151,67.79429546764916L49.52604437934028,74.85619682584489L52.621422153049046,60.73237053780336L55.716799926757815,60.73237053780336L58.81217770046658,53.670469179607636L61.907555474175346,53.670469179607636L65.00293324788412,53.670469179607636L68.09831102159288,46.608567821411924L71.19368879530164,39.546666463216184L74.28906656901042,46.608567821411924L77.38444434271919,67.79429546764916L80.47982211642794,53.670469179607636L83.57519989013672,46.608567821411924L86.67057766384549,46.608567821411924L89.76595543755425,39.546666463216184L92.86133321126302,46.608567821411924L95.95671098497179,39.546666463216184L99.05208875868055,46.608567821411924L102.14746653238932,39.546666463216184L105.24284430609809,39.546666463216184L108.33822207980685,53.670469179607636L111.43359985351563,39.546666463216184L114.52897762722439,46.608567821411924L117.62435540093315,46.608567821411924L120.71973317464193,39.546666463216184L123.81511094835069,39.546666463216184L126.91048872205945,39.546666463216184L130.00586649576823,39.546666463216184L133.101244269477,46.608567821411924L136.19662204318576,39.546666463216184L139.29199981689453,39.546666463216184L142.38737759060328,39.546666463216184L145.48275536431208,53.670469179607636L148.57813313802083,39.546666463216184L151.67351091172958,39.546666463216184L154.76888868543838,39.546666463216184L157.86426645914713,39.546666463216184L160.95964423285588,46.608567821411924L164.05502200656468,46.608567821411924L167.15039978027343,39.546666463216184L170.2457775539822,53.670469179607636L173.34115532769098,39.546666463216184L176.43653310139973,39.546666463216184L179.5319108751085,39.546666463216184L182.62728864881728,39.546666463216184L185.72266642252603,39.546666463216184L188.8180441962348,39.546666463216184L191.91342196994358,46.608567821411924L195.00879974365233,39.546666463216184L198.1041775173611,46.608567821411924L201.19955529106988,39.546666463216184L204.29493306477863,39.546666463216184L207.3903108384874,39.546666463216184L210.48568861219618,39.546666463216184L213.58106638590496,39.546666463216184L216.6764441596137,39.546666463216184L219.77182193332249,46.608567821411924L222.86719970703126,39.546666463216184L225.96257748074,46.608567821411924L229.05795525444879,39.546666463216184L232.15333302815756,39.546666463216184L235.2487108018663,46.608567821411924L238.34408857557509,39.546666463216184L241.43946634928386,46.608567821411924L244.5348441229926,39.546666463216184" fill="none"></path></g><g><path style="fill: none;" stroke="rgb(187, 187, 187)" stroke-width="2px" d="M30.953777737087673,244.3419001374926L34.04915551079644,88.97999954223634L37.14453328450521,74.85619682584489L40.23991105821397,88.97999954223634L43.335288831922746,67.79429546764916L46.43066660563151,60.73237053780336L49.52604437934028,53.670469179607636L52.621422153049046,67.79429546764916L55.716799926757815,53.670469179607636L58.81217770046658,53.670469179607636L61.907555474175346,46.608567821411924L65.00293324788412,46.608567821411924L68.09831102159288,39.546666463216184L71.19368879530164,39.546666463216184L74.28906656901042,39.546666463216184L77.38444434271919,53.670469179607636L80.47982211642794,46.608567821411924L83.57519989013672,53.670469179607636L86.67057766384549,39.546666463216184L89.76595543755425,39.546666463216184L92.86133321126302,46.608567821411924L95.95671098497179,39.546666463216184L99.05208875868055,39.546666463216184L102.14746653238932,39.546666463216184L105.24284430609809,39.546666463216184L108.33822207980685,39.546666463216184L111.43359985351563,39.546666463216184L114.52897762722439,39.546666463216184L117.62435540093315,39.546666463216184L120.71973317464193,53.670469179607636L123.81511094835069,39.546666463216184L126.91048872205945,46.608567821411924L130.00586649576823,39.546666463216184L133.101244269477,46.608567821411924L136.19662204318576,39.546666463216184L139.29199981689453,46.608567821411924L142.38737759060328,39.546666463216184L145.48275536431208,39.546666463216184L148.57813313802083,46.608567821411924L151.67351091172958,46.608567821411924L154.76888868543838,39.546666463216184L157.86426645914713,39.546666463216184L160.95964423285588,46.608567821411924L164.05502200656468,39.546666463216184L167.15039978027343,39.546666463216184L170.2457775539822,46.608567821411924L173.34115532769098,46.608567821411924L176.43653310139973,39.546666463216184L179.5319108751085,46.608567821411924L182.62728864881728,39.546666463216184L185.72266642252603,39.546666463216184L188.8180441962348,39.546666463216184" fill="none"></path></g><g><path style="fill: none;" stroke="rgb(0, 153, 136)" stroke-width="2px" d="M30.953777737087673,279.6514305001213L34.04915551079644,159.59903669584372L37.14453328450521,117.22762854666934L40.23991105821397,81.91809818404062L43.335288831922746,88.97999954223634L46.43066660563151,67.79429546764916L49.52604437934028,60.73237053780336L52.621422153049046,81.91809818404062L55.716799926757815,88.97999954223634L58.81217770046658,67.79429546764916L61.907555474175346,46.608567821411924L65.00293324788412,46.608567821411924L68.09831102159288,53.670469179607636L71.19368879530164,46.608567821411924L74.28906656901042,39.546666463216184L77.38444434271919,39.546666463216184L80.47982211642794,39.546666463216184L83.57519989013672,39.546666463216184L86.67057766384549,39.546666463216184L89.76595543755425,39.546666463216184L92.86133321126302,39.546666463216184L95.95671098497179,39.546666463216184L99.05208875868055,39.546666463216184L102.14746653238932,39.546666463216184L105.24284430609809,39.546666463216184L108.33822207980685,39.546666463216184L111.43359985351563,46.608567821411924L114.52897762722439,39.546666463216184L117.62435540093315,39.546666463216184L120.71973317464193,53.670469179607636L123.81511094835069,39.546666463216184L126.91048872205945,39.546666463216184L130.00586649576823,39.546666463216184L133.101244269477,39.546666463216184L136.19662204318576,46.608567821411924L139.29199981689453,46.608567821411924L142.38737759060328,39.546666463216184L145.48275536431208,46.608567821411924L148.57813313802083,39.546666463216184L151.67351091172958,53.670469179607636L154.76888868543838,39.546666463216184L157.86426645914713,46.608567821411924L160.95964423285588,39.546666463216184L164.05502200656468,39.546666463216184L167.15039978027343,39.546666463216184L170.2457775539822,39.546666463216184L173.34115532769098,39.546666463216184L176.43653310139973,39.546666463216184L179.5319108751085,39.546666463216184L182.62728864881728,39.546666463216184L185.72266642252603,39.546666463216184L188.8180441962348,39.546666463216184" fill="none"></path></g><g><path style="fill: none;" stroke="rgb(238, 51, 119)" stroke-width="2px" d="M30.953777737087673,314.960949076925L34.04915551079644,124.28952990486506L37.14453328450521,117.22762854666934L40.23991105821397,96.04190090043208L43.335288831922746,138.41333262125653L46.43066660563151,81.91809818404062L49.52604437934028,88.97999954223634L52.621422153049046,67.79429546764916L55.716799926757815,46.608567821411924L58.81217770046658,39.546666463216184L61.907555474175346,60.73237053780336L65.00293324788412,60.73237053780336L68.09831102159288,39.546666463216184L71.19368879530164,39.546666463216184L74.28906656901042,39.546666463216184L77.38444434271919,39.546666463216184L80.47982211642794,46.608567821411924L83.57519989013672,39.546666463216184L86.67057766384549,39.546666463216184L89.76595543755425,53.670469179607636L92.86133321126302,39.546666463216184L95.95671098497179,46.608567821411924L99.05208875868055,39.546666463216184L102.14746653238932,39.546666463216184L105.24284430609809,39.546666463216184L108.33822207980685,53.670469179607636L111.43359985351563,39.546666463216184L114.52897762722439,39.546666463216184L117.62435540093315,39.546666463216184L120.71973317464193,39.546666463216184L123.81511094835069,46.608567821411924L126.91048872205945,39.546666463216184L130.00586649576823,46.608567821411924L133.101244269477,39.546666463216184L136.19662204318576,46.608567821411924L139.29199981689453,39.546666463216184L142.38737759060328,39.546666463216184L145.48275536431208,60.73237053780336L148.57813313802083,39.546666463216184L151.67351091172958,39.546666463216184L154.76888868543838,46.608567821411924L157.86426645914713,39.546666463216184L160.95964423285588,39.546666463216184L164.05502200656468,53.670469179607636L167.15039978027343,39.546666463216184L170.2457775539822,46.608567821411924L173.34115532769098,39.546666463216184L176.43653310139973,46.608567821411924L179.5319108751085,46.608567821411924L182.62728864881728,39.546666463216184L185.72266642252603,39.546666463216184L188.8180441962348,39.546666463216184" fill="none"></path></g><g><path style="fill: none;" stroke="rgb(51, 187, 238)" stroke-width="2px" d="M30.953777737087673,258.4657146397091L34.04915551079644,145.47523397945224L37.14453328450521,81.91809818404062L40.23991105821397,131.3514312630608L43.335288831922746,173.72286298388525L46.43066660563151,124.28952990486506L49.52604437934028,81.91809818404062L52.621422153049046,74.85619682584489L55.716799926757815,74.85619682584489L58.81217770046658,46.608567821411924L61.907555474175346,53.670469179607636L65.00293324788412,39.546666463216184L68.09831102159288,46.608567821411924L71.19368879530164,39.546666463216184L74.28906656901042,46.608567821411924L77.38444434271919,46.608567821411924L80.47982211642794,39.546666463216184L83.57519989013672,39.546666463216184L86.67057766384549,39.546666463216184L89.76595543755425,39.546666463216184L92.86133321126302,39.546666463216184L95.95671098497179,46.608567821411924L99.05208875868055,39.546666463216184L102.14746653238932,39.546666463216184L105.24284430609809,39.546666463216184L108.33822207980685,39.546666463216184L111.43359985351563,39.546666463216184L114.52897762722439,39.546666463216184L117.62435540093315,39.546666463216184L120.71973317464193,39.546666463216184L123.81511094835069,39.546666463216184L126.91048872205945,39.546666463216184L130.00586649576823,39.546666463216184L133.101244269477,39.546666463216184L136.19662204318576,46.608567821411924L139.29199981689453,39.546666463216184L142.38737759060328,39.546666463216184L145.48275536431208,53.670469179607636L148.57813313802083,39.546666463216184L151.67351091172958,46.608567821411924L154.76888868543838,46.608567821411924L157.86426645914713,39.546666463216184L160.95964423285588,39.546666463216184L164.05502200656468,53.670469179607636L167.15039978027343,46.608567821411924L170.2457775539822,53.670469179607636L173.34115532769098,39.546666463216184L176.43653310139973,39.546666463216184L179.5319108751085,46.608567821411924L182.62728864881728,39.546666463216184L185.72266642252603,39.546666463216184L188.8180441962348,39.546666463216184" fill="none"></path></g><g><path style="fill: none;" stroke="rgb(204, 51, 17)" stroke-width="2px" d="M30.953777737087673,286.713331858317L34.04915551079644,138.41333262125653L37.14453328450521,74.85619682584489L40.23991105821397,117.22762854666934L43.335288831922746,145.47523397945224L46.43066660563151,180.78476434208096L49.52604437934028,173.72286298388525L52.621422153049046,124.28952990486506L55.716799926757815,145.47523397945224L58.81217770046658,60.73237053780336L61.907555474175346,74.85619682584489L65.00293324788412,74.85619682584489L68.09831102159288,53.670469179607636L71.19368879530164,46.608567821411924L74.28906656901042,60.73237053780336L77.38444434271919,46.608567821411924L80.47982211642794,53.670469179607636L83.57519989013672,67.79429546764916L86.67057766384549,46.608567821411924L89.76595543755425,60.73237053780336L92.86133321126302,67.79429546764916L95.95671098497179,53.670469179607636L99.05208875868055,46.608567821411924L102.14746653238932,53.670469179607636L105.24284430609809,39.546666463216184L108.33822207980685,39.546666463216184L111.43359985351563,60.73237053780336L114.52897762722439,39.546666463216184L117.62435540093315,67.79429546764916L120.71973317464193,46.608567821411924L123.81511094835069,39.546666463216184L126.91048872205945,39.546666463216184L130.00586649576823,53.670469179607636L133.101244269477,53.670469179607636L136.19662204318576,39.546666463216184L139.29199981689453,46.608567821411924L142.38737759060328,46.608567821411924L145.48275536431208,46.608567821411924L148.57813313802083,46.608567821411924L151.67351091172958,60.73237053780336L154.76888868543838,39.546666463216184L157.86426645914713,39.546666463216184L160.95964423285588,46.608567821411924L164.05502200656468,39.546666463216184L167.15039978027343,39.546666463216184L170.2457775539822,46.608567821411924L173.34115532769098,39.546666463216184L176.43653310139973,53.670469179607636L179.5319108751085,46.608567821411924L182.62728864881728,46.608567821411924L185.72266642252603,46.608567821411924L188.8180441962348,39.546666463216184" fill="none"></path></g><g><path style="fill: none;" stroke="rgb(0, 119, 187)" stroke-width="2px" d="M30.953777737087673,286.713331858317L34.04915551079644,124.28952990486506L37.14453328450521,103.10380225862781L40.23991105821397,88.97999954223634L43.335288831922746,124.28952990486506L46.43066660563151,159.59903669584372L49.52604437934028,159.59903669584372L52.621422153049046,110.16570361682355L55.716799926757815,96.04190090043208L58.81217770046658,110.16570361682355L61.907555474175346,74.85619682584489L65.00293324788412,53.670469179607636L68.09831102159288,39.546666463216184L71.19368879530164,46.608567821411924L74.28906656901042,39.546666463216184L77.38444434271919,46.608567821411924L80.47982211642794,46.608567821411924L83.57519989013672,39.546666463216184L86.67057766384549,46.608567821411924L89.76595543755425,39.546666463216184L92.86133321126302,39.546666463216184L95.95671098497179,39.546666463216184L99.05208875868055,39.546666463216184L102.14746653238932,39.546666463216184L105.24284430609809,39.546666463216184L108.33822207980685,39.546666463216184L111.43359985351563,39.546666463216184L114.52897762722439,39.546666463216184L117.62435540093315,39.546666463216184L120.71973317464193,39.546666463216184L123.81511094835069,39.546666463216184L126.91048872205945,39.546666463216184L130.00586649576823,39.546666463216184L133.101244269477,39.546666463216184L136.19662204318576,39.546666463216184L139.29199981689453,39.546666463216184L142.38737759060328,39.546666463216184L145.48275536431208,39.546666463216184L148.57813313802083,39.546666463216184L151.67351091172958,39.546666463216184L154.76888868543838,46.608567821411924L157.86426645914713,39.546666463216184L160.95964423285588,39.546666463216184L164.05502200656468,39.546666463216184L167.15039978027343,39.546666463216184L170.2457775539822,39.546666463216184L173.34115532769098,39.546666463216184L176.43653310139973,39.546666463216184L179.5319108751085,39.546666463216184L182.62728864881728,39.546666463216184L185.72266642252603,39.546666463216184L188.8180441962348,39.546666463216184" fill="none"></path></g><g><path style="fill: none;" stroke="rgb(255, 112, 67)" stroke-width="2px" d="M34.04915551079644,201.97046841666815L37.14453328450521,117.22762854666934L40.23991105821397,110.16570361682355L43.335288831922746,88.97999954223634L46.43066660563151,74.85619682584489L49.52604437934028,67.79429546764916L52.621422153049046,96.04190090043208L55.716799926757815,81.91809818404062L58.81217770046658,60.73237053780336L61.907555474175346,53.670469179607636L65.00293324788412,74.85619682584489L68.09831102159288,53.670469179607636L71.19368879530164,53.670469179607636L74.28906656901042,46.608567821411924L77.38444434271919,74.85619682584489L80.47982211642794,67.79429546764916L83.57519989013672,53.670469179607636L86.67057766384549,39.546666463216184L89.76595543755425,39.546666463216184L92.86133321126302,60.73237053780336L95.95671098497179,46.608567821411924L99.05208875868055,46.608567821411924L102.14746653238932,39.546666463216184L105.24284430609809,46.608567821411924L108.33822207980685,46.608567821411924L111.43359985351563,46.608567821411924L114.52897762722439,39.546666463216184L117.62435540093315,46.608567821411924L120.71973317464193,39.546666463216184L123.81511094835069,46.608567821411924L126.91048872205945,39.546666463216184L130.00586649576823,39.546666463216184L133.101244269477,39.546666463216184L136.19662204318576,39.546666463216184L139.29199981689453,39.546666463216184L142.38737759060328,39.546666463216184L145.48275536431208,46.608567821411924L148.57813313802083,46.608567821411924L151.67351091172958,46.608567821411924L154.76888868543838,46.608567821411924L157.86426645914713,39.546666463216184L160.95964423285588,39.546666463216184L164.05502200656468,39.546666463216184L167.15039978027343,46.608567821411924L170.2457775539822,39.546666463216184L173.34115532769098,46.608567821411924L176.43653310139973,39.546666463216184L179.5319108751085,39.546666463216184L182.62728864881728,39.546666463216184L185.72266642252603,39.546666463216184L188.8180441962348,39.546666463216184" fill="none"></path></g></g></g></g></g></g><g transform="translate(51, 177)" clip-path="url(#clip_1)"><clipPath id="clip_1"><rect width="278" height="22"></rect></clipPath><g><g><line x1="0" y1="0" x2="0" y2="5" style="visibility: inherit;" fill="rgb(0, 0, 0)" stroke="rgb(204, 204, 204)" stroke-width="1px"></line><line x1="30.953777737087673" y1="0" x2="30.953777737087673" y2="5" style="visibility: inherit;" fill="rgb(0, 0, 0)" stroke="rgb(204, 204, 204)" stroke-width="1px"></line><line x1="61.907555474175346" y1="0" x2="61.907555474175346" y2="5" style="visibility: inherit;" fill="rgb(0, 0, 0)" stroke="rgb(204, 204, 204)" stroke-width="1px"></line><line x1="92.86133321126302" y1="0" x2="92.86133321126302" y2="5" style="visibility: inherit;" fill="rgb(0, 0, 0)" stroke="rgb(204, 204, 204)" stroke-width="1px"></line><line x1="123.81511094835069" y1="0" x2="123.81511094835069" y2="5" style="visibility: inherit;" fill="rgb(0, 0, 0)" stroke="rgb(204, 204, 204)" stroke-width="1px"></line><line x1="154.76888868543838" y1="0" x2="154.76888868543838" y2="5" style="visibility: inherit;" fill="rgb(0, 0, 0)" stroke="rgb(204, 204, 204)" stroke-width="1px"></line><line x1="185.72266642252603" y1="0" x2="185.72266642252603" y2="5" style="visibility: inherit;" fill="rgb(0, 0, 0)" stroke="rgb(204, 204, 204)" stroke-width="1px"></line><line x1="216.6764441596137" y1="0" x2="216.6764441596137" y2="5" style="visibility: inherit;" fill="rgb(0, 0, 0)" stroke="rgb(204, 204, 204)" stroke-width="1px"></line><line x1="247.63022189670139" y1="0" x2="247.63022189670139" y2="5" style="visibility: inherit;" fill="rgb(0, 0, 0)" stroke="rgb(204, 204, 204)" stroke-width="1px"></line><line x1="278.58399963378906" y1="0" x2="278.58399963378906" y2="5" style="visibility: inherit;" fill="rgb(0, 0, 0)" stroke="rgb(204, 204, 204)" stroke-width="1px"></line></g><g transform="translate(0, 8)"><text style="text-anchor: middle; visibility: hidden; font-family: &quot;Helvetica Neue&quot;, sans-serif; font-size: 12px; font-weight: 200;" x="0" y="0" dx="0em" dy="0.95em" fill="rgb(50, 49, 63)" stroke="none" stroke-width="1px">-10</text><text style="text-anchor: middle; visibility: inherit; font-family: &quot;Helvetica Neue&quot;, sans-serif; font-size: 12px; font-weight: 200;" x="30.953777737087673" y="0" dx="0em" dy="0.95em" fill="rgb(50, 49, 63)" stroke="none" stroke-width="1px">0</text><text style="text-anchor: middle; visibility: inherit; font-family: &quot;Helvetica Neue&quot;, sans-serif; font-size: 12px; font-weight: 200;" x="61.907555474175346" y="0" dx="0em" dy="0.95em" fill="rgb(50, 49, 63)" stroke="none" stroke-width="1px">10</text><text style="text-anchor: middle; visibility: inherit; font-family: &quot;Helvetica Neue&quot;, sans-serif; font-size: 12px; font-weight: 200;" x="92.86133321126302" y="0" dx="0em" dy="0.95em" fill="rgb(50, 49, 63)" stroke="none" stroke-width="1px">20</text><text style="text-anchor: middle; visibility: inherit; font-family: &quot;Helvetica Neue&quot;, sans-serif; font-size: 12px; font-weight: 200;" x="123.81511094835069" y="0" dx="0em" dy="0.95em" fill="rgb(50, 49, 63)" stroke="none" stroke-width="1px">30</text><text style="text-anchor: middle; visibility: inherit; font-family: &quot;Helvetica Neue&quot;, sans-serif; font-size: 12px; font-weight: 200;" x="154.76888868543838" y="0" dx="0em" dy="0.95em" fill="rgb(50, 49, 63)" stroke="none" stroke-width="1px">40</text><text style="text-anchor: middle; visibility: inherit; font-family: &quot;Helvetica Neue&quot;, sans-serif; font-size: 12px; font-weight: 200;" x="185.72266642252603" y="0" dx="0em" dy="0.95em" fill="rgb(50, 49, 63)" stroke="none" stroke-width="1px">50</text><text style="text-anchor: middle; visibility: inherit; font-family: &quot;Helvetica Neue&quot;, sans-serif; font-size: 12px; font-weight: 200;" x="216.6764441596137" y="0" dx="0em" dy="0.95em" fill="rgb(50, 49, 63)" stroke="none" stroke-width="1px">60</text><text style="text-anchor: middle; visibility: inherit; font-family: &quot;Helvetica Neue&quot;, sans-serif; font-size: 12px; font-weight: 200;" x="247.63022189670139" y="0" dx="0em" dy="0.95em" fill="rgb(50, 49, 63)" stroke="none" stroke-width="1px">70</text><text style="text-anchor: middle; visibility: hidden; font-family: &quot;Helvetica Neue&quot;, sans-serif; font-size: 12px; font-weight: 200;" x="278.58399963378906" y="0" dx="0em" dy="0.95em" fill="rgb(50, 49, 63)" stroke="none" stroke-width="1px">80</text></g><line x1="0" y1="0" x2="278.58399963378906" y2="0" fill="rgb(0, 0, 0)" stroke="rgb(204, 204, 204)" stroke-width="1px"></line></g></g></g></g></svg>