<svg viewBox="0 0 330 200" xmlns="http://www.w3.org/2000/svg"><g><g><g><g><g><line x1="51.41600036621094" y1="177.95999908447266" x2="46.41600036621094" y2="177.95999908447266" style="visibility: inherit;" fill="rgb(0, 0, 0)" stroke="rgb(204, 204, 204)" stroke-width="1px"></line><line x1="51.41600036621094" y1="152.53714207240512" x2="46.41600036621094" y2="152.53714207240512" style="visibility: inherit;" fill="rgb(0, 0, 0)" stroke="rgb(204, 204, 204)" stroke-width="1px"></line><line x1="51.41600036621094" y1="127.11428506033758" x2="46.41600036621094" y2="127.11428506033758" style="visibility: inherit;" fill="rgb(0, 0, 0)" stroke="rgb(204, 204, 204)" stroke-width="1px"></line><line x1="51.41600036621094" y1="101.6914280482701" x2="46.41600036621094" y2="101.6914280482701" style="visibility: inherit;" fill="rgb(0, 0, 0)" stroke="rgb(204, 204, 204)" stroke-width="1px"></line><line x1="51.41600036621094" y1="76.26857103620256" x2="46.41600036621094" y2="76.26857103620256" style="visibility: inherit;" fill="rgb(0, 0, 0)" stroke="rgb(204, 204, 204)" stroke-width="1px"></line><line x1="51.41600036621094" y1="50.84571402413508" x2="46.41600036621094" y2="50.84571402413508" style="visibility: inherit;" fill="rgb(0, 0, 0)" stroke="rgb(204, 204, 204)" stroke-width="1px"></line><line x1="51.41600036621094" y1="25.42285701206754" x2="46.41600036621094" y2="25.42285701206754" style="visibility: inherit;" fill="rgb(0, 0, 0)" stroke="rgb(204, 204, 204)" stroke-width="1px"></line><line x1="51.41600036621094" y1="0" x2="46.41600036621094" y2="0" style="visibility: inherit;" fill="rgb(0, 0, 0)" stroke="rgb(204, 204, 204)" stroke-width="1px"></line></g><g transform="translate(41.41600036621094, 0)"><text style="text-anchor: end; visibility: hidden; font-family: &quot;Helvetica Neue&quot;, sans-serif; font-size: 12px; font-weight: 200;" x="0" y="177.95999908447266" dx="0em" dy="0.3em" fill="rgb(50, 49, 63)" stroke="none" stroke-width="1px">0.7</text><text style="text-anchor: end; visibility: inherit; font-family: &quot;Helvetica Neue&quot;, sans-serif; font-size: 12px; font-weight: 200;" x="0" y="152.53714207240512" dx="0em" dy="0.3em" fill="rgb(50, 49, 63)" stroke="none" stroke-width="1px">0.75</text><text style="text-anchor: end; visibility: inherit; font-family: &quot;Helvetica Neue&quot;, sans-serif; font-size: 12px; font-weight: 200;" x="0" y="127.11428506033758" dx="0em" dy="0.3em" fill="rgb(50, 49, 63)" stroke="none" stroke-width="1px">0.8</text><text style="text-anchor: end; visibility: inherit; font-family: &quot;Helvetica Neue&quot;, sans-serif; font-size: 12px; font-weight: 200;" x="0" y="101.6914280482701" dx="0em" dy="0.3em" fill="rgb(50, 49, 63)" stroke="none" stroke-width="1px">0.85</text><text style="text-anchor: end; visibility: inherit; font-family: &quot;Helvetica Neue&quot;, sans-serif; font-size: 12px; font-weight: 200;" x="0" y="76.26857103620256" dx="0em" dy="0.3em" fill="rgb(50, 49, 63)" stroke="none" stroke-width="1px">0.9</text><text style="text-anchor: end; visibility: inherit; font-family: &quot;Helvetica Neue&quot;, sans-serif; font-size: 12px; font-weight: 200;" x="0" y="50.84571402413508" dx="0em" dy="0.3em" fill="rgb(50, 49, 63)" stroke="none" stroke-width="1px">0.95</text><text style="text-anchor: end; visibility: inherit; font-family: &quot;Helvetica Neue&quot;, sans-serif; font-size: 12px; font-weight: 200;" x="0" y="25.42285701206754" dx="0em" dy="0.3em" fill="rgb(50, 49, 63)" stroke="none" stroke-width="1px">1</text><text style="text-anchor: end; visibility: hidden; font-family: &quot;Helvetica Neue&quot;, sans-serif; font-size: 12px; font-weight: 200;" x="0" y="0" dx="0em" dy="0.3em" fill="rgb(50, 49, 63)" stroke="none" stroke-width="1px">1.05</text></g><line x1="51.41600036621094" y1="0" x2="51.41600036621094" y2="177.95999908447266" fill="rgb(0, 0, 0)" stroke="rgb(204, 204, 204)" stroke-width="1px"></line></g></g><g transform="translate(51, 0)" clip-path="url(#clip_0)"><clipPath id="clip_0"><rect width="278" height="177"></rect></clipPath><g><g><g><line x1="0" y1="0" x2="0" y2="177.95999908447266" fill="rgb(0, 0, 0)" stroke="rgb(60, 60, 60)" stroke-width="1px" opacity="0.25"></line><line x1="30.953777737087673" y1="0" x2="30.953777737087673" y2="177.95999908447266" fill="rgb(0, 0, 0)" stroke="rgb(60, 60, 60)" stroke-width="1px" opacity="0.25"></line><line x1="61.907555474175346" y1="0" x2="61.907555474175346" y2="177.95999908447266" fill="rgb(0, 0, 0)" stroke="rgb(60, 60, 60)" stroke-width="1px" opacity="0.25"></line><line x1="92.86133321126302" y1="0" x2="92.86133321126302" y2="177.95999908447266" fill="rgb(0, 0, 0)" stroke="rgb(60, 60, 60)" stroke-width="1px" opacity="0.25"></line><line x1="123.81511094835069" y1="0" x2="123.81511094835069" y2="177.95999908447266" fill="rgb(0, 0, 0)" stroke="rgb(60, 60, 60)" stroke-width="1px" opacity="0.25"></line><line x1="154.76888868543838" y1="0" x2="154.76888868543838" y2="177.95999908447266" fill="rgb(0, 0, 0)" stroke="rgb(60, 60, 60)" stroke-width="1px" opacity="0.25"></line><line x1="185.72266642252603" y1="0" x2="185.72266642252603" y2="177.95999908447266" fill="rgb(0, 0, 0)" stroke="rgb(60, 60, 60)" stroke-width="1px" opacity="0.25"></line><line x1="216.6764441596137" y1="0" x2="216.6764441596137" y2="177.95999908447266" fill="rgb(0, 0, 0)" stroke="rgb(60, 60, 60)" stroke-width="1px" opacity="0.25"></line><line x1="247.63022189670139" y1="0" x2="247.63022189670139" y2="177.95999908447266" fill="rgb(0, 0, 0)" stroke="rgb(60, 60, 60)" stroke-width="1px" opacity="0.25"></line><line x1="278.58399963378906" y1="0" x2="278.58399963378906" y2="177.95999908447266" fill="rgb(0, 0, 0)" stroke="rgb(60, 60, 60)" stroke-width="1px" opacity="0.25"></line></g><g><line x1="0" y1="177.95999908447266" x2="278.58399963378906" y2="177.95999908447266" fill="rgb(0, 0, 0)" stroke="rgb(60, 60, 60)" stroke-width="1px" opacity="0.25"></line><line x1="0" y1="152.53714207240512" x2="278.58399963378906" y2="152.53714207240512" fill="rgb(0, 0, 0)" stroke="rgb(60, 60, 60)" stroke-width="1px" opacity="0.25"></line><line x1="0" y1="127.11428506033758" x2="278.58399963378906" y2="127.11428506033758" fill="rgb(0, 0, 0)" stroke="rgb(60, 60, 60)" stroke-width="1px" opacity="0.25"></line><line x1="0" y1="101.6914280482701" x2="278.58399963378906" y2="101.6914280482701" fill="rgb(0, 0, 0)" stroke="rgb(60, 60, 60)" stroke-width="1px" opacity="0.25"></line><line x1="0" y1="76.26857103620256" x2="278.58399963378906" y2="76.26857103620256" fill="rgb(0, 0, 0)" stroke="rgb(60, 60, 60)" stroke-width="1px" opacity="0.25"></line><line x1="0" y1="50.84571402413508" x2="278.58399963378906" y2="50.84571402413508" fill="rgb(0, 0, 0)" stroke="rgb(60, 60, 60)" stroke-width="1px" opacity="0.25"></line><line x1="0" y1="25.42285701206754" x2="278.58399963378906" y2="25.42285701206754" fill="rgb(0, 0, 0)" stroke="rgb(60, 60, 60)" stroke-width="1px" opacity="0.25"></line><line x1="0" y1="0" x2="278.58399963378906" y2="0" fill="rgb(0, 0, 0)" stroke="rgb(60, 60, 60)" stroke-width="1px" opacity="0.25"></line></g></g></g><g><g><line x1="0" y1="533.8799972534179" x2="278.58399963378906" y2="533.8799972534179" fill="rgb(0, 0, 0)" stroke="rgb(153, 153, 153)" stroke-width="1.5px"></line></g></g><g><g><line x1="30.953777737087673" y1="0" x2="30.953777737087673" y2="177.95999908447266" fill="rgb(0, 0, 0)" stroke="rgb(153, 153, 153)" stroke-width="1.5px"></line></g></g><g><g><g><g><g><path style="fill: none;" stroke="rgb(204, 51, 17)" stroke-width="2px" d="M30.953777737087673,330.497138126237L34.04915551079644,150.78384633072193L37.14453328450521,128.66560120747903L40.23991105821397,81.21948714708769L43.335288831922746,130.52945989892126L46.43066660563151,130.5678183292062L49.52604437934028,87.29857182336488L52.621422153049046,91.67651045281886L55.716799926757815,125.78032438633207L58.81217770046658,109.94754638388966L61.907555474175346,97.88492984533495L65.00293324788412,83.93513493565627L68.09831102159288,60.49961535118082L71.19368879530164,54.28646627039802L74.28906656901042,42.73559151919915L77.38444434271919,35.80854351997249L80.47982211642794,31.653565617851058L83.57519989013672,29.1610290336302L86.67057766384549,27.665669103791345L89.76595543755425,26.7685114655971L92.86133321126302,26.230237876104155L95.95671098497179,25.907281279679722L99.05208875868055,25.713510042364845L102.14746653238932,25.59724827935335L105.24284430609809,25.527491574118642L108.33822207980685,25.485637677903156L111.43359985351563,25.460525385866703L114.52897762722439,25.445458027094247L117.62435540093315,25.436417617752596L120.71973317464193,25.430993374279353L123.81511094835069,25.4277388289629L126.91048872205945,25.425786102049386L130.00586649576823,25.42461446600069L133.101244269477,25.423911484407284L136.19662204318576,25.423489695464156L139.29199981689453,25.423236622102877L142.38737759060328,25.423084778087798L145.48275536431208,25.422993671679336L148.57813313802083,25.422939007834515L151.67351091172958,25.42290620952764L154.76888868543838,25.42288653054362L157.86426645914713,25.422874723153143L160.95964423285588,25.422867638718884L164.05502200656468,25.422863388058346L167.15039978027343,25.42286083766203L170.2457775539822,25.42285930742426L173.34115532769098,25.422858389281544L176.43653310139973,25.422857838395913L179.5319108751085,25.42285750786459L182.62728864881728,25.422857309545748L185.72266642252603,25.42285719055451L188.8180441962348,25.422857119159715" fill="none"></path></g><g><path style="fill: none;" stroke="rgb(0, 119, 187)" stroke-width="2px" d="M30.953777737087673,313.54856779507224L34.04915551079644,133.46999855569425L37.14453328450521,162.02677707822616L40.23991105821397,99.24924028311652L43.335288831922746,132.5714060231968L46.43066660563151,146.46586775236025L49.52604437934028,117.5782865209631L52.621422153049046,109.63743083098151L55.716799926757815,121.26496763432154L58.81217770046658,99.06451080583831L61.907555474175346,105.95119594397957L65.00293324788412,81.21871703210174L68.09831102159288,72.00981976096288L71.19368879530164,61.18897813652124L74.28906656901042,53.65842312659596L77.38444434271919,42.3610095562494L80.47982211642794,35.584601519065586L83.57519989013672,31.519490863804407L86.67057766384549,29.080688712325156L89.76595543755425,27.61750253581718L92.86133321126302,26.7396250683627L95.95671098497179,26.212910913143162L99.05208875868055,25.896886856975414L102.14746653238932,25.70727402055431L105.24284430609809,25.59350689371638L108.33822207980685,25.525246824617682L111.43359985351563,25.484290857679525L114.52897762722439,25.459717304344252L117.62435540093315,25.444973182001064L120.71973317464193,25.43612671207191L123.81511094835069,25.430818831366054L126.91048872205945,25.427634103393217L130.00586649576823,25.425723266771712L133.101244269477,25.42457676485722L136.19662204318576,25.423888863729502L139.29199981689453,25.42347612306048L142.38737759060328,25.42322847866174L145.48275536431208,25.423079892023537L148.57813313802083,25.422990740040945L151.67351091172958,25.422937248851525L154.76888868543838,25.422905154137936L157.86426645914713,25.422885897309726L160.95964423285588,25.42287434321281L164.05502200656468,25.42286741075472L167.15039978027343,25.422863251279836L170.2457775539822,25.42286075559494L173.34115532769098,25.42285925818399L176.43653310139973,25.422858359737376L179.5319108751085,25.422857820669464L182.62728864881728,25.422857497228676L185.72266642252603,25.42285730316425L188.8180441962348,25.422857186725565" fill="none"></path></g><g><path style="fill: none;" stroke="rgb(255, 112, 67)" stroke-width="2px" d="M30.953777737087673,313.54856779507224L34.04915551079644,144.42813245653508L37.14453328450521,159.02574695232408L40.23991105821397,97.62736003125029L43.335288831922746,131.6529783441386L46.43066660563151,116.50709409958598L49.52604437934028,92.97346451641089L52.621422153049046,109.81819231361705L55.716799926757815,121.37268844218684L58.81217770046658,140.0529018655979L61.907555474175346,123.1944138221606L65.00293324788412,121.74613216986992L68.09831102159288,89.73575749504549L71.19368879530164,63.99042218504492L74.28906656901042,55.3387624290924L77.38444434271919,43.36902346736497L80.47982211642794,36.18934160494797L83.57519989013672,31.882310345887817L86.67057766384549,36.312004636633986L89.76595543755425,31.956186331188746L92.86133321126302,35.69865095481893L95.95671098497179,31.58827927630597L99.05208875868055,29.122090894375646L102.14746653238932,27.64239033006686L105.24284430609809,26.754574478781024L108.33822207980685,26.221886583427448L111.43359985351563,25.90227442776353L114.52897762722439,25.710507343722043L117.62435540093315,25.59544716866563L120.71973317464193,25.52641109076427L123.81511094835069,25.484989453791258L126.91048872205945,25.46013647512379L130.00586649576823,25.44522468918916L133.101244269477,25.436277618084205L136.19662204318576,25.43090937558523L139.29199981689453,25.42768843014497L142.38737759060328,25.425755862902008L145.48275536431208,25.424596322563843L148.57813313802083,25.42390059836376L151.67351091172958,25.423483163844708L154.76888868543838,25.423232703133635L157.86426645914713,25.42308242670714L160.95964423285588,25.42299226085126L164.05502200656468,25.422938161337754L167.15039978027343,25.422905701629674L170.2457775539822,25.42288622580486L173.34115532769098,25.42287454030992L176.43653310139973,25.42286752901296L179.5319108751085,25.422863322234775L182.62728864881728,25.422860798167846L185.72266642252603,25.422859283727746L188.8180441962348,25.422858375063697L191.91342196994358,25.422857829865194L195.00879974365233,25.422857502746155L198.1041775173611,25.422857306474697L201.19955529106988,25.422857188711816L204.29493306477863,25.422857118054083L207.3903108384874,25.422857075659465L210.48568861219618,25.42285705022266L213.58106638590496,25.42285703496063L216.6764441596137,25.42285702580341L219.77182193332249,25.422857020309095L222.86719970703126,25.422857017012433L225.96257748074,25.42285701503451L229.05795525444879,25.422857013847732L232.15333302815756,25.422857013135626L235.2487108018663,25.42285701270842L238.34408857557509,25.422857012452084L241.43946634928386,25.422857012298266L244.5348441229926,25.422857012205952" fill="none"></path></g><g><path style="fill: none;" stroke="rgb(187, 187, 187)" stroke-width="2px" d="M30.953777737087673,296.59999746390747L34.04915551079644,149.03053354168463L37.14453328450521,127.8068357597873L40.23991105821397,80.75537493822495L43.335288831922746,122.09882162248098L46.43066660563151,133.0308983822611L49.52604437934028,95.7227259727687L52.621422153049046,96.67343870798548L55.716799926757815,113.53936323957933L58.81217770046658,127.18717122733446L61.907555474175346,100.91347741298954L65.00293324788412,85.74962072802171L68.09831102159288,68.15668080030926L71.19368879530164,66.70684928851195L74.28906656901042,63.75071871465778L77.38444434271919,48.415247728708266L80.47982211642794,46.48163411429039L83.57519989013672,38.057267695112785L86.67057766384549,33.00319544707958L89.76595543755425,29.970949209347935L92.86133321126302,28.151672421050705L95.95671098497179,27.060131890414993L99.05208875868055,26.40521676701337L102.14746653238932,26.012271003108168L105.24284430609809,25.77650473640159L108.33822207980685,25.63504540536428L111.43359985351563,25.550169961176323L114.52897762722439,25.499244750259948L117.62435540093315,25.46868964372473L120.71973317464193,25.450356587008883L123.81511094835069,25.439356755573243L126.91048872205945,25.4327568576457L130.00586649576823,25.428796919225334L133.101244269477,25.42642095629418L136.19662204318576,25.424995378579013L139.29199981689453,25.424140031965578L142.38737759060328,25.42362682400318L145.48275536431208,25.423318899227723L148.57813313802083,25.423134144363274L151.67351091172958,25.42302329144482L154.76888868543838,25.422956779693834L157.86426645914713,25.422916872643327L160.95964423285588,25.42289292841295L164.05502200656468,25.422878561874768L167.15039978027343,25.42286994195186L170.2457775539822,25.422864769998142L173.34115532769098,25.422861666825895L176.43653310139973,25.422859804922552L179.5319108751085,25.422858687780575L182.62728864881728,25.422858017495344L185.72266642252603,25.422857615324205L188.8180441962348,25.42285737402156" fill="none"></path></g><g><path style="fill: none;" stroke="rgb(0, 153, 136)" stroke-width="2px" d="M30.953777737087673,313.54856779507224L34.04915551079644,155.38624741587142L37.14453328450521,156.0246920864977L40.23991105821397,96.00546640891031L43.335288831922746,122.56671922564598L46.43066660563151,133.30247750933987L49.52604437934028,95.88254487807173L52.621422153049046,67.21720204702491L55.716799926757815,103.59496159133403L58.81217770046658,104.87512271377531L61.907555474175346,80.26861471491785L65.00293324788412,80.92984476255175L68.09831102159288,71.83664751148893L71.19368879530164,68.91367490051144L74.28906656901042,51.5091644056353L77.38444434271919,41.07169692391602L80.47982211642794,42.076000922724205L83.57519989013672,35.414066772717945L86.67057766384549,31.41733932397787L89.76595543755425,29.019458728899963L92.86133321126302,27.580786482084932L95.95671098497179,26.717603332714305L99.05208875868055,33.21296179680266L102.14746653238932,30.096905117843818L105.24284430609809,28.227280560136847L108.33822207980685,27.10550922737221L111.43359985351563,26.432447652378272L114.52897762722439,26.028611148260325L117.62435540093315,25.7863094045056L120.71973317464193,25.64092841539039L123.81511094835069,25.553699842490886L126.91048872205945,25.501362706156215L130.00586649576823,25.469960427021192L133.101244269477,25.451119060499906L136.19662204318576,25.439814240932634L139.29199981689453,25.43303134931665L142.38737759060328,25.428961614391795L145.48275536431208,25.426519773453037L148.57813313802083,25.425054668895626L151.67351091172958,25.424175606163146L154.76888868543838,25.423648168524522L157.86426645914713,25.423331705941592L160.95964423285588,25.423141828391863L164.05502200656468,25.423027901862127L167.15039978027343,25.422959545944252L170.2457775539822,25.422918532393624L173.34115532769098,25.422893924263207L176.43653310139973,25.422879159384934L179.5319108751085,25.422870300457987L182.62728864881728,25.422864985101796L185.72266642252603,25.42286179588811L188.8180441962348,25.422859882359887" fill="none"></path></g><g><path style="fill: none;" stroke="rgb(238, 51, 119)" stroke-width="2px" d="M30.953777737087673,296.59999746390747L34.04915551079644,159.98866744252547L37.14453328450521,183.38380770544077L40.23991105821397,110.79145904120669L43.335288831922746,155.44311860886168L46.43066660563151,145.02831062285185L49.52604437934028,116.73231279234935L52.621422153049046,123.91115145879768L55.716799926757815,122.1616968743021L58.81217770046658,91.4155694622509L61.907555474175346,86.79273500270715L65.00293324788412,62.191231688598094L68.09831102159288,47.46464787748002L71.19368879530164,38.64101696670889L74.28906656901042,40.1338891046629L77.38444434271919,34.24781574163666L80.47982211642794,30.71723464036961L83.57519989013672,28.599268488498154L86.67057766384549,34.34225954921803L89.76595543755425,30.774368086592972L92.86133321126302,28.633716697419004L95.95671098497179,27.349355918302933L99.05208875868055,26.578750270103114L102.14746653238932,26.116390776053265L105.24284430609809,25.838976481762103L108.33822207980685,25.67252840995431L111.43359985351563,25.572659748584954L114.52897762722439,25.51273861718076L117.62435540093315,25.476785961888538L120.71973317464193,25.455214377191226L123.81511094835069,25.44227142942492L126.91048872205945,25.43450566186391L130.00586649576823,25.429846201722825L133.101244269477,25.4270505257806L136.19662204318576,25.425373120266556L139.29199981689453,25.424366676976575L142.38737759060328,25.42376281100917L145.48275536431208,25.42340049143118L148.57813313802083,25.423183099685275L151.67351091172958,25.42305266463802L154.76888868543838,25.4229744036098L157.86426645914713,25.422927446992816L160.95964423285588,25.422899273022693L164.05502200656468,25.422882368640643L167.15039978027343,25.422872226011435L170.2457775539822,25.422866140433882L173.34115532769098,25.422862489087322L176.43653310139973,25.422860298279403L179.5319108751085,25.42285898379467L182.62728864881728,25.42285819510377L185.72266642252603,25.422857721889272L188.8180441962348,25.4228574379606" fill="none"></path></g><g><path style="fill: none;" stroke="rgb(51, 187, 238)" stroke-width="2px" d="M30.953777737087673,313.54856779507224L34.04915551079644,177.30251521755312L37.14453328450521,166.75919060160712L40.23991105821397,101.80683141523788L43.335288831922746,142.18752577179464L46.43066660563151,100.55233238163039L49.52604437934028,69.63505637622026L52.621422153049046,95.97462428316011L55.716799926757815,120.73231137534468L58.81217770046658,139.67023389384264L61.907555474175346,115.67525208138184L65.00293324788412,87.04466538236824L68.09831102159288,62.36370698968912L71.19368879530164,71.06144019360909L74.28906656901042,79.92788832163248L77.38444434271919,58.11972347481522L80.47982211642794,52.30366239329366L83.57519989013672,47.90660792915929L86.67057766384549,45.92619258032258L89.76595543755425,37.72455848828346L92.86133321126302,32.80376995070185L95.95671098497179,38.32576716825977L99.05208875868055,33.164562346188575L102.14746653238932,30.067865539209805L105.24284430609809,28.209856845980624L108.33822207980685,27.095055010767197L111.43359985351563,26.4261751266952L114.52897762722439,26.02484763439122L117.62435540093315,25.784051296738824L120.71973317464193,25.639573550930038L123.81511094835069,25.552886923886547L126.91048872205945,25.50087495501947L130.00586649576823,25.4696677763485L133.101244269477,25.450943470099645L136.19662204318576,25.439708886693694L139.29199981689453,25.432968136773695L142.38737759060328,25.428923686866227L145.48275536431208,25.426497016937674L148.57813313802083,25.42504101498642L151.67351091172958,25.424167413817656L154.76888868543838,25.423643253117234L157.86426645914713,25.423328756697202L160.95964423285588,25.423140058845263L164.05502200656468,25.423026840134185L167.15039978027343,25.422958908907503L170.2457775539822,25.422918150171512L173.34115532769098,25.42289369492994L176.43653310139973,25.42287902178498L179.5319108751085,25.422870217898037L182.62728864881728,25.422864935565826L185.72266642252603,25.422861766166534L188.8180441962348,25.42285986452694" fill="none"></path></g><g><path style="fill: none;" stroke="rgb(204, 51, 17)" stroke-width="2px" d="M30.953777737087673,313.54856779507224L34.04915551079644,144.42813245653508L37.14453328450521,150.65745210641467L40.23991105821397,93.10478891967428L43.335288831922746,137.25979039609732L46.43066660563151,141.83069269057793L49.52604437934028,128.79992710323904L52.621422153049046,131.0692591872518L55.716799926757815,111.20864283812531L58.81217770046658,125.79441046975273L61.907555474175346,114.66008608187641L65.00293324788412,101.53471715761138L68.09831102159288,71.05015814965228L71.19368879530164,60.61348221796881L74.28906656901042,60.09584501529997L77.38444434271919,51.873856775120984L80.47982211642794,48.55656533170409L83.57519989013672,39.30214212502966L86.67057766384549,33.75008976012626L89.76595543755425,30.419074873720803L92.86133321126302,34.77639756844928L95.95671098497179,47.98372248348144L99.05208875868055,38.959305026363836L102.14746653238932,33.5447001641827L105.24284430609809,30.29595366705675L108.33822207980685,28.34671168001043L111.43359985351563,27.177168615817152L114.52897762722439,26.475443543392004L117.62435540093315,26.0544087757292L120.71973317464193,25.801788014416644L123.81511094835069,25.65021559337177L126.91048872205945,25.5592721536122L130.00586649576823,25.50470609438861L133.101244269477,25.471966460522196L136.19662204318576,25.452322680802666L139.29199981689453,25.440536413187033L142.38737759060328,25.43346465269542L145.48275536431208,25.429221596428533L148.57813313802083,25.426675762678485L151.67351091172958,25.42514826243203L154.76888868543838,25.424231762285558L157.86426645914713,25.423681862198038L160.95964423285588,25.42335192214574L164.05502200656468,25.423153958114426L167.15039978027343,25.42303517969566L170.2457775539822,25.422963912644434L173.34115532769098,25.422921152413664L176.43653310139973,25.422895496275203L179.5319108751085,25.42288010259216L182.62728864881728,25.422870866382226L185.72266642252603,25.422865324656385L188.8180441962348,25.422861999620864" fill="none"></path></g><g><path style="fill: none;" stroke="rgb(0, 119, 187)" stroke-width="2px" d="M30.953777737087673,296.59999746390747L34.04915551079644,127.11428468150751L37.14453328450521,158.91377436433876L40.23991105821397,97.56684543406713L43.335288831922746,164.2900191532135L46.43066660563151,157.51969361928536L49.52604437934028,110.13389405136095L52.621422153049046,97.83390874224658L55.716799926757815,129.44968972022494L58.81217770046658,128.50984253522722L61.907555474175346,108.99527206666501L65.00293324788412,90.59164524582255L68.09831102159288,64.49003944364969L71.19368879530164,48.850910998739096L74.28906656901042,46.25790440505256L77.38444434271919,37.92153366605015L80.47982211642794,40.18611629107576L83.57519989013672,40.636572580810565L86.67057766384549,34.55071550568485L89.76595543755425,30.899438611769597L92.86133321126302,28.708757915034454L95.95671098497179,27.394380253784988L99.05208875868055,26.6057647291629L102.14746653238932,26.132599400287006L105.24284430609809,25.84870163786968L108.33822207980685,25.67836349698311L111.43359985351563,25.576160798413383L114.52897762722439,25.514839246217832L117.62435540093315,25.47804633900111L120.71973317464193,25.45597060334731L123.81511094835069,25.442725165078457L126.91048872205945,25.43477790324164L130.00586649576823,25.430009546544255L133.101244269477,25.427148532671623L136.19662204318576,25.4254319244005L139.29199981689453,25.424401959456702L142.38737759060328,25.423783980497234L145.48275536431208,25.423413193123963L148.57813313802083,25.423190720700887L151.67351091172958,25.423057237247377L154.76888868543838,25.422977147175402L157.86426645914713,25.42292909313221L160.95964423285588,25.422900260706285L164.05502200656468,25.422882961250792L167.15039978027343,25.422872581577536L170.2457775539822,25.42286635377357L173.34115532769098,25.42286261709117L176.43653310139973,25.42286037508171L179.5319108751085,25.422859029876065L182.62728864881728,25.422858222752637L185.72266642252603,25.422857738478598L188.8180441962348,25.42285744791417" fill="none"></path></g><g><path style="fill: none;" stroke="rgb(255, 112, 67)" stroke-width="2px" d="M30.953777737087673,296.59999746390747L34.04915551079644,149.03053354168463L37.14453328450521,152.91168937261034L40.23991105821397,94.32307155986092L43.335288831922746,137.9496714747873L46.43066660563151,149.58754357771286L49.52604437934028,112.4406499344958L52.621422153049046,106.5899555630328L55.716799926757815,127.05828328348522L58.81217770046658,143.4504236676679L61.907555474175346,110.64774190111233L65.00293324788412,76.48341965230175L68.09831102159288,56.03248425525186L71.19368879530164,43.779031041794525L74.28906656901042,43.215730768320725L77.38444434271919,36.0965728731324L80.47982211642794,31.826363724946305L83.57519989013672,29.264700877427003L86.67057766384549,27.72786968297754L89.76595543755425,40.36518291973988L92.86133321126302,34.38812143816824L95.95671098497179,30.801968466171473L99.05208875868055,28.650306892208192L102.14746653238932,27.359320822967618L105.24284430609809,26.58473309643236L108.33822207980685,26.119981869905757L111.43359985351563,25.841131641369913L114.52897762722439,25.673821686904887L117.62435540093315,25.573435779982134L120.71973317464193,25.51320425950064L123.81511094835069,25.477065355733828L126.91048872205945,25.45538201654162L130.00586649576823,25.442372014130683L133.101244269477,25.434566013081792L136.19662204318576,25.42988241259556L139.29199981689453,25.427072252355373L142.38737759060328,25.425386156229763L145.48275536431208,25.42437449856112L148.57813313802083,25.423767503962324L151.67351091172958,25.423403307203927L154.76888868543838,25.423184789149246L157.86426645914713,25.423053678316478L160.95964423285588,25.422975011816874L164.05502200656468,25.422927811917106L167.15039978027343,25.42289949197726L170.2457775539822,25.422882500013372L173.34115532769098,25.422872304835067L176.43653310139973,25.42286618772806L179.5319108751085,25.42286251746387L182.62728864881728,25.422860315305314L185.72266642252603,25.422858994010227L188.8180441962348,25.422858201233197" fill="none"></path></g></g></g></g><g opacity="0.2"><g><g><g><path style="fill: none;" stroke="rgb(204, 51, 17)" stroke-width="2px" d="M30.953777737087673,330.497138126237L34.04915551079644,42.95587125341288L37.14453328450521,107.43208588916579L40.23991105821397,25.42285701206754L43.335288831922746,194.90856032371522L46.43066660563151,130.62088184732522L49.52604437934028,25.42285701206754L52.621422153049046,98.0595870027737L55.716799926757815,176.0768256134457L58.81217770046658,86.43771626554215L61.907555474175346,79.90041208169896L65.00293324788412,63.08635673901388L68.09831102159288,25.42285701206754L71.19368879530164,44.97891485507665L74.28906656901042,25.42285701206754L77.38444434271919,25.42285701206754L80.47982211642794,25.42285701206754L83.57519989013672,25.42285701206754L86.67057766384549,25.42285701206754L89.76595543755425,25.42285701206754L92.86133321126302,25.42285701206754L95.95671098497179,25.42285701206754L99.05208875868055,25.42285701206754L102.14746653238932,25.42285701206754L105.24284430609809,25.42285701206754L108.33822207980685,25.42285701206754L111.43359985351563,25.42285701206754L114.52897762722439,25.42285701206754L117.62435540093315,25.42285701206754L120.71973317464193,25.42285701206754L123.81511094835069,25.42285701206754L126.91048872205945,25.42285701206754L130.00586649576823,25.42285701206754L133.101244269477,25.42285701206754L136.19662204318576,25.42285701206754L139.29199981689453,25.42285701206754L142.38737759060328,25.42285701206754L145.48275536431208,25.42285701206754L148.57813313802083,25.42285701206754L151.67351091172958,25.42285701206754L154.76888868543838,25.42285701206754L157.86426645914713,25.42285701206754L160.95964423285588,25.42285701206754L164.05502200656468,25.42285701206754L167.15039978027343,25.42285701206754L170.2457775539822,25.42285701206754L173.34115532769098,25.42285701206754L176.43653310139973,25.42285701206754L179.5319108751085,25.42285701206754L182.62728864881728,25.42285701206754L185.72266642252603,25.42285701206754L188.8180441962348,25.42285701206754" fill="none"></path></g><g><path style="fill: none;" stroke="rgb(0, 119, 187)" stroke-width="2px" d="M30.953777737087673,313.54856779507224L34.04915551079644,25.42285701206754L37.14453328450521,189.4412844598568L40.23991105821397,25.42285701206754L43.335288831922746,176.0768256134457L46.43066660563151,165.68691033001593L49.52604437934028,76.26858315876545L52.621422153049046,98.0595870027737L55.716799926757815,138.41332588649934L58.81217770046658,66.09941974558154L61.907555474175346,116.21876192384843L65.00293324788412,44.254591722337096L68.09831102159288,58.22654250162539L71.19368879530164,44.97891485507665L74.28906656901042,42.37144249643592L77.38444434271919,25.42285701206754L80.47982211642794,25.42285701206754L83.57519989013672,25.42285701206754L86.67057766384549,25.42285701206754L89.76595543755425,25.42285701206754L92.86133321126302,25.42285701206754L95.95671098497179,25.42285701206754L99.05208875868055,25.42285701206754L102.14746653238932,25.42285701206754L105.24284430609809,25.42285701206754L108.33822207980685,25.42285701206754L111.43359985351563,25.42285701206754L114.52897762722439,25.42285701206754L117.62435540093315,25.42285701206754L120.71973317464193,25.42285701206754L123.81511094835069,25.42285701206754L126.91048872205945,25.42285701206754L130.00586649576823,25.42285701206754L133.101244269477,25.42285701206754L136.19662204318576,25.42285701206754L139.29199981689453,25.42285701206754L142.38737759060328,25.42285701206754L145.48275536431208,25.42285701206754L148.57813313802083,25.42285701206754L151.67351091172958,25.42285701206754L154.76888868543838,25.42285701206754L157.86426645914713,25.42285701206754L160.95964423285588,25.42285701206754L164.05502200656468,25.42285701206754L167.15039978027343,25.42285701206754L170.2457775539822,25.42285701206754L173.34115532769098,25.42285701206754L176.43653310139973,25.42285701206754L179.5319108751085,25.42285701206754L182.62728864881728,25.42285701206754L185.72266642252603,25.42285701206754L188.8180441962348,25.42285701206754" fill="none"></path></g><g><path style="fill: none;" stroke="rgb(255, 112, 67)" stroke-width="2px" d="M30.953777737087673,313.54856779507224L34.04915551079644,42.95587125341288L37.14453328450521,173.0394568682815L40.23991105821397,25.42285701206754L43.335288831922746,176.0768256134457L46.43066660563151,95.55488367104174L49.52604437934028,59.31999767439707L52.621422153049046,134.37796715133038L55.716799926757815,138.41332588649934L58.81217770046658,167.79084173257016L61.907555474175346,98.0595870027737L65.00293324788412,119.58159117622978L68.09831102159288,41.82471491005006L71.19368879530164,25.42285701206754L74.28906656901042,42.37144249643592L77.38444434271919,25.42285701206754L80.47982211642794,25.42285701206754L83.57519989013672,25.42285701206754L86.67057766384549,42.95587125341288L89.76595543755425,25.42285701206754L92.86133321126302,41.312142644609736L95.95671098497179,25.42285701206754L99.05208875868055,25.42285701206754L102.14746653238932,25.42285701206754L105.24284430609809,25.42285701206754L108.33822207980685,25.42285701206754L111.43359985351563,25.42285701206754L114.52897762722439,25.42285701206754L117.62435540093315,25.42285701206754L120.71973317464193,25.42285701206754L123.81511094835069,25.42285701206754L126.91048872205945,25.42285701206754L130.00586649576823,25.42285701206754L133.101244269477,25.42285701206754L136.19662204318576,25.42285701206754L139.29199981689453,25.42285701206754L142.38737759060328,25.42285701206754L145.48275536431208,25.42285701206754L148.57813313802083,25.42285701206754L151.67351091172958,25.42285701206754L154.76888868543838,25.42285701206754L157.86426645914713,25.42285701206754L160.95964423285588,25.42285701206754L164.05502200656468,25.42285701206754L167.15039978027343,25.42285701206754L170.2457775539822,25.42285701206754L173.34115532769098,25.42285701206754L176.43653310139973,25.42285701206754L179.5319108751085,25.42285701206754L182.62728864881728,25.42285701206754L185.72266642252603,25.42285701206754L188.8180441962348,25.42285701206754L191.91342196994358,25.42285701206754L195.00879974365233,25.42285701206754L198.1041775173611,25.42285701206754L201.19955529106988,25.42285701206754L204.29493306477863,25.42285701206754L207.3903108384874,25.42285701206754L210.48568861219618,25.42285701206754L213.58106638590496,25.42285701206754L216.6764441596137,25.42285701206754L219.77182193332249,25.42285701206754L222.86719970703126,25.42285701206754L225.96257748074,25.42285701206754L229.05795525444879,25.42285701206754L232.15333302815756,25.42285701206754L235.2487108018663,25.42285701206754L238.34408857557509,25.42285701206754L241.43946634928386,25.42285701206754L244.5348441229926,25.42285701206754" fill="none"></path></g><g><path style="fill: none;" stroke="rgb(187, 187, 187)" stroke-width="2px" d="M30.953777737087673,296.59999746390747L34.04915551079644,60.488855188351025L37.14453328450521,107.43208588916579L40.23991105821397,25.42285701206754L43.335288831922746,176.0768256134457L46.43066660563151,148.1538960886706L49.52604437934028,42.37144249643592L52.621422153049046,98.0595870027737L55.716799926757815,138.41332588649934L58.81217770046658,147.45257551901676L61.907555474175346,61.74123716062422L65.00293324788412,63.08635673901388L68.09831102159288,41.82471491005006L71.19368879530164,64.53494239167854L74.28906656901042,59.31999767439707L77.38444434271919,25.42285701206754L80.47982211642794,43.582031933142275L83.57519989013672,25.42285701206754L86.67057766384549,25.42285701206754L89.76595543755425,25.42285701206754L92.86133321126302,25.42285701206754L95.95671098497179,25.42285701206754L99.05208875868055,25.42285701206754L102.14746653238932,25.42285701206754L105.24284430609809,25.42285701206754L108.33822207980685,25.42285701206754L111.43359985351563,25.42285701206754L114.52897762722439,25.42285701206754L117.62435540093315,25.42285701206754L120.71973317464193,25.42285701206754L123.81511094835069,25.42285701206754L126.91048872205945,25.42285701206754L130.00586649576823,25.42285701206754L133.101244269477,25.42285701206754L136.19662204318576,25.42285701206754L139.29199981689453,25.42285701206754L142.38737759060328,25.42285701206754L145.48275536431208,25.42285701206754L148.57813313802083,25.42285701206754L151.67351091172958,25.42285701206754L154.76888868543838,25.42285701206754L157.86426645914713,25.42285701206754L160.95964423285588,25.42285701206754L164.05502200656468,25.42285701206754L167.15039978027343,25.42285701206754L170.2457775539822,25.42285701206754L173.34115532769098,25.42285701206754L176.43653310139973,25.42285701206754L179.5319108751085,25.42285701206754L182.62728864881728,25.42285701206754L185.72266642252603,25.42285701206754L188.8180441962348,25.42285701206754" fill="none"></path></g><g><path style="fill: none;" stroke="rgb(0, 153, 136)" stroke-width="2px" d="M30.953777737087673,313.54856779507224L34.04915551079644,60.488855188351025L37.14453328450521,156.63759897029894L40.23991105821397,25.42285701206754L43.335288831922746,157.2450909031761L46.43066660563151,148.1538960886706L49.52604437934028,42.37144249643592L52.621422153049046,25.42285701206754L55.716799926757815,157.2450909031761L58.81217770046658,106.77601278550277L61.907555474175346,43.582031933142275L65.00293324788412,81.91809144928344L68.09831102159288,58.22654250162539L71.19368879530164,64.53494239167854L74.28906656901042,25.42285701206754L77.38444434271919,25.42285701206754L80.47982211642794,43.582031933142275L83.57519989013672,25.42285701206754L86.67057766384549,25.42285701206754L89.76595543755425,25.42285701206754L92.86133321126302,25.42285701206754L95.95671098497179,25.42285701206754L99.05208875868055,42.95587125341288L102.14746653238932,25.42285701206754L105.24284430609809,25.42285701206754L108.33822207980685,25.42285701206754L111.43359985351563,25.42285701206754L114.52897762722439,25.42285701206754L117.62435540093315,25.42285701206754L120.71973317464193,25.42285701206754L123.81511094835069,25.42285701206754L126.91048872205945,25.42285701206754L130.00586649576823,25.42285701206754L133.101244269477,25.42285701206754L136.19662204318576,25.42285701206754L139.29199981689453,25.42285701206754L142.38737759060328,25.42285701206754L145.48275536431208,25.42285701206754L148.57813313802083,25.42285701206754L151.67351091172958,25.42285701206754L154.76888868543838,25.42285701206754L157.86426645914713,25.42285701206754L160.95964423285588,25.42285701206754L164.05502200656468,25.42285701206754L167.15039978027343,25.42285701206754L170.2457775539822,25.42285701206754L173.34115532769098,25.42285701206754L176.43653310139973,25.42285701206754L179.5319108751085,25.42285701206754L182.62728864881728,25.42285701206754L185.72266642252603,25.42285701206754L188.8180441962348,25.42285701206754" fill="none"></path></g><g><path style="fill: none;" stroke="rgb(238, 51, 119)" stroke-width="2px" d="M30.953777737087673,296.59999746390747L34.04915551079644,78.02186942969638L37.14453328450521,205.84314235783933L40.23991105821397,25.42285701206754L43.335288831922746,213.74032534039202L46.43066660563151,130.62088184732522L49.52604437934028,76.26858315876545L52.621422153049046,134.37796715133038L55.716799926757815,119.58159117622978L58.81217770046658,45.761153532028146L61.907555474175346,79.90041208169896L65.00293324788412,25.42285701206754L68.09831102159288,25.42285701206754L71.19368879530164,25.42285701206754L74.28906656901042,42.37144249643592L77.38444434271919,25.42285701206754L80.47982211642794,25.42285701206754L83.57519989013672,25.42285701206754L86.67057766384549,42.95587125341288L89.76595543755425,25.42285701206754L92.86133321126302,25.42285701206754L95.95671098497179,25.42285701206754L99.05208875868055,25.42285701206754L102.14746653238932,25.42285701206754L105.24284430609809,25.42285701206754L108.33822207980685,25.42285701206754L111.43359985351563,25.42285701206754L114.52897762722439,25.42285701206754L117.62435540093315,25.42285701206754L120.71973317464193,25.42285701206754L123.81511094835069,25.42285701206754L126.91048872205945,25.42285701206754L130.00586649576823,25.42285701206754L133.101244269477,25.42285701206754L136.19662204318576,25.42285701206754L139.29199981689453,25.42285701206754L142.38737759060328,25.42285701206754L145.48275536431208,25.42285701206754L148.57813313802083,25.42285701206754L151.67351091172958,25.42285701206754L154.76888868543838,25.42285701206754L157.86426645914713,25.42285701206754L160.95964423285588,25.42285701206754L164.05502200656468,25.42285701206754L167.15039978027343,25.42285701206754L170.2457775539822,25.42285701206754L173.34115532769098,25.42285701206754L176.43653310139973,25.42285701206754L179.5319108751085,25.42285701206754L182.62728864881728,25.42285701206754L185.72266642252603,25.42285701206754L188.8180441962348,25.42285701206754" fill="none"></path></g><g><path style="fill: none;" stroke="rgb(51, 187, 238)" stroke-width="2px" d="M30.953777737087673,313.54856779507224L34.04915551079644,95.55488367104174L37.14453328450521,156.63759897029894L40.23991105821397,25.42285701206754L43.335288831922746,194.90856032371522L46.43066660563151,42.95587125341288L49.52604437934028,25.42285701206754L52.621422153049046,134.37796715133038L55.716799926757815,157.2450909031761L58.81217770046658,167.79084173257016L61.907555474175346,79.90041208169896L65.00293324788412,44.254591722337096L68.09831102159288,25.42285701206754L71.19368879530164,84.09100023468766L74.28906656901042,93.21713833672662L77.38444434271919,25.42285701206754L80.47982211642794,43.582031933142275L83.57519989013672,41.312142644609736L86.67057766384549,42.95587125341288L89.76595543755425,25.42285701206754L92.86133321126302,25.42285701206754L95.95671098497179,46.608581290926196L99.05208875868055,25.42285701206754L102.14746653238932,25.42285701206754L105.24284430609809,25.42285701206754L108.33822207980685,25.42285701206754L111.43359985351563,25.42285701206754L114.52897762722439,25.42285701206754L117.62435540093315,25.42285701206754L120.71973317464193,25.42285701206754L123.81511094835069,25.42285701206754L126.91048872205945,25.42285701206754L130.00586649576823,25.42285701206754L133.101244269477,25.42285701206754L136.19662204318576,25.42285701206754L139.29199981689453,25.42285701206754L142.38737759060328,25.42285701206754L145.48275536431208,25.42285701206754L148.57813313802083,25.42285701206754L151.67351091172958,25.42285701206754L154.76888868543838,25.42285701206754L157.86426645914713,25.42285701206754L160.95964423285588,25.42285701206754L164.05502200656468,25.42285701206754L167.15039978027343,25.42285701206754L170.2457775539822,25.42285701206754L173.34115532769098,25.42285701206754L176.43653310139973,25.42285701206754L179.5319108751085,25.42285701206754L182.62728864881728,25.42285701206754L185.72266642252603,25.42285701206754L188.8180441962348,25.42285701206754" fill="none"></path></g><g><path style="fill: none;" stroke="rgb(204, 51, 17)" stroke-width="2px" d="M30.953777737087673,313.54856779507224L34.04915551079644,42.95587125341288L37.14453328450521,156.63759897029894L40.23991105821397,25.42285701206754L43.335288831922746,194.90856032371522L46.43066660563151,148.1538960886706L49.52604437934028,110.165723821095L52.621422153049046,134.37796715133038L55.716799926757815,81.91809144928344L58.81217770046658,147.45257551901676L61.907555474175346,98.0595870027737L65.00293324788412,81.91809144928344L68.09831102159288,25.42285701206754L71.19368879530164,44.97891485507665L74.28906656901042,59.31999767439707L77.38444434271919,39.54667319797332L80.47982211642794,43.582031933142275L83.57519989013672,25.42285701206754L86.67057766384549,25.42285701206754L89.76595543755425,25.42285701206754L92.86133321126302,41.312142644609736L95.95671098497179,67.79427526337766L99.05208875868055,25.42285701206754L102.14746653238932,25.42285701206754L105.24284430609809,25.42285701206754L108.33822207980685,25.42285701206754L111.43359985351563,25.42285701206754L114.52897762722439,25.42285701206754L117.62435540093315,25.42285701206754L120.71973317464193,25.42285701206754L123.81511094835069,25.42285701206754L126.91048872205945,25.42285701206754L130.00586649576823,25.42285701206754L133.101244269477,25.42285701206754L136.19662204318576,25.42285701206754L139.29199981689453,25.42285701206754L142.38737759060328,25.42285701206754L145.48275536431208,25.42285701206754L148.57813313802083,25.42285701206754L151.67351091172958,25.42285701206754L154.76888868543838,25.42285701206754L157.86426645914713,25.42285701206754L160.95964423285588,25.42285701206754L164.05502200656468,25.42285701206754L167.15039978027343,25.42285701206754L170.2457775539822,25.42285701206754L173.34115532769098,25.42285701206754L176.43653310139973,25.42285701206754L179.5319108751085,25.42285701206754L182.62728864881728,25.42285701206754L185.72266642252603,25.42285701206754L188.8180441962348,25.42285701206754" fill="none"></path></g><g><path style="fill: none;" stroke="rgb(0, 119, 187)" stroke-width="2px" d="M30.953777737087673,296.59999746390747L34.04915551079644,25.42285701206754L37.14453328450521,189.4412844598568L40.23991105821397,25.42285701206754L43.335288831922746,251.40379476093113L46.43066660563151,148.1538960886706L49.52604437934028,42.37144249643592L52.621422153049046,79.90041208169896L55.716799926757815,176.0768256134457L58.81217770046658,127.11427899905615L61.907555474175346,79.90041208169896L65.00293324788412,63.08635673901388L68.09831102159288,25.42285701206754L71.19368879530164,25.42285701206754L74.28906656901042,42.37144249643592L77.38444434271919,25.42285701206754L80.47982211642794,43.582031933142275L83.57519989013672,41.312142644609736L86.67057766384549,25.42285701206754L89.76595543755425,25.42285701206754L92.86133321126302,25.42285701206754L95.95671098497179,25.42285701206754L99.05208875868055,25.42285701206754L102.14746653238932,25.42285701206754L105.24284430609809,25.42285701206754L108.33822207980685,25.42285701206754L111.43359985351563,25.42285701206754L114.52897762722439,25.42285701206754L117.62435540093315,25.42285701206754L120.71973317464193,25.42285701206754L123.81511094835069,25.42285701206754L126.91048872205945,25.42285701206754L130.00586649576823,25.42285701206754L133.101244269477,25.42285701206754L136.19662204318576,25.42285701206754L139.29199981689453,25.42285701206754L142.38737759060328,25.42285701206754L145.48275536431208,25.42285701206754L148.57813313802083,25.42285701206754L151.67351091172958,25.42285701206754L154.76888868543838,25.42285701206754L157.86426645914713,25.42285701206754L160.95964423285588,25.42285701206754L164.05502200656468,25.42285701206754L167.15039978027343,25.42285701206754L170.2457775539822,25.42285701206754L173.34115532769098,25.42285701206754L176.43653310139973,25.42285701206754L179.5319108751085,25.42285701206754L182.62728864881728,25.42285701206754L185.72266642252603,25.42285701206754L188.8180441962348,25.42285701206754" fill="none"></path></g><g><path style="fill: none;" stroke="rgb(255, 112, 67)" stroke-width="2px" d="M30.953777737087673,296.59999746390747L34.04915551079644,60.488855188351025L37.14453328450521,156.63759897029894L40.23991105821397,25.42285701206754L43.335288831922746,194.90856032371522L46.43066660563151,165.68691033001593L49.52604437934028,59.31999767439707L52.621422153049046,98.0595870027737L55.716799926757815,157.2450909031761L58.81217770046658,167.79084173257016L61.907555474175346,61.74123716062422L65.00293324788412,25.42285701206754L68.09831102159288,25.42285701206754L71.19368879530164,25.42285701206754L74.28906656901042,42.37144249643592L77.38444434271919,25.42285701206754L80.47982211642794,25.42285701206754L83.57519989013672,25.42285701206754L86.67057766384549,25.42285701206754L89.76595543755425,59.31999767439707L92.86133321126302,25.42285701206754L95.95671098497179,25.42285701206754L99.05208875868055,25.42285701206754L102.14746653238932,25.42285701206754L105.24284430609809,25.42285701206754L108.33822207980685,25.42285701206754L111.43359985351563,25.42285701206754L114.52897762722439,25.42285701206754L117.62435540093315,25.42285701206754L120.71973317464193,25.42285701206754L123.81511094835069,25.42285701206754L126.91048872205945,25.42285701206754L130.00586649576823,25.42285701206754L133.101244269477,25.42285701206754L136.19662204318576,25.42285701206754L139.29199981689453,25.42285701206754L142.38737759060328,25.42285701206754L145.48275536431208,25.42285701206754L148.57813313802083,25.42285701206754L151.67351091172958,25.42285701206754L154.76888868543838,25.42285701206754L157.86426645914713,25.42285701206754L160.95964423285588,25.42285701206754L164.05502200656468,25.42285701206754L167.15039978027343,25.42285701206754L170.2457775539822,25.42285701206754L173.34115532769098,25.42285701206754L176.43653310139973,25.42285701206754L179.5319108751085,25.42285701206754L182.62728864881728,25.42285701206754L185.72266642252603,25.42285701206754L188.8180441962348,25.42285701206754" fill="none"></path></g></g></g></g></g></g><g transform="translate(51, 177)" clip-path="url(#clip_1)"><clipPath id="clip_1"><rect width="278" height="22"></rect></clipPath><g><g><line x1="0" y1="0" x2="0" y2="5" style="visibility: inherit;" fill="rgb(0, 0, 0)" stroke="rgb(204, 204, 204)" stroke-width="1px"></line><line x1="30.953777737087673" y1="0" x2="30.953777737087673" y2="5" style="visibility: inherit;" fill="rgb(0, 0, 0)" stroke="rgb(204, 204, 204)" stroke-width="1px"></line><line x1="61.907555474175346" y1="0" x2="61.907555474175346" y2="5" style="visibility: inherit;" fill="rgb(0, 0, 0)" stroke="rgb(204, 204, 204)" stroke-width="1px"></line><line x1="92.86133321126302" y1="0" x2="92.86133321126302" y2="5" style="visibility: inherit;" fill="rgb(0, 0, 0)" stroke="rgb(204, 204, 204)" stroke-width="1px"></line><line x1="123.81511094835069" y1="0" x2="123.81511094835069" y2="5" style="visibility: inherit;" fill="rgb(0, 0, 0)" stroke="rgb(204, 204, 204)" stroke-width="1px"></line><line x1="154.76888868543838" y1="0" x2="154.76888868543838" y2="5" style="visibility: inherit;" fill="rgb(0, 0, 0)" stroke="rgb(204, 204, 204)" stroke-width="1px"></line><line x1="185.72266642252603" y1="0" x2="185.72266642252603" y2="5" style="visibility: inherit;" fill="rgb(0, 0, 0)" stroke="rgb(204, 204, 204)" stroke-width="1px"></line><line x1="216.6764441596137" y1="0" x2="216.6764441596137" y2="5" style="visibility: inherit;" fill="rgb(0, 0, 0)" stroke="rgb(204, 204, 204)" stroke-width="1px"></line><line x1="247.63022189670139" y1="0" x2="247.63022189670139" y2="5" style="visibility: inherit;" fill="rgb(0, 0, 0)" stroke="rgb(204, 204, 204)" stroke-width="1px"></line><line x1="278.58399963378906" y1="0" x2="278.58399963378906" y2="5" style="visibility: inherit;" fill="rgb(0, 0, 0)" stroke="rgb(204, 204, 204)" stroke-width="1px"></line></g><g transform="translate(0, 8)"><text style="text-anchor: middle; visibility: hidden; font-family: &quot;Helvetica Neue&quot;, sans-serif; font-size: 12px; font-weight: 200;" x="0" y="0" dx="0em" dy="0.95em" fill="rgb(50, 49, 63)" stroke="none" stroke-width="1px">-10</text><text style="text-anchor: middle; visibility: inherit; font-family: &quot;Helvetica Neue&quot;, sans-serif; font-size: 12px; font-weight: 200;" x="30.953777737087673" y="0" dx="0em" dy="0.95em" fill="rgb(50, 49, 63)" stroke="none" stroke-width="1px">0</text><text style="text-anchor: middle; visibility: inherit; font-family: &quot;Helvetica Neue&quot;, sans-serif; font-size: 12px; font-weight: 200;" x="61.907555474175346" y="0" dx="0em" dy="0.95em" fill="rgb(50, 49, 63)" stroke="none" stroke-width="1px">10</text><text style="text-anchor: middle; visibility: inherit; font-family: &quot;Helvetica Neue&quot;, sans-serif; font-size: 12px; font-weight: 200;" x="92.86133321126302" y="0" dx="0em" dy="0.95em" fill="rgb(50, 49, 63)" stroke="none" stroke-width="1px">20</text><text style="text-anchor: middle; visibility: inherit; font-family: &quot;Helvetica Neue&quot;, sans-serif; font-size: 12px; font-weight: 200;" x="123.81511094835069" y="0" dx="0em" dy="0.95em" fill="rgb(50, 49, 63)" stroke="none" stroke-width="1px">30</text><text style="text-anchor: middle; visibility: inherit; font-family: &quot;Helvetica Neue&quot;, sans-serif; font-size: 12px; font-weight: 200;" x="154.76888868543838" y="0" dx="0em" dy="0.95em" fill="rgb(50, 49, 63)" stroke="none" stroke-width="1px">40</text><text style="text-anchor: middle; visibility: inherit; font-family: &quot;Helvetica Neue&quot;, sans-serif; font-size: 12px; font-weight: 200;" x="185.72266642252603" y="0" dx="0em" dy="0.95em" fill="rgb(50, 49, 63)" stroke="none" stroke-width="1px">50</text><text style="text-anchor: middle; visibility: inherit; font-family: &quot;Helvetica Neue&quot;, sans-serif; font-size: 12px; font-weight: 200;" x="216.6764441596137" y="0" dx="0em" dy="0.95em" fill="rgb(50, 49, 63)" stroke="none" stroke-width="1px">60</text><text style="text-anchor: middle; visibility: inherit; font-family: &quot;Helvetica Neue&quot;, sans-serif; font-size: 12px; font-weight: 200;" x="247.63022189670139" y="0" dx="0em" dy="0.95em" fill="rgb(50, 49, 63)" stroke="none" stroke-width="1px">70</text><text style="text-anchor: middle; visibility: hidden; font-family: &quot;Helvetica Neue&quot;, sans-serif; font-size: 12px; font-weight: 200;" x="278.58399963378906" y="0" dx="0em" dy="0.95em" fill="rgb(50, 49, 63)" stroke="none" stroke-width="1px">80</text></g><line x1="0" y1="0" x2="278.58399963378906" y2="0" fill="rgb(0, 0, 0)" stroke="rgb(204, 204, 204)" stroke-width="1px"></line></g></g></g></g></svg>