<svg viewBox="0 0 330 200" xmlns="http://www.w3.org/2000/svg"><g><g><g><g><g><line x1="51.41600036621094" y1="177.95999908447266" x2="46.41600036621094" y2="177.95999908447266" style="visibility: inherit;" fill="rgb(0, 0, 0)" stroke="rgb(204, 204, 204)" stroke-width="1px"></line><line x1="51.41600036621094" y1="164.27076838566705" x2="46.41600036621094" y2="164.27076838566705" style="visibility: inherit;" fill="rgb(0, 0, 0)" stroke="rgb(204, 204, 204)" stroke-width="1px"></line><line x1="51.41600036621094" y1="150.58153768686148" x2="46.41600036621094" y2="150.58153768686148" style="visibility: inherit;" fill="rgb(0, 0, 0)" stroke="rgb(204, 204, 204)" stroke-width="1px"></line><line x1="51.41600036621094" y1="136.89230698805588" x2="46.41600036621094" y2="136.89230698805588" style="visibility: inherit;" fill="rgb(0, 0, 0)" stroke="rgb(204, 204, 204)" stroke-width="1px"></line><line x1="51.41600036621094" y1="123.2030762892503" x2="46.41600036621094" y2="123.2030762892503" style="visibility: inherit;" fill="rgb(0, 0, 0)" stroke="rgb(204, 204, 204)" stroke-width="1px"></line><line x1="51.41600036621094" y1="109.51384559044472" x2="46.41600036621094" y2="109.51384559044472" style="visibility: inherit;" fill="rgb(0, 0, 0)" stroke="rgb(204, 204, 204)" stroke-width="1px"></line><line x1="51.41600036621094" y1="95.82461489163913" x2="46.41600036621094" y2="95.82461489163913" style="visibility: inherit;" fill="rgb(0, 0, 0)" stroke="rgb(204, 204, 204)" stroke-width="1px"></line><line x1="51.41600036621094" y1="82.13538419283354" x2="46.41600036621094" y2="82.13538419283354" style="visibility: inherit;" fill="rgb(0, 0, 0)" stroke="rgb(204, 204, 204)" stroke-width="1px"></line><line x1="51.41600036621094" y1="68.44615349402795" x2="46.41600036621094" y2="68.44615349402795" style="visibility: inherit;" fill="rgb(0, 0, 0)" stroke="rgb(204, 204, 204)" stroke-width="1px"></line><line x1="51.41600036621094" y1="54.756922795222366" x2="46.41600036621094" y2="54.756922795222366" style="visibility: inherit;" fill="rgb(0, 0, 0)" stroke="rgb(204, 204, 204)" stroke-width="1px"></line><line x1="51.41600036621094" y1="41.06769209641678" x2="46.41600036621094" y2="41.06769209641678" style="visibility: inherit;" fill="rgb(0, 0, 0)" stroke="rgb(204, 204, 204)" stroke-width="1px"></line><line x1="51.41600036621094" y1="27.378461397611176" x2="46.41600036621094" y2="27.378461397611176" style="visibility: inherit;" fill="rgb(0, 0, 0)" stroke="rgb(204, 204, 204)" stroke-width="1px"></line><line x1="51.41600036621094" y1="13.689230698805574" x2="46.41600036621094" y2="13.689230698805574" style="visibility: inherit;" fill="rgb(0, 0, 0)" stroke="rgb(204, 204, 204)" stroke-width="1px"></line><line x1="51.41600036621094" y1="0" x2="46.41600036621094" y2="0" style="visibility: inherit;" fill="rgb(0, 0, 0)" stroke="rgb(204, 204, 204)" stroke-width="1px"></line></g><g transform="translate(41.41600036621094, 0)"><text style="text-anchor: end; visibility: hidden; font-family: &quot;Helvetica Neue&quot;, sans-serif; font-size: 12px; font-weight: 200;" x="0" y="177.95999908447266" dx="0em" dy="0.3em" fill="rgb(50, 49, 63)" stroke="none" stroke-width="1px">-0.1</text><text style="text-anchor: end; visibility: inherit; font-family: &quot;Helvetica Neue&quot;, sans-serif; font-size: 12px; font-weight: 200;" x="0" y="164.27076838566705" dx="0em" dy="0.3em" fill="rgb(50, 49, 63)" stroke="none" stroke-width="1px">0</text><text style="text-anchor: end; visibility: hidden; font-family: &quot;Helvetica Neue&quot;, sans-serif; font-size: 12px; font-weight: 200;" x="0" y="150.58153768686148" dx="0em" dy="0.3em" fill="rgb(50, 49, 63)" stroke="none" stroke-width="1px">0.1</text><text style="text-anchor: end; visibility: inherit; font-family: &quot;Helvetica Neue&quot;, sans-serif; font-size: 12px; font-weight: 200;" x="0" y="136.89230698805588" dx="0em" dy="0.3em" fill="rgb(50, 49, 63)" stroke="none" stroke-width="1px">0.2</text><text style="text-anchor: end; visibility: hidden; font-family: &quot;Helvetica Neue&quot;, sans-serif; font-size: 12px; font-weight: 200;" x="0" y="123.2030762892503" dx="0em" dy="0.3em" fill="rgb(50, 49, 63)" stroke="none" stroke-width="1px">0.3</text><text style="text-anchor: end; visibility: inherit; font-family: &quot;Helvetica Neue&quot;, sans-serif; font-size: 12px; font-weight: 200;" x="0" y="109.51384559044472" dx="0em" dy="0.3em" fill="rgb(50, 49, 63)" stroke="none" stroke-width="1px">0.4</text><text style="text-anchor: end; visibility: hidden; font-family: &quot;Helvetica Neue&quot;, sans-serif; font-size: 12px; font-weight: 200;" x="0" y="95.82461489163913" dx="0em" dy="0.3em" fill="rgb(50, 49, 63)" stroke="none" stroke-width="1px">0.5</text><text style="text-anchor: end; visibility: inherit; font-family: &quot;Helvetica Neue&quot;, sans-serif; font-size: 12px; font-weight: 200;" x="0" y="82.13538419283354" dx="0em" dy="0.3em" fill="rgb(50, 49, 63)" stroke="none" stroke-width="1px">0.6</text><text style="text-anchor: end; visibility: hidden; font-family: &quot;Helvetica Neue&quot;, sans-serif; font-size: 12px; font-weight: 200;" x="0" y="68.44615349402795" dx="0em" dy="0.3em" fill="rgb(50, 49, 63)" stroke="none" stroke-width="1px">0.7</text><text style="text-anchor: end; visibility: inherit; font-family: &quot;Helvetica Neue&quot;, sans-serif; font-size: 12px; font-weight: 200;" x="0" y="54.756922795222366" dx="0em" dy="0.3em" fill="rgb(50, 49, 63)" stroke="none" stroke-width="1px">0.8</text><text style="text-anchor: end; visibility: hidden; font-family: &quot;Helvetica Neue&quot;, sans-serif; font-size: 12px; font-weight: 200;" x="0" y="41.06769209641678" dx="0em" dy="0.3em" fill="rgb(50, 49, 63)" stroke="none" stroke-width="1px">0.9</text><text style="text-anchor: end; visibility: inherit; font-family: &quot;Helvetica Neue&quot;, sans-serif; font-size: 12px; font-weight: 200;" x="0" y="27.378461397611176" dx="0em" dy="0.3em" fill="rgb(50, 49, 63)" stroke="none" stroke-width="1px">1</text><text style="text-anchor: end; visibility: hidden; font-family: &quot;Helvetica Neue&quot;, sans-serif; font-size: 12px; font-weight: 200;" x="0" y="13.689230698805574" dx="0em" dy="0.3em" fill="rgb(50, 49, 63)" stroke="none" stroke-width="1px">1.1</text><text style="text-anchor: end; visibility: hidden; font-family: &quot;Helvetica Neue&quot;, sans-serif; font-size: 12px; font-weight: 200;" x="0" y="0" dx="0em" dy="0.3em" fill="rgb(50, 49, 63)" stroke="none" stroke-width="1px">1.2</text></g><line x1="51.41600036621094" y1="0" x2="51.41600036621094" y2="177.95999908447266" fill="rgb(0, 0, 0)" stroke="rgb(204, 204, 204)" stroke-width="1px"></line></g></g><g transform="translate(51, 0)" clip-path="url(#clip_0)"><clipPath id="clip_0"><rect width="278" height="177"></rect></clipPath><g><g><g><line x1="0" y1="0" x2="0" y2="177.95999908447266" fill="rgb(0, 0, 0)" stroke="rgb(60, 60, 60)" stroke-width="1px" opacity="0.25"></line><line x1="30.953777737087673" y1="0" x2="30.953777737087673" y2="177.95999908447266" fill="rgb(0, 0, 0)" stroke="rgb(60, 60, 60)" stroke-width="1px" opacity="0.25"></line><line x1="61.907555474175346" y1="0" x2="61.907555474175346" y2="177.95999908447266" fill="rgb(0, 0, 0)" stroke="rgb(60, 60, 60)" stroke-width="1px" opacity="0.25"></line><line x1="92.86133321126302" y1="0" x2="92.86133321126302" y2="177.95999908447266" fill="rgb(0, 0, 0)" stroke="rgb(60, 60, 60)" stroke-width="1px" opacity="0.25"></line><line x1="123.81511094835069" y1="0" x2="123.81511094835069" y2="177.95999908447266" fill="rgb(0, 0, 0)" stroke="rgb(60, 60, 60)" stroke-width="1px" opacity="0.25"></line><line x1="154.76888868543838" y1="0" x2="154.76888868543838" y2="177.95999908447266" fill="rgb(0, 0, 0)" stroke="rgb(60, 60, 60)" stroke-width="1px" opacity="0.25"></line><line x1="185.72266642252603" y1="0" x2="185.72266642252603" y2="177.95999908447266" fill="rgb(0, 0, 0)" stroke="rgb(60, 60, 60)" stroke-width="1px" opacity="0.25"></line><line x1="216.6764441596137" y1="0" x2="216.6764441596137" y2="177.95999908447266" fill="rgb(0, 0, 0)" stroke="rgb(60, 60, 60)" stroke-width="1px" opacity="0.25"></line><line x1="247.63022189670139" y1="0" x2="247.63022189670139" y2="177.95999908447266" fill="rgb(0, 0, 0)" stroke="rgb(60, 60, 60)" stroke-width="1px" opacity="0.25"></line><line x1="278.58399963378906" y1="0" x2="278.58399963378906" y2="177.95999908447266" fill="rgb(0, 0, 0)" stroke="rgb(60, 60, 60)" stroke-width="1px" opacity="0.25"></line></g><g><line x1="0" y1="177.95999908447266" x2="278.58399963378906" y2="177.95999908447266" fill="rgb(0, 0, 0)" stroke="rgb(60, 60, 60)" stroke-width="1px" opacity="0.25"></line><line x1="0" y1="164.27076838566705" x2="278.58399963378906" y2="164.27076838566705" fill="rgb(0, 0, 0)" stroke="rgb(60, 60, 60)" stroke-width="1px" opacity="0.25"></line><line x1="0" y1="150.58153768686148" x2="278.58399963378906" y2="150.58153768686148" fill="rgb(0, 0, 0)" stroke="rgb(60, 60, 60)" stroke-width="1px" opacity="0.25"></line><line x1="0" y1="136.89230698805588" x2="278.58399963378906" y2="136.89230698805588" fill="rgb(0, 0, 0)" stroke="rgb(60, 60, 60)" stroke-width="1px" opacity="0.25"></line><line x1="0" y1="123.2030762892503" x2="278.58399963378906" y2="123.2030762892503" fill="rgb(0, 0, 0)" stroke="rgb(60, 60, 60)" stroke-width="1px" opacity="0.25"></line><line x1="0" y1="109.51384559044472" x2="278.58399963378906" y2="109.51384559044472" fill="rgb(0, 0, 0)" stroke="rgb(60, 60, 60)" stroke-width="1px" opacity="0.25"></line><line x1="0" y1="95.82461489163913" x2="278.58399963378906" y2="95.82461489163913" fill="rgb(0, 0, 0)" stroke="rgb(60, 60, 60)" stroke-width="1px" opacity="0.25"></line><line x1="0" y1="82.13538419283354" x2="278.58399963378906" y2="82.13538419283354" fill="rgb(0, 0, 0)" stroke="rgb(60, 60, 60)" stroke-width="1px" opacity="0.25"></line><line x1="0" y1="68.44615349402795" x2="278.58399963378906" y2="68.44615349402795" fill="rgb(0, 0, 0)" stroke="rgb(60, 60, 60)" stroke-width="1px" opacity="0.25"></line><line x1="0" y1="54.756922795222366" x2="278.58399963378906" y2="54.756922795222366" fill="rgb(0, 0, 0)" stroke="rgb(60, 60, 60)" stroke-width="1px" opacity="0.25"></line><line x1="0" y1="41.06769209641678" x2="278.58399963378906" y2="41.06769209641678" fill="rgb(0, 0, 0)" stroke="rgb(60, 60, 60)" stroke-width="1px" opacity="0.25"></line><line x1="0" y1="27.378461397611176" x2="278.58399963378906" y2="27.378461397611176" fill="rgb(0, 0, 0)" stroke="rgb(60, 60, 60)" stroke-width="1px" opacity="0.25"></line><line x1="0" y1="13.689230698805574" x2="278.58399963378906" y2="13.689230698805574" fill="rgb(0, 0, 0)" stroke="rgb(60, 60, 60)" stroke-width="1px" opacity="0.25"></line><line x1="0" y1="0" x2="278.58399963378906" y2="0" fill="rgb(0, 0, 0)" stroke="rgb(60, 60, 60)" stroke-width="1px" opacity="0.25"></line></g></g></g><g><g><line x1="0" y1="164.27076838566705" x2="278.58399963378906" y2="164.27076838566705" fill="rgb(0, 0, 0)" stroke="rgb(153, 153, 153)" stroke-width="1.5px"></line></g></g><g><g><line x1="30.953777737087673" y1="0" x2="30.953777737087673" y2="177.95999908447266" fill="rgb(0, 0, 0)" stroke="rgb(153, 153, 153)" stroke-width="1.5px"></line></g></g><g><g><g><g><g><path style="fill: none;" stroke="rgb(204, 51, 17)" stroke-width="2px" d="M30.953777737087673,58.96899189652777L34.04915551079644,105.76978164557552L37.14453328450521,116.06117992121203L40.23991105821397,129.63767584815716L43.335288831922746,103.71149753074955L46.43066660563151,97.21142434351755L49.52604437934028,94.47403415840225L52.621422153049046,77.12238449910535L55.716799926757815,70.37399587307891L58.81217770046658,61.95664871325124L61.907555474175346,55.92591152594677L65.00293324788412,52.05117681457952L68.09831102159288,48.748608260585144L71.19368879530164,47.50049404531788L74.28906656901042,43.661946892190116L77.38444434271919,42.62395345002918L80.47982211642794,36.524724233303715L83.57519989013672,35.147618777979574L86.67057766384549,32.03976644582329L89.76595543755425,30.175176254166786L92.86133321126302,29.056465770447886L95.95671098497179,28.385255186725118L99.05208875868055,27.98253449067252L102.14746653238932,27.740904108511074L105.24284430609809,27.595926611975926L108.33822207980685,27.50894037784741L111.43359985351563,27.456748732335285L114.52897762722439,27.425433779215297L117.62435540093315,27.40664481965075L120.71973317464193,27.395371448342672L123.81511094835069,27.388607427152863L126.91048872205945,27.384549015013192L130.00586649576823,27.38211396793608L133.101244269477,27.380652939764275L136.19662204318576,27.379776322887977L139.29199981689453,27.379250352771862L142.38737759060328,27.378934770705598L145.48275536431208,27.37874542146713L148.57813313802083,27.378631811924492L151.67351091172958,27.37856364619907L154.76888868543838,27.378522746763906L157.86426645914713,27.37849820710281L160.95964423285588,27.378483483306155L164.05502200656468,27.378474649028163L167.15039978027343,27.37846934846135L170.2457775539822,27.378466168121292L173.34115532769098,27.37846425991725L176.43653310139973,27.378463114994815L179.5319108751085,27.378462428041388L182.62728864881728,27.378462015869303L185.72266642252603,27.37846176856604L188.8180441962348,27.378461620184112" fill="none"></path></g><g><path style="fill: none;" stroke="rgb(0, 119, 187)" stroke-width="2px" d="M30.953777737087673,58.96899189652777L34.04915551079644,105.76978164557552L37.14453328450521,104.88629796788351L40.23991105821397,126.457858108586L43.335288831922746,103.95822587493213L46.43066660563151,95.22734795565033L49.52604437934028,88.97306716359869L52.621422153049046,77.83741943505704L55.716799926757815,72.70749801963697L58.81217770046658,63.35107174890631L61.907555474175346,58.72325856736947L65.00293324788412,48.05027770771096L68.09831102159288,50.73644340879193L71.19368879530164,46.86591107904235L74.28906656901042,43.28131651711996L77.38444434271919,39.656998801969564L80.47982211642794,34.74475236100005L83.57519989013672,31.797936697173412L86.67057766384549,30.03003884877117L89.76595543755425,28.96936908854019L92.86133321126302,28.332992051996968L95.95671098497179,27.951174764698465L99.05208875868055,27.722087608693045L102.14746653238932,27.584636472964405L105.24284430609809,27.50216620835775L108.33822207980685,27.452684199651884L111.43359985351563,27.422995048449053L114.52897762722439,27.405181577174716L117.62435540093315,27.394493501411233L120.71973317464193,27.388080658473484L123.81511094835069,27.38423295361818L126.91048872205945,27.381924331031684L130.00586649576823,27.380539157597326L133.101244269477,27.379708053579037L136.19662204318576,27.379209391183338L139.29199981689453,27.37891019375138L142.38737759060328,27.37873067529418L145.48275536431208,27.37862296422057L148.57813313802083,27.378558337576663L151.67351091172958,27.378519561590423L154.76888868543838,27.3784962959987L157.86426645914713,27.378482336643714L160.95964423285588,27.378473961030664L164.05502200656468,27.37846893566288L167.15039978027343,27.37846592044221L170.2457775539822,27.378464111309796L173.34115532769098,27.378463025830342L176.43653310139973,27.378462374542664L179.5319108751085,27.37846198377011L182.62728864881728,27.378461749306524L185.72266642252603,27.378461608628385L188.8180441962348,27.378461524221507" fill="none"></path></g><g><path style="fill: none;" stroke="rgb(255, 112, 67)" stroke-width="2px" d="M30.953777737087673,58.96899189652777L34.04915551079644,115.27619192390767L37.14453328450521,112.33621888849711L40.23991105821397,119.04590769471267L43.335288831922746,101.80840997051611L46.43066660563151,85.47040516189159L49.52604437934028,81.06461362134337L52.621422153049046,75.13539884361379L55.716799926757815,74.9120710892206L58.81217770046658,66.44554715348565L61.907555474175346,58.61271263402011L65.00293324788412,53.66091294340198L68.09831102159288,58.486171263386325L71.19368879530164,51.51331668289966L74.28906656901042,41.85483329492146L77.38444434271919,38.801269884712895L80.47982211642794,36.187307486397856L83.57519989013672,34.94518243844041L86.67057766384549,31.918309576662693L89.76595543755425,32.2084179103403L92.86133321126302,30.27639292251189L95.95671098497179,29.117205055123378L99.05208875868055,28.42170209952144L102.14746653238932,28.004403841439085L105.24284430609809,27.754026152076904L108.33822207980685,27.603799994032244L111.43359985351563,27.513664463210972L114.52897762722439,27.459583203760076L117.62435540093315,27.427134469344537L120.71973317464193,27.407665236347043L123.81511094835069,27.3959836993032L126.91048872205945,27.388974778068615L130.00586649576823,27.384769425684794L133.101244269477,27.38224621438306L136.19662204318576,27.3807322876483L139.29199981689453,27.379823931624088L142.38737759060328,27.379278918015558L145.48275536431208,27.37895190985259L148.57813313802083,27.37875570495558L151.67351091172958,27.378637982017665L154.76888868543838,27.378567348255018L157.86426645914713,27.378524967997436L160.95964423285588,27.37849953984292L164.05502200656468,27.37848428295021L167.15039978027343,27.378475128814614L170.2457775539822,27.37846963633325L173.34115532769098,27.378466340844426L176.43653310139973,27.37846436355113L179.5319108751085,27.37846317717515L182.62728864881728,27.378462465349543L185.72266642252603,27.378462038254213L188.8180441962348,27.378461781996975L191.91342196994358,27.37846162824266L195.00879974365233,27.378461535990056L198.1041775173611,27.378461480638492L201.19955529106988,27.378461447427554L204.29493306477863,27.37846142750101L207.3903108384874,27.378461415545075L210.48568861219618,27.37846140837152L213.58106638590496,27.378461404067394L216.6764441596137,27.378461401484913L219.77182193332249,27.378461399935418L222.86719970703126,27.378461399005715L225.96257748074,27.37846139844791L229.05795525444879,27.378461398113217L232.15333302815756,27.37846139791239L235.2487108018663,27.37846139779191L238.34408857557509,27.378461397719633L241.43946634928386,27.378461397676233L244.5348441229926,27.3784613976502" fill="none"></path></g><g><path style="fill: none;" stroke="rgb(187, 187, 187)" stroke-width="2px" d="M30.953777737087673,58.96899189652777L34.04915551079644,105.76978164557552L37.14453328450521,107.68001793584463L40.23991105821397,122.24860219438898L43.335288831922746,101.57463612754505L46.43066660563151,89.58928416488688L49.52604437934028,83.4884918494486L52.621422153049046,76.57316284820041L55.716799926757815,75.76887475024206L58.81217770046658,66.9575444377925L61.907555474175346,64.80734104592183L65.00293324788412,59.264571077566956L68.09831102159288,72.8111439560299L71.19368879530164,60.10380651892997L74.28906656901042,55.43561502323382L77.38444434271919,57.90268025800796L80.47982211642794,47.64686019915345L83.57519989013672,46.383987770670245L86.67057766384549,38.781313945112004L89.76595543755425,38.43223089627119L92.86133321126302,34.01062610028103L95.95671098497179,31.357725301280766L99.05208875868055,29.766007169533765L102.14746653238932,28.810984335502354L105.24284430609809,28.237973531259655L108.33822207980685,27.89416809133101L111.43359985351563,27.68788520271454L114.52897762722439,27.564115604666995L117.62435540093315,27.48985389448245L120.71973317464193,27.44529688588355L123.81511094835069,27.41856268702847L126.91048872205945,27.402522169984934L130.00586649576823,27.392897860575857L133.101244269477,27.387123275224553L136.19662204318576,27.383658524119625L139.29199981689453,27.381579673494826L142.38737759060328,27.38033236313362L145.48275536431208,27.37958397692185L148.57813313802083,27.379134945196597L151.67351091172958,27.37886552616206L154.76888868543838,27.378703874741575L157.86426645914713,27.378606883889375L160.95964423285588,27.37854868937808L164.05502200656468,27.37851377267131L167.15039978027343,27.378492822647274L170.2457775539822,27.37848025263284L173.34115532769098,27.37847271062418L176.43653310139973,27.378468185418967L179.5319108751085,27.37846547029585L182.62728864881728,27.378463841221958L185.72266642252603,27.378462863777656L188.8180441962348,27.37846227731106" fill="none"></path></g><g><path style="fill: none;" stroke="rgb(0, 153, 136)" stroke-width="2px" d="M30.953777737087673,58.96899189652777L34.04915551079644,112.10738849779696L37.14453328450521,107.9904319363185L40.23991105821397,128.13545992240932L43.335288831922746,96.71871227457615L46.43066660563151,80.38893413524497L49.52604437934028,73.74089159456933L52.621422153049046,62.83516221615167L55.716799926757815,63.76723461914963L58.81217770046658,56.23156922590606L61.907555474175346,48.573753936006995L65.00293324788412,47.64629784465498L68.09831102159288,46.10798511918466L71.19368879530164,45.91694853052351L74.28906656901042,44.819145238401404L77.38444434271919,46.05675796001293L80.47982211642794,40.54010900370946L83.57519989013672,37.55668650273347L86.67057766384549,37.541464734494724L89.76595543755425,33.47611476410526L92.86133321126302,33.31858949960693L95.95671098497179,30.942506984405725L99.05208875868055,33.57297872468169L102.14746653238932,33.12320263144113L105.24284430609809,33.10684562912894L108.33822207980685,30.81548802788444L111.43359985351563,31.821413611423964L114.52897762722439,30.04423163454166L117.62435540093315,28.977923146881125L120.71973317464193,28.338138305733395L123.81511094835069,27.95426749156624L126.91048872205945,27.723945035653628L130.00586649576823,27.585751573837626L133.101244269477,27.50283550097143L136.19662204318576,27.453085858772084L139.29199981689453,27.423236073999846L142.38737759060328,27.405326203333516L145.48275536431208,27.394580281004693L148.57813313802083,27.38813272763292L151.67351091172958,27.38426419561904L154.76888868543838,27.381943076414046L157.86426645914713,27.380550404892205L160.95964423285588,27.37971480197956L164.05502200656468,27.37921344023212L167.15039978027343,27.378912623183737L170.2457775539822,27.378732132954696L173.34115532769098,27.378623838817276L176.43653310139973,27.378558862334813L179.5319108751085,27.37851987644538L182.62728864881728,27.378496484911693L185.72266642252603,27.37848244999148L188.8180441962348,27.37847402903938" fill="none"></path></g><g><path style="fill: none;" stroke="rgb(238, 51, 119)" stroke-width="2px" d="M30.953777737087673,58.96899189652777L34.04915551079644,115.27619192390767L37.14453328450521,109.54249892053599L40.23991105821397,120.39561499870403L43.335288831922746,100.52533872873943L46.43066660563151,91.10753341460206L49.52604437934028,86.54863838998911L52.621422153049046,76.39932886517522L55.716799926757815,68.03571396894594L58.81217770046658,62.33646553809274L61.907555474175346,56.15324842818147L65.00293324788412,50.29509071130455L68.09831102159288,47.69587522654243L71.19368879530164,48.6958482025598L74.28906656901042,40.16488234853185L77.38444434271919,37.78749007218761L80.47982211642794,33.62317372271036L83.57519989013672,31.125035081818595L86.67057766384549,29.62631428212393L89.76595543755425,28.727140253091648L92.86133321126302,28.187656876279306L95.95671098497179,27.863974424448458L99.05208875868055,27.669767680004185L102.14746653238932,27.553244614916252L105.24284430609809,27.483331129228162L108.33822207980685,27.441383165025798L111.43359985351563,27.416214432300023L114.52897762722439,27.401113209150907L117.62435540093315,27.392052481196544L120.71973317464193,27.386616046560533L123.81511094835069,27.383354186548132L126.91048872205945,27.38139707081757L130.00586649576823,27.380222801478936L133.101244269477,27.379518239911647L136.19662204318576,27.3790955029842L139.29199981689453,27.37884186083238L142.38737759060328,27.378689675542944L145.48275536431208,27.378598364369907L148.57813313802083,27.378543577666306L151.67351091172958,27.378510705644203L154.76888868543838,27.378490982431003L157.86426645914713,27.378479148503033L160.95964423285588,27.37847204814628L164.05502200656468,27.378467787932266L167.15039978027343,27.3784652318038L170.2457775539822,27.37846369812675L173.34115532769098,27.378462777920532L176.43653310139973,27.378462225796795L179.5319108751085,27.37846189452253L182.62728864881728,27.378461695758006L185.72266642252603,27.378461576499262L188.8180441962348,27.378461504944028" fill="none"></path></g><g><path style="fill: none;" stroke="rgb(51, 187, 238)" stroke-width="2px" d="M30.953777737087673,58.96899189652777L34.04915551079644,118.44499535001839L37.14453328450521,111.0945659047535L40.23991105821397,124.09396451582134L43.335288831922746,98.52487007272919L46.43066660563151,87.81912591368265L49.52604437934028,88.94685366599445L52.621422153049046,81.79989618594315L55.716799926757815,75.06884840540337L58.81217770046658,66.53923204744466L61.907555474175346,64.55696287210672L65.00293324788412,61.00685252399349L68.09831102159288,60.69675305506881L71.19368879530164,49.18564809383665L74.28906656901042,48.88677435578032L77.38444434271919,53.97411506604628L80.47982211642794,49.20185943809767L83.57519989013672,42.753384852826855L86.67057766384549,44.71567018346846L89.76595543755425,41.99275784832528L92.86133321126302,36.146911027986505L95.95671098497179,32.63948501049751L99.05208875868055,32.56310793096836L102.14746653238932,30.48923949084596L105.24284430609809,29.24492471592933L108.33822207980685,28.498338115061728L111.43359985351563,28.050386969607814L114.52897762722439,27.781616575758846L117.62435540093315,27.620354445081688L120.71973317464193,27.523597204702952L123.81511094835069,27.465542874165664L126.91048872205945,27.430710280771677L130.00586649576823,27.409810726509477L133.101244269477,27.397270994590883L136.19662204318576,27.389747155669653L139.29199981689453,27.385232852399724L142.38737759060328,27.382524270467513L145.48275536431208,27.380899121318947L148.57813313802083,27.379924031833667L151.67351091172958,27.379338978143892L154.76888868543838,27.378987945930533L157.86426645914713,27.378777326602687L160.95964423285588,27.378650955006037L164.05502200656468,27.37857513204807L167.15039978027343,27.378529638273307L170.2457775539822,27.37850234200846L173.34115532769098,27.378485964249563L176.43653310139973,27.37847613759419L179.5319108751085,27.378470241601008L182.62728864881728,27.378466704005064L185.72266642252603,27.378464581447503L188.8180441962348,27.378463307912995" fill="none"></path></g><g><path style="fill: none;" stroke="rgb(204, 51, 17)" stroke-width="2px" d="M30.953777737087673,58.96899189652777L34.04915551079644,112.10738849779696L37.14453328450521,102.40299200039624L40.23991105821397,127.97532592018638L43.335288831922746,90.4859123408152L46.43066660563151,78.89855268428725L49.52604437934028,75.03051891216919L52.621422153049046,73.54518893504762L55.716799926757815,68.24224528974473L58.81217770046658,58.90568631342799L61.907555474175346,48.21160197700138L65.00293324788412,43.64474295232762L68.09831102159288,45.902287924144474L71.19368879530164,38.48694634308629L74.28906656901042,38.25551428220518L77.38444434271919,42.1193202642778L80.47982211642794,40.133850813803406L83.57519989013672,39.59471610450839L86.67057766384549,34.70791643985217L89.76595543755425,33.88214122978363L92.86133321126302,33.56220181614276L95.95671098497179,32.79984945186911L99.05208875868055,32.65932608920875L102.14746653238932,32.57501278185936L105.24284430609809,30.496386318565186L108.33822207980685,29.249214222735873L111.43359985351563,28.5009123268062L114.52897762722439,28.05193167941175L117.62435540093315,27.78254346743367L120.71973317464193,27.620910603771847L123.81511094835069,27.523930908443788L126.91048872205945,27.465743099479766L130.00586649576823,27.430830417065152L133.101244269477,27.409882808683392L136.19662204318576,27.397314244038455L139.29199981689453,27.389773105389736L142.38737759060328,27.385248422250328L145.48275536431208,27.382533612384577L148.57813313802083,27.380904726471556L151.67351091172958,27.379927394926113L154.76888868543838,27.379340995999655L157.86426645914713,27.37898915664411L160.95964423285588,27.378778053030885L164.05502200656468,27.378651390862984L167.15039978027343,27.378575393562244L170.2457775539822,27.378529795181834L173.34115532769098,27.378502436153553L176.43653310139973,28.89951237925291L179.5319108751085,28.291091986588015L182.62728864881728,27.926039750994335L185.72266642252603,27.707008409640025L188.8180441962348,27.57558960482808" fill="none"></path></g><g><path style="fill: none;" stroke="rgb(0, 119, 187)" stroke-width="2px" d="M30.953777737087673,64.23408439272255L34.04915551079644,114.08179818387L37.14453328450521,111.75120970970316L40.23991105821397,135.88703630711305L43.335288831922746,105.2029731828569L46.43066660563151,87.440692053265L49.52604437934028,86.55746577220427L52.621422153049046,74.41555377146346L55.716799926757815,68.76091996506452L58.81217770046658,59.2156289960793L61.907555474175346,56.24801607333589L65.00293324788412,48.45957873536187L68.09831102159288,46.59552821744515L71.19368879530164,40.72933678055975L74.28906656901042,39.60052661097703L77.38444434271919,34.710320944865316L80.47982211642794,31.77708062636424L83.57519989013672,30.0174542272822L86.67057766384549,30.98994932414797L89.76595543755425,29.54530133491386L92.86133321126302,30.960135934872824L95.95671098497179,29.527447262675736L99.05208875868055,30.69589511303397L102.14746653238932,29.368915339128677L105.24284430609809,28.57273149894806L108.33822207980685,28.09502264352932L111.43359985351563,27.80839785180433L114.52897762722439,27.63642316451839L117.62435540093315,27.53323841973642L120.71973317464193,27.471327597199462L123.81511094835069,27.434181112436875L126.91048872205945,27.41189322473278L130.00586649576823,27.39852049324557L133.101244269477,27.39049685476192L136.19662204318576,27.3856826718189L139.29199981689453,27.382794162105995L142.38737759060328,27.38106105629734L145.48275536431208,27.380021192819015L148.57813313802083,27.379397274734515L151.67351091172958,27.379022923884662L154.76888868543838,27.378798313375086L157.86426645914713,27.378663547069436L160.95964423285588,27.378582687286126L164.05502200656468,27.378534171416135L167.15039978027343,27.378505061894145L170.2457775539822,27.378487596180975L173.34115532769098,27.378477116753032L176.43653310139973,27.378470829096273L179.5319108751085,27.378467056502245L182.62728864881728,27.378464792945806L185.72266642252603,27.378463434811977L188.8180441962348,27.378462619931668" fill="none"></path></g><g><path style="fill: none;" stroke="rgb(255, 112, 67)" stroke-width="2px" d="M30.953777737087673,58.96899189652777L34.04915551079644,102.60097885691927L37.14453328450521,100.54051132792748L40.23991105821397,121.24966745399234L43.335288831922746,92.81947101556973L46.43066660563151,78.12571985454078L49.52604437934028,81.07579022614578L52.621422153049046,71.16400602720788L55.716799926757815,63.00844621762744L58.81217770046658,61.10943741057014L61.907555474175346,59.34427027675838L65.00293324788412,50.314629427536715L68.09831102159288,54.28701241649587L71.19368879530164,45.341814462270435L74.28906656901042,38.15309320761449L77.38444434271919,42.05787918042918L80.47982211642794,38.141052532433065L83.57519989013672,33.83557881478012L86.67057766384549,35.308890826978455L89.76595543755425,34.242717072707734L92.86133321126302,31.496954569012615L95.95671098497179,29.84953561684307L99.05208875868055,28.861098123160673L102.14746653238932,28.268040622808286L105.24284430609809,27.912207921086832L108.33822207980685,27.69870894750636L111.43359985351563,27.57060979644004L114.52897762722439,27.49375038970956L117.62435540093315,27.447634775878612L120.71973317464193,27.419965418454666L123.81511094835069,27.403363807915156L126.91048872205945,27.393402843000814L130.00586649576823,27.387426264559537L133.101244269477,27.383840317677482L136.19662204318576,27.38168874961397L139.29199981689453,27.38039780879953L142.38737759060328,27.37962324431936L145.48275536431208,27.379158505634365L148.57813313802083,27.37887966242448L151.67351091172958,27.378712356498937L154.76888868543838,27.37861197294376L157.86426645914713,27.378551742810686L160.95964423285588,27.378515604730865L164.05502200656468,27.378493921882978L167.15039978027343,27.37848091217427L170.2457775539822,27.37847310634905L173.34115532769098,27.37846842285387L176.43653310139973,27.3784656127568L179.5319108751085,27.378463926698544L182.62728864881728,27.37846291506358L185.72266642252603,27.378462308082618L188.8180441962348,27.378461943894052" fill="none"></path></g></g></g></g><g opacity="0.2"><g><g><g><path style="fill: none;" stroke="rgb(204, 51, 17)" stroke-width="2px" d="M30.953777737087673,58.96899189652777L34.04915551079644,133.85025549500418L37.14453328450521,125.94092226582308L40.23991105821397,145.60363505824463L43.335288831922746,69.8622791195422L46.43066660563151,88.21948309922831L49.52604437934028,90.55952239544436L52.621422153049046,51.82351272001374L55.716799926757815,60.42143345669663L58.81217770046658,49.45786917221457L61.907555474175346,46.934504087416684L65.00293324788412,46.26016088271962L68.09831102159288,43.80553888893127L71.19368879530164,45.63076790809632L74.28906656901042,37.908638230583364L77.38444434271919,41.067695360183706L80.47982211642794,27.378461397611176L83.57519989013672,33.08231024191929L86.67057766384549,27.378461397611176L89.76595543755425,27.378461397611176L92.86133321126302,27.378461397611176L95.95671098497179,27.378461397611176L99.05208875868055,27.378461397611176L102.14746653238932,27.378461397611176L105.24284430609809,27.378461397611176L108.33822207980685,27.378461397611176L111.43359985351563,27.378461397611176L114.52897762722439,27.378461397611176L117.62435540093315,27.378461397611176L120.71973317464193,27.378461397611176L123.81511094835069,27.378461397611176L126.91048872205945,27.378461397611176L130.00586649576823,27.378461397611176L133.101244269477,27.378461397611176L136.19662204318576,27.378461397611176L139.29199981689453,27.378461397611176L142.38737759060328,27.378461397611176L145.48275536431208,27.378461397611176L148.57813313802083,27.378461397611176L151.67351091172958,27.378461397611176L154.76888868543838,27.378461397611176L157.86426645914713,27.378461397611176L160.95964423285588,27.378461397611176L164.05502200656468,27.378461397611176L167.15039978027343,27.378461397611176L170.2457775539822,27.378461397611176L173.34115532769098,27.378461397611176L176.43653310139973,27.378461397611176L179.5319108751085,27.378461397611176L182.62728864881728,27.378461397611176L185.72266642252603,27.378461397611176L188.8180441962348,27.378461397611176" fill="none"></path></g><g><path style="fill: none;" stroke="rgb(0, 119, 187)" stroke-width="2px" d="M30.953777737087673,58.96899189652777L34.04915551079644,133.85025549500418L37.14453328450521,104.03815363729917L40.23991105821397,151.8260128340521L43.335288831922746,74.58270603067362L46.43066660563151,83.14940067723268L49.52604437934028,80.02934556247217L52.621422153049046,61.60153814462515L55.716799926757815,65.14186036782807L58.81217770046658,49.45786917221457L61.907555474175346,51.82351272001374L65.00293324788412,32.0988883087426L68.09831102159288,54.75692116333889L71.19368879530164,41.067695360183706L74.28906656901042,37.908638230583364L77.38444434271919,34.22307837889744L80.47982211642794,27.378461397611176L83.57519989013672,27.378461397611176L86.67057766384549,27.378461397611176L89.76595543755425,27.378461397611176L92.86133321126302,27.378461397611176L95.95671098497179,27.378461397611176L99.05208875868055,27.378461397611176L102.14746653238932,27.378461397611176L105.24284430609809,27.378461397611176L108.33822207980685,27.378461397611176L111.43359985351563,27.378461397611176L114.52897762722439,27.378461397611176L117.62435540093315,27.378461397611176L120.71973317464193,27.378461397611176L123.81511094835069,27.378461397611176L126.91048872205945,27.378461397611176L130.00586649576823,27.378461397611176L133.101244269477,27.378461397611176L136.19662204318576,27.378461397611176L139.29199981689453,27.378461397611176L142.38737759060328,27.378461397611176L145.48275536431208,27.378461397611176L148.57813313802083,27.378461397611176L151.67351091172958,27.378461397611176L154.76888868543838,27.378461397611176L157.86426645914713,27.378461397611176L160.95964423285588,27.378461397611176L164.05502200656468,27.378461397611176L167.15039978027343,27.378461397611176L170.2457775539822,27.378461397611176L173.34115532769098,27.378461397611176L176.43653310139973,27.378461397611176L179.5319108751085,27.378461397611176L182.62728864881728,27.378461397611176L185.72266642252603,27.378461397611176L188.8180441962348,27.378461397611176" fill="none"></path></g><g><path style="fill: none;" stroke="rgb(255, 112, 67)" stroke-width="2px" d="M30.953777737087673,58.96899189652777L34.04915551079644,149.06051194033563L37.14453328450521,109.51384477450299L40.23991105821397,126.93650173082219L43.335288831922746,79.30313294180507L46.43066660563151,62.86906282983273L49.52604437934028,74.76426122569474L52.621422153049046,66.49054677722219L55.716799926757815,74.58270603067362L58.81217770046658,53.87374583148484L61.907555474175346,46.934504087416684L65.00293324788412,46.26016088271962L68.09831102159288,65.70830343774651L71.19368879530164,41.067695360183706L74.28906656901042,27.378461397611176L77.38444434271919,34.22307837889744L80.47982211642794,32.267470030208216L83.57519989013672,33.08231024191929L86.67057766384549,27.378461397611176L89.76595543755425,32.643553893805944L92.86133321126302,27.378461397611176L95.95671098497179,27.378461397611176L99.05208875868055,27.378461397611176L102.14746653238932,27.378461397611176L105.24284430609809,27.378461397611176L108.33822207980685,27.378461397611176L111.43359985351563,27.378461397611176L114.52897762722439,27.378461397611176L117.62435540093315,27.378461397611176L120.71973317464193,27.378461397611176L123.81511094835069,27.378461397611176L126.91048872205945,27.378461397611176L130.00586649576823,27.378461397611176L133.101244269477,27.378461397611176L136.19662204318576,27.378461397611176L139.29199981689453,27.378461397611176L142.38737759060328,27.378461397611176L145.48275536431208,27.378461397611176L148.57813313802083,27.378461397611176L151.67351091172958,27.378461397611176L154.76888868543838,27.378461397611176L157.86426645914713,27.378461397611176L160.95964423285588,27.378461397611176L164.05502200656468,27.378461397611176L167.15039978027343,27.378461397611176L170.2457775539822,27.378461397611176L173.34115532769098,27.378461397611176L176.43653310139973,27.378461397611176L179.5319108751085,27.378461397611176L182.62728864881728,27.378461397611176L185.72266642252603,27.378461397611176L188.8180441962348,27.378461397611176L191.91342196994358,27.378461397611176L195.00879974365233,27.378461397611176L198.1041775173611,27.378461397611176L201.19955529106988,27.378461397611176L204.29493306477863,27.378461397611176L207.3903108384874,27.378461397611176L210.48568861219618,27.378461397611176L213.58106638590496,27.378461397611176L216.6764441596137,27.378461397611176L219.77182193332249,27.378461397611176L222.86719970703126,27.378461397611176L225.96257748074,27.378461397611176L229.05795525444879,27.378461397611176L232.15333302815756,27.378461397611176L235.2487108018663,27.378461397611176L238.34408857557509,27.378461397611176L241.43946634928386,27.378461397611176L244.5348441229926,27.378461397611176" fill="none"></path></g><g><path style="fill: none;" stroke="rgb(187, 187, 187)" stroke-width="2px" d="M30.953777737087673,58.96899189652777L34.04915551079644,133.85025549500418L37.14453328450521,109.51384477450299L40.23991105821397,139.38125728243716L43.335288831922746,74.58270603067362L46.43066660563151,73.00922767382403L49.52604437934028,74.76426122569474L52.621422153049046,66.49054677722219L55.716799926757815,74.58270603067362L58.81217770046658,53.87374583148484L61.907555474175346,61.60153814462515L65.00293324788412,50.98057963443374L68.09831102159288,93.08677136289155L71.19368879530164,41.067695360183706L74.28906656901042,48.43881506355558L77.38444434271919,61.60153814462515L80.47982211642794,32.267470030208216L83.57519989013672,44.489999771118164L86.67057766384549,27.378461397611176L89.76595543755425,37.908638230583364L92.86133321126302,27.378461397611176L95.95671098497179,27.378461397611176L99.05208875868055,27.378461397611176L102.14746653238932,27.378461397611176L105.24284430609809,27.378461397611176L108.33822207980685,27.378461397611176L111.43359985351563,27.378461397611176L114.52897762722439,27.378461397611176L117.62435540093315,27.378461397611176L120.71973317464193,27.378461397611176L123.81511094835069,27.378461397611176L126.91048872205945,27.378461397611176L130.00586649576823,27.378461397611176L133.101244269477,27.378461397611176L136.19662204318576,27.378461397611176L139.29199981689453,27.378461397611176L142.38737759060328,27.378461397611176L145.48275536431208,27.378461397611176L148.57813313802083,27.378461397611176L151.67351091172958,27.378461397611176L154.76888868543838,27.378461397611176L157.86426645914713,27.378461397611176L160.95964423285588,27.378461397611176L164.05502200656468,27.378461397611176L167.15039978027343,27.378461397611176L170.2457775539822,27.378461397611176L173.34115532769098,27.378461397611176L176.43653310139973,27.378461397611176L179.5319108751085,27.378461397611176L182.62728864881728,27.378461397611176L185.72266642252603,27.378461397611176L188.8180441962348,27.378461397611176" fill="none"></path></g><g><path style="fill: none;" stroke="rgb(0, 153, 136)" stroke-width="2px" d="M30.953777737087673,58.96899189652777L34.04915551079644,143.99042645855846L37.14453328450521,104.03815363729917L40.23991105821397,151.8260128340521L43.335288831922746,55.70100654556518L46.43066660563151,57.798972248419744L49.52604437934028,64.23408439272255L52.621422153049046,46.934504087416684L55.716799926757815,65.14186036782807L58.81217770046658,45.04198435352694L61.907555474175346,37.156486822222604L65.00293324788412,46.26016088271962L68.09831102159288,43.80553888893127L71.19368879530164,45.63076790809632L74.28906656901042,43.17373072677813L77.38444434271919,47.91230418205262L80.47982211642794,32.267470030208216L83.57519989013672,33.08231024191929L86.67057766384549,37.518634401019796L89.76595543755425,27.378461397611176L92.86133321126302,33.08231024191929L95.95671098497179,27.378461397611176L99.05208875868055,37.518634401019796L102.14746653238932,32.44854381960681L105.24284430609809,33.08231024191929L108.33822207980685,27.378461397611176L111.43359985351563,33.33029941284536L114.52897762722439,27.378461397611176L117.62435540093315,27.378461397611176L120.71973317464193,27.378461397611176L123.81511094835069,27.378461397611176L126.91048872205945,27.378461397611176L130.00586649576823,27.378461397611176L133.101244269477,27.378461397611176L136.19662204318576,27.378461397611176L139.29199981689453,27.378461397611176L142.38737759060328,27.378461397611176L145.48275536431208,27.378461397611176L148.57813313802083,27.378461397611176L151.67351091172958,27.378461397611176L154.76888868543838,27.378461397611176L157.86426645914713,27.378461397611176L160.95964423285588,27.378461397611176L164.05502200656468,27.378461397611176L167.15039978027343,27.378461397611176L170.2457775539822,27.378461397611176L173.34115532769098,27.378461397611176L176.43653310139973,27.378461397611176L179.5319108751085,27.378461397611176L182.62728864881728,27.378461397611176L185.72266642252603,27.378461397611176L188.8180441962348,27.378461397611176" fill="none"></path></g><g><path style="fill: none;" stroke="rgb(238, 51, 119)" stroke-width="2px" d="M30.953777737087673,58.96899189652777L34.04915551079644,149.06051194033563L37.14453328450521,104.03815363729917L40.23991105821397,133.15887950662966L43.335288831922746,74.58270603067362L46.43066660563151,78.07931825523701L49.52604437934028,80.02934556247217L52.621422153049046,61.60153814462515L55.716799926757815,55.70100654556518L58.81217770046658,53.87374583148484L61.907555474175346,46.934504087416684L65.00293324788412,41.53973397158819L68.09831102159288,43.80553888893127L71.19368879530164,50.19384861542629L74.28906656901042,27.378461397611176L77.38444434271919,34.22307837889744L80.47982211642794,27.378461397611176L83.57519989013672,27.378461397611176L86.67057766384549,27.378461397611176L89.76595543755425,27.378461397611176L92.86133321126302,27.378461397611176L95.95671098497179,27.378461397611176L99.05208875868055,27.378461397611176L102.14746653238932,27.378461397611176L105.24284430609809,27.378461397611176L108.33822207980685,27.378461397611176L111.43359985351563,27.378461397611176L114.52897762722439,27.378461397611176L117.62435540093315,27.378461397611176L120.71973317464193,27.378461397611176L123.81511094835069,27.378461397611176L126.91048872205945,27.378461397611176L130.00586649576823,27.378461397611176L133.101244269477,27.378461397611176L136.19662204318576,27.378461397611176L139.29199981689453,27.378461397611176L142.38737759060328,27.378461397611176L145.48275536431208,27.378461397611176L148.57813313802083,27.378461397611176L151.67351091172958,27.378461397611176L154.76888868543838,27.378461397611176L157.86426645914713,27.378461397611176L160.95964423285588,27.378461397611176L164.05502200656468,27.378461397611176L167.15039978027343,27.378461397611176L170.2457775539822,27.378461397611176L173.34115532769098,27.378461397611176L176.43653310139973,27.378461397611176L179.5319108751085,27.378461397611176L182.62728864881728,27.378461397611176L185.72266642252603,27.378461397611176L188.8180441962348,27.378461397611176" fill="none"></path></g><g><path style="fill: none;" stroke="rgb(51, 187, 238)" stroke-width="2px" d="M30.953777737087673,58.96899189652777L34.04915551079644,154.13059742211277L37.14453328450521,104.03815363729917L40.23991105821397,139.38125728243716L43.335288831922746,65.14186036782807L46.43066660563151,73.00922767382403L49.52604437934028,90.55952239544436L52.621422153049046,71.37956356923658L55.716799926757815,65.14186036782807L58.81217770046658,53.87374583148484L61.907555474175346,61.60153814462515L65.00293324788412,55.70100654556518L68.09831102159288,60.23261638025137L71.19368879530164,31.941542104941135L74.28906656901042,48.43881506355558L77.38444434271919,61.60153814462515L80.47982211642794,42.045495454819644L83.57519989013672,33.08231024191929L86.67057766384549,47.658799245011124L89.76595543755425,37.908638230583364L92.86133321126302,27.378461397611176L95.95671098497179,27.378461397611176L99.05208875868055,32.44854381960681L102.14746653238932,27.378461397611176L105.24284430609809,27.378461397611176L108.33822207980685,27.378461397611176L111.43359985351563,27.378461397611176L114.52897762722439,27.378461397611176L117.62435540093315,27.378461397611176L120.71973317464193,27.378461397611176L123.81511094835069,27.378461397611176L126.91048872205945,27.378461397611176L130.00586649576823,27.378461397611176L133.101244269477,27.378461397611176L136.19662204318576,27.378461397611176L139.29199981689453,27.378461397611176L142.38737759060328,27.378461397611176L145.48275536431208,27.378461397611176L148.57813313802083,27.378461397611176L151.67351091172958,27.378461397611176L154.76888868543838,27.378461397611176L157.86426645914713,27.378461397611176L160.95964423285588,27.378461397611176L164.05502200656468,27.378461397611176L167.15039978027343,27.378461397611176L170.2457775539822,27.378461397611176L173.34115532769098,27.378461397611176L176.43653310139973,27.378461397611176L179.5319108751085,27.378461397611176L182.62728864881728,27.378461397611176L185.72266642252603,27.378461397611176L188.8180441962348,27.378461397611176" fill="none"></path></g><g><path style="fill: none;" stroke="rgb(204, 51, 17)" stroke-width="2px" d="M30.953777737087673,58.96899189652777L34.04915551079644,143.99042645855846L37.14453328450521,93.08677136289155L40.23991105821397,158.04839060985958L43.335288831922746,41.53973397158819L46.43066660563151,62.86906282983273L49.52604437934028,69.49916872949997L52.621422153049046,71.37956356923658L55.716799926757815,60.42143345669663L58.81217770046658,45.04198435352694L61.907555474175346,32.267470030208216L65.00293324788412,36.81930706045674L68.09831102159288,49.281234105843765L71.19368879530164,27.378461397611176L74.28906656901042,37.908638230583364L77.38444434271919,47.91230418205262L80.47982211642794,37.156486822222604L83.57519989013672,38.78615092681005L86.67057766384549,27.378461397611176L89.76595543755425,32.643553893805944L92.86133321126302,33.08231024191929L95.95671098497179,31.656345990987916L99.05208875868055,32.44854381960681L102.14746653238932,32.44854381960681L105.24284430609809,27.378461397611176L108.33822207980685,27.378461397611176L111.43359985351563,27.378461397611176L114.52897762722439,27.378461397611176L117.62435540093315,27.378461397611176L120.71973317464193,27.378461397611176L123.81511094835069,27.378461397611176L126.91048872205945,27.378461397611176L130.00586649576823,27.378461397611176L133.101244269477,27.378461397611176L136.19662204318576,27.378461397611176L139.29199981689453,27.378461397611176L142.38737759060328,27.378461397611176L145.48275536431208,27.378461397611176L148.57813313802083,27.378461397611176L151.67351091172958,27.378461397611176L154.76888868543838,27.378461397611176L157.86426645914713,27.378461397611176L160.95964423285588,27.378461397611176L164.05502200656468,27.378461397611176L167.15039978027343,27.378461397611176L170.2457775539822,27.378461397611176L173.34115532769098,27.378461397611176L176.43653310139973,31.181027293816584L179.5319108751085,27.378461397611176L182.62728864881728,27.378461397611176L185.72266642252603,27.378461397611176L188.8180441962348,27.378461397611176" fill="none"></path></g><g><path style="fill: none;" stroke="rgb(0, 119, 187)" stroke-width="2px" d="M30.953777737087673,64.23408439272255L34.04915551079644,143.99042645855846L37.14453328450521,109.51384477450299L40.23991105821397,164.27076838566705L43.335288831922746,65.14186036782807L46.43066660563151,62.86906282983273L49.52604437934028,85.29443805866694L52.621422153049046,56.71252951202813L55.716799926757815,60.42143345669663L58.81217770046658,45.04198435352694L61.907555474175346,51.82351272001374L65.00293324788412,36.81930706045674L68.09831102159288,43.80553888893127L71.19368879530164,31.941542104941135L74.28906656901042,37.908638230583364L77.38444434271919,27.378461397611176L80.47982211642794,27.378461397611176L83.57519989013672,27.378461397611176L86.67057766384549,32.44854381960681L89.76595543755425,27.378461397611176L92.86133321126302,33.08231024191929L95.95671098497179,27.378461397611176L99.05208875868055,32.44854381960681L102.14746653238932,27.378461397611176L105.24284430609809,27.378461397611176L108.33822207980685,27.378461397611176L111.43359985351563,27.378461397611176L114.52897762722439,27.378461397611176L117.62435540093315,27.378461397611176L120.71973317464193,27.378461397611176L123.81511094835069,27.378461397611176L126.91048872205945,27.378461397611176L130.00586649576823,27.378461397611176L133.101244269477,27.378461397611176L136.19662204318576,27.378461397611176L139.29199981689453,27.378461397611176L142.38737759060328,27.378461397611176L145.48275536431208,27.378461397611176L148.57813313802083,27.378461397611176L151.67351091172958,27.378461397611176L154.76888868543838,27.378461397611176L157.86426645914713,27.378461397611176L160.95964423285588,27.378461397611176L164.05502200656468,27.378461397611176L167.15039978027343,27.378461397611176L170.2457775539822,27.378461397611176L173.34115532769098,27.378461397611176L176.43653310139973,27.378461397611176L179.5319108751085,27.378461397611176L182.62728864881728,27.378461397611176L185.72266642252603,27.378461397611176L188.8180441962348,27.378461397611176" fill="none"></path></g><g><path style="fill: none;" stroke="rgb(255, 112, 67)" stroke-width="2px" d="M30.953777737087673,58.96899189652777L34.04915551079644,128.7801710331542L37.14453328450521,98.56246250009536L40.23991105821397,145.60363505824463L43.335288831922746,55.70100654556518L46.43066660563151,57.798972248419744L49.52604437934028,85.29443805866694L52.621422153049046,56.71252951202813L55.716799926757815,50.98057963443374L58.81217770046658,58.289630650172455L61.907555474175346,56.71252951202813L65.00293324788412,36.81930706045674L68.09831102159288,60.23261638025137L71.19368879530164,31.941542104941135L74.28906656901042,27.378461397611176L77.38444434271919,47.91230418205262L80.47982211642794,32.267470030208216L83.57519989013672,27.378461397611176L86.67057766384549,37.518634401019796L89.76595543755425,32.643553893805944L92.86133321126302,27.378461397611176L95.95671098497179,27.378461397611176L99.05208875868055,27.378461397611176L102.14746653238932,27.378461397611176L105.24284430609809,27.378461397611176L108.33822207980685,27.378461397611176L111.43359985351563,27.378461397611176L114.52897762722439,27.378461397611176L117.62435540093315,27.378461397611176L120.71973317464193,27.378461397611176L123.81511094835069,27.378461397611176L126.91048872205945,27.378461397611176L130.00586649576823,27.378461397611176L133.101244269477,27.378461397611176L136.19662204318576,27.378461397611176L139.29199981689453,27.378461397611176L142.38737759060328,27.378461397611176L145.48275536431208,27.378461397611176L148.57813313802083,27.378461397611176L151.67351091172958,27.378461397611176L154.76888868543838,27.378461397611176L157.86426645914713,27.378461397611176L160.95964423285588,27.378461397611176L164.05502200656468,27.378461397611176L167.15039978027343,27.378461397611176L170.2457775539822,27.378461397611176L173.34115532769098,27.378461397611176L176.43653310139973,27.378461397611176L179.5319108751085,27.378461397611176L182.62728864881728,27.378461397611176L185.72266642252603,27.378461397611176L188.8180441962348,27.378461397611176" fill="none"></path></g></g></g></g></g></g><g transform="translate(51, 177)" clip-path="url(#clip_1)"><clipPath id="clip_1"><rect width="278" height="22"></rect></clipPath><g><g><line x1="0" y1="0" x2="0" y2="5" style="visibility: inherit;" fill="rgb(0, 0, 0)" stroke="rgb(204, 204, 204)" stroke-width="1px"></line><line x1="30.953777737087673" y1="0" x2="30.953777737087673" y2="5" style="visibility: inherit;" fill="rgb(0, 0, 0)" stroke="rgb(204, 204, 204)" stroke-width="1px"></line><line x1="61.907555474175346" y1="0" x2="61.907555474175346" y2="5" style="visibility: inherit;" fill="rgb(0, 0, 0)" stroke="rgb(204, 204, 204)" stroke-width="1px"></line><line x1="92.86133321126302" y1="0" x2="92.86133321126302" y2="5" style="visibility: inherit;" fill="rgb(0, 0, 0)" stroke="rgb(204, 204, 204)" stroke-width="1px"></line><line x1="123.81511094835069" y1="0" x2="123.81511094835069" y2="5" style="visibility: inherit;" fill="rgb(0, 0, 0)" stroke="rgb(204, 204, 204)" stroke-width="1px"></line><line x1="154.76888868543838" y1="0" x2="154.76888868543838" y2="5" style="visibility: inherit;" fill="rgb(0, 0, 0)" stroke="rgb(204, 204, 204)" stroke-width="1px"></line><line x1="185.72266642252603" y1="0" x2="185.72266642252603" y2="5" style="visibility: inherit;" fill="rgb(0, 0, 0)" stroke="rgb(204, 204, 204)" stroke-width="1px"></line><line x1="216.6764441596137" y1="0" x2="216.6764441596137" y2="5" style="visibility: inherit;" fill="rgb(0, 0, 0)" stroke="rgb(204, 204, 204)" stroke-width="1px"></line><line x1="247.63022189670139" y1="0" x2="247.63022189670139" y2="5" style="visibility: inherit;" fill="rgb(0, 0, 0)" stroke="rgb(204, 204, 204)" stroke-width="1px"></line><line x1="278.58399963378906" y1="0" x2="278.58399963378906" y2="5" style="visibility: inherit;" fill="rgb(0, 0, 0)" stroke="rgb(204, 204, 204)" stroke-width="1px"></line></g><g transform="translate(0, 8)"><text style="text-anchor: middle; visibility: hidden; font-family: &quot;Helvetica Neue&quot;, sans-serif; font-size: 12px; font-weight: 200;" x="0" y="0" dx="0em" dy="0.95em" fill="rgb(50, 49, 63)" stroke="none" stroke-width="1px">-10</text><text style="text-anchor: middle; visibility: inherit; font-family: &quot;Helvetica Neue&quot;, sans-serif; font-size: 12px; font-weight: 200;" x="30.953777737087673" y="0" dx="0em" dy="0.95em" fill="rgb(50, 49, 63)" stroke="none" stroke-width="1px">0</text><text style="text-anchor: middle; visibility: inherit; font-family: &quot;Helvetica Neue&quot;, sans-serif; font-size: 12px; font-weight: 200;" x="61.907555474175346" y="0" dx="0em" dy="0.95em" fill="rgb(50, 49, 63)" stroke="none" stroke-width="1px">10</text><text style="text-anchor: middle; visibility: inherit; font-family: &quot;Helvetica Neue&quot;, sans-serif; font-size: 12px; font-weight: 200;" x="92.86133321126302" y="0" dx="0em" dy="0.95em" fill="rgb(50, 49, 63)" stroke="none" stroke-width="1px">20</text><text style="text-anchor: middle; visibility: inherit; font-family: &quot;Helvetica Neue&quot;, sans-serif; font-size: 12px; font-weight: 200;" x="123.81511094835069" y="0" dx="0em" dy="0.95em" fill="rgb(50, 49, 63)" stroke="none" stroke-width="1px">30</text><text style="text-anchor: middle; visibility: inherit; font-family: &quot;Helvetica Neue&quot;, sans-serif; font-size: 12px; font-weight: 200;" x="154.76888868543838" y="0" dx="0em" dy="0.95em" fill="rgb(50, 49, 63)" stroke="none" stroke-width="1px">40</text><text style="text-anchor: middle; visibility: inherit; font-family: &quot;Helvetica Neue&quot;, sans-serif; font-size: 12px; font-weight: 200;" x="185.72266642252603" y="0" dx="0em" dy="0.95em" fill="rgb(50, 49, 63)" stroke="none" stroke-width="1px">50</text><text style="text-anchor: middle; visibility: inherit; font-family: &quot;Helvetica Neue&quot;, sans-serif; font-size: 12px; font-weight: 200;" x="216.6764441596137" y="0" dx="0em" dy="0.95em" fill="rgb(50, 49, 63)" stroke="none" stroke-width="1px">60</text><text style="text-anchor: middle; visibility: inherit; font-family: &quot;Helvetica Neue&quot;, sans-serif; font-size: 12px; font-weight: 200;" x="247.63022189670139" y="0" dx="0em" dy="0.95em" fill="rgb(50, 49, 63)" stroke="none" stroke-width="1px">70</text><text style="text-anchor: middle; visibility: hidden; font-family: &quot;Helvetica Neue&quot;, sans-serif; font-size: 12px; font-weight: 200;" x="278.58399963378906" y="0" dx="0em" dy="0.95em" fill="rgb(50, 49, 63)" stroke="none" stroke-width="1px">80</text></g><line x1="0" y1="0" x2="278.58399963378906" y2="0" fill="rgb(0, 0, 0)" stroke="rgb(204, 204, 204)" stroke-width="1px"></line></g></g></g></g></svg>