<svg viewBox="0 0 330 200" xmlns="http://www.w3.org/2000/svg"><g><g><g><g><g><line x1="51.41600036621094" y1="177.95999908447266" x2="46.41600036621094" y2="177.95999908447266" style="visibility: inherit;" fill="rgb(0, 0, 0)" stroke="rgb(204, 204, 204)" stroke-width="1px"></line><line x1="51.41600036621094" y1="160.16399917602538" x2="46.41600036621094" y2="160.16399917602538" style="visibility: inherit;" fill="rgb(0, 0, 0)" stroke="rgb(204, 204, 204)" stroke-width="1px"></line><line x1="51.41600036621094" y1="142.3679992675781" x2="46.41600036621094" y2="142.3679992675781" style="visibility: inherit;" fill="rgb(0, 0, 0)" stroke="rgb(204, 204, 204)" stroke-width="1px"></line><line x1="51.41600036621094" y1="124.57199935913084" x2="46.41600036621094" y2="124.57199935913084" style="visibility: inherit;" fill="rgb(0, 0, 0)" stroke="rgb(204, 204, 204)" stroke-width="1px"></line><line x1="51.41600036621094" y1="106.77599945068359" x2="46.41600036621094" y2="106.77599945068359" style="visibility: inherit;" fill="rgb(0, 0, 0)" stroke="rgb(204, 204, 204)" stroke-width="1px"></line><line x1="51.41600036621094" y1="88.97999954223633" x2="46.41600036621094" y2="88.97999954223633" style="visibility: inherit;" fill="rgb(0, 0, 0)" stroke="rgb(204, 204, 204)" stroke-width="1px"></line><line x1="51.41600036621094" y1="71.18399963378907" x2="46.41600036621094" y2="71.18399963378907" style="visibility: inherit;" fill="rgb(0, 0, 0)" stroke="rgb(204, 204, 204)" stroke-width="1px"></line><line x1="51.41600036621094" y1="53.3879997253418" x2="46.41600036621094" y2="53.3879997253418" style="visibility: inherit;" fill="rgb(0, 0, 0)" stroke="rgb(204, 204, 204)" stroke-width="1px"></line><line x1="51.41600036621094" y1="35.59199981689454" x2="46.41600036621094" y2="35.59199981689454" style="visibility: inherit;" fill="rgb(0, 0, 0)" stroke="rgb(204, 204, 204)" stroke-width="1px"></line><line x1="51.41600036621094" y1="17.79599990844727" x2="46.41600036621094" y2="17.79599990844727" style="visibility: inherit;" fill="rgb(0, 0, 0)" stroke="rgb(204, 204, 204)" stroke-width="1px"></line><line x1="51.41600036621094" y1="0" x2="46.41600036621094" y2="0" style="visibility: inherit;" fill="rgb(0, 0, 0)" stroke="rgb(204, 204, 204)" stroke-width="1px"></line></g><g transform="translate(41.41600036621094, 0)"><text style="text-anchor: end; visibility: hidden; font-family: &quot;Helvetica Neue&quot;, sans-serif; font-size: 12px; font-weight: 200;" x="0" y="177.95999908447266" dx="0em" dy="0.3em" fill="rgb(50, 49, 63)" stroke="none" stroke-width="1px">-0.1</text><text style="text-anchor: end; visibility: inherit; font-family: &quot;Helvetica Neue&quot;, sans-serif; font-size: 12px; font-weight: 200;" x="0" y="160.16399917602538" dx="0em" dy="0.3em" fill="rgb(50, 49, 63)" stroke="none" stroke-width="1px">0</text><text style="text-anchor: end; visibility: hidden; font-family: &quot;Helvetica Neue&quot;, sans-serif; font-size: 12px; font-weight: 200;" x="0" y="142.3679992675781" dx="0em" dy="0.3em" fill="rgb(50, 49, 63)" stroke="none" stroke-width="1px">0.1</text><text style="text-anchor: end; visibility: inherit; font-family: &quot;Helvetica Neue&quot;, sans-serif; font-size: 12px; font-weight: 200;" x="0" y="124.57199935913084" dx="0em" dy="0.3em" fill="rgb(50, 49, 63)" stroke="none" stroke-width="1px">0.2</text><text style="text-anchor: end; visibility: hidden; font-family: &quot;Helvetica Neue&quot;, sans-serif; font-size: 12px; font-weight: 200;" x="0" y="106.77599945068359" dx="0em" dy="0.3em" fill="rgb(50, 49, 63)" stroke="none" stroke-width="1px">0.3</text><text style="text-anchor: end; visibility: inherit; font-family: &quot;Helvetica Neue&quot;, sans-serif; font-size: 12px; font-weight: 200;" x="0" y="88.97999954223633" dx="0em" dy="0.3em" fill="rgb(50, 49, 63)" stroke="none" stroke-width="1px">0.4</text><text style="text-anchor: end; visibility: hidden; font-family: &quot;Helvetica Neue&quot;, sans-serif; font-size: 12px; font-weight: 200;" x="0" y="71.18399963378907" dx="0em" dy="0.3em" fill="rgb(50, 49, 63)" stroke="none" stroke-width="1px">0.5</text><text style="text-anchor: end; visibility: inherit; font-family: &quot;Helvetica Neue&quot;, sans-serif; font-size: 12px; font-weight: 200;" x="0" y="53.3879997253418" dx="0em" dy="0.3em" fill="rgb(50, 49, 63)" stroke="none" stroke-width="1px">0.6</text><text style="text-anchor: end; visibility: hidden; font-family: &quot;Helvetica Neue&quot;, sans-serif; font-size: 12px; font-weight: 200;" x="0" y="35.59199981689454" dx="0em" dy="0.3em" fill="rgb(50, 49, 63)" stroke="none" stroke-width="1px">0.7</text><text style="text-anchor: end; visibility: inherit; font-family: &quot;Helvetica Neue&quot;, sans-serif; font-size: 12px; font-weight: 200;" x="0" y="17.79599990844727" dx="0em" dy="0.3em" fill="rgb(50, 49, 63)" stroke="none" stroke-width="1px">0.8</text><text style="text-anchor: end; visibility: hidden; font-family: &quot;Helvetica Neue&quot;, sans-serif; font-size: 12px; font-weight: 200;" x="0" y="0" dx="0em" dy="0.3em" fill="rgb(50, 49, 63)" stroke="none" stroke-width="1px">0.9</text></g><line x1="51.41600036621094" y1="0" x2="51.41600036621094" y2="177.95999908447266" fill="rgb(0, 0, 0)" stroke="rgb(204, 204, 204)" stroke-width="1px"></line></g></g><g transform="translate(51, 0)" clip-path="url(#clip_0)"><clipPath id="clip_0"><rect width="278" height="177"></rect></clipPath><g><g><g><line x1="0" y1="0" x2="0" y2="177.95999908447266" fill="rgb(0, 0, 0)" stroke="rgb(60, 60, 60)" stroke-width="1px" opacity="0.25"></line><line x1="30.953777737087673" y1="0" x2="30.953777737087673" y2="177.95999908447266" fill="rgb(0, 0, 0)" stroke="rgb(60, 60, 60)" stroke-width="1px" opacity="0.25"></line><line x1="61.907555474175346" y1="0" x2="61.907555474175346" y2="177.95999908447266" fill="rgb(0, 0, 0)" stroke="rgb(60, 60, 60)" stroke-width="1px" opacity="0.25"></line><line x1="92.86133321126302" y1="0" x2="92.86133321126302" y2="177.95999908447266" fill="rgb(0, 0, 0)" stroke="rgb(60, 60, 60)" stroke-width="1px" opacity="0.25"></line><line x1="123.81511094835069" y1="0" x2="123.81511094835069" y2="177.95999908447266" fill="rgb(0, 0, 0)" stroke="rgb(60, 60, 60)" stroke-width="1px" opacity="0.25"></line><line x1="154.76888868543838" y1="0" x2="154.76888868543838" y2="177.95999908447266" fill="rgb(0, 0, 0)" stroke="rgb(60, 60, 60)" stroke-width="1px" opacity="0.25"></line><line x1="185.72266642252603" y1="0" x2="185.72266642252603" y2="177.95999908447266" fill="rgb(0, 0, 0)" stroke="rgb(60, 60, 60)" stroke-width="1px" opacity="0.25"></line><line x1="216.6764441596137" y1="0" x2="216.6764441596137" y2="177.95999908447266" fill="rgb(0, 0, 0)" stroke="rgb(60, 60, 60)" stroke-width="1px" opacity="0.25"></line><line x1="247.63022189670139" y1="0" x2="247.63022189670139" y2="177.95999908447266" fill="rgb(0, 0, 0)" stroke="rgb(60, 60, 60)" stroke-width="1px" opacity="0.25"></line><line x1="278.58399963378906" y1="0" x2="278.58399963378906" y2="177.95999908447266" fill="rgb(0, 0, 0)" stroke="rgb(60, 60, 60)" stroke-width="1px" opacity="0.25"></line></g><g><line x1="0" y1="177.95999908447266" x2="278.58399963378906" y2="177.95999908447266" fill="rgb(0, 0, 0)" stroke="rgb(60, 60, 60)" stroke-width="1px" opacity="0.25"></line><line x1="0" y1="160.16399917602538" x2="278.58399963378906" y2="160.16399917602538" fill="rgb(0, 0, 0)" stroke="rgb(60, 60, 60)" stroke-width="1px" opacity="0.25"></line><line x1="0" y1="142.3679992675781" x2="278.58399963378906" y2="142.3679992675781" fill="rgb(0, 0, 0)" stroke="rgb(60, 60, 60)" stroke-width="1px" opacity="0.25"></line><line x1="0" y1="124.57199935913084" x2="278.58399963378906" y2="124.57199935913084" fill="rgb(0, 0, 0)" stroke="rgb(60, 60, 60)" stroke-width="1px" opacity="0.25"></line><line x1="0" y1="106.77599945068359" x2="278.58399963378906" y2="106.77599945068359" fill="rgb(0, 0, 0)" stroke="rgb(60, 60, 60)" stroke-width="1px" opacity="0.25"></line><line x1="0" y1="88.97999954223633" x2="278.58399963378906" y2="88.97999954223633" fill="rgb(0, 0, 0)" stroke="rgb(60, 60, 60)" stroke-width="1px" opacity="0.25"></line><line x1="0" y1="71.18399963378907" x2="278.58399963378906" y2="71.18399963378907" fill="rgb(0, 0, 0)" stroke="rgb(60, 60, 60)" stroke-width="1px" opacity="0.25"></line><line x1="0" y1="53.3879997253418" x2="278.58399963378906" y2="53.3879997253418" fill="rgb(0, 0, 0)" stroke="rgb(60, 60, 60)" stroke-width="1px" opacity="0.25"></line><line x1="0" y1="35.59199981689454" x2="278.58399963378906" y2="35.59199981689454" fill="rgb(0, 0, 0)" stroke="rgb(60, 60, 60)" stroke-width="1px" opacity="0.25"></line><line x1="0" y1="17.79599990844727" x2="278.58399963378906" y2="17.79599990844727" fill="rgb(0, 0, 0)" stroke="rgb(60, 60, 60)" stroke-width="1px" opacity="0.25"></line><line x1="0" y1="0" x2="278.58399963378906" y2="0" fill="rgb(0, 0, 0)" stroke="rgb(60, 60, 60)" stroke-width="1px" opacity="0.25"></line></g></g></g><g><g><line x1="0" y1="160.16399917602538" x2="278.58399963378906" y2="160.16399917602538" fill="rgb(0, 0, 0)" stroke="rgb(153, 153, 153)" stroke-width="1.5px"></line></g></g><g><g><line x1="30.953777737087673" y1="0" x2="30.953777737087673" y2="177.95999908447266" fill="rgb(0, 0, 0)" stroke="rgb(153, 153, 153)" stroke-width="1.5px"></line></g></g><g><g><g><g><g><path style="fill: none;" stroke="rgb(204, 51, 17)" stroke-width="2px" d="M30.953777737087673,32.431499775933474L34.04915551079644,33.769663086789166L37.14453328450521,37.80704680408749L40.23991105821397,45.43512234847768L43.335288831922746,47.81444964851403L46.43066660563151,52.19368541579122L49.52604437934028,57.137906120126274L52.621422153049046,63.038819367351095L55.716799926757815,64.72291693338366L58.81217770046658,74.27565176257009L61.907555474175346,82.6807236922853L65.00293324788412,88.02276282556303L68.09831102159288,99.49280421356241L71.19368879530164,107.15928956261467L74.28906656901042,116.72934878869407L77.38444434271919,122.21767242558845L80.47982211642794,128.92310388049165L83.57519989013672,133.65426355944606L86.67057766384549,137.36347305739864L89.76595543755425,141.03844088313775L92.86133321126302,142.88467191966632L95.95671098497179,146.3012852717693L99.05208875868055,149.24682784489042L102.14746653238932,151.24220113013374L105.24284430609809,152.91854809891177L108.33822207980685,153.70943872695415L111.43359985351563,154.52131657605202L114.52897762722439,155.12449109668225L117.62435540093315,155.50836782004382L120.71973317464193,155.81583057640026L123.81511094835069,156.5467399603369L126.91048872205945,157.00640992012455L130.00586649576823,157.30834215285057L133.101244269477,157.33715356586103L136.19662204318576,157.54523010339858L139.29199981689453,157.83115356633746L142.38737759060328,158.0001779474449L145.48275536431208,158.32055400551965L148.57813313802083,158.52820296804722L151.67351091172958,158.7520348003797L154.76888868543838,158.86392954707966L157.86426645914713,159.01538883531046L160.95964423285588,159.03698466209568L164.05502200656468,159.14838187693317L167.15039978027343,159.14388345022172L170.2457775539822,159.20957392745674L173.34115532769098,159.3418848693608L176.43653310139973,159.4001129026446L179.5319108751085,159.37576148520128L182.62728864881728,159.45544898767727L185.72266642252603,159.5080078158491L188.8180441962348,159.5225270737288" fill="none"></path></g><g><path style="fill: none;" stroke="rgb(0, 119, 187)" stroke-width="2px" d="M30.953777737087673,34.36823376045379L34.04915551079644,36.22916838985711L37.14453328450521,39.44287604784677L40.23991105821397,44.175573406716865L43.335288831922746,47.035641397121566L46.43066660563151,52.72043153500482L49.52604437934028,55.5925951811345L52.621422153049046,60.85993318966223L55.716799926757815,64.13423027638682L58.81217770046658,74.54413264008414L61.907555474175346,82.73395330164145L65.00293324788412,93.49715275712282L68.09831102159288,102.82954722314707L71.19368879530164,113.29230351437486L74.28906656901042,119.20466728569164L77.38444434271919,125.63155363409022L80.47982211642794,133.51226023880645L83.57519989013672,139.5634044778954L86.67057766384549,144.0365772000119L89.76595543755425,147.41673629380549L92.86133321126302,148.720295775449L95.95671098497179,150.52019041883156L99.05208875868055,151.2160997821056L102.14746653238932,152.40044387414963L105.24284430609809,153.96109275408523L108.33822207980685,154.8371170347128L111.43359985351563,155.18710714794315L114.52897762722439,156.03422593078665L117.62435540093315,156.55078987800414L120.71973317464193,157.06545955227725L123.81511094835069,157.402611662663L126.91048872205945,157.60799537578316L130.00586649576823,157.94734273384398L133.101244269477,158.20120759190237L136.19662204318576,158.33697529203087L139.29199981689453,158.59970258285875L142.38737759060328,158.6009274401549L145.48275536431208,158.84918262505747L148.57813313802083,159.03694461947694L151.67351091172958,159.04654734981204L154.76888868543838,159.22737423361806L157.86426645914713,159.1097339304052L160.95964423285588,159.21106093046998L164.05502200656468,159.29634673427523L167.15039978027343,159.34708089982794L170.2457775539822,159.4363555471487L173.34115532769098,159.3715658006853L176.43653310139973,158.9736340750659L179.5319108751085,159.13303426298674L182.62728864881728,159.26125259860527L185.72266642252603,159.3882903076972L188.8180441962348,159.48527240065442" fill="none"></path></g><g><path style="fill: none;" stroke="rgb(255, 112, 67)" stroke-width="2px" d="M30.953777737087673,33.33673246065712L34.04915551079644,33.61808956875632L37.14453328450521,37.395896878703354L40.23991105821397,45.40476192453602L43.335288831922746,49.076852591021805L46.43066660563151,54.72327189296189L49.52604437934028,57.28409017401481L52.621422153049046,58.753368172795575L55.716799926757815,61.89587163207182L58.81217770046658,70.38310394658585L61.907555474175346,78.53515455625158L65.00293324788412,81.6718778564311L68.09831102159288,86.63368693965454L71.19368879530164,94.78025345230073L74.28906656901042,105.72651951637238L77.38444434271919,116.97339381683581L80.47982211642794,120.63129609862034L83.57519989013672,128.9730872334905L86.67057766384549,133.23801803761253L89.76595543755425,137.700800808899L92.86133321126302,139.1481821363298L95.95671098497179,142.0841285027503L99.05208875868055,144.73381983942517L102.14746653238932,147.44351164302066L105.24284430609809,149.99056385320344L108.33822207980685,152.79109048611534L111.43359985351563,153.34776127898292L114.52897762722439,154.48614887335907L117.62435540093315,155.65614156792802L120.71973317464193,156.23718176621716L123.81511094835069,156.76744358519926L126.91048872205945,157.18982979159458L130.00586649576823,157.18088192348932L133.101244269477,157.36011144770384L136.19662204318576,157.83049926471347L139.29199981689453,157.91851877323455L142.38737759060328,158.0611333161407L145.48275536431208,158.22353089590456L148.57813313802083,158.3503093414604L151.67351091172958,158.60566032041777L154.76888868543838,158.72069643610786L157.86426645914713,158.64157228463455L160.95964423285588,158.77174401343987L164.05502200656468,158.9288341473909L167.15039978027343,158.7919320494886L170.2457775539822,158.98944825399573L173.34115532769098,159.15834512996344L176.43653310139973,159.22354656798444L179.5319108751085,159.12119432798386L182.62728864881728,159.22257929609128L185.72266642252603,159.34153939136624L188.8180441962348,159.38921953167218L191.91342196994358,159.4966294835613L195.00879974365233,159.55857894072238L198.1041775173611,159.59029783483788L201.19955529106988,159.65990097346568L204.29493306477863,159.6338852618361L207.3903108384874,159.67795998759775L210.48568861219618,159.66919757855283L213.58106638590496,159.6912128453131L216.6764441596137,159.65667945312208L219.77182193332249,159.76689844320092L222.86719970703126,159.76331681016495L225.96257748074,159.7270794013211L229.05795525444879,159.75129142550014L232.15333302815756,159.80072816904453L235.2487108018663,159.7699115965401L238.34408857557509,159.80480359549696L241.43946634928386,159.83550688021302L244.5348441229926,159.84399109954168" fill="none"></path></g><g><path style="fill: none;" stroke="rgb(187, 187, 187)" stroke-width="2px" d="M30.953777737087673,36.454646544310066L34.04915551079644,35.411258503353594L37.14453328450521,39.58753350845387L40.23991105821397,45.44292358538607L43.335288831922746,46.88916934165863L46.43066660563151,49.62154006538529L49.52604437934028,56.71172510979871L52.621422153049046,60.037845168590124L55.716799926757815,60.12710316242088L58.81217770046658,63.80676903459903L61.907555474175346,70.25873602039398L65.00293324788412,79.56334795187537L68.09831102159288,80.79164666135706L71.19368879530164,90.3577496634203L74.28906656901042,93.8039371821616L77.38444434271919,100.84801828964254L80.47982211642794,110.39963021670053L83.57519989013672,116.71401837375385L86.67057766384549,124.40242955128622L89.76595543755425,128.25467825899818L92.86133321126302,132.9197164699547L95.95671098497179,138.24649845494775L99.05208875868055,141.6874104036005L102.14746653238932,145.1224496124574L105.24284430609809,147.87840853290848L108.33822207980685,150.90025887480206L111.43359985351563,152.6683215490445L114.52897762722439,153.17572756100614L117.62435540093315,154.3537296884364L120.71973317464193,154.94518246789906L123.81511094835069,155.57431110599367L126.91048872205945,156.17029811189627L130.00586649576823,156.3936312277992L133.101244269477,157.0695431937345L136.19662204318576,157.44017834519198L139.29199981689453,157.459925629615L142.38737759060328,157.8014898604472L145.48275536431208,158.055431206452L148.57813313802083,158.21615836570882L151.67351091172958,158.32476348856585L154.76888868543838,158.3505429313672L157.86426645914713,158.42414312567965L160.95964423285588,158.54981857520312L164.05502200656468,158.53119494904453L167.15039978027343,158.62640962596282L170.2457775539822,158.90424554832722L173.34115532769098,158.9956397237826L176.43653310139973,158.9891757148633L179.5319108751085,159.08865739659973L182.62728864881728,159.0201547306436L185.72266642252603,159.14970413941757L188.8180441962348,159.30749909098927" fill="none"></path></g><g><path style="fill: none;" stroke="rgb(0, 153, 136)" stroke-width="2px" d="M30.953777737087673,34.90926677292154L34.04915551079644,35.44690811959046L37.14453328450521,40.58092580000783L40.23991105821397,46.54911402858062L43.335288831922746,50.89921970616595L46.43066660563151,58.17439014401205L49.52604437934028,63.49316109586057L52.621422153049046,73.28281327729346L55.716799926757815,69.02005113562913L58.81217770046658,73.80323348575199L61.907555474175346,85.91148388708336L65.00293324788412,92.60791841595564L68.09831102159288,100.95105486006055L71.19368879530164,105.16496207678045L74.28906656901042,112.75548825511063L77.38444434271919,120.09602708830474L80.47982211642794,126.45056059728822L83.57519989013672,132.19181122316007L86.67057766384549,133.32876517712273L89.76595543755425,139.22673241495403L92.86133321126302,142.07864096544944L95.95671098497179,144.9100765429046L99.05208875868055,135.18614316522755L102.14746653238932,138.43683642408925L105.24284430609809,143.167347435559L108.33822207980685,147.16167720379133L111.43359985351563,148.2121452799037L114.52897762722439,150.19572399302842L117.62435540093315,150.56418884697734L120.71973317464193,152.76853752690118L123.81511094835069,154.49319570689102L126.91048872205945,155.4448314041006L130.00586649576823,156.0908519911368L133.101244269477,156.3248092624241L136.19662204318576,156.73542513902345L139.29199981689453,157.0984504631992L142.38737759060328,157.45371417226767L145.48275536431208,157.5596673159906L148.57813313802083,157.8996026860856L151.67351091172958,158.10532590323496L154.76888868543838,158.43039439840004L157.86426645914713,158.46922770611062L160.95964423285588,158.55242572858302L164.05502200656468,158.6381032140064L167.15039978027343,158.64741831062145L170.2457775539822,158.3368976191805L173.34115532769098,158.35291901854177L176.43653310139973,158.65929615177652L179.5319108751085,158.8928279702076L182.62728864881728,159.10071394938564L185.72266642252603,159.1439913944862L188.8180441962348,159.24383637763196" fill="none"></path></g><g><path style="fill: none;" stroke="rgb(238, 51, 119)" stroke-width="2px" d="M30.953777737087673,32.667362420823L34.04915551079644,32.26559985095898L37.14453328450521,36.99418545090151L40.23991105821397,43.754990585819684L43.335288831922746,47.761844909931085L46.43066660563151,51.67033944048001L49.52604437934028,55.990642540835765L52.621422153049046,61.731123006439745L55.716799926757815,65.34732756088489L58.81217770046658,74.44672795483352L61.907555474175346,81.19656691697197L65.00293324788412,90.98928439893815L68.09831102159288,101.24420576279165L71.19368879530164,109.94762977449956L74.28906656901042,117.0333342134411L77.38444434271919,125.01633207942163L80.47982211642794,131.02350592764162L83.57519989013672,136.42491319483025L86.67057766384549,138.8242194225898L89.76595543755425,142.90446749530972L92.86133321126302,146.07743465758404L95.95671098497179,148.84578051238648L99.05208875868055,150.2433068292718L102.14746653238932,152.06153839845254L105.24284430609809,153.11210903201518L108.33822207980685,154.34683874740347L111.43359985351563,155.27454970849743L114.52897762722439,156.32534977585692L117.62435540093315,156.68035165562958L120.71973317464193,157.22918045914074L123.81511094835069,157.4525328426322L126.91048872205945,157.83066525305117L130.00586649576823,157.95196442575732L133.101244269477,158.27704097530065L136.19662204318576,158.48096297347195L139.29199981689453,158.58224846257303L142.38737759060328,158.68690065837183L145.48275536431208,158.8713800853085L148.57813313802083,158.92682634883406L151.67351091172958,158.93824017079544L154.76888868543838,159.03694350495576L157.86426645914713,159.02407321577562L160.95964423285588,159.11886593104376L164.05502200656468,159.21798546707856L167.15039978027343,159.2876812445828L170.2457775539822,159.30479278584596L173.34115532769098,159.40029119151882L176.43653310139973,159.45844799621696L179.5319108751085,159.45880244443316L182.62728864881728,159.50055642302024L185.72266642252603,159.5244700729653L188.8180441962348,159.61650865735902" fill="none"></path></g><g><path style="fill: none;" stroke="rgb(51, 187, 238)" stroke-width="2px" d="M30.953777737087673,34.408583711036584L34.04915551079644,32.332129802010314L37.14453328450521,37.12679351694359L40.23991105821397,43.10021732062006L43.335288831922746,46.136712697479396L46.43066660563151,52.58604662623924L49.52604437934028,55.8710526310725L52.621422153049046,54.865147626960336L55.716799926757815,58.2121010622796L58.81217770046658,62.989239969511786L61.907555474175346,68.30135722392444L65.00293324788412,73.54732861381069L68.09831102159288,80.64523105303017L71.19368879530164,89.53859774740175L74.28906656901042,97.02463590252096L77.38444434271919,106.39692192856782L80.47982211642794,112.23551560037667L83.57519989013672,119.44417991870452L86.67057766384549,118.32168470804893L89.76595543755425,124.31224813075275L92.86133321126302,129.2591611014925L95.95671098497179,133.48679233861478L99.05208875868055,135.7437984765125L102.14746653238932,139.5203315342763L105.24284430609809,143.46733777094326L108.33822207980685,147.3258746026277L111.43359985351563,150.45350584451282L114.52897762722439,152.2814223163137L117.62435540093315,153.7723209803415L120.71973317464193,155.08925463787494L123.81511094835069,155.2776989777673L126.91048872205945,156.0035373970275L130.00586649576823,156.43573108437596L133.101244269477,156.5533416792091L136.19662204318576,156.9206045457552L139.29199981689453,157.40322315372035L142.38737759060328,157.73469656980464L145.48275536431208,158.1167641173654L148.57813313802083,158.1934387527872L151.67351091172958,158.35133456226674L154.76888868543838,158.46532538634094L157.86426645914713,158.52538775912535L160.95964423285588,158.7236437316884L164.05502200656468,158.92531487963686L167.15039978027343,159.0216840707257L170.2457775539822,159.08313395841824L173.34115532769098,159.15126966652238L176.43653310139973,159.0737574257521L179.5319108751085,159.1767595956678L182.62728864881728,159.27077880571403L185.72266642252603,159.27747720243914L188.8180441962348,159.3660092464437" fill="none"></path></g><g><path style="fill: none;" stroke="rgb(204, 51, 17)" stroke-width="2px" d="M30.953777737087673,33.49007075866584L34.04915551079644,33.603435663201566L37.14453328450521,39.31857193738506L40.23991105821397,45.37552598529413L43.335288831922746,50.526959044859595L46.43066660563151,55.34688124887656L49.52604437934028,61.13445427061261L52.621422153049046,62.38286307956602L55.716799926757815,67.02502951554003L58.81217770046658,72.2874131232229L61.907555474175346,77.86864204932199L65.00293324788412,86.59444037969675L68.09831102159288,97.29996076399597L71.19368879530164,110.12375129250476L74.28906656901042,113.34207753333605L77.38444434271919,120.51335731660039L80.47982211642794,125.24077352440398L83.57519989013672,128.66847922601562L86.67057766384549,136.3251763666563L89.76595543755425,139.6959211167821L92.86133321126302,139.8812939573872L95.95671098497179,136.89816295281872L99.05208875868055,137.29237281474693L102.14746653238932,141.0168694918891L105.24284430609809,144.4963862137575L108.33822207980685,148.8114856359245L111.43359985351563,148.7544104655798L114.52897762722439,151.20300352142033L117.62435540093315,152.48609363322572L120.71973317464193,153.16233660545404L123.81511094835069,154.25637905968023L126.91048872205945,155.14266976759748L130.00586649576823,155.4210644247208L133.101244269477,156.57302918613726L136.19662204318576,156.93777271291728L139.29199981689453,157.24953058023965L142.38737759060328,157.2682814399255L145.48275536431208,157.20999299482858L148.57813313802083,157.88682991131404L151.67351091172958,158.0621609908994L154.76888868543838,158.3346131803466L157.86426645914713,158.57472536798542L160.95964423285588,158.51579581412926L164.05502200656468,158.6031060021488L167.15039978027343,158.71234100148945L170.2457775539822,158.7104710853913L173.34115532769098,158.65902188023384L176.43653310139973,154.92712686018373L179.5319108751085,155.34175247846426L182.62728864881728,156.58523885665332L185.72266642252603,157.5017567520707L188.8180441962348,157.99684359167958" fill="none"></path></g><g><path style="fill: none;" stroke="rgb(0, 119, 187)" stroke-width="2px" d="M30.953777737087673,33.268146030460315L34.04915551079644,32.625512871327516L37.14453328450521,37.45703269515755L40.23991105821397,41.63670955069668L43.335288831922746,45.12403803860309L46.43066660563151,49.89020884494357L49.52604437934028,57.455041709545384L52.621422153049046,61.532394444178394L55.716799926757815,61.715389484960994L58.81217770046658,70.86946016038871L61.907555474175346,79.79782501896388L65.00293324788412,91.4408570407947L68.09831102159288,101.11783107864926L71.19368879530164,109.51725301310928L74.28906656901042,116.71573728989358L77.38444434271919,128.07947836898978L80.47982211642794,132.87046652717538L83.57519989013672,136.88805041255173L86.67057766384549,138.7425127311521L89.76595543755425,144.61488936256887L92.86133321126302,144.03068189252164L95.95671098497179,147.10144307079113L99.05208875868055,145.47058128627202L102.14746653238932,147.92667355645267L105.24284430609809,150.0496549491468L108.33822207980685,151.33375972577124L111.43359985351563,153.317963716228L114.52897762722439,154.61690269656972L117.62435540093315,155.36335049302468L120.71973317464193,155.96994289018795L123.81511094835069,156.6649195649162L126.91048872205945,157.37667377681558L130.00586649576823,157.65669052100176L133.101244269477,158.17381448829798L136.19662204318576,158.33008959473707L139.29199981689453,158.44674077730397L142.38737759060328,158.49852746892253L145.48275536431208,158.37664198511868L148.57813313802083,158.58218122134673L151.67351091172958,158.7812449826316L154.76888868543838,158.8508590653201L157.86426645914713,158.8960187497787L160.95964423285588,159.08413780570794L164.05502200656468,159.21861536357656L167.15039978027343,159.32517157061477L170.2457775539822,159.3970284243601L173.34115532769098,159.40771004730414L176.43653310139973,159.5334154956313L179.5319108751085,159.4743772148639L182.62728864881728,159.46987276729178L185.72266642252603,159.4801173984232L188.8180441962348,159.53304564688088" fill="none"></path></g><g><path style="fill: none;" stroke="rgb(255, 112, 67)" stroke-width="2px" d="M30.953777737087673,35.46138435383281L34.04915551079644,35.02801883075702L37.14453328450521,40.70131129201499L40.23991105821397,43.06082217785374L43.335288831922746,47.35753022168822L46.43066660563151,52.11585053539018L49.52604437934028,56.24653994198104L52.621422153049046,62.08263720160096L55.716799926757815,67.23830672201757L58.81217770046658,68.35878723852072L61.907555474175346,72.16959607307851L65.00293324788412,85.67487285647826L68.09831102159288,92.99465139253918L71.19368879530164,103.10914871271486L74.28906656901042,114.0112388709106L77.38444434271919,121.17521743452383L80.47982211642794,128.4605459729906L83.57519989013672,133.57902015643762L86.67057766384549,137.97063923340014L89.76595543755425,137.7115982846343L92.86133321126302,140.7261176732486L95.95671098497179,144.28983113082154L99.05208875868055,146.39807860380336L102.14746653238932,149.28112712528014L105.24284430609809,150.61050332774445L108.33822207980685,152.13684941293923L111.43359985351563,152.88850629528824L114.52897762722439,153.20356883138777L117.62435540093315,154.09119324786874L120.71973317464193,155.1866025538644L123.81511094835069,156.05802348546936L126.91048872205945,156.6471671975304L130.00586649576823,157.0701908338641L133.101244269477,157.2236615462549L136.19662204318576,157.4524163043614L139.29199981689453,157.4994024499838L142.38737759060328,157.6438905526614L145.48275536431208,157.88188896682595L148.57813313802083,158.17748832702625L151.67351091172958,158.53379832304682L154.76888868543838,158.62363925480565L157.86426645914713,158.54887133234155L160.95964423285588,158.72488369850151L164.05502200656468,158.92045144040327L167.15039978027343,158.95220128426058L170.2457775539822,159.0622924571103L173.34115532769098,159.12197389858446L176.43653310139973,159.24988975954687L179.5319108751085,159.1927775659257L182.62728864881728,159.29673677395527L185.72266642252603,159.31071085445205L188.8180441962348,159.32624972209817" fill="none"></path></g></g></g></g><g opacity="0.2"><g><g><g><path style="fill: none;" stroke="rgb(204, 51, 17)" stroke-width="2px" d="M30.953777737087673,32.431499775933474L34.04915551079644,34.57256107330258L37.14453328450521,41.682935172693846L40.23991105821397,54.4057391886805L43.335288831922746,50.920899371441564L46.43066660563151,58.25174500681179L49.52604437934028,64.20822083485665L52.621422153049046,71.64240753057207L55.716799926757815,67.20663372417049L58.81217770046658,88.4603496699841L61.907555474175346,95.21209820306886L65.00293324788412,96.00675038442078L68.09831102159288,116.66041462033158L71.19368879530164,118.64399814329474L74.28906656901042,131.07318838243916L77.38444434271919,130.44628708988316L80.47982211642794,138.97841354897977L83.57519989013672,140.74980183694774L86.67057766384549,142.92672224359367L89.76595543755425,146.55055671513063L92.86133321126302,145.65391722276135L95.95671098497179,151.42609287480605L99.05208875868055,153.66508354997225L102.14746653238932,154.2352374208999L105.24284430609809,155.433056637322L108.33822207980685,154.8957712962305L111.43359985351563,155.73913127232595L114.52897762722439,156.02925195161262L117.62435540093315,156.08418255148143L120.71973317464193,156.27702454100495L123.81511094835069,157.64310379386438L126.91048872205945,157.69591476834708L130.00586649576823,157.76124046589499L133.101244269477,157.38037068331298L136.19662204318576,157.85734490076248L139.29199981689453,158.26003875337295L142.38737759060328,158.25371451649096L145.48275536431208,158.8011180896577L148.57813313802083,158.83967641068202L151.67351091172958,159.08778254813043L154.76888868543838,159.03177166690523L157.86426645914713,159.24257776747447L160.95964423285588,159.0693784022579L164.05502200656468,159.31547769914118L167.15039978027343,159.1371358101557L170.2457775539822,159.30810964329902L173.34115532769098,159.54035128220448L176.43653310139973,159.48745495256705L179.5319108751085,159.33923435903708L182.62728864881728,159.57498024138965L185.72266642252603,159.5868460581062L188.8180441962348,159.54430596054826" fill="none"></path></g><g><path style="fill: none;" stroke="rgb(0, 119, 187)" stroke-width="2px" d="M30.953777737087673,34.36823376045376L34.04915551079644,37.345729167499115L37.14453328450521,42.528035399516824L40.23991105821397,49.74122550074807L43.335288831922746,50.769746165393926L46.43066660563151,60.58454282014701L49.52604437934028,59.69983514971828L52.621422153049046,68.53976257254054L55.716799926757815,68.96318247983946L58.81217770046658,90.00162443851364L61.907555474175346,94.94440322334786L65.00293324788412,109.58337908421105L68.09831102159288,116.7976670350441L71.19368879530164,128.96594032244397L74.28906656901042,128.06626318099526L77.38444434271919,135.26735041850017L80.47982211642794,145.32998529495873L83.57519989013672,148.63858445166207L86.67057766384549,150.74565484034488L89.76595543755425,152.48666597456588L92.86133321126302,150.6755635076142L95.95671098497179,153.2199731576055L99.05208875868055,152.25995008750024L102.14746653238932,154.1769459825308L105.24284430609809,156.3020549815643L108.33822207980685,156.1511497198108L111.43359985351563,155.71209142225987L114.52897762722439,157.30490280452509L117.62435540093315,157.32563532300196L120.71973317464193,157.83746377923677L123.81511094835069,157.90833971643832L126.91048872205945,157.91607090459897L130.00586649576823,158.45636373042396L133.101244269477,158.58200486080614L136.19662204318576,158.54062683638875L139.29199981689453,158.99379351232585L142.38737759060328,158.60276472608015L145.48275536431208,159.22156540010678L148.57813313802083,159.31858761006035L151.67351091172958,159.0609514452826L154.76888868543838,159.49861455896453L157.86426645914713,158.93327347572747L160.95964423285588,159.36305143049395L164.05502200656468,159.42427543994614L167.15039978027343,159.42318214814387L170.2457775539822,159.5702675181159L173.34115532769098,159.27438118099624L176.43653310139973,158.37673648665913L179.5319108751085,159.37213454486263L182.62728864881728,159.4535801020305L185.72266642252603,159.57884687133352L188.8180441962348,159.63074554008958" fill="none"></path></g><g><path style="fill: none;" stroke="rgb(255, 112, 67)" stroke-width="2px" d="M30.953777737087673,33.33673246065709L34.04915551079644,33.78690383361581L37.14453328450521,41.022591896252464L40.23991105821397,54.82318721843522L43.335288831922746,53.871134165185694L46.43066660563151,62.534302498493716L49.52604437934028,60.94610128901296L52.621422153049046,60.89558960008672L55.716799926757815,66.53045383463233L58.81217770046658,82.98565479763634L61.907555474175346,90.68929197171143L65.00293324788412,86.35989289701853L68.09831102159288,94.0601993969393L71.19368879530164,106.98414324939459L74.28906656901042,122.13305168762858L77.38444434271919,133.83577310040172L80.47982211642794,126.11660161964195L83.57519989013672,141.4836559559303L86.67057766384549,139.63476452451405L89.76595543755425,144.39456704980634L92.86133321126302,141.31917474964413L95.95671098497179,146.48795144381526L99.05208875868055,148.7083045309042L102.14746653238932,151.5080172495312L105.24284430609809,153.8111240651206L108.33822207980685,156.99186849251637L111.43359985351563,154.1827660439163L114.52897762722439,156.19372851723017L117.62435540093315,157.41112953205283L120.71973317464193,157.1087417425188L123.81511094835069,157.56283613783182L126.91048872205945,157.82340901714682L130.00586649576823,157.1674601223997L133.101244269477,157.6289557211878L136.19662204318576,158.53608097001214L139.29199981689453,158.05054803374648L142.38737759060328,158.2750551282935L145.48275536431208,158.46712726404277L148.57813313802083,158.54047700908802L151.67351091172958,158.9886867880005L154.76888868543838,158.89325060941235L157.86426645914713,158.52288605751974L160.95964423285588,158.96700160655394L164.05502200656468,159.16446934824933L167.15039978027343,158.5865789026707L170.2457775539822,159.28572256072567L173.34115532769098,159.4116904438992L176.43653310139973,159.32134872501226L179.5319108751085,158.96766596798642L182.62728864881728,159.37465674825037L185.72266642252603,159.51997953427724L188.8180441962348,159.46073974213076L191.91342196994358,159.65774441139448L195.00879974365233,159.65150312646384L198.1041775173611,159.63787617601108L201.19955529106988,159.76430568140734L204.29493306477863,159.5948616943917L207.3903108384874,159.74407207624023L210.48568861219618,159.6560539649854L213.58106638590496,159.72423574545348L216.6764441596137,159.6048793648356L219.77182193332249,159.93222692831912L222.86719970703126,159.75794436061105L225.96257748074,159.6727232880553L229.05795525444879,159.78760946176868L232.15333302815756,159.87488328436115L235.2487108018663,159.72368673778348L238.34408857557509,159.85714159393223L241.43946634928386,159.88156180728708L244.5348441229926,159.85671742853467" fill="none"></path></g><g><path style="fill: none;" stroke="rgb(187, 187, 187)" stroke-width="2px" d="M30.953777737087673,36.454646544310066L34.04915551079644,34.78522567877971L37.14453328450521,43.59675751335007L40.23991105821397,52.32886231585836L43.335288831922746,48.77738780104809L46.43066660563151,53.40139242975975L49.52604437934028,66.85080316627055L52.621422153049046,64.88736014506058L55.716799926757815,60.258741365848536L58.81217770046658,69.27064401180415L61.907555474175346,79.87816763339002L65.00293324788412,93.46963056185801L68.09831102159288,82.63008411717838L71.19368879530164,104.68816317487982L74.28906656901042,98.96916759621023L77.38444434271919,111.40917191911363L80.47982211642794,124.72300618523158L83.57519989013672,126.18399738686477L86.67057766384549,135.9338750655257L89.76595543755425,134.03269920977547L92.86133321126302,139.917017944607L95.95671098497179,146.23649615240717L99.05208875868055,146.84871039177554L102.14746653238932,150.2749677344285L105.24284430609809,152.01232732540865L108.33822207980685,155.43302150083113L111.43359985351563,155.32041103642032L114.52897762722439,153.93683579996085L117.62435540093315,156.12073179447535L120.71973317464193,155.83236131020607L123.81511094835069,156.5180038545097L126.91048872205945,157.06427850216875L130.00586649576823,156.72863087499212L133.101244269477,158.08341109422318L136.19662204318576,157.99613105644954L139.29199981689453,157.4895465557403L142.38737759060328,158.3138362014109L145.48275536431208,158.4363432231019L148.57813313802083,158.45724910369887L151.67351091172958,158.4876711724884L154.76888868543838,158.38921209551748L157.86426645914713,158.53454341705984L160.95964423285588,158.73833174939762L164.05502200656468,158.50325950981474L167.15039978027343,158.76923164131549L170.2457775539822,159.32099943183053L173.34115532769098,159.1327309869571L176.43653310139973,158.97947970148476L179.5319108751085,159.23787991920096L182.62728864881728,158.91740073171084L185.72266642252603,159.34402825257692L188.8180441962348,159.54419151834566" fill="none"></path></g><g><path style="fill: none;" stroke="rgb(0, 153, 136)" stroke-width="2px" d="M30.953777737087673,34.90926677292154L34.04915551079644,35.76949292759181L37.14453328450521,45.50958277320851L40.23991105821397,53.56770338538227L43.335288831922746,56.57871767882135L46.43066660563151,68.23856992091088L49.52604437934028,71.09908865733915L52.621422153049046,87.55622013848357L55.716799926757815,62.733304975592645L58.81217770046658,80.9057018244806L61.907555474175346,103.9640385491076L65.00293324788412,102.61612850827247L68.09831102159288,113.43851773816037L71.19368879530164,111.47756741894487L74.28906656901042,124.13235514402069L77.38444434271919,131.10165822138876L80.47982211642794,135.9796718351475L83.57519989013672,140.8022294590559L86.67057766384549,135.03402290457527L89.76595543755425,148.07314417413355L92.86133321126302,146.35634738574979L95.95671098497179,149.15713673949355L99.05208875868055,120.60043508081387L102.14746653238932,143.3128378048211L105.24284430609809,150.26308033031603L108.33822207980685,153.15315482214788L111.43359985351563,149.78784470621238L114.52897762722439,153.1710890174549L117.62435540093315,151.11688578849257L120.71973317464193,156.07505932847695L123.81511094835069,157.08018240496034L126.91048872205945,156.8722847605713L130.00586649576823,157.0598827945692L133.101244269477,156.67574515259722L136.19662204318576,157.35134893627549L139.29199981689453,157.64298844010187L142.38737759060328,157.98660973037386L145.48275536431208,157.71859703059144L148.57813313802083,158.4095057393347L151.67351091172958,158.41391072827147L154.76888868543838,158.91799714049588L157.86426645914713,158.52747766762977L160.95964423285588,158.6772227622316L164.05502200656468,158.7666194421044L167.15039978027343,158.66139095554158L170.2457775539822,157.87111658206743L173.34115532769098,158.3769511175822L176.43653310139973,159.11886185161143L179.5319108751085,159.24312569784638L182.62728864881728,159.41254291814846L185.72266642252603,159.20890756213652L188.8180441962348,159.3936038523499" fill="none"></path></g><g><path style="fill: none;" stroke="rgb(238, 51, 119)" stroke-width="2px" d="M30.953777737087673,32.66736242082297L34.04915551079644,32.024542309040584L37.14453328450521,41.53362762684637L40.23991105821397,51.70569742448343L43.335288831922746,52.99319391549089L46.43066660563151,57.077194434260136L49.52604437934028,62.16874509919408L52.621422153049046,70.10079863390284L55.716799926757815,70.68052686711881L58.81217770046658,87.95827705932776L61.907555474175346,91.26010481758122L65.00293324788412,105.625069085797L68.09831102159288,116.593103711049L71.19368879530164,122.9857148783752L74.28906656901042,127.65356189227256L77.38444434271919,136.98519864979968L80.47982211642794,140.03172466532274L83.57519989013672,144.52565267889318L86.67057766384549,142.42281325407438L89.76595543755425,149.02446665355384L92.86133321126302,150.83671138793542L95.95671098497179,152.99820820099058L99.05208875868055,152.33956871288052L102.14746653238932,154.78886421353735L105.24284430609809,154.6879575153527L108.33822207980685,156.19892805492768L111.43359985351563,156.66611377638029L114.52897762722439,157.90154826367055L117.62435540093315,157.21285414828168L120.71973317464193,158.0524233610781L123.81511094835069,157.78756134380333L126.91048872205945,158.39786379344392L130.00586649576823,158.1339131703359L133.101244269477,158.7646557763311L136.19662204318576,158.78684596196499L139.29199981689453,158.73417669361294L142.38737759060328,158.8438789504508L145.48275536431208,159.14809922400096L148.57813313802083,159.0099957438136L151.67351091172958,158.95536090369936L154.76888868543838,159.18499850599835L157.86426645914713,159.00476778202088L160.95964423285588,159.26105500387754L164.05502200656468,159.36666477108787L167.15039978027343,159.39222491082106L170.2457775539822,159.330460097738L173.34115532769098,159.5435388000192L176.43653310139973,159.54568320326092L179.5319108751085,159.45933411675742L182.62728864881728,159.56318739090008L185.72266642252603,159.56034054788256L188.8180441962348,159.75456653394892" fill="none"></path></g><g><path style="fill: none;" stroke="rgb(51, 187, 238)" stroke-width="2px" d="M30.953777737087673,34.408583711036584L34.04915551079644,31.086257456594552L37.14453328450521,41.72967068327952L40.23991105821397,50.124963713743554L43.335288831922746,50.101161061507L46.43066660563151,61.50779720992851L49.52604437934028,60.56866377808011L52.621422153049046,53.398528474276745L55.716799926757815,63.14820726714025L58.81217770046658,70.08273449987483L61.907555474175346,76.22135259301773L65.00293324788412,81.38773735399842L68.09831102159288,91.26890882888084L71.19368879530164,102.86122475778403L74.28906656901042,108.24489357836352L77.38444434271919,120.44874090539722L80.47982211642794,120.99093541092199L83.57519989013672,130.25534611710677L86.67057766384549,116.63811289291297L89.76595543755425,133.29754570358304L92.86133321126302,136.679259257138L95.95671098497179,139.8281000822915L99.05208875868055,139.12926312271L102.14746653238932,145.18508638428764L105.24284430609809,149.38781907231262L108.33822207980685,153.1136633952573L111.43359985351563,155.1449447045894L114.52897762722439,155.02329421773268L117.62435540093315,156.00866760305482L120.71973317464193,157.0646543963259L123.81511094835069,155.56036542511563L126.91048872205945,157.0922948815002L130.00586649576823,157.08402156380342L133.101244269477,156.72975756303458L136.19662204318576,157.4714988297906L139.29199981689453,158.12715105322323L142.38737759060328,158.23190668880264L145.48275536431208,158.6898654351598L148.57813313802083,158.30845070549282L151.67351091172958,158.5881782759584L154.76888868543838,158.63631162222367L157.86426645914713,158.61548131822974L160.95964423285588,159.02102769038984L164.05502200656468,159.22782160147221L167.15039978027343,159.16623785733393L170.2457775539822,159.1753087899475L173.34115532769098,159.25347322867222L176.43653310139973,158.95748906460096L179.5319108751085,159.33126285053788L182.62728864881728,159.41180762078153L185.72266642252603,159.28752479752674L188.8180441962348,159.49880731244988" fill="none"></path></g><g><path style="fill: none;" stroke="rgb(204, 51, 17)" stroke-width="2px" d="M30.953777737087673,33.49007075866584L34.04915551079644,33.671454605923L37.14453328450521,44.805102760601216L40.23991105821397,52.49850394563519L43.335288831922746,57.25267004742828L46.43066660563151,62.01456882902549L49.52604437934028,69.41077629286347L52.621422153049046,64.2030551077447L55.716799926757815,73.87132331419308L58.81217770046658,80.10143948139681L61.907555474175346,86.18986410288936L65.00293324788412,99.63565246607628L68.09831102159288,113.32328595893942L71.19368879530164,129.33431394463523L74.28906656901042,118.16578387289823L77.38444434271919,131.26521924938547L80.47982211642794,132.32989735200428L83.57519989013672,133.8091674843267L86.67057766384549,147.80905565687263L89.76595543755425,144.75173014254906L92.86133321126302,140.1593430520077L95.95671098497179,132.42356460716243L99.05208875868055,137.88367982465317L102.14746653238932,146.60357038738854L105.24284430609809,149.7156365656444L108.33822207980685,155.28411636724712L111.43359985351563,148.6687978561025L114.52897762722439,154.87588934601396L117.62435540093315,154.41072761902652L120.71973317464193,154.1767006900473L123.81511094835069,155.89744237822313L126.91048872205945,156.4721056531312L130.00586649576823,155.8386563771711L133.101244269477,158.300976245749L136.19662204318576,157.4848879874118L139.29199981689453,157.71716737318425L142.38737759060328,157.29640772916414L145.48275536431208,157.1225603277243L148.57813313802083,158.90208528227242L151.67351091172958,158.3251576096915L154.76888868543838,158.74329146397105L157.86426645914713,158.93489364915482L160.95964423285588,158.42740148338754L164.05502200656468,158.7340712841403L167.15039978027343,158.876193500472L170.2457775539822,158.70766621124437L173.34115532769098,158.58184807250248L176.43653310139973,149.32928433031802L179.5319108751085,155.9636909058711L182.62728864881728,158.4504684239118L185.72266642252603,158.8765335951856L188.8180441962348,158.73947385108934" fill="none"></path></g><g><path style="fill: none;" stroke="rgb(0, 119, 187)" stroke-width="2px" d="M30.953777737087673,33.268146030460315L34.04915551079644,32.239932975847836L37.14453328450521,42.09529172603433L40.23991105821397,46.55200953281073L43.335288831922746,49.677094112413755L46.43066660563151,56.48353889160272L49.52604437934028,68.2728737432518L52.621422153049046,67.47721387385955L55.716799926757815,61.985271625158575L58.81217770046658,84.46218826138612L61.907555474175346,93.109392694687L65.00293324788412,108.84204420743445L68.09831102159288,115.6016951362038L71.19368879530164,122.09993057282972L74.28906656901042,127.50500215702343L77.38444434271919,145.1170753969981L80.47982211642794,140.0549213788298L83.57519989013672,142.913406176503L86.67057766384549,141.5239237003835L89.76595543755425,153.4229175512095L92.86133321126302,143.15440272677685L95.95671098497179,151.7074837934908L99.05208875868055,143.02432080801438L102.14746653238932,151.61078286696917L105.24284430609809,153.23411194894487L108.33822207980685,153.25991141458763L111.43359985351563,156.29426462487893L114.52897762722439,156.565309172905L117.62435540093315,156.4830215001232L120.71973317464193,156.87983115067848L123.81511094835069,157.70738434654677L126.91048872205945,158.4443049530494L130.00586649576823,158.07671560385268L133.101244269477,158.94950040220172L136.19662204318576,158.56450224767954L139.29199981689453,158.62171754814634L142.38737759060328,158.57620750554918L145.48275536431208,158.19381376054434L148.57813313802083,158.890490074544L151.67351091172958,159.0798406238936L154.76888868543838,158.95528018921323L157.86426645914713,158.9637582764123L160.95964423285588,159.36631638946602L164.05502200656468,159.42033170032127L167.15039978027343,159.4850058811444L170.2457775539822,159.50481370496684L173.34115532769098,159.42373248171916L176.43653310139973,159.72197366811494L179.5319108751085,159.38581979371477L182.62728864881728,159.4631160959337L185.72266642252603,159.49548434512022L188.8180441962348,159.61243801956698" fill="none"></path></g><g><path style="fill: none;" stroke="rgb(255, 112, 67)" stroke-width="2px" d="M30.953777737087673,35.46138435383281L34.04915551079644,34.767999516911544L37.14453328450521,46.147672054822664L40.23991105821397,45.8356069796001L43.335288831922746,52.967312243718524L46.43066660563151,58.698320524552955L49.52604437934028,62.153491884436434L52.621422153049046,70.59172303266051L55.716799926757815,74.84191782738445L58.81217770046658,70.0225702202466L61.907555474175346,77.85124556926131L65.00293324788412,105.85929291171566L68.09831102159288,103.95041884969952L71.19368879530164,118.26107933978469L74.28906656901042,130.35155911047204L77.38444434271919,131.91613268721798L80.47982211642794,139.3854558738129L83.57519989013672,141.25543185156747L86.67057766384549,144.55739882987913L89.76595543755425,137.32306053885438L92.86133321126302,145.2477314327625L95.95671098497179,149.6352840516716L99.05208875868055,149.5604081896074L102.14746653238932,153.60566575503705L105.24284430609809,152.6045581828038L108.33822207980685,154.42636203156258L111.43359985351563,154.0159896955278L114.52897762722439,153.67616215184182L117.62435540093315,155.4226290549627L120.71973317464193,156.8297159074418L123.81511094835069,157.36515459390418L126.91048872205945,157.53088264840204L130.00586649576823,157.70472623786412L133.101244269477,157.45386760384832L136.19662204318576,157.79554843169L139.29199981689453,157.56988166720583L142.38737759060328,157.8606227044423L145.48275536431208,158.2388865858635L148.57813313802083,158.62088736568023L151.67351091172958,159.06826331588698L154.76888868543838,158.75840065226373L157.86426645914713,158.43671944873537L160.95964423285588,158.98890224761436L164.05502200656468,159.2138030531712L167.15039978027343,158.99982605003828L170.2457775539822,159.2274292163677L173.34115532769098,159.2114960607901L176.43653310139973,159.44176355098335L179.5319108751085,159.10710927549582L182.62728864881728,159.45267558599758L185.72266642252603,159.33167197519703L188.8180441962348,159.34955802356723" fill="none"></path></g></g></g></g></g></g><g transform="translate(51, 177)" clip-path="url(#clip_1)"><clipPath id="clip_1"><rect width="278" height="22"></rect></clipPath><g><g><line x1="0" y1="0" x2="0" y2="5" style="visibility: inherit;" fill="rgb(0, 0, 0)" stroke="rgb(204, 204, 204)" stroke-width="1px"></line><line x1="30.953777737087673" y1="0" x2="30.953777737087673" y2="5" style="visibility: inherit;" fill="rgb(0, 0, 0)" stroke="rgb(204, 204, 204)" stroke-width="1px"></line><line x1="61.907555474175346" y1="0" x2="61.907555474175346" y2="5" style="visibility: inherit;" fill="rgb(0, 0, 0)" stroke="rgb(204, 204, 204)" stroke-width="1px"></line><line x1="92.86133321126302" y1="0" x2="92.86133321126302" y2="5" style="visibility: inherit;" fill="rgb(0, 0, 0)" stroke="rgb(204, 204, 204)" stroke-width="1px"></line><line x1="123.81511094835069" y1="0" x2="123.81511094835069" y2="5" style="visibility: inherit;" fill="rgb(0, 0, 0)" stroke="rgb(204, 204, 204)" stroke-width="1px"></line><line x1="154.76888868543838" y1="0" x2="154.76888868543838" y2="5" style="visibility: inherit;" fill="rgb(0, 0, 0)" stroke="rgb(204, 204, 204)" stroke-width="1px"></line><line x1="185.72266642252603" y1="0" x2="185.72266642252603" y2="5" style="visibility: inherit;" fill="rgb(0, 0, 0)" stroke="rgb(204, 204, 204)" stroke-width="1px"></line><line x1="216.6764441596137" y1="0" x2="216.6764441596137" y2="5" style="visibility: inherit;" fill="rgb(0, 0, 0)" stroke="rgb(204, 204, 204)" stroke-width="1px"></line><line x1="247.63022189670139" y1="0" x2="247.63022189670139" y2="5" style="visibility: inherit;" fill="rgb(0, 0, 0)" stroke="rgb(204, 204, 204)" stroke-width="1px"></line><line x1="278.58399963378906" y1="0" x2="278.58399963378906" y2="5" style="visibility: inherit;" fill="rgb(0, 0, 0)" stroke="rgb(204, 204, 204)" stroke-width="1px"></line></g><g transform="translate(0, 8)"><text style="text-anchor: middle; visibility: hidden; font-family: &quot;Helvetica Neue&quot;, sans-serif; font-size: 12px; font-weight: 200;" x="0" y="0" dx="0em" dy="0.95em" fill="rgb(50, 49, 63)" stroke="none" stroke-width="1px">-10</text><text style="text-anchor: middle; visibility: inherit; font-family: &quot;Helvetica Neue&quot;, sans-serif; font-size: 12px; font-weight: 200;" x="30.953777737087673" y="0" dx="0em" dy="0.95em" fill="rgb(50, 49, 63)" stroke="none" stroke-width="1px">0</text><text style="text-anchor: middle; visibility: inherit; font-family: &quot;Helvetica Neue&quot;, sans-serif; font-size: 12px; font-weight: 200;" x="61.907555474175346" y="0" dx="0em" dy="0.95em" fill="rgb(50, 49, 63)" stroke="none" stroke-width="1px">10</text><text style="text-anchor: middle; visibility: inherit; font-family: &quot;Helvetica Neue&quot;, sans-serif; font-size: 12px; font-weight: 200;" x="92.86133321126302" y="0" dx="0em" dy="0.95em" fill="rgb(50, 49, 63)" stroke="none" stroke-width="1px">20</text><text style="text-anchor: middle; visibility: inherit; font-family: &quot;Helvetica Neue&quot;, sans-serif; font-size: 12px; font-weight: 200;" x="123.81511094835069" y="0" dx="0em" dy="0.95em" fill="rgb(50, 49, 63)" stroke="none" stroke-width="1px">30</text><text style="text-anchor: middle; visibility: inherit; font-family: &quot;Helvetica Neue&quot;, sans-serif; font-size: 12px; font-weight: 200;" x="154.76888868543838" y="0" dx="0em" dy="0.95em" fill="rgb(50, 49, 63)" stroke="none" stroke-width="1px">40</text><text style="text-anchor: middle; visibility: inherit; font-family: &quot;Helvetica Neue&quot;, sans-serif; font-size: 12px; font-weight: 200;" x="185.72266642252603" y="0" dx="0em" dy="0.95em" fill="rgb(50, 49, 63)" stroke="none" stroke-width="1px">50</text><text style="text-anchor: middle; visibility: inherit; font-family: &quot;Helvetica Neue&quot;, sans-serif; font-size: 12px; font-weight: 200;" x="216.6764441596137" y="0" dx="0em" dy="0.95em" fill="rgb(50, 49, 63)" stroke="none" stroke-width="1px">60</text><text style="text-anchor: middle; visibility: inherit; font-family: &quot;Helvetica Neue&quot;, sans-serif; font-size: 12px; font-weight: 200;" x="247.63022189670139" y="0" dx="0em" dy="0.95em" fill="rgb(50, 49, 63)" stroke="none" stroke-width="1px">70</text><text style="text-anchor: middle; visibility: hidden; font-family: &quot;Helvetica Neue&quot;, sans-serif; font-size: 12px; font-weight: 200;" x="278.58399963378906" y="0" dx="0em" dy="0.95em" fill="rgb(50, 49, 63)" stroke="none" stroke-width="1px">80</text></g><line x1="0" y1="0" x2="278.58399963378906" y2="0" fill="rgb(0, 0, 0)" stroke="rgb(204, 204, 204)" stroke-width="1px"></line></g></g></g></g></svg>