<svg viewBox="0 0 330 200" xmlns="http://www.w3.org/2000/svg"><g><g><g><g><g><line x1="61.77000045776367" y1="177.95999908447266" x2="56.77000045776367" y2="177.95999908447266" style="visibility: inherit;" fill="rgb(0, 0, 0)" stroke="rgb(204, 204, 204)" stroke-width="1px"></line><line x1="61.77000045776367" y1="161.7818173495206" x2="56.77000045776367" y2="161.7818173495206" style="visibility: inherit;" fill="rgb(0, 0, 0)" stroke="rgb(204, 204, 204)" stroke-width="1px"></line><line x1="61.77000045776367" y1="145.60363561456853" x2="56.77000045776367" y2="145.60363561456853" style="visibility: inherit;" fill="rgb(0, 0, 0)" stroke="rgb(204, 204, 204)" stroke-width="1px"></line><line x1="61.77000045776367" y1="129.42545387961647" x2="56.77000045776367" y2="129.42545387961647" style="visibility: inherit;" fill="rgb(0, 0, 0)" stroke="rgb(204, 204, 204)" stroke-width="1px"></line><line x1="61.77000045776367" y1="113.24727214466442" x2="56.77000045776367" y2="113.24727214466442" style="visibility: inherit;" fill="rgb(0, 0, 0)" stroke="rgb(204, 204, 204)" stroke-width="1px"></line><line x1="61.77000045776367" y1="97.06909040971236" x2="56.77000045776367" y2="97.06909040971236" style="visibility: inherit;" fill="rgb(0, 0, 0)" stroke="rgb(204, 204, 204)" stroke-width="1px"></line><line x1="61.77000045776367" y1="80.89090867476031" x2="56.77000045776367" y2="80.89090867476031" style="visibility: inherit;" fill="rgb(0, 0, 0)" stroke="rgb(204, 204, 204)" stroke-width="1px"></line><line x1="61.77000045776367" y1="64.71272693980826" x2="56.77000045776367" y2="64.71272693980826" style="visibility: inherit;" fill="rgb(0, 0, 0)" stroke="rgb(204, 204, 204)" stroke-width="1px"></line><line x1="61.77000045776367" y1="48.53454520485619" x2="56.77000045776367" y2="48.53454520485619" style="visibility: inherit;" fill="rgb(0, 0, 0)" stroke="rgb(204, 204, 204)" stroke-width="1px"></line><line x1="61.77000045776367" y1="32.356363469904124" x2="56.77000045776367" y2="32.356363469904124" style="visibility: inherit;" fill="rgb(0, 0, 0)" stroke="rgb(204, 204, 204)" stroke-width="1px"></line><line x1="61.77000045776367" y1="16.178181734952062" x2="56.77000045776367" y2="16.178181734952062" style="visibility: inherit;" fill="rgb(0, 0, 0)" stroke="rgb(204, 204, 204)" stroke-width="1px"></line><line x1="61.77000045776367" y1="0" x2="56.77000045776367" y2="0" style="visibility: inherit;" fill="rgb(0, 0, 0)" stroke="rgb(204, 204, 204)" stroke-width="1px"></line></g><g transform="translate(51.77000045776367, 0)"><text style="text-anchor: end; visibility: hidden; font-family: &quot;Helvetica Neue&quot;, sans-serif; font-size: 12px; font-weight: 200;" x="0" y="177.95999908447266" dx="0em" dy="0.3em" fill="rgb(50, 49, 63)" stroke="none" stroke-width="1px">-0.05</text><text style="text-anchor: end; visibility: inherit; font-family: &quot;Helvetica Neue&quot;, sans-serif; font-size: 12px; font-weight: 200;" x="0" y="161.7818173495206" dx="0em" dy="0.3em" fill="rgb(50, 49, 63)" stroke="none" stroke-width="1px">0</text><text style="text-anchor: end; visibility: hidden; font-family: &quot;Helvetica Neue&quot;, sans-serif; font-size: 12px; font-weight: 200;" x="0" y="145.60363561456853" dx="0em" dy="0.3em" fill="rgb(50, 49, 63)" stroke="none" stroke-width="1px">0.05</text><text style="text-anchor: end; visibility: inherit; font-family: &quot;Helvetica Neue&quot;, sans-serif; font-size: 12px; font-weight: 200;" x="0" y="129.42545387961647" dx="0em" dy="0.3em" fill="rgb(50, 49, 63)" stroke="none" stroke-width="1px">0.1</text><text style="text-anchor: end; visibility: hidden; font-family: &quot;Helvetica Neue&quot;, sans-serif; font-size: 12px; font-weight: 200;" x="0" y="113.24727214466442" dx="0em" dy="0.3em" fill="rgb(50, 49, 63)" stroke="none" stroke-width="1px">0.15</text><text style="text-anchor: end; visibility: inherit; font-family: &quot;Helvetica Neue&quot;, sans-serif; font-size: 12px; font-weight: 200;" x="0" y="97.06909040971236" dx="0em" dy="0.3em" fill="rgb(50, 49, 63)" stroke="none" stroke-width="1px">0.2</text><text style="text-anchor: end; visibility: hidden; font-family: &quot;Helvetica Neue&quot;, sans-serif; font-size: 12px; font-weight: 200;" x="0" y="80.89090867476031" dx="0em" dy="0.3em" fill="rgb(50, 49, 63)" stroke="none" stroke-width="1px">0.25</text><text style="text-anchor: end; visibility: inherit; font-family: &quot;Helvetica Neue&quot;, sans-serif; font-size: 12px; font-weight: 200;" x="0" y="64.71272693980826" dx="0em" dy="0.3em" fill="rgb(50, 49, 63)" stroke="none" stroke-width="1px">0.3</text><text style="text-anchor: end; visibility: hidden; font-family: &quot;Helvetica Neue&quot;, sans-serif; font-size: 12px; font-weight: 200;" x="0" y="48.53454520485619" dx="0em" dy="0.3em" fill="rgb(50, 49, 63)" stroke="none" stroke-width="1px">0.35</text><text style="text-anchor: end; visibility: inherit; font-family: &quot;Helvetica Neue&quot;, sans-serif; font-size: 12px; font-weight: 200;" x="0" y="32.356363469904124" dx="0em" dy="0.3em" fill="rgb(50, 49, 63)" stroke="none" stroke-width="1px">0.4</text><text style="text-anchor: end; visibility: hidden; font-family: &quot;Helvetica Neue&quot;, sans-serif; font-size: 12px; font-weight: 200;" x="0" y="16.178181734952062" dx="0em" dy="0.3em" fill="rgb(50, 49, 63)" stroke="none" stroke-width="1px">0.45</text><text style="text-anchor: end; visibility: hidden; font-family: &quot;Helvetica Neue&quot;, sans-serif; font-size: 12px; font-weight: 200;" x="0" y="0" dx="0em" dy="0.3em" fill="rgb(50, 49, 63)" stroke="none" stroke-width="1px">0.5</text></g><line x1="61.77000045776367" y1="0" x2="61.77000045776367" y2="177.95999908447266" fill="rgb(0, 0, 0)" stroke="rgb(204, 204, 204)" stroke-width="1px"></line></g></g><g transform="translate(61, 0)" clip-path="url(#clip_0)"><clipPath id="clip_0"><rect width="268" height="177"></rect></clipPath><g><g><g><line x1="0" y1="0" x2="0" y2="177.95999908447266" fill="rgb(0, 0, 0)" stroke="rgb(60, 60, 60)" stroke-width="1px" opacity="0.25"></line><line x1="29.803333282470703" y1="0" x2="29.803333282470703" y2="177.95999908447266" fill="rgb(0, 0, 0)" stroke="rgb(60, 60, 60)" stroke-width="1px" opacity="0.25"></line><line x1="59.606666564941406" y1="0" x2="59.606666564941406" y2="177.95999908447266" fill="rgb(0, 0, 0)" stroke="rgb(60, 60, 60)" stroke-width="1px" opacity="0.25"></line><line x1="89.40999984741211" y1="0" x2="89.40999984741211" y2="177.95999908447266" fill="rgb(0, 0, 0)" stroke="rgb(60, 60, 60)" stroke-width="1px" opacity="0.25"></line><line x1="119.21333312988281" y1="0" x2="119.21333312988281" y2="177.95999908447266" fill="rgb(0, 0, 0)" stroke="rgb(60, 60, 60)" stroke-width="1px" opacity="0.25"></line><line x1="149.01666641235352" y1="0" x2="149.01666641235352" y2="177.95999908447266" fill="rgb(0, 0, 0)" stroke="rgb(60, 60, 60)" stroke-width="1px" opacity="0.25"></line><line x1="178.81999969482422" y1="0" x2="178.81999969482422" y2="177.95999908447266" fill="rgb(0, 0, 0)" stroke="rgb(60, 60, 60)" stroke-width="1px" opacity="0.25"></line><line x1="208.62333297729492" y1="0" x2="208.62333297729492" y2="177.95999908447266" fill="rgb(0, 0, 0)" stroke="rgb(60, 60, 60)" stroke-width="1px" opacity="0.25"></line><line x1="238.42666625976562" y1="0" x2="238.42666625976562" y2="177.95999908447266" fill="rgb(0, 0, 0)" stroke="rgb(60, 60, 60)" stroke-width="1px" opacity="0.25"></line><line x1="268.2299995422363" y1="0" x2="268.2299995422363" y2="177.95999908447266" fill="rgb(0, 0, 0)" stroke="rgb(60, 60, 60)" stroke-width="1px" opacity="0.25"></line></g><g><line x1="0" y1="177.95999908447266" x2="268.2299995422363" y2="177.95999908447266" fill="rgb(0, 0, 0)" stroke="rgb(60, 60, 60)" stroke-width="1px" opacity="0.25"></line><line x1="0" y1="161.7818173495206" x2="268.2299995422363" y2="161.7818173495206" fill="rgb(0, 0, 0)" stroke="rgb(60, 60, 60)" stroke-width="1px" opacity="0.25"></line><line x1="0" y1="145.60363561456853" x2="268.2299995422363" y2="145.60363561456853" fill="rgb(0, 0, 0)" stroke="rgb(60, 60, 60)" stroke-width="1px" opacity="0.25"></line><line x1="0" y1="129.42545387961647" x2="268.2299995422363" y2="129.42545387961647" fill="rgb(0, 0, 0)" stroke="rgb(60, 60, 60)" stroke-width="1px" opacity="0.25"></line><line x1="0" y1="113.24727214466442" x2="268.2299995422363" y2="113.24727214466442" fill="rgb(0, 0, 0)" stroke="rgb(60, 60, 60)" stroke-width="1px" opacity="0.25"></line><line x1="0" y1="97.06909040971236" x2="268.2299995422363" y2="97.06909040971236" fill="rgb(0, 0, 0)" stroke="rgb(60, 60, 60)" stroke-width="1px" opacity="0.25"></line><line x1="0" y1="80.89090867476031" x2="268.2299995422363" y2="80.89090867476031" fill="rgb(0, 0, 0)" stroke="rgb(60, 60, 60)" stroke-width="1px" opacity="0.25"></line><line x1="0" y1="64.71272693980826" x2="268.2299995422363" y2="64.71272693980826" fill="rgb(0, 0, 0)" stroke="rgb(60, 60, 60)" stroke-width="1px" opacity="0.25"></line><line x1="0" y1="48.53454520485619" x2="268.2299995422363" y2="48.53454520485619" fill="rgb(0, 0, 0)" stroke="rgb(60, 60, 60)" stroke-width="1px" opacity="0.25"></line><line x1="0" y1="32.356363469904124" x2="268.2299995422363" y2="32.356363469904124" fill="rgb(0, 0, 0)" stroke="rgb(60, 60, 60)" stroke-width="1px" opacity="0.25"></line><line x1="0" y1="16.178181734952062" x2="268.2299995422363" y2="16.178181734952062" fill="rgb(0, 0, 0)" stroke="rgb(60, 60, 60)" stroke-width="1px" opacity="0.25"></line><line x1="0" y1="0" x2="268.2299995422363" y2="0" fill="rgb(0, 0, 0)" stroke="rgb(60, 60, 60)" stroke-width="1px" opacity="0.25"></line></g></g></g><g><g><line x1="0" y1="161.7818173495206" x2="268.2299995422363" y2="161.7818173495206" fill="rgb(0, 0, 0)" stroke="rgb(153, 153, 153)" stroke-width="1.5px"></line></g></g><g><g><line x1="29.803333282470703" y1="0" x2="29.803333282470703" y2="177.95999908447266" fill="rgb(0, 0, 0)" stroke="rgb(153, 153, 153)" stroke-width="1.5px"></line></g></g><g><g><g><g><g><path style="fill: none;" stroke="rgb(204, 51, 17)" stroke-width="2px" d="M29.803333282470703,23.111686815224687L32.78366661071777,30.334091958403576L35.763999938964844,29.597109381817035L38.74433326721191,39.893154043880145L41.724666595458984,47.65081704511866L44.704999923706055,51.90044983849313L47.685333251953125,68.58606106240256L50.665666580200195,85.3453359416079L53.645999908447266,81.21073001604354L56.626333236694336,95.0333939315756L59.606666564941406,105.5928911086885L62.58699989318848,114.22022838698587L65.56733322143555,126.32716995120896L68.54766654968262,128.95524400689203L71.52799987792969,137.46753785150116L74.50833320617676,142.5723519296738L77.48866653442381,150.25743892611644L80.4689998626709,152.5562548405266L83.44933319091797,156.24670472528243L86.42966651916504,158.4608307269324L89.40999984741211,159.7892545175348L92.39033317565918,160.58629014104778L95.37066650390625,161.06450480104263L98.35099983215332,161.35143118000042L101.33133316040039,161.52358613725L104.31166648864746,161.62687879835664L107.29199981689453,161.68885428225354L110.2723331451416,161.7260395319956L113.25266647338867,161.74835066722628L116.23299980163574,161.76173734310345L119.21333312988281,161.7697693467357L122.19366645812988,161.77458854823323L125.17399978637695,161.77748006888623L128.15433311462402,161.77921498118968L131.1346664428711,161.78025592853996L134.11499977111816,161.78088049693866L137.09533309936523,161.78125523797374L140.0756664276123,161.78148008259333L143.05599975585938,161.78161498936453L146.03633308410645,161.78169593342707L149.01666641235352,161.78174449986452L151.9969997406006,161.78177363972696L154.97733306884763,161.7817911236444L157.95766639709473,161.7818016139949L160.9379997253418,161.78180790820517L163.91833305358887,161.78181168473134L166.89866638183594,161.78181395064703L169.878999710083,161.78181531019646L172.85933303833008,161.78181612592613L175.83966636657715,161.7818166153639L178.81999969482422,161.7818169090266L181.8003330230713,161.7818170852242" fill="none"></path></g><g><path style="fill: none;" stroke="rgb(0, 119, 187)" stroke-width="2px" d="M29.803333282470703,28.889606108293947L32.78366661071777,36.11201125147281L35.763999938964844,29.479192661550314L38.74433326721191,37.17412876858117L41.724666595458984,46.11110530004993L44.704999923706055,48.58248908865781L47.685333251953125,64.25577835944681L50.665666580200195,78.07545499434237L53.645999908447266,79.21310132033844L56.626333236694336,96.16490708414243L59.606666564941406,99.3113978222446L62.58699989318848,119.72165647847876L65.56733322143555,120.36838376266049L68.54766654968262,127.69482280973712L71.52799987792969,134.3992664276548L74.50833320617676,143.04355652304807L77.48866653442381,150.54012977306112L80.4689998626709,155.0372615321515L83.44933319091797,157.73524826354844L86.42966651916504,159.35393507969195L89.40999984741211,160.32510929222417L92.39033317565918,160.90780018461956L95.37066650390625,161.25740981155286L98.35099983215332,161.4671738206818L101.33133316040039,161.5930315900346L104.31166648864746,161.66854602264283L107.29199981689453,161.71385459976682L110.2723331451416,161.74103971636256L113.25266647338867,161.7573507756357L116.23299980163574,161.76713740735323L119.21333312988281,161.77300938499906L122.19366645812988,161.77653257108807L125.17399978637695,161.778646482562L128.15433311462402,161.7799148293818L131.1346664428711,161.7806758374504L134.11499977111816,161.7811324422832L137.09533309936523,161.78140640517984L140.0756664276123,161.78157078291676L143.05599975585938,161.7816694095585L146.03633308410645,161.78172858554342L149.01666641235352,161.78176409113433L151.9969997406006,161.78178539448885L154.97733306884763,161.78179817650155L157.95766639709473,161.78180584570916L160.9379997253418,161.78181044723374L163.91833305358887,161.7818132081485L166.89866638183594,161.78181486469734L169.878999710083,161.78181585862663L172.85933303833008,161.7818164549842L175.83966636657715,161.78181681279878L178.81999969482422,161.7818170274875L181.8003330230713,161.78181715630075" fill="none"></path></g><g><path style="fill: none;" stroke="rgb(255, 112, 67)" stroke-width="2px" d="M29.803333282470703,28.889606108293947L32.78366661071777,21.667206991957386L35.763999938964844,22.404186493624394L38.74433326721191,43.97168371423547L41.724666595458984,47.454342827798484L44.704999923706055,68.7563422610009L47.685333251953125,80.8831488070956L50.665666580200195,80.88630577916955L53.645999908447266,76.21876963544588L56.626333236694336,80.4242236693664L59.606666564941406,94.52908177060306L62.58699989318848,100.64296549827581L65.56733322143555,106.61695730590979L68.54766654968262,121.76126250481659L71.52799987792969,135.46475869824837L74.50833320617676,143.68273161664303L77.48866653442381,148.61203135297728L80.4689998626709,151.5690771464411L83.44933319091797,153.34311240764328L86.42966651916504,154.40746437619237L89.40999984741211,155.04605065156312L92.39033317565918,157.74039279413645L95.37066650390625,159.3569753829314L98.35099983215332,160.32691676551923L101.33133316040039,160.90887865365417L104.31166648864746,161.25805472763133L107.29199981689453,161.46755999081364L110.2723331451416,161.59326301148994L113.25266647338867,161.66868477449185L116.23299980163574,161.7139378145076L119.21333312988281,161.74108963211435L122.19366645812988,161.7573807203734L125.17399978637695,161.76715537249902L128.15433311462402,161.77302016347568L131.1346664428711,161.77653903795414L134.11499977111816,161.7786503626025L137.09533309936523,161.77991715737758L140.0756664276123,161.7806772342376L143.05599975585938,161.7811332803518L146.03633308410645,161.7814069080197L149.01666641235352,161.7815710846202L151.9969997406006,161.7816695905804L154.97733306884763,161.7817286941565L157.95766639709473,161.78176415630213L160.9379997253418,161.78178543358953L163.91833305358887,161.78179819996194L166.89866638183594,161.7818058597854L169.878999710083,161.78181045567948L172.85933303833008,161.78181321321594L175.83966636657715,161.7818148677378L178.81999969482422,161.7818158604509L181.8003330230713,161.7818164560788L184.78066635131836,161.78181681345552L187.76099967956543,161.78181702788154L190.7413330078125,161.78181715653716L193.72166633605957,161.78181723373055L196.70199966430664,161.78181728004657L199.6823329925537,161.78181730783618L202.66266632080078,161.78181732450994L205.64299964904785,161.78181733451422L208.62333297729492,161.78181734051677L211.603666305542,161.78181734411828L214.58399963378906,161.7818173462792L217.56433296203613,161.78181734757578L220.5446662902832,161.78181734835368L223.52499961853027,161.78181734882045L226.50533294677734,161.78181734910052L229.4856662750244,161.78181734926855L232.46599960327148,161.78181734936936L235.44633293151855,161.78181734942984" fill="none"></path></g><g><path style="fill: none;" stroke="rgb(187, 187, 187)" stroke-width="2px" d="M29.803333282470703,34.66753504431091L32.78366661071777,31.056329459300343L35.763999938964844,38.79461730172332L38.74433326721191,47.51915983748265L41.724666595458984,51.96922143622179L44.704999923706055,59.25550592931232L47.685333251953125,77.66982483119308L50.665666580200195,83.68156996480833L53.645999908447266,77.88454550696392L56.626333236694336,83.74486323745819L59.606666564941406,94.19704599562053L62.58699989318848,105.07645490737373L65.56733322143555,97.70377683090207L68.54766654968262,111.79018736430798L71.52799987792969,117.92270972489497L74.50833320617676,123.9121981033386L77.48866653442381,134.4394898754461L80.4689998626709,138.44332096727328L83.44933319091797,147.77928841644197L86.42966651916504,148.7579979276515L89.40999984741211,153.9676399800597L92.39033317565918,157.09335206899914L95.37066650390625,158.96875299181562L98.35099983215332,160.09398406667154L101.33133316040039,160.76911929924006L104.31166648864746,161.1741992103446L107.29199981689453,161.41724671477178L110.2723331451416,161.56307505822366L113.25266647338867,161.65057200698124L116.23299980163574,161.70307015560297L119.21333312988281,161.73456903734817L122.19366645812988,161.75346836372128L125.17399978637695,161.76480795858248L128.15433311462402,161.77161171515266L131.1346664428711,161.77569396897002L134.11499977111816,161.7781433212155L137.09533309936523,161.77961293254663L140.0756664276123,161.7804946993395L143.05599975585938,161.78102375941313L146.03633308410645,161.78134119545655L149.01666641235352,161.78153165708233L151.9969997406006,161.78164593405768L154.97733306884763,161.78171450024286L157.95766639709473,161.78175563995396L160.9379997253418,161.78178032378062L163.91833305358887,161.78179513407662L166.89866638183594,161.7818040202542L169.878999710083,161.78180935196076L172.85933303833008,161.78181255098468L175.83966636657715,161.78181447039907L178.81999969482422,161.78181562204767L181.8003330230713,161.78181631303684" fill="none"></path></g><g><path style="fill: none;" stroke="rgb(0, 153, 136)" stroke-width="2px" d="M29.803333282470703,28.889606108293947L32.78366661071777,21.667206991957386L35.763999938964844,28.300027426831633L38.74433326721191,36.53685932187656L41.724666595458984,58.28042866062866L44.704999923706055,70.19151390527269L47.685333251953125,88.86090743697152L50.665666580200195,109.12495387787534L53.645999908447266,95.381667416402L56.626333236694336,103.50147337047059L59.606666564941406,119.93974198998477L62.58699989318848,120.49960910769938L65.56733322143555,125.46313073624397L68.54766654968262,126.12411029923442L71.52799987792969,133.45713447049096L74.50833320617676,137.8547417087229L77.48866653442381,142.8040718761119L80.4689998626709,148.0845374267317L83.44933319091797,148.9411637500143L86.42966651916504,154.0776129865391L89.40999984741211,154.8481427122081L92.39033317565918,157.62164907249638L95.37066650390625,152.35216824190854L98.35099983215332,153.81286588369966L101.33133316040039,154.68928003910256L104.31166648864746,157.52629980270711L107.29199981689453,156.91733727556905L110.2723331451416,158.86313050005006L113.25266647338867,160.03060567000213L116.23299980163574,160.73109049666843L119.21333312988281,161.1513812935585L122.19366645812988,161.40355573601306L125.17399978637695,161.55486038864117L128.15433311462402,161.64564317559396L131.1346664428711,161.70011284610098L134.11499977111816,161.73279464780592L137.09533309936523,161.75240372861316L140.0756664276123,161.76416917701982L143.05599975585938,161.77122844603585L146.03633308410645,161.7754640074354L149.01666641235352,161.77800534427152L151.9969997406006,161.77953014637188L154.97733306884763,161.78044502763163L157.95766639709473,161.7809939563873L160.9379997253418,161.78132331364066L163.91833305358887,161.78152092799266L166.89866638183594,161.78163949660382L169.878999710083,161.78171063777054L172.85933303833008,161.78175332247056L175.83966636657715,161.78177893329058L178.81999969482422,161.78179429978258L181.8003330230713,161.7818035196778" fill="none"></path></g><g><path style="fill: none;" stroke="rgb(238, 51, 119)" stroke-width="2px" d="M29.803333282470703,34.66753504431091L32.78366661071777,16.611525199784893L35.763999938964844,16.980016180586205L38.74433326721191,38.38494493610949L41.724666595458984,41.784679796596976L44.704999923706055,53.34415073219925L47.685333251953125,67.05792136461656L50.665666580200195,75.03629192292799L53.645999908447266,84.40607142190078L56.626333236694336,99.26805277602337L59.606666564941406,108.12751875220913L62.58699989318848,122.68742541204986L65.56733322143555,131.4030588825147L68.54766654968262,131.99918504669546L71.52799987792969,141.60558583063377L74.50833320617676,147.36653474259754L77.48866653442381,153.1336239609186L80.4689998626709,156.5932526761018L83.44933319091797,156.3574952567652L86.42966651916504,158.52730342549185L89.40999984741211,159.82913755337435L92.39033317565918,160.61021975256983L95.37066650390625,161.0788624923635L98.35099983215332,161.36004576757992L101.33133316040039,161.52875488000106L104.31166648864746,161.6299800404805L107.29199981689453,161.6907150262582L110.2723331451416,161.72715597794135L113.25266647338867,161.74902053462918L116.23299980163574,161.76213926348595L119.21333312988281,161.7700104989439L122.19366645812988,161.77473323955044L125.17399978637695,161.7775668836738L128.15433311462402,161.77926707006125L131.1346664428711,161.78028718186252L134.11499977111816,161.78089924893206L137.09533309936523,161.78126648916975L140.0756664276123,161.7814868333109L143.05599975585938,161.7816190397951L146.03633308410645,161.7816983636854L149.01666641235352,161.7817459580195L151.9969997406006,161.78177451461997L154.97733306884763,161.78179164858022L157.95766639709473,161.78180192895638L160.9379997253418,161.78180809718205L163.91833305358887,161.78181179811747L166.89866638183594,161.78181401867872L169.878999710083,161.78181535101547L172.85933303833008,161.7818161504175L175.83966636657715,161.78181663005876L178.81999969482422,161.78181691784349L181.8003330230713,161.78181709051432" fill="none"></path></g><g><path style="fill: none;" stroke="rgb(51, 187, 238)" stroke-width="2px" d="M29.803333282470703,28.889606108293947L32.78366661071777,7.222402732441964L35.763999938964844,21.225021258905713L38.74433326721191,38.023826681989334L41.724666595458984,49.09830381185381L44.704999923706055,72.13481179979149L47.685333251953125,80.49357992419114L50.665666580200195,78.30457686150983L53.645999908447266,77.01494535531084L56.626333236694336,80.89999171862512L59.606666564941406,90.17468152875334L62.58699989318848,102.66654619245183L65.56733322143555,112.45843048230473L68.54766654968262,122.95133221353751L71.52799987792969,119.99278382213167L74.50833320617676,125.15400889950016L77.48866653442381,130.5613718750395L80.4689998626709,138.42801115518404L83.44933319091797,136.21355432092747L86.42966651916504,141.8187266211525L89.40999984741211,149.80413808807694L92.39033317565918,152.28407351139083L95.37066650390625,153.7720138747613L98.35099983215332,156.97595044613828L101.33133316040039,158.89830267279396L104.31166648864746,160.05171051098765L107.29199981689453,160.74375395470062L110.2723331451416,161.15897956761626L113.25266647338867,161.4081147721735L116.23299980163574,161.5575958361587L119.21333312988281,161.64728445340015L122.19366645812988,161.70109761613114L125.17399978637695,161.73338551102873L128.15433311462402,161.75275824698053L131.1346664428711,161.76438188819637L134.11499977111816,161.771356072798L137.09533309936523,161.77554058351294L140.0756664276123,161.77805128992532L143.05599975585938,161.7795577137668L146.03633308410645,161.7804615680695L149.01666641235352,161.7810038806504L151.9969997406006,161.78132926819862L154.97733306884763,161.78152450072747L157.95766639709473,161.78164164024474L160.9379997253418,161.7817119239551L163.91833305358887,161.78175409418128L166.89866638183594,161.781779396317L169.878999710083,161.78179457759845L172.85933303833008,161.7818036863673L175.83966636657715,161.78180915162864L178.81999969482422,161.7818124307854L181.8003330230713,161.7818143982795" fill="none"></path></g><g><path style="fill: none;" stroke="rgb(204, 51, 17)" stroke-width="2px" d="M29.803333282470703,28.889606108293947L32.78366661071777,25.27840655012568L35.763999938964844,35.96461424416839L38.74433326721191,38.02382384582822L41.724666595458984,61.62849431622395L44.704999923706055,69.71053578647451L47.685333251953125,76.68921288276891L50.665666580200195,76.0479527749655L53.645999908447266,87.34364440735425L56.626333236694336,94.04776207629604L59.606666564941406,109.64211566941681L62.58699989318848,118.96244028754573L65.56733322143555,126.85582472984618L68.54766654968262,138.52419667726L71.52799987792969,138.58259671460024L74.50833320617676,138.61761915840003L77.48866653442381,140.9501867339033L80.4689998626709,144.66087799260134L83.44933319091797,151.50967107324612L86.42966651916504,153.3074263899425L89.40999984741211,152.07481788890956L92.39033317565918,149.02407099198874L95.37066650390625,151.81602266129147L98.35099983215332,153.4911795515191L101.33133316040039,156.80744409895533L104.31166648864746,158.79719679333596L107.29199981689453,159.99104623770322L110.2723331451416,160.70735512231133L113.25266647338867,161.13714017155215L116.23299980163574,161.39501109974805L119.21333312988281,161.54973362018015L122.19366645812988,161.64256711930463L125.17399978637695,161.69826721405082L128.15433311462402,161.73168726919624L131.1346664428711,161.75173930167068L134.11499977111816,161.76377052093474L137.09533309936523,161.77098925241376L140.0756664276123,161.77532049127257L143.05599975585938,161.77791923457758L146.03633308410645,161.77947848055686L149.01666641235352,161.7804140281431L151.9969997406006,161.78097535669437L154.97733306884763,161.78131215382496L157.95766639709473,161.78151423210323L160.9379997253418,161.7816354790702L163.91833305358887,161.78170822725036L166.89866638183594,161.78175187615847L169.878999710083,159.47060914285527L172.85933303833008,160.39509242553385L175.83966636657715,160.94978239513304L178.81999969482422,161.28259637688967L181.8003330230713,161.4822847659426" fill="none"></path></g><g><path style="fill: none;" stroke="rgb(0, 119, 187)" stroke-width="2px" d="M29.803333282470703,28.889606108293947L32.78366661071777,28.889606108293947L35.763999938964844,22.993770094957966L38.74433326721191,28.358551781241516L41.724666595458984,36.10699984214011L44.704999923706055,54.89724086012322L47.685333251953125,70.34961287012209L50.665666580200195,86.39141626031473L53.645999908447266,81.83411844692041L56.626333236694336,93.08068258260585L59.606666564941406,102.10452333719824L62.58699989318848,116.76267285268628L65.56733322143555,127.85130665001344L68.54766654968262,139.1211735442065L71.52799987792969,141.25292685801634L74.50833320617676,149.46680027858656L77.48866653442381,152.08208086400222L80.4689998626709,153.6509658715068L83.44933319091797,154.59219489482345L86.42966651916504,157.46814902614202L89.40999984741211,156.88243458410847L92.39033317565918,158.84221348521714L95.37066650390625,157.70687714224812L98.35099983215332,159.33686094864197L101.33133316040039,160.31484628943392L104.31166648864746,160.90163571442412L107.29199981689453,161.25370872880606L110.2723331451416,161.46495230681532L113.25266647338867,161.59169837059784L116.23299980163574,161.6677459789791L119.21333312988281,161.71337453324807L122.19366645812988,161.74075166193592L125.17399978637695,161.7571779377542L128.15433311462402,161.76703370274313L131.1346664428711,161.77294716155578L134.11499977111816,161.7764952367783L137.09533309936523,161.77862408188838L140.0756664276123,161.77990138894603L143.05599975585938,161.78066777317756L146.03633308410645,161.7811276037154L149.01666641235352,161.7814035020377L151.9969997406006,161.78156904103093L154.97733306884763,161.78166836442682L157.95766639709473,161.78172795846436L160.9379997253418,161.78176371488684L163.91833305358887,161.78178516874036L166.89866638183594,161.78179804105244L169.878999710083,161.7818057644397L172.85933303833008,161.78181039847206L175.83966636657715,161.78181317889147L178.81999969482422,161.78181484714312L181.8003330230713,161.7818158480941" fill="none"></path></g><g><path style="fill: none;" stroke="rgb(255, 112, 67)" stroke-width="2px" d="M29.803333282470703,34.66753504431091L32.78366661071777,34.66753504431091L35.763999938964844,37.615453050978914L38.74433326721191,44.22659712978748L41.724666595458984,57.622846371591606L44.704999923706055,67.3855604824136L47.685333251953125,75.3210112394826L50.665666580200195,86.98963297737265L53.645999908447266,89.19470264110254L56.626333236694336,85.85297892915465L59.606666564941406,97.77842809502026L62.58699989318848,118.80321233057023L65.56733322143555,122.13198889794018L68.54766654968262,135.6913770571637L71.52799987792969,143.82020630496478L74.50833320617676,144.07141506482446L77.48866653442381,148.84521510098145L80.4689998626709,154.02038159008148L83.44933319091797,152.50252555662902L86.42966651916504,149.28061794902393L89.40999984741211,154.2812074069067L92.39033317565918,157.28149087419445L95.37066650390625,159.08163568061252L98.35099983215332,160.16171346599617L101.33133316040039,160.809756861812L104.31166648864746,161.19858172015958L107.29199981689453,161.43187621067867L110.2723331451416,161.5718527521742L113.25266647338867,161.6558386220579L116.23299980163574,161.70623012418324L119.21333312988281,161.73646501832866L122.19366645812988,161.75460595224922L125.17399978637695,161.7654905116775L128.15433311462402,161.77202124700187L131.1346664428711,161.77593968807673L134.11499977111816,161.77829075267852L137.09533309936523,161.77970139142408L140.0756664276123,161.78054777466582L143.05599975585938,161.78105560460887L146.03633308410645,161.78136030257397L149.01666641235352,161.78154312135277L151.9969997406006,161.78165281261994L154.97733306884763,161.78171862738023L157.95766639709473,161.78175811623638L160.9379997253418,161.78178180955007L163.91833305358887,161.78179602553828L166.89866638183594,161.7818045551312L169.878999710083,161.78180967288696L172.85933303833008,161.78181274354043L175.83966636657715,161.7818145859325L178.81999969482422,161.78181569136774L181.8003330230713,161.7818163546289" fill="none"></path></g></g></g></g><g opacity="0.2"><g><g><g><path style="fill: none;" stroke="rgb(204, 51, 17)" stroke-width="2px" d="M29.803333282470703,23.111686815224687L32.78366661071777,34.66753504431091L35.763999938964844,28.889606108293947L38.74433326721191,52.00130256646639L41.724666595458984,57.779221859535625L44.704999923706055,57.779221859535625L47.685333251953125,92.44675208237265L50.665666580200195,109.78051960452811L53.645999908447266,75.11298938169108L56.626333236694336,115.55843889759734L59.606666564941406,121.33636301214045L62.58699989318848,127.11428471594664L65.56733322143555,144.44805103273362L68.54766654968262,132.8922064197528L71.52799987792969,150.22597273653977L74.50833320617676,150.22597273653977L77.48866653442381,161.7818173495206L80.4689998626709,156.00389504303018L83.44933319091797,161.7818173495206L86.42966651916504,161.7818173495206L89.40999984741211,161.7818173495206L92.39033317565918,161.7818173495206L95.37066650390625,161.7818173495206L98.35099983215332,161.7818173495206L101.33133316040039,161.7818173495206L104.31166648864746,161.7818173495206L107.29199981689453,161.7818173495206L110.2723331451416,161.7818173495206L113.25266647338867,161.7818173495206L116.23299980163574,161.7818173495206L119.21333312988281,161.7818173495206L122.19366645812988,161.7818173495206L125.17399978637695,161.7818173495206L128.15433311462402,161.7818173495206L131.1346664428711,161.7818173495206L134.11499977111816,161.7818173495206L137.09533309936523,161.7818173495206L140.0756664276123,161.7818173495206L143.05599975585938,161.7818173495206L146.03633308410645,161.7818173495206L149.01666641235352,161.7818173495206L151.9969997406006,161.7818173495206L154.97733306884763,161.7818173495206L157.95766639709473,161.7818173495206L160.9379997253418,161.7818173495206L163.91833305358887,161.7818173495206L166.89866638183594,161.7818173495206L169.878999710083,161.7818173495206L172.85933303833008,161.7818173495206L175.83966636657715,161.7818173495206L178.81999969482422,161.7818173495206L181.8003330230713,161.7818173495206" fill="none"></path></g><g><path style="fill: none;" stroke="rgb(0, 119, 187)" stroke-width="2px" d="M29.803333282470703,28.889606108293947L32.78366661071777,40.44545433738017L35.763999938964844,23.111686815224687L38.74433326721191,46.2233736304494L41.724666595458984,57.779221859535625L44.704999923706055,52.00130256646639L47.685333251953125,86.66883278930342L50.665666580200195,98.22467619691577L53.645999908447266,80.89090867476031L56.626333236694336,121.33636301214045L59.606666564941406,104.002595489985L62.58699989318848,150.22597273653977L65.56733322143555,121.33636301214045L68.54766654968262,138.67012812355898L71.52799987792969,144.44805103273362L74.50833320617676,156.00389504303018L77.48866653442381,161.7818173495206L80.4689998626709,161.7818173495206L83.44933319091797,161.7818173495206L86.42966651916504,161.7818173495206L89.40999984741211,161.7818173495206L92.39033317565918,161.7818173495206L95.37066650390625,161.7818173495206L98.35099983215332,161.7818173495206L101.33133316040039,161.7818173495206L104.31166648864746,161.7818173495206L107.29199981689453,161.7818173495206L110.2723331451416,161.7818173495206L113.25266647338867,161.7818173495206L116.23299980163574,161.7818173495206L119.21333312988281,161.7818173495206L122.19366645812988,161.7818173495206L125.17399978637695,161.7818173495206L128.15433311462402,161.7818173495206L131.1346664428711,161.7818173495206L134.11499977111816,161.7818173495206L137.09533309936523,161.7818173495206L140.0756664276123,161.7818173495206L143.05599975585938,161.7818173495206L146.03633308410645,161.7818173495206L149.01666641235352,161.7818173495206L151.9969997406006,161.7818173495206L154.97733306884763,161.7818173495206L157.95766639709473,161.7818173495206L160.9379997253418,161.7818173495206L163.91833305358887,161.7818173495206L166.89866638183594,161.7818173495206L169.878999710083,161.7818173495206L172.85933303833008,161.7818173495206L175.83966636657715,161.7818173495206L178.81999969482422,161.7818173495206L181.8003330230713,161.7818173495206" fill="none"></path></g><g><path style="fill: none;" stroke="rgb(255, 112, 67)" stroke-width="2px" d="M29.803333282470703,28.889606108293947L32.78366661071777,17.333767522155483L35.763999938964844,23.111686815224687L38.74433326721191,69.33506044567409L41.724666595458984,52.00130256646639L44.704999923706055,98.22467619691577L47.685333251953125,98.22467619691577L50.665666580200195,80.89090867476031L53.645999908447266,69.33506044567409L56.626333236694336,86.66883278930342L59.606666564941406,115.55843889759734L62.58699989318848,109.78051960452811L65.56733322143555,115.55843889759734L68.54766654968262,144.44805103273362L71.52799987792969,156.00389504303018L74.50833320617676,156.00389504303018L77.48866653442381,156.00389504303018L80.4689998626709,156.00389504303018L83.44933319091797,156.00389504303018L86.42966651916504,156.00389504303018L89.40999984741211,156.00389504303018L92.39033317565918,161.7818173495206L95.37066650390625,161.7818173495206L98.35099983215332,161.7818173495206L101.33133316040039,161.7818173495206L104.31166648864746,161.7818173495206L107.29199981689453,161.7818173495206L110.2723331451416,161.7818173495206L113.25266647338867,161.7818173495206L116.23299980163574,161.7818173495206L119.21333312988281,161.7818173495206L122.19366645812988,161.7818173495206L125.17399978637695,161.7818173495206L128.15433311462402,161.7818173495206L131.1346664428711,161.7818173495206L134.11499977111816,161.7818173495206L137.09533309936523,161.7818173495206L140.0756664276123,161.7818173495206L143.05599975585938,161.7818173495206L146.03633308410645,161.7818173495206L149.01666641235352,161.7818173495206L151.9969997406006,161.7818173495206L154.97733306884763,161.7818173495206L157.95766639709473,161.7818173495206L160.9379997253418,161.7818173495206L163.91833305358887,161.7818173495206L166.89866638183594,161.7818173495206L169.878999710083,161.7818173495206L172.85933303833008,161.7818173495206L175.83966636657715,161.7818173495206L178.81999969482422,161.7818173495206L181.8003330230713,161.7818173495206L184.78066635131836,161.7818173495206L187.76099967956543,161.7818173495206L190.7413330078125,161.7818173495206L193.72166633605957,161.7818173495206L196.70199966430664,161.7818173495206L199.6823329925537,161.7818173495206L202.66266632080078,161.7818173495206L205.64299964904785,161.7818173495206L208.62333297729492,161.7818173495206L211.603666305542,161.7818173495206L214.58399963378906,161.7818173495206L217.56433296203613,161.7818173495206L220.5446662902832,161.7818173495206L223.52499961853027,161.7818173495206L226.50533294677734,161.7818173495206L229.4856662750244,161.7818173495206L232.46599960327148,161.7818173495206L235.44633293151855,161.7818173495206" fill="none"></path></g><g><path style="fill: none;" stroke="rgb(187, 187, 187)" stroke-width="2px" d="M29.803333282470703,34.66753504431091L32.78366661071777,28.889606108293947L35.763999938964844,46.2233736304494L38.74433326721191,57.779221859535625L41.724666595458984,57.779221859535625L44.704999923706055,69.33506044567409L47.685333251953125,104.002595489985L50.665666580200195,92.44675208237265L53.645999908447266,69.33506044567409L56.626333236694336,92.44675208237265L59.606666564941406,109.78051960452811L62.58699989318848,121.33636301214045L65.56733322143555,86.66883278930342L68.54766654968262,132.8922064197528L71.52799987792969,127.11428471594664L74.50833320617676,132.8922064197528L77.48866653442381,150.22597273653977L80.4689998626709,144.44805103273362L83.44933319091797,161.7818173495206L86.42966651916504,150.22597273653977L89.40999984741211,161.7818173495206L92.39033317565918,161.7818173495206L95.37066650390625,161.7818173495206L98.35099983215332,161.7818173495206L101.33133316040039,161.7818173495206L104.31166648864746,161.7818173495206L107.29199981689453,161.7818173495206L110.2723331451416,161.7818173495206L113.25266647338867,161.7818173495206L116.23299980163574,161.7818173495206L119.21333312988281,161.7818173495206L122.19366645812988,161.7818173495206L125.17399978637695,161.7818173495206L128.15433311462402,161.7818173495206L131.1346664428711,161.7818173495206L134.11499977111816,161.7818173495206L137.09533309936523,161.7818173495206L140.0756664276123,161.7818173495206L143.05599975585938,161.7818173495206L146.03633308410645,161.7818173495206L149.01666641235352,161.7818173495206L151.9969997406006,161.7818173495206L154.97733306884763,161.7818173495206L157.95766639709473,161.7818173495206L160.9379997253418,161.7818173495206L163.91833305358887,161.7818173495206L166.89866638183594,161.7818173495206L169.878999710083,161.7818173495206L172.85933303833008,161.7818173495206L175.83966636657715,161.7818173495206L178.81999969482422,161.7818173495206L181.8003330230713,161.7818173495206" fill="none"></path></g><g><path style="fill: none;" stroke="rgb(0, 153, 136)" stroke-width="2px" d="M29.803333282470703,28.889606108293947L32.78366661071777,17.333767522155483L35.763999938964844,34.66753504431091L38.74433326721191,46.2233736304494L41.724666595458984,86.66883278930342L44.704999923706055,86.66883278930342L47.685333251953125,115.55843889759734L50.665666580200195,138.67012812355898L53.645999908447266,75.11298938169108L56.626333236694336,115.55843889759734L59.606666564941406,144.44805103273362L62.58699989318848,121.33636301214045L65.56733322143555,132.8922064197528L68.54766654968262,127.11428471594664L71.52799987792969,144.44805103273362L74.50833320617676,144.44805103273362L77.48866653442381,150.22597273653977L80.4689998626709,156.00389504303018L83.44933319091797,150.22597273653977L86.42966651916504,161.7818173495206L89.40999984741211,156.00389504303018L92.39033317565918,161.7818173495206L95.37066650390625,144.44805103273362L98.35099983215332,156.00389504303018L101.33133316040039,156.00389504303018L104.31166648864746,161.7818173495206L107.29199981689453,156.00389504303018L110.2723331451416,161.7818173495206L113.25266647338867,161.7818173495206L116.23299980163574,161.7818173495206L119.21333312988281,161.7818173495206L122.19366645812988,161.7818173495206L125.17399978637695,161.7818173495206L128.15433311462402,161.7818173495206L131.1346664428711,161.7818173495206L134.11499977111816,161.7818173495206L137.09533309936523,161.7818173495206L140.0756664276123,161.7818173495206L143.05599975585938,161.7818173495206L146.03633308410645,161.7818173495206L149.01666641235352,161.7818173495206L151.9969997406006,161.7818173495206L154.97733306884763,161.7818173495206L157.95766639709473,161.7818173495206L160.9379997253418,161.7818173495206L163.91833305358887,161.7818173495206L166.89866638183594,161.7818173495206L169.878999710083,161.7818173495206L172.85933303833008,161.7818173495206L175.83966636657715,161.7818173495206L178.81999969482422,161.7818173495206L181.8003330230713,161.7818173495206" fill="none"></path></g><g><path style="fill: none;" stroke="rgb(238, 51, 119)" stroke-width="2px" d="M29.803333282470703,34.66753504431091L32.78366661071777,5.777919293069232L35.763999938964844,17.333767522155483L38.74433326721191,63.557141152604856L41.724666595458984,46.2233736304494L44.704999923706055,69.33506044567409L47.685333251953125,86.66883278930342L50.665666580200195,86.66883278930342L53.645999908447266,98.22467619691577L56.626333236694336,121.33636301214045L59.606666564941406,121.33636301214045L62.58699989318848,144.44805103273362L65.56733322143555,144.44805103273362L68.54766654968262,132.8922064197528L71.52799987792969,156.00389504303018L74.50833320617676,156.00389504303018L77.48866653442381,161.7818173495206L80.4689998626709,161.7818173495206L83.44933319091797,156.00389504303018L86.42966651916504,161.7818173495206L89.40999984741211,161.7818173495206L92.39033317565918,161.7818173495206L95.37066650390625,161.7818173495206L98.35099983215332,161.7818173495206L101.33133316040039,161.7818173495206L104.31166648864746,161.7818173495206L107.29199981689453,161.7818173495206L110.2723331451416,161.7818173495206L113.25266647338867,161.7818173495206L116.23299980163574,161.7818173495206L119.21333312988281,161.7818173495206L122.19366645812988,161.7818173495206L125.17399978637695,161.7818173495206L128.15433311462402,161.7818173495206L131.1346664428711,161.7818173495206L134.11499977111816,161.7818173495206L137.09533309936523,161.7818173495206L140.0756664276123,161.7818173495206L143.05599975585938,161.7818173495206L146.03633308410645,161.7818173495206L149.01666641235352,161.7818173495206L151.9969997406006,161.7818173495206L154.97733306884763,161.7818173495206L157.95766639709473,161.7818173495206L160.9379997253418,161.7818173495206L163.91833305358887,161.7818173495206L166.89866638183594,161.7818173495206L169.878999710083,161.7818173495206L172.85933303833008,161.7818173495206L175.83966636657715,161.7818173495206L178.81999969482422,161.7818173495206L181.8003330230713,161.7818173495206" fill="none"></path></g><g><path style="fill: none;" stroke="rgb(51, 187, 238)" stroke-width="2px" d="M29.803333282470703,28.889606108293947L32.78366661071777,-5.77791929306926L35.763999938964844,34.66753504431091L38.74433326721191,57.779221859535625L41.724666595458984,63.557141152604856L44.704999923706055,104.002595489985L47.685333251953125,92.44675208237265L50.665666580200195,75.11298938169108L53.645999908447266,75.11298938169108L56.626333236694336,86.66883278930342L59.606666564941406,104.002595489985L62.58699989318848,121.33636301214045L65.56733322143555,127.11428471594664L68.54766654968262,138.67012812355898L71.52799987792969,115.55843889759734L74.50833320617676,132.8922064197528L77.48866653442381,138.67012812355898L80.4689998626709,150.22597273653977L83.44933319091797,132.8922064197528L86.42966651916504,150.22597273653977L89.40999984741211,161.7818173495206L92.39033317565918,156.00389504303018L95.37066650390625,156.00389504303018L98.35099983215332,161.7818173495206L101.33133316040039,161.7818173495206L104.31166648864746,161.7818173495206L107.29199981689453,161.7818173495206L110.2723331451416,161.7818173495206L113.25266647338867,161.7818173495206L116.23299980163574,161.7818173495206L119.21333312988281,161.7818173495206L122.19366645812988,161.7818173495206L125.17399978637695,161.7818173495206L128.15433311462402,161.7818173495206L131.1346664428711,161.7818173495206L134.11499977111816,161.7818173495206L137.09533309936523,161.7818173495206L140.0756664276123,161.7818173495206L143.05599975585938,161.7818173495206L146.03633308410645,161.7818173495206L149.01666641235352,161.7818173495206L151.9969997406006,161.7818173495206L154.97733306884763,161.7818173495206L157.95766639709473,161.7818173495206L160.9379997253418,161.7818173495206L163.91833305358887,161.7818173495206L166.89866638183594,161.7818173495206L169.878999710083,161.7818173495206L172.85933303833008,161.7818173495206L175.83966636657715,161.7818173495206L178.81999969482422,161.7818173495206L181.8003330230713,161.7818173495206" fill="none"></path></g><g><path style="fill: none;" stroke="rgb(204, 51, 17)" stroke-width="2px" d="M29.803333282470703,28.889606108293947L32.78366661071777,23.111686815224687L35.763999938964844,46.2233736304494L38.74433326721191,40.44545433738017L41.724666595458984,92.44675208237265L44.704999923706055,80.89090867476031L47.685333251953125,86.66883278930342L50.665666580200195,75.11298938169108L53.645999908447266,104.002595489985L56.626333236694336,104.002595489985L59.606666564941406,132.8922064197528L62.58699989318848,132.8922064197528L65.56733322143555,138.67012812355898L68.54766654968262,156.00389504303018L71.52799987792969,138.67012812355898L74.50833320617676,138.67012812355898L77.48866653442381,144.44805103273362L80.4689998626709,150.22597273653977L83.44933319091797,161.7818173495206L86.42966651916504,156.00389504303018L89.40999984741211,150.22597273653977L92.39033317565918,144.44805103273362L95.37066650390625,156.00389504303018L98.35099983215332,156.00389504303018L101.33133316040039,161.7818173495206L104.31166648864746,161.7818173495206L107.29199981689453,161.7818173495206L110.2723331451416,161.7818173495206L113.25266647338867,161.7818173495206L116.23299980163574,161.7818173495206L119.21333312988281,161.7818173495206L122.19366645812988,161.7818173495206L125.17399978637695,161.7818173495206L128.15433311462402,161.7818173495206L131.1346664428711,161.7818173495206L134.11499977111816,161.7818173495206L137.09533309936523,161.7818173495206L140.0756664276123,161.7818173495206L143.05599975585938,161.7818173495206L146.03633308410645,161.7818173495206L149.01666641235352,161.7818173495206L151.9969997406006,161.7818173495206L154.97733306884763,161.7818173495206L157.95766639709473,161.7818173495206L160.9379997253418,161.7818173495206L163.91833305358887,161.7818173495206L166.89866638183594,161.7818173495206L169.878999710083,156.00389504303018L172.85933303833008,161.7818173495206L175.83966636657715,161.7818173495206L178.81999969482422,161.7818173495206L181.8003330230713,161.7818173495206" fill="none"></path></g><g><path style="fill: none;" stroke="rgb(0, 119, 187)" stroke-width="2px" d="M29.803333282470703,28.889606108293947L32.78366661071777,28.889606108293947L35.763999938964844,17.333767522155483L38.74433326721191,34.66753504431091L41.724666595458984,46.2233736304494L44.704999923706055,80.89090867476031L47.685333251953125,92.44675208237265L50.665666580200195,109.78051960452811L53.645999908447266,75.11298938169108L56.626333236694336,109.78051960452811L59.606666564941406,115.55843889759734L62.58699989318848,138.67012812355898L65.56733322143555,144.44805103273362L68.54766654968262,156.00389504303018L71.52799987792969,144.44805103273362L74.50833320617676,161.7818173495206L77.48866653442381,156.00389504303018L80.4689998626709,156.00389504303018L83.44933319091797,156.00389504303018L86.42966651916504,161.7818173495206L89.40999984741211,156.00389504303018L92.39033317565918,161.7818173495206L95.37066650390625,156.00389504303018L98.35099983215332,161.7818173495206L101.33133316040039,161.7818173495206L104.31166648864746,161.7818173495206L107.29199981689453,161.7818173495206L110.2723331451416,161.7818173495206L113.25266647338867,161.7818173495206L116.23299980163574,161.7818173495206L119.21333312988281,161.7818173495206L122.19366645812988,161.7818173495206L125.17399978637695,161.7818173495206L128.15433311462402,161.7818173495206L131.1346664428711,161.7818173495206L134.11499977111816,161.7818173495206L137.09533309936523,161.7818173495206L140.0756664276123,161.7818173495206L143.05599975585938,161.7818173495206L146.03633308410645,161.7818173495206L149.01666641235352,161.7818173495206L151.9969997406006,161.7818173495206L154.97733306884763,161.7818173495206L157.95766639709473,161.7818173495206L160.9379997253418,161.7818173495206L163.91833305358887,161.7818173495206L166.89866638183594,161.7818173495206L169.878999710083,161.7818173495206L172.85933303833008,161.7818173495206L175.83966636657715,161.7818173495206L178.81999969482422,161.7818173495206L181.8003330230713,161.7818173495206" fill="none"></path></g><g><path style="fill: none;" stroke="rgb(255, 112, 67)" stroke-width="2px" d="M29.803333282470703,34.66753504431091L32.78366661071777,34.66753504431091L35.763999938964844,40.44545433738017L38.74433326721191,52.00130256646639L41.724666595458984,75.11298938169108L44.704999923706055,80.89090867476031L47.685333251953125,86.66883278930342L50.665666580200195,104.002595489985L53.645999908447266,92.44675208237265L56.626333236694336,80.89090867476031L59.606666564941406,115.55843889759734L62.58699989318848,150.22597273653977L65.56733322143555,127.11428471594664L68.54766654968262,156.00389504303018L71.52799987792969,156.00389504303018L74.50833320617676,144.44805103273362L77.48866653442381,156.00389504303018L80.4689998626709,161.7818173495206L83.44933319091797,150.22597273653977L86.42966651916504,144.44805103273362L89.40999984741211,161.7818173495206L92.39033317565918,161.7818173495206L95.37066650390625,161.7818173495206L98.35099983215332,161.7818173495206L101.33133316040039,161.7818173495206L104.31166648864746,161.7818173495206L107.29199981689453,161.7818173495206L110.2723331451416,161.7818173495206L113.25266647338867,161.7818173495206L116.23299980163574,161.7818173495206L119.21333312988281,161.7818173495206L122.19366645812988,161.7818173495206L125.17399978637695,161.7818173495206L128.15433311462402,161.7818173495206L131.1346664428711,161.7818173495206L134.11499977111816,161.7818173495206L137.09533309936523,161.7818173495206L140.0756664276123,161.7818173495206L143.05599975585938,161.7818173495206L146.03633308410645,161.7818173495206L149.01666641235352,161.7818173495206L151.9969997406006,161.7818173495206L154.97733306884763,161.7818173495206L157.95766639709473,161.7818173495206L160.9379997253418,161.7818173495206L163.91833305358887,161.7818173495206L166.89866638183594,161.7818173495206L169.878999710083,161.7818173495206L172.85933303833008,161.7818173495206L175.83966636657715,161.7818173495206L178.81999969482422,161.7818173495206L181.8003330230713,161.7818173495206" fill="none"></path></g></g></g></g></g></g><g transform="translate(61, 177)" clip-path="url(#clip_1)"><clipPath id="clip_1"><rect width="268" height="22"></rect></clipPath><g><g><line x1="0" y1="0" x2="0" y2="5" style="visibility: inherit;" fill="rgb(0, 0, 0)" stroke="rgb(204, 204, 204)" stroke-width="1px"></line><line x1="29.803333282470703" y1="0" x2="29.803333282470703" y2="5" style="visibility: inherit;" fill="rgb(0, 0, 0)" stroke="rgb(204, 204, 204)" stroke-width="1px"></line><line x1="59.606666564941406" y1="0" x2="59.606666564941406" y2="5" style="visibility: inherit;" fill="rgb(0, 0, 0)" stroke="rgb(204, 204, 204)" stroke-width="1px"></line><line x1="89.40999984741211" y1="0" x2="89.40999984741211" y2="5" style="visibility: inherit;" fill="rgb(0, 0, 0)" stroke="rgb(204, 204, 204)" stroke-width="1px"></line><line x1="119.21333312988281" y1="0" x2="119.21333312988281" y2="5" style="visibility: inherit;" fill="rgb(0, 0, 0)" stroke="rgb(204, 204, 204)" stroke-width="1px"></line><line x1="149.01666641235352" y1="0" x2="149.01666641235352" y2="5" style="visibility: inherit;" fill="rgb(0, 0, 0)" stroke="rgb(204, 204, 204)" stroke-width="1px"></line><line x1="178.81999969482422" y1="0" x2="178.81999969482422" y2="5" style="visibility: inherit;" fill="rgb(0, 0, 0)" stroke="rgb(204, 204, 204)" stroke-width="1px"></line><line x1="208.62333297729492" y1="0" x2="208.62333297729492" y2="5" style="visibility: inherit;" fill="rgb(0, 0, 0)" stroke="rgb(204, 204, 204)" stroke-width="1px"></line><line x1="238.42666625976562" y1="0" x2="238.42666625976562" y2="5" style="visibility: inherit;" fill="rgb(0, 0, 0)" stroke="rgb(204, 204, 204)" stroke-width="1px"></line><line x1="268.2299995422363" y1="0" x2="268.2299995422363" y2="5" style="visibility: inherit;" fill="rgb(0, 0, 0)" stroke="rgb(204, 204, 204)" stroke-width="1px"></line></g><g transform="translate(0, 8)"><text style="text-anchor: middle; visibility: hidden; font-family: &quot;Helvetica Neue&quot;, sans-serif; font-size: 12px; font-weight: 200;" x="0" y="0" dx="0em" dy="0.95em" fill="rgb(50, 49, 63)" stroke="none" stroke-width="1px">-10</text><text style="text-anchor: middle; visibility: inherit; font-family: &quot;Helvetica Neue&quot;, sans-serif; font-size: 12px; font-weight: 200;" x="29.803333282470703" y="0" dx="0em" dy="0.95em" fill="rgb(50, 49, 63)" stroke="none" stroke-width="1px">0</text><text style="text-anchor: middle; visibility: inherit; font-family: &quot;Helvetica Neue&quot;, sans-serif; font-size: 12px; font-weight: 200;" x="59.606666564941406" y="0" dx="0em" dy="0.95em" fill="rgb(50, 49, 63)" stroke="none" stroke-width="1px">10</text><text style="text-anchor: middle; visibility: inherit; font-family: &quot;Helvetica Neue&quot;, sans-serif; font-size: 12px; font-weight: 200;" x="89.40999984741211" y="0" dx="0em" dy="0.95em" fill="rgb(50, 49, 63)" stroke="none" stroke-width="1px">20</text><text style="text-anchor: middle; visibility: inherit; font-family: &quot;Helvetica Neue&quot;, sans-serif; font-size: 12px; font-weight: 200;" x="119.21333312988281" y="0" dx="0em" dy="0.95em" fill="rgb(50, 49, 63)" stroke="none" stroke-width="1px">30</text><text style="text-anchor: middle; visibility: inherit; font-family: &quot;Helvetica Neue&quot;, sans-serif; font-size: 12px; font-weight: 200;" x="149.01666641235352" y="0" dx="0em" dy="0.95em" fill="rgb(50, 49, 63)" stroke="none" stroke-width="1px">40</text><text style="text-anchor: middle; visibility: inherit; font-family: &quot;Helvetica Neue&quot;, sans-serif; font-size: 12px; font-weight: 200;" x="178.81999969482422" y="0" dx="0em" dy="0.95em" fill="rgb(50, 49, 63)" stroke="none" stroke-width="1px">50</text><text style="text-anchor: middle; visibility: inherit; font-family: &quot;Helvetica Neue&quot;, sans-serif; font-size: 12px; font-weight: 200;" x="208.62333297729492" y="0" dx="0em" dy="0.95em" fill="rgb(50, 49, 63)" stroke="none" stroke-width="1px">60</text><text style="text-anchor: middle; visibility: inherit; font-family: &quot;Helvetica Neue&quot;, sans-serif; font-size: 12px; font-weight: 200;" x="238.42666625976562" y="0" dx="0em" dy="0.95em" fill="rgb(50, 49, 63)" stroke="none" stroke-width="1px">70</text><text style="text-anchor: middle; visibility: hidden; font-family: &quot;Helvetica Neue&quot;, sans-serif; font-size: 12px; font-weight: 200;" x="268.2299995422363" y="0" dx="0em" dy="0.95em" fill="rgb(50, 49, 63)" stroke="none" stroke-width="1px">80</text></g><line x1="0" y1="0" x2="268.2299995422363" y2="0" fill="rgb(0, 0, 0)" stroke="rgb(204, 204, 204)" stroke-width="1px"></line></g></g></g></g></svg>